<?xml version="1.0" encoding="UTF-8" standalone="no"?><!DOCTYPE svg PUBLIC "-//W3C//DTD SVG 1.1//EN" "http://www.w3.org/Graphics/SVG/1.1/DTD/svg11.dtd"><svg width="100%" height="100%" viewBox="0 0 750 750" version="1.1" xmlns="http://www.w3.org/2000/svg" xmlns:xlink="http://www.w3.org/1999/xlink" xml:space="preserve" xmlns:serif="http://www.serif.com/" style="fill-rule:evenodd;clip-rule:evenodd;stroke-linejoin:round;stroke-miterlimit:2;"><g id="apron"><path d="M508.927,647.872l-267.854,0c-8.206,0 -14.859,4.822 -14.859,10.772c0,5.95 6.653,10.771 14.859,10.771l267.854,-0c8.206,-0 14.859,-4.821 14.859,-10.771c-0,-5.95 -6.653,-10.772 -14.859,-10.772Z" style="fill-rule:nonzero;"/><path d="M508.927,645.789l-267.854,0c-5.533,0 -10.418,2.006 -13.456,5.011c-2.217,2.193 -3.486,4.916 -3.486,7.844c0,2.927 1.269,5.65 3.486,7.843c3.038,3.005 7.923,5.011 13.456,5.011l267.854,0c5.533,0 10.418,-2.006 13.456,-5.011c2.217,-2.193 3.486,-4.916 3.486,-7.843c-0,-2.928 -1.269,-5.651 -3.486,-7.844c-3.038,-3.005 -7.923,-5.011 -13.456,-5.011Zm-0,4.167c4.313,-0 8.158,1.464 10.527,3.807c1.388,1.373 2.248,3.048 2.248,4.881c0,1.832 -0.86,3.508 -2.248,4.88c-2.369,2.343 -6.214,3.808 -10.527,3.808c-0,-0 -267.854,-0 -267.854,-0c-4.313,-0 -8.158,-1.465 -10.527,-3.808c-1.388,-1.372 -2.248,-3.048 -2.248,-4.88c-0,-1.833 0.86,-3.508 2.248,-4.881c2.369,-2.343 6.214,-3.807 10.527,-3.807c0,-0 267.854,-0 267.854,-0Z"/><path d="M334.483,339.956l81.032,0c14.382,0 26.084,-11.7 26.084,-26.082l-0,-77.545c-0,-5.95 -4.823,-10.771 -10.771,-10.771l-111.656,-0c-5.948,-0 -10.771,4.821 -10.771,10.771l0,77.545c-0.001,14.38 11.701,26.082 26.082,26.082Zm85.573,-26.082c0,2.503 -2.036,4.539 -4.541,4.539l-81.032,0c-2.503,0 -4.541,-2.036 -4.541,-4.539l0,-66.774l90.113,0l-0,66.774l0.001,-0Z" style="fill-rule:nonzero;"/><path d="M334.483,342.039l81.032,0c15.531,0 28.167,-12.635 28.167,-28.165c0,-0 0,-77.545 0,-77.545c0,-7.101 -5.755,-12.854 -12.854,-12.854l-111.656,-0c-7.099,-0 -12.854,5.753 -12.854,12.854c-0,0 -0,77.545 -0,77.545c-0.002,15.529 12.635,28.165 28.165,28.165Zm0,-4.166c-13.233,-0 -24,-10.767 -23.998,-23.999c-0,-0 -0,-77.545 -0,-77.545c-0,-4.799 3.889,-8.688 8.687,-8.688c0,0 111.656,0 111.656,0c4.798,0 8.687,3.889 8.687,8.688l0,77.545c0,13.233 -10.767,23.999 -24,23.999c0,-0 -81.032,-0 -81.032,-0Zm87.655,-24.056l0.002,0.057c-0,3.652 -2.971,6.623 -6.625,6.623c0,-0 -81.032,-0 -81.032,-0c-3.651,-0 -6.624,-2.971 -6.624,-6.623l-0,-66.774c-0,-1.15 0.933,-2.083 2.083,-2.083l90.113,0c1.15,0 2.083,0.933 2.083,2.083l0,66.717Zm-4.167,-64.633l-85.945,-0l-0,64.69c-0,1.354 1.103,2.456 2.457,2.456l81.032,0c1.346,0 2.442,-1.086 2.457,-2.428l-0.001,-0.028l0,-64.69Z"/><path d="M583.584,360.745l-25.33,-0c-40.746,-0 -73.894,-33.149 -73.894,-73.894l0,-122.332c0,-5.95 -4.823,-10.771 -10.771,-10.771l-31.989,-0l-0,-49.65c-0,-36.721 -29.877,-66.598 -66.6,-66.598c-36.723,0 -66.6,29.877 -66.6,66.598l0,49.65l-31.989,-0c-5.948,-0 -10.771,4.821 -10.771,10.771l-0,122.332c-0,40.745 -33.15,73.894 -73.894,73.894l-25.33,-0c-29.509,-0 -53.517,24.008 -53.517,53.517l-0,219.293c-0,5.95 4.823,10.771 10.771,10.771c5.949,0 10.771,-4.821 10.771,-10.771l0,-219.293c0,-17.63 14.345,-31.975 31.975,-31.975l14.559,0l-0,319.442c-0,5.95 4.823,10.771 10.771,10.771l366.508,0c5.948,0 10.771,-4.821 10.771,-10.771l0,-319.442l14.559,0c17.63,0 31.975,14.343 31.975,31.975l-0,219.293c-0,5.95 4.822,10.771 10.771,10.771c5.948,0 10.771,-4.821 10.771,-10.771l0,-219.293c0,-29.509 -24.007,-53.517 -53.517,-53.517Zm-381.067,330.212l0,-309.274c47.571,-5.369 84.666,-45.852 84.666,-94.832l-0,-111.561l175.633,0l0,111.561c0,48.98 37.095,89.463 84.665,94.832l0,309.274l-344.964,0Zm127.426,-586.859c0,-24.844 20.213,-45.055 45.057,-45.055c24.844,-0 45.057,20.211 45.057,45.055l-0,49.65l-90.113,-0l0,-49.65l-0.001,0Z" style="fill-rule:nonzero;"/><path d="M571.108,384.37l0,317.359c0,7.101 -5.755,12.854 -12.854,12.854c-0,0 -366.508,0 -366.508,0c-7.099,0 -12.854,-5.753 -12.854,-12.854l-0,-317.359l-12.476,0c-16.481,0 -29.891,13.41 -29.891,29.892c-0,0 -0,219.293 -0,219.293c-0,7.101 -5.756,12.855 -12.855,12.855c-7.099,-0 -12.854,-5.754 -12.854,-12.855l-0,-219.293c-0,-30.658 24.943,-55.601 55.6,-55.601c0,0 25.33,0 25.33,0c39.596,0 71.811,-32.213 71.811,-71.81c-0,-0 -0,-122.332 -0,-122.332c-0,-7.101 5.755,-12.854 12.854,-12.854l29.906,-0l0,-47.567c0,-37.87 30.811,-68.681 68.683,-68.681c37.872,-0 68.683,30.811 68.683,68.681l-0,47.567l29.906,-0c7.099,-0 12.854,5.753 12.854,12.854l0,122.332c0,39.597 32.214,71.81 71.811,71.81l25.33,0c30.659,0 55.6,24.943 55.6,55.601l0,219.293c0,7.101 -5.755,12.855 -12.854,12.855c-7.099,-0 -12.855,-5.754 -12.855,-12.855c0,0 0,-219.293 0,-219.293c0,-16.483 -13.41,-29.892 -29.891,-29.892l-12.476,0Zm12.476,-21.542c28.361,-0 51.434,23.074 51.434,51.434c-0,0 -0,219.293 -0,219.293c-0,4.799 -3.89,8.688 -8.688,8.688c-4.798,0 -8.688,-3.889 -8.688,-8.688l-0,-219.293c-0,-18.781 -15.279,-34.058 -34.058,-34.058l-14.559,-0c-1.15,-0 -2.083,0.933 -2.083,2.083l-0,319.442c-0,4.799 -3.89,8.688 -8.688,8.688l-366.508,-0c-4.798,-0 -8.688,-3.889 -8.688,-8.688c0,-0 0,-319.442 0,-319.442c0,-1.15 -0.933,-2.083 -2.083,-2.083l-14.559,-0c-18.779,-0 -34.058,15.279 -34.058,34.058l0,219.293c0,4.799 -3.89,8.688 -8.688,8.688c-4.798,0 -8.688,-3.889 -8.688,-8.688c0,0 0,-219.293 0,-219.293c0,-28.36 23.074,-51.434 51.434,-51.434l25.33,-0c41.893,-0 75.977,-34.083 75.977,-75.977l0,-122.332c0,-4.799 3.89,-8.688 8.688,-8.688c0,0 31.989,0 31.989,0c1.151,0 2.084,-0.932 2.084,-2.083l-0,-49.65c-0,-35.573 28.942,-64.515 64.516,-64.515c35.574,0 64.516,28.942 64.516,64.515l0,49.65c0,1.151 0.933,2.083 2.084,2.083l31.989,0c4.798,0 8.688,3.889 8.688,8.688c-0,0 -0,122.332 -0,122.332c-0,41.894 34.083,75.977 75.977,75.977l25.33,-0Zm-383.15,328.129c0,1.151 0.933,2.084 2.083,2.084l344.964,-0c1.151,-0 2.084,-0.933 2.084,-2.084l-0,-309.274c-0,-1.061 -0.797,-1.952 -1.85,-2.071c-46.532,-5.251 -82.816,-44.85 -82.816,-92.761l0,-111.561c0,-1.15 -0.932,-2.083 -2.083,-2.083l-175.634,0c-1.15,0 -2.083,0.933 -2.083,2.083l0,111.561c0,47.911 -36.284,87.51 -82.815,92.761c-1.054,0.119 -1.85,1.01 -1.85,2.071l0,309.274Zm260.299,-513.583l-171.467,-0l-0,109.477c-0,49.414 -36.949,90.364 -84.665,96.675l-0,305.348l340.797,0l-0,-305.348c-47.716,-6.311 -84.665,-47.261 -84.665,-96.675l-0,-109.477Zm-132.872,-73.219l-0.001,-0.057c-0,-25.993 21.147,-47.139 47.14,-47.139c25.993,0 47.14,21.146 47.14,47.139l0,49.65c0,1.151 -0.932,2.083 -2.083,2.083l-90.113,0c-1.15,0 -2.083,-0.932 -2.083,-2.083l0,-49.593Zm90.113,47.51l-0,-47.567c-0,-23.695 -19.278,-42.972 -42.974,-42.972c-23.681,-0 -42.95,19.253 -42.973,42.927l0.001,0.045l-0,47.567l85.946,-0Z"/></g></svg>