<?xml version="1.0" encoding="UTF-8" standalone="no"?><!DOCTYPE svg PUBLIC "-//W3C//DTD SVG 1.1//EN" "http://www.w3.org/Graphics/SVG/1.1/DTD/svg11.dtd"><svg width="100%" height="100%" viewBox="0 0 13021 13021" version="1.1" xmlns="http://www.w3.org/2000/svg" xmlns:xlink="http://www.w3.org/1999/xlink" xml:space="preserve" xmlns:serif="http://www.serif.com/" style="fill-rule:evenodd;clip-rule:evenodd;stroke-linejoin:round;stroke-miterlimit:2;"><path d="M4093.45,4383.83l0,-1503.75c0,-869.879 712.084,-1581.96 1581.98,-1581.96l1669.13,-0c869.862,-0 1581.96,712.083 1581.96,1581.96l0,1503.75l879.9,0c34.917,-0.383 70.442,7.038 104.021,23.159l2561.1,1229.53c97.987,47.029 150.954,155.121 128.092,261.387l-1213.37,5639.17c-24.017,111.554 -123.709,187.525 -233.671,185.642l-9284.38,-0c-109.963,1.883 -209.654,-74.088 -233.671,-185.642l-1213.37,-5639.17c-22.862,-106.266 30.109,-214.358 128.092,-261.387c-0,-0 2114.69,-1019.69 2558.88,-1228.47c32.875,-15.454 69.925,-24.225 106.25,-24.225l879.058,0Zm4833.08,470.209l-0,1004.62c-0,129.759 -105.35,235.104 -235.105,235.104c-129.758,0 -235.104,-105.345 -235.104,-235.104l0,-1004.62l-3892.66,-0l-0,1004.62c-0,129.759 -105.346,235.104 -235.104,235.104c-129.755,0 -235.104,-105.345 -235.104,-235.104l-0,-1004.62l-687.846,-0l-1254.67,6398.46l8718.92,0l-1255.45,-6398.46l-687.879,-0l0.009,-0Zm1202.23,179.333l1037.83,5289.33l934.383,-4342.54l-1972.21,-946.813l-0,0.021Zm-8274.58,5289.04l1037.03,-5288.62l-1971.34,946.387l934.316,4342.21l0,0.029Zm6602.12,-5938.58l0,-1503.75c0,-611.337 -500.433,-1111.77 -1111.75,-1111.77l-1669.13,-0c-611.338,-0 -1111.77,500.433 -1111.77,1111.77l0,1503.75l3892.66,0Z"/></svg>