<?xml version="1.0" encoding="UTF-8" standalone="no"?><!DOCTYPE svg PUBLIC "-//W3C//DTD SVG 1.1//EN" "http://www.w3.org/Graphics/SVG/1.1/DTD/svg11.dtd"><svg width="100%" height="100%" viewBox="0 0 750 750" version="1.1" xmlns="http://www.w3.org/2000/svg" xmlns:xlink="http://www.w3.org/1999/xlink" xml:space="preserve" xmlns:serif="http://www.serif.com/" style="fill-rule:evenodd;clip-rule:evenodd;stroke-linejoin:round;stroke-miterlimit:2;"><g id="bikini-top"><path d="M670.75,349.562l-0,-280.875c-0,-7.474 -6.068,-13.542 -13.542,-13.542c-7.474,0 -13.542,6.068 -13.542,13.542l0,280.875c0,7.473 6.068,13.541 13.542,13.541c7.474,0 13.542,-6.068 13.542,-13.541Z" style="fill:#1c1d20;"/><path d="M106.334,349.562l-0,-280.875c-0,-7.474 -6.068,-13.542 -13.542,-13.542c-7.474,0 -13.542,6.068 -13.542,13.542l0,280.875c0,7.473 6.068,13.541 13.542,13.541c7.474,0 13.542,-6.068 13.542,-13.541Z" style="fill:#1c1d20;"/><path d="M650.99,366.005c-23.528,9.562 -78.202,35.494 -110.908,58.751c-41.52,29.467 -137.612,125.444 -137.612,125.444c-5.291,5.278 -13.873,5.268 -19.151,-0.024c-5.278,-5.291 -5.268,-13.872 0.024,-19.151c-0,0 98.538,-98.174 141.054,-128.348c34.439,-24.49 92.057,-51.895 116.636,-61.862c8.634,-3.501 14.582,-4.795 16.175,-4.795c4.749,-0 9.151,2.487 11.6,6.555c0,0 57.234,95.623 57.234,177.278c-0,90.054 -48.471,168.576 -48.471,168.576c-3.927,6.359 -12.278,8.333 -18.637,4.405c-6.359,-3.927 -8.333,-12.278 -4.405,-18.637c-0,0 44.429,-71.886 44.429,-154.344c0,-60.484 -34.418,-129.16 -47.968,-153.848Z" style="fill:#1c1d20;"/><path d="M99.01,366.005c-13.55,24.688 -47.968,93.364 -47.968,153.848c-0,82.458 44.429,154.344 44.429,154.344c3.928,6.359 1.954,14.71 -4.405,18.637c-6.359,3.928 -14.71,1.954 -18.637,-4.405c-0,0 -48.471,-78.522 -48.471,-168.576c0,-81.655 57.234,-177.278 57.234,-177.278c2.449,-4.068 6.851,-6.555 11.6,-6.555c1.593,-0 7.541,1.294 16.175,4.795c24.579,9.967 82.197,37.372 116.626,61.855c42.526,30.181 141.064,128.355 141.064,128.355c5.292,5.279 5.302,13.86 0.024,19.151c-5.278,5.292 -13.86,5.302 -19.151,0.024c0,-0 -96.092,-95.977 -137.622,-125.451c-32.696,-23.25 -87.37,-49.182 -110.898,-58.744Z" style="fill:#1c1d20;"/><path d="M375,551.147c-25.283,2.144 -37.551,14.165 -56.24,31.043c-22.065,19.926 -51.399,46.383 -110.612,74.835c-55.005,26.465 -121.974,37.646 -121.974,37.646c-7.372,1.227 -14.354,-3.761 -15.582,-11.134c-1.228,-7.372 3.761,-14.354 11.134,-15.582c-0,0 62.971,-10.456 114.685,-35.338c67.355,-32.365 93.845,-62.109 116.667,-81.589c17.845,-15.231 33.85,-24.924 60.687,-26.959c0.341,-0.026 0.683,-0.039 1.024,-0.039l0.422,0l1.024,0.039c26.837,2.035 42.842,11.728 60.687,26.959c22.822,19.48 49.312,49.224 116.673,81.592c51.708,24.879 114.679,35.335 114.679,35.335c7.373,1.228 12.362,8.21 11.134,15.582c-1.228,7.373 -8.21,12.361 -15.582,11.134c-0,-0 -66.969,-11.181 -121.967,-37.643c-59.22,-28.455 -88.554,-54.912 -110.619,-74.838c-18.689,-16.878 -30.957,-28.899 -56.24,-31.043Z" style="fill:#1c1d20;"/></g></svg>