<?xml version="1.0" encoding="UTF-8" standalone="no"?><!DOCTYPE svg PUBLIC "-//W3C//DTD SVG 1.1//EN" "http://www.w3.org/Graphics/SVG/1.1/DTD/svg11.dtd"><svg width="100%" height="100%" viewBox="0 0 3125 3125" version="1.1" xmlns="http://www.w3.org/2000/svg" xmlns:xlink="http://www.w3.org/1999/xlink" xml:space="preserve" xmlns:serif="http://www.serif.com/" style="fill-rule:evenodd;clip-rule:evenodd;stroke-linejoin:round;stroke-miterlimit:2;"><path d="M2681.94,1415.76l-0,-1129.57c-0,-31.142 25.283,-56.425 56.425,-56.425c31.141,-0 56.425,25.283 56.425,56.425l-0,1155.18c41.699,73.364 230.383,422.046 230.383,724.68c0,361.229 -187.177,677.926 -201.142,701.05c-1.23,2.121 -2.592,4.147 -4.072,6.069c-5.878,7.671 -13.44,13.468 -21.836,17.187c-8.227,3.67 -17.408,5.407 -26.87,4.733c-2.183,-0.151 -4.365,-0.429 -6.537,-0.839c-20.188,-3.473 -286.636,-50.624 -506.972,-156.637c-246.75,-118.563 -368.975,-228.8 -460.913,-311.825c-77.871,-70.325 -128.987,-120.413 -234.333,-129.346c-105.346,8.933 -156.463,59.021 -234.333,129.346c-91.938,83.025 -214.163,193.262 -460.884,311.812c-220.363,106.026 -486.813,153.177 -507.001,156.65c-2.171,0.409 -4.354,0.688 -6.537,0.839c-9.463,0.673 -18.643,-1.064 -26.87,-4.733c-8.398,-3.722 -15.959,-9.518 -21.836,-17.187c-1.48,-1.923 -2.842,-3.948 -4.072,-6.069c-13.965,-23.124 -201.142,-339.821 -201.142,-701.05c-0,-302.634 188.684,-651.316 230.383,-724.68l0,-1155.18c0,-31.142 25.284,-56.425 56.425,-56.425c31.142,-0 56.425,25.283 56.425,56.425l0,1129.57c3.526,1.334 7.187,2.767 10.971,4.302c102.413,41.529 342.488,155.716 485.942,257.729c152.367,108.136 477.304,425.755 565.35,512.618c16.278,-3.111 33.538,-5.387 52.033,-6.789c1.421,-0.108 2.846,-0.163 4.267,-0.163l1.758,0l4.267,0.163c18.495,1.402 35.755,3.678 52.033,6.789c88.045,-86.863 412.977,-404.478 565.308,-512.589c143.496,-102.042 383.571,-216.229 485.984,-257.759c3.784,-1.534 7.445,-2.967 10.971,-4.301Zm30.516,109.26c-98.033,39.842 -325.841,147.892 -462.116,244.796c-131.982,93.668 -396.305,348.627 -514.209,464.246c28.945,16.966 56.106,37.759 84.375,61.887c95.092,81.167 205.467,205.1 486.138,339.967c165.552,79.654 358.812,123.825 439.446,140.012c47.133,-87.052 166.233,-334.293 166.233,-609.875c0,-252.016 -143.408,-538.166 -199.867,-641.033Zm-2299.92,-0c-56.459,102.866 -199.867,389.016 -199.867,641.033c0,275.582 119.1,522.823 166.233,609.875c80.635,-16.187 273.9,-60.361 439.471,-140.025c280.646,-134.854 391.021,-258.787 486.113,-339.954c28.269,-24.128 55.43,-44.921 84.375,-61.887c-117.907,-115.62 -382.237,-370.585 -514.25,-464.275c-136.234,-96.875 -364.042,-204.925 -462.075,-244.767Z"/></svg>