<?xml version="1.0" encoding="UTF-8" standalone="no"?><!DOCTYPE svg PUBLIC "-//W3C//DTD SVG 1.1//EN" "http://www.w3.org/Graphics/SVG/1.1/DTD/svg11.dtd"><svg width="100%" height="100%" viewBox="0 0 750 750" version="1.1" xmlns="http://www.w3.org/2000/svg" xmlns:xlink="http://www.w3.org/1999/xlink" xml:space="preserve" xmlns:serif="http://www.serif.com/" style="fill-rule:evenodd;clip-rule:evenodd;stroke-linejoin:round;stroke-miterlimit:2;"><g id="blanket-2"><path d="M156.316,51.042l-0,-27.084l376.687,0c65.971,0 119.451,53.48 119.451,119.451l0,474.789c0,7.478 -6.063,13.541 -13.542,13.541l-425.288,0c-7.479,0 -13.542,-6.063 -13.542,-13.541c0,-0 0,-521.665 0,-521.618c0,0 -0.009,-2.603 -0.023,-6.716c-0.075,-21.463 -17.495,-38.822 -38.958,-38.822l-4.785,-0Zm58.111,-0c7.954,10.861 12.664,24.243 12.715,38.727l0.023,6.764l0,508.123l398.206,-0l-0,-461.247c-0,-51.013 -41.355,-92.367 -92.368,-92.367l-318.576,-0Z"/><path d="M226.064,88.216c-0,-35.489 -28.769,-64.258 -64.258,-64.258c-0.001,0 -0.002,0 -0.002,0c-35.489,0 -64.258,28.769 -64.258,64.258l-0,414.164c-0,7.478 6.063,13.541 13.542,13.541l101.434,0c7.479,0 13.542,-6.063 13.542,-13.541c-0,-0 -0,-293.627 -0,-414.164Zm-27.083,400.622l-0,-400.622c-0,-20.531 -16.644,-37.174 -37.175,-37.174c-0.001,-0 -0.002,-0 -0.002,-0c-20.531,-0 -37.175,16.643 -37.175,37.174l0,400.622l74.352,-0Z"/><path d="M225.744,312.522c0,0 16.522,-5.571 31.917,-10.763c13.762,-4.641 28.723,-4.258 42.229,1.08c7.069,2.794 14.76,5.834 21.895,8.653c20.306,8.026 42.862,8.266 63.335,0.673c8.376,-3.107 17.594,-6.526 25.916,-9.613c13.823,-5.127 29.03,-5.113 42.844,0.038c8.292,3.092 17.467,6.513 25.795,9.618c20.27,7.559 42.605,7.435 62.79,-0.348c7.38,-2.846 15.397,-5.937 22.785,-8.786c14.075,-5.427 29.654,-5.488 43.772,-0.171c12.689,4.779 25.118,9.46 25.118,9.46c6.994,2.634 14.811,-0.905 17.445,-7.9c2.634,-6.994 -0.906,-14.811 -7.9,-17.445c0,-0 -12.429,-4.681 -25.118,-9.46c-20.338,-7.66 -42.783,-7.572 -63.061,0.247c-7.388,2.848 -15.405,5.939 -22.785,8.785c-14.01,5.402 -29.514,5.488 -43.584,0.242c-8.327,-3.105 -17.502,-6.527 -25.794,-9.618c-19.903,-7.422 -41.81,-7.441 -61.725,-0.055c-8.322,3.087 -17.54,6.506 -25.916,9.612c-14.211,5.271 -29.867,5.105 -43.962,-0.466c-7.135,-2.82 -14.826,-5.86 -21.895,-8.653c-19.458,-7.691 -41.012,-8.242 -60.838,-1.556c-15.396,5.191 -31.917,10.763 -31.917,10.763c-7.082,2.388 -10.893,10.077 -8.505,17.159c2.389,7.082 10.077,10.892 17.159,8.504Z"/><path d="M225.744,391.357c0,-0 16.522,-5.571 31.917,-10.763c13.762,-4.641 28.723,-4.259 42.229,1.08c7.069,2.794 14.76,5.833 21.895,8.653c20.306,8.026 42.862,8.265 63.335,0.672c8.376,-3.106 17.594,-6.525 25.916,-9.612c13.823,-5.127 29.03,-5.114 42.844,0.038c8.292,3.092 17.467,6.513 25.795,9.618c20.27,7.559 42.605,7.435 62.79,-0.348c7.38,-2.846 15.397,-5.937 22.785,-8.786c14.075,-5.427 29.654,-5.488 43.772,-0.171c12.689,4.779 25.118,9.46 25.118,9.46c6.994,2.634 14.811,-0.906 17.445,-7.9c2.634,-6.994 -0.906,-14.811 -7.9,-17.445c0,-0 -12.429,-4.681 -25.118,-9.46c-20.338,-7.66 -42.783,-7.572 -63.061,0.246c-7.388,2.849 -15.405,5.94 -22.785,8.786c-14.01,5.402 -29.514,5.488 -43.584,0.242c-8.327,-3.106 -17.502,-6.527 -25.794,-9.619c-19.903,-7.421 -41.81,-7.44 -61.725,-0.054c-8.322,3.087 -17.54,6.506 -25.916,9.612c-14.211,5.271 -29.867,5.105 -43.962,-0.466c-7.135,-2.82 -14.826,-5.86 -21.895,-8.654c-19.458,-7.69 -41.012,-8.242 -60.838,-1.556c-15.396,5.192 -31.917,10.764 -31.917,10.764c-7.082,2.388 -10.893,10.076 -8.505,17.158c2.389,7.082 10.077,10.893 17.159,8.505Z"/><path d="M225.744,480.624c0,-0 16.522,-5.572 31.917,-10.763c13.762,-4.641 28.723,-4.259 42.229,1.08c7.069,2.793 14.76,5.833 21.895,8.653c20.306,8.026 42.862,8.265 63.335,0.672c8.376,-3.106 17.594,-6.525 25.916,-9.612c13.823,-5.127 29.03,-5.114 42.844,0.038c8.292,3.092 17.467,6.513 25.795,9.618c20.27,7.558 42.605,7.435 62.79,-0.348c7.38,-2.846 15.397,-5.937 22.785,-8.786c14.075,-5.427 29.654,-5.488 43.772,-0.171c12.689,4.779 25.118,9.46 25.118,9.46c6.994,2.634 14.811,-0.906 17.445,-7.9c2.634,-6.994 -0.906,-14.811 -7.9,-17.446c0,0 -12.429,-4.68 -25.118,-9.459c-20.338,-7.66 -42.783,-7.573 -63.061,0.246c-7.388,2.849 -15.405,5.94 -22.785,8.786c-14.01,5.402 -29.514,5.488 -43.584,0.242c-8.327,-3.106 -17.502,-6.527 -25.794,-9.619c-19.903,-7.421 -41.81,-7.44 -61.725,-0.054c-8.322,3.087 -17.54,6.505 -25.916,9.612c-14.211,5.271 -29.867,5.105 -43.962,-0.466c-7.135,-2.82 -14.826,-5.86 -21.895,-8.654c-19.458,-7.691 -41.012,-8.242 -60.838,-1.556c-15.396,5.192 -31.917,10.764 -31.917,10.764c-7.082,2.388 -10.893,10.076 -8.505,17.158c2.389,7.082 10.077,10.893 17.159,8.505Z"/><path d="M225.744,559.459c0,-0 16.522,-5.572 31.917,-10.764c13.762,-4.641 28.723,-4.258 42.229,1.08c7.069,2.794 14.76,5.834 21.895,8.654c20.306,8.026 42.862,8.265 63.335,0.672c8.376,-3.107 17.594,-6.526 25.916,-9.612c13.823,-5.127 29.03,-5.114 42.844,0.037c8.292,3.092 17.467,6.514 25.795,9.619c20.27,7.558 42.605,7.434 62.79,-0.349c7.38,-2.845 15.397,-5.936 22.785,-8.785c14.075,-5.427 29.654,-5.488 43.772,-0.171c12.689,4.779 25.118,9.46 25.118,9.46c6.994,2.634 14.811,-0.906 17.445,-7.9c2.634,-6.995 -0.906,-14.812 -7.9,-17.446c0,0 -12.429,-4.681 -25.118,-9.46c-20.338,-7.66 -42.783,-7.572 -63.061,0.247c-7.388,2.849 -15.405,5.94 -22.785,8.786c-14.01,5.402 -29.514,5.488 -43.584,0.241c-8.327,-3.105 -17.502,-6.526 -25.794,-9.618c-19.903,-7.422 -41.81,-7.441 -61.725,-0.054c-8.322,3.086 -17.54,6.505 -25.916,9.612c-14.211,5.27 -29.867,5.104 -43.962,-0.467c-7.135,-2.819 -14.826,-5.859 -21.895,-8.653c-19.458,-7.691 -41.012,-8.242 -60.838,-1.556c-15.396,5.192 -31.917,10.763 -31.917,10.763c-7.082,2.388 -10.893,10.077 -8.505,17.159c2.389,7.082 10.077,10.893 17.159,8.505Z"/><path d="M115.503,206.13c-0,-0 16.521,-5.572 31.917,-10.764c13.761,-4.64 28.722,-4.258 42.228,1.081c9.663,3.819 18.376,7.262 18.376,7.262c6.951,2.747 14.824,-0.665 17.571,-7.616c2.748,-6.951 -0.665,-14.824 -7.616,-17.571c0,-0 -8.713,-3.444 -18.376,-7.263c-19.458,-7.691 -41.012,-8.242 -60.838,-1.556c-15.396,5.192 -31.917,10.763 -31.917,10.763c-7.082,2.389 -10.893,10.077 -8.504,17.159c2.388,7.082 10.077,10.893 17.159,8.505Z"/><path d="M115.503,284.965c-0,-0 16.521,-5.572 31.917,-10.764c13.761,-4.641 28.722,-4.258 42.228,1.08c9.663,3.819 18.376,7.263 18.376,7.263c6.951,2.747 14.824,-0.666 17.571,-7.616c2.748,-6.951 -0.665,-14.824 -7.616,-17.571c0,-0 -8.713,-3.444 -18.376,-7.263c-19.458,-7.691 -41.012,-8.242 -60.838,-1.556c-15.396,5.192 -31.917,10.763 -31.917,10.763c-7.082,2.388 -10.893,10.077 -8.504,17.159c2.388,7.082 10.077,10.893 17.159,8.505Z"/><path d="M115.503,369.333c-0,0 16.521,-5.571 31.917,-10.763c13.761,-4.641 28.722,-4.258 42.228,1.08c9.663,3.819 18.376,7.263 18.376,7.263c6.951,2.747 14.824,-0.666 17.571,-7.617c2.748,-6.95 -0.665,-14.824 -7.616,-17.571c0,0 -8.713,-3.443 -18.376,-7.263c-19.458,-7.69 -41.012,-8.241 -60.838,-1.556c-15.396,5.192 -31.917,10.764 -31.917,10.764c-7.082,2.388 -10.893,10.077 -8.504,17.159c2.388,7.082 10.077,10.892 17.159,8.504Z"/><path d="M115.503,448.168c-0,-0 16.521,-5.571 31.917,-10.763c13.761,-4.641 28.722,-4.259 42.228,1.08c9.663,3.819 18.376,7.262 18.376,7.262c6.951,2.748 14.824,-0.665 17.571,-7.616c2.748,-6.95 -0.665,-14.824 -7.616,-17.571c0,-0 -8.713,-3.444 -18.376,-7.263c-19.458,-7.69 -41.012,-8.242 -60.838,-1.556c-15.396,5.192 -31.917,10.764 -31.917,10.764c-7.082,2.388 -10.893,10.076 -8.504,17.158c2.388,7.082 10.077,10.893 17.159,8.505Z"/><path d="M652.454,618.058c0,-7.479 -6.063,-13.542 -13.542,-13.542l-42.784,0c-7.479,0 -13.541,6.063 -13.541,13.542l-0,94.442c-0,7.479 6.062,13.542 13.541,13.542l42.784,-0c7.479,-0 13.542,-6.063 13.542,-13.542l0,-94.442Zm-42.784,13.541l-0,67.359l15.701,0l-0,-67.359l-15.701,0Z"/><path d="M525.016,618.058c0,-7.479 -6.063,-13.542 -13.542,-13.542l-42.784,0c-7.479,0 -13.541,6.063 -13.541,13.542l-0,94.442c-0,7.479 6.062,13.542 13.541,13.542l42.784,-0c7.479,-0 13.542,-6.063 13.542,-13.542l0,-94.442Zm-42.784,13.541l-0,67.359l15.701,0l-0,-67.359l-15.701,0Z"/><path d="M397.578,618.058c0,-7.479 -6.063,-13.542 -13.541,-13.542l-42.785,0c-7.478,0 -13.541,6.063 -13.541,13.542l-0,94.442c-0,7.479 6.063,13.542 13.541,13.542l42.785,-0c7.478,-0 13.541,-6.063 13.541,-13.542l0,-94.442Zm-42.784,13.541l0,67.359l15.701,0l-0,-67.359l-15.701,0Z"/><path d="M270.14,618.058c0,-7.479 -6.063,-13.542 -13.541,-13.542l-42.785,0c-7.478,0 -13.541,6.063 -13.541,13.542l-0,94.442c-0,7.479 6.063,13.542 13.541,13.542l42.785,-0c7.478,-0 13.541,-6.063 13.541,-13.542l0,-94.442Zm-42.784,13.541l0,67.359l15.701,0l-0,-67.359l-15.701,0Z"/><path d="M168.469,503.269c0,-7.479 -6.062,-13.542 -13.541,-13.542l-42.784,0c-7.479,0 -13.542,6.063 -13.542,13.542l0,94.442c0,7.479 6.063,13.542 13.542,13.542l42.784,-0c7.479,-0 13.541,-6.063 13.541,-13.542l0,-94.442Zm-42.784,13.541l0,67.359l15.701,0l0,-67.359l-15.701,0Z"/></g></svg>