<?xml version="1.0" encoding="UTF-8" standalone="no"?><!DOCTYPE svg PUBLIC "-//W3C//DTD SVG 1.1//EN" "http://www.w3.org/Graphics/SVG/1.1/DTD/svg11.dtd"><svg width="100%" height="100%" viewBox="0 0 54255 54255" version="1.1" xmlns="http://www.w3.org/2000/svg" xmlns:xlink="http://www.w3.org/1999/xlink" xml:space="preserve" xmlns:serif="http://www.serif.com/" style="fill-rule:evenodd;clip-rule:evenodd;stroke-linejoin:round;stroke-miterlimit:2;"><path d="M19605.1,6073.02c1233.56,-1799.02 3275.62,-3194.99 3602.16,-3411.38c120.361,-79.799 261.587,-122.281 405.902,-122.281l7027.44,-0c3.417,-0 6.802,0.137 10.152,0.446c136.253,1.716 273.516,40.92 395.726,121.819c326.573,216.41 2368.75,1612.38 3602.19,3411.27l6375.1,2451.75l7.72,3.271c153.055,70.979 912.304,491.087 1622.17,2304.65c689.714,1762.09 1344.88,4870.17 1344.88,10324.5c0,2191.87 179.538,4750.35 352.987,7224.92l-0,-0.004c174.978,2495.12 339.94,4851.77 340.062,6889.48c0,4055.82 -343.223,15676.3 -346.641,15793.4c-5.877,197.492 -91.098,384.407 -236.528,518.513c-136.05,125.178 -313.835,194.355 -497.929,194.355c-10.5,-0 -5350,-276.143 -5350.02,-276.144c-390.449,-20.28 -696.688,-342.698 -696.688,-733.735l0,-467.318c-1768.71,502.659 -4169.59,1131.22 -6019.58,1415.63c-299.202,45.916 -578.571,67.056 -838.595,67.056c-2196.48,0 -3054,-1492.2 -3203.75,-2369.26l-374.891,-2149.99c-149.573,856.493 -382.466,2189.36 -384.594,2198.3c-201.527,836.144 -1155.36,2295.22 -3371.64,2295.22c-200.528,-0 -411.29,-12.076 -633.28,-37.781c-1867.55,-216.24 -4273.69,-852.964 -6046.73,-1377.5l0,425.644c0,391.037 -306.238,713.455 -696.687,733.735c-0.008,-0 -0.016,0 -0.024,0.001c-0,-0 -5339.5,276.143 -5350,276.143c-184.117,-0 -361.915,-69.063 -498.031,-194.449c-145.328,-134.013 -230.548,-320.782 -236.428,-518.489c-3.415,-116.978 -346.883,-11737.5 -346.883,-15793.3c0,-2037.71 165.085,-4394.36 339.94,-6889.47c173.328,-2474.45 352.866,-5033.06 352.866,-7224.93c-0,-5454.32 655.167,-8562.4 1344.91,-10324.5c709.902,-1813.58 1469.23,-2233.69 1622.41,-2304.67c2.524,-1.17 5.087,-2.255 7.684,-3.254l6374.62,-2451.63Zm15920.7,1911.42c63.548,297.161 90.958,597.527 74.374,898.723c-18.222,331.973 -257.16,610.319 -582.641,678.648l-586.85,123.33l860.717,609.782c239.383,169.582 354.897,465.536 293.912,752.388c-118.756,558.507 -2925.27,13541.1 -7567.68,19127.1l-148.392,12626.2c144.653,1038.43 263.425,1677.38 264.637,1683.93c0.079,0.429 0.156,0.858 0.231,1.288c0,0 815.733,4677.93 815.271,4675.43c16.479,84.336 134.729,571.238 650.336,882.931c357.913,216.366 901.284,345.477 1721.02,219.324l0.023,-0.003c2506.88,-385.327 6195.53,-1467.95 7621.38,-1901.25c-231.593,-1596.68 -929.051,-6029.97 -2042.81,-9927.43l-4686.41,-370.486c-404.557,-32.036 -706.656,-385.925 -674.621,-790.328c32.041,-404.773 388.597,-707.234 790.313,-674.626l4080.79,322.52c-454.115,-1004.4 -2394.31,-6327.33 1065.68,-18179.1l2370.66,-9098.01l-4319.95,-1660.42Zm-16797.6,-0.127l-4319.84,1660.42l2369.48,9093.77c3491.35,12075.5 1545.19,17197.4 1073.21,18182.9l4074.24,-322.119c404.429,-32.184 758.616,270.087 790.502,674.614c32.036,404.416 -270.079,758.299 -674.495,790.334l-4686.53,370.487c-1116.5,3907.32 -1814.7,8353.49 -2044.68,9939.64c1406.28,455.635 5085.91,1594.95 7596.24,1885.62c790.621,91.753 1330.87,-47.863 1696.52,-263.303c519.798,-306.264 677.451,-761.069 706.562,-862.974l809.127,-4640.3c165.703,-965.34 240.649,-1944.52 285.133,-2922.2c49.05,-1078.02 64.98,-2157.3 74.706,-3236.29c11.627,-1289.79 16.344,-2579.63 31.97,-3869.39c14.668,-1210.64 39.689,-2421.03 77.673,-3631.17l8.251,-246.969c-4855.6,-5331.01 -7803.24,-18956.1 -7927.46,-19540.1c-61.135,-286.867 54.502,-582.853 293.897,-752.442l860.72,-609.785l-586.824,-123.325c-325.514,-68.336 -564.445,-346.551 -582.666,-678.51c-16.587,-301.25 10.756,-601.735 74.269,-898.871Zm-5528.69,2838.88c-642.339,1313.55 -1474.56,4202.3 -1474.56,10333.7c-0,2239.87 -181.073,4826.5 -356.526,7327.77c-172.948,2466.83 -336.402,4796.87 -336.402,6786.75c0,3435.92 248.391,12351.5 324.459,14998.8l3864.69,-200.176l0,-179.589c-553.517,-176.738 -908.343,-297.471 -961.175,-315.509c-330.489,-113.004 -535.784,-443.049 -490.933,-789.793c7.317,-55.732 669.717,-5109.69 1912.68,-9806.87c-129.605,-1188.91 -884.973,-9037.06 1091.87,-13383c-364.669,-2734.95 -3063.9,-12869.2 -3574.11,-14772.2Zm27852.7,-5.149c-419.175,1496.41 -2295.22,8305.98 -3569.85,14780.9c1974.76,4346.77 1220.01,12190.3 1090.23,13379.1c1242.99,4697.42 1905.52,9751.64 1912.7,9807.31c45.703,352.547 -167.676,687.314 -506.548,794.736c-52.301,16.584 -401.254,126.844 -945.586,290.579l-0,199.38l3864.57,200.17c76.061,-2647.26 324.217,-11563 324.337,-14998.8c0,-1989.88 -163.453,-4319.92 -336.401,-6786.75c-175.331,-2501.4 -356.526,-5087.9 -356.526,-7327.77c-0,-6138.93 -834.276,-9027.3 -1476.93,-10338.9Zm-23801.1,18448.1c-148.602,900.274 -239.631,1843.16 -290.567,2772.35c-50.936,929.184 -61.778,1844.66 -50.006,2690.11c335.995,-1396.39 531.243,-3012.28 340.573,-5462.46Zm19751.8,0.343c-95.231,1224.25 -94.076,2240.24 -27.145,3124.66c66.932,884.417 199.641,1637.26 367.517,2335.19c23.265,-1690.52 -43.737,-3660.44 -340.372,-5459.85Zm-16304.8,-22175.6c-249.291,388.122 -437.884,781.883 -525.603,1165.65l1599.51,335.975c285.838,59.96 509.066,283.492 568.438,569.624c59.364,286.091 -56.272,579.973 -294.607,748.953l-1834.32,1299.82c480.761,2091.37 2571.99,10655.6 5719.25,15954.1c-636.052,-3112.51 -2544.84,-12484.6 -3037.37,-14892.4c-676.835,-3309.04 -867.315,-5432.62 -796.315,-6825.7c-518.731,498.009 -1023.72,1060.88 -1395.24,1637.93c-1.193,2.037 -2.394,4.013 -3.73,6.075Zm11458.8,-1646.2c71.268,1392.95 -119.097,3517.26 -796.348,6827.91l0,-0.003c-488.163,2386.64 -2398.53,11767.5 -3036.36,14888.7c3148.65,-5301.33 5238.3,-13859.9 5718.49,-15950.2l-1834.38,-1299.86c-238.326,-169.121 -353.924,-463.004 -294.563,-748.936c59.371,-285.982 282.601,-509.653 568.404,-569.606l1599.82,-336.015c-217.327,-959.422 -1053.65,-1977.04 -1925.07,-2811.95Zm-1829.18,-1435.81l-6403.23,0c-170.437,194.532 -359.006,513.911 -370.293,1672.81l42.643,1442.82c85.443,1167.17 303.472,2738.35 736.262,4853.59c493.769,2413.55 2227.59,10926.5 2794.01,13702.1c568.642,-2786.24 2304.41,-11309.5 2793.63,-13702.1c432.71,-2115.45 651.105,-3686.71 736.292,-4853.97l43.463,-1214.07c-11.196,-1171.86 -201,-1681.9 -372.778,-1901.19Zm-9629.59,3082.01l0.118,-0.184l-1.165,1.779c0.36,-0.539 0.708,-1.069 1.047,-1.595Z" style="fill-rule:nonzero;"/></svg>