<?xml version="1.0" encoding="UTF-8" standalone="no"?><!DOCTYPE svg PUBLIC "-//W3C//DTD SVG 1.1//EN" "http://www.w3.org/Graphics/SVG/1.1/DTD/svg11.dtd"><svg width="100%" height="100%" viewBox="0 0 3125 3125" version="1.1" xmlns="http://www.w3.org/2000/svg" xmlns:xlink="http://www.w3.org/1999/xlink" xml:space="preserve" xmlns:serif="http://www.serif.com/" style="fill-rule:evenodd;clip-rule:evenodd;stroke-linejoin:round;stroke-miterlimit:2;"><path d="M2401.24,2411.82l-96.959,-514.21l0,991.8c0,31.162 -25.262,56.425 -56.421,56.425l-1370.73,-0c-31.158,-0 -56.421,-25.263 -56.421,-56.425l0,-991.8l-96.956,514.209c41.418,33.489 62.941,89.118 50.377,144.636l-30.896,136.663c-17.566,77.6 -94.846,126.154 -171.479,108.404c-0.004,0 -0.012,-0.004 -0.021,-0.004c0,-0 -360.996,-83.763 -360.975,-83.758c-76.312,-17.675 -124.85,-95.146 -107.358,-172.446c-0,-0 30.892,-136.629 30.887,-136.621c13.369,-59.164 61.481,-101.464 117.553,-110.354c50.027,-272.421 304.222,-1656.64 304.218,-1656.63c18.288,-99.708 82.938,-184.737 174.121,-228.995l169.251,-82.206l138.57,-135.299c4.015,-3.92 8.52,-7.155 13.349,-9.669l0.089,-0.047l0.127,-0.066l0.041,-0.021c6.595,-3.403 13.945,-5.543 21.73,-6.101l0.101,-0.007l0.273,-0.018c1.395,-0.092 2.794,-0.133 4.196,-0.121l968.319,0c0.184,0 0.367,0.001 0.554,0.003c14.764,-0.205 29.298,5.394 40.209,16.047l138.573,135.307c41.69,20.248 169.245,82.197 169.235,82.194c91.192,44.262 155.837,129.283 174.15,228.987l304.212,1656.64c56.061,8.887 104.172,51.184 117.538,110.335c-0,0 30.908,136.629 30.912,136.65c17.459,77.304 -31.054,154.758 -107.341,172.429c-0,0 -361.017,83.763 -361.034,83.767c-76.633,17.75 -153.912,-30.804 -171.479,-108.404c0,-0.004 0,-0.009 -0.004,-0.013l-30.887,-136.633c-12.567,-55.53 8.95,-111.165 50.375,-144.652Zm-1555.57,-1929.74c-35.887,17.43 -66.192,32.148 -66.198,32.15c-58.871,28.579 -100.604,83.471 -112.413,147.842l-303.303,1651.65l122.544,28.426c41.368,9.595 82.735,19.191 124.102,28.786l5.969,1.384l205.317,-1088.92c5.396,-28.625 31.696,-48.434 60.696,-45.725c29.004,2.712 51.175,27.05 51.175,56.179l0,1539.14l572.517,-0l-0,-1434.15c-98.763,-43.334 -378.857,-177.731 -555.946,-378.166c-93.804,-106.167 -123.746,-236.075 -124.55,-354.221c-0.465,-68.187 8.802,-132.157 20.09,-184.379Zm1433.66,0.002c11.288,52.22 20.555,116.19 20.09,184.377c-0.805,118.146 -30.751,248.054 -124.551,354.221c-177.089,200.435 -457.182,334.832 -555.945,378.166l-0,1434.15l572.516,-0l0,-1539.14c0,-29.129 22.171,-53.467 51.175,-56.179c29,-2.709 55.3,17.1 60.696,45.725l205.32,1088.92l252.623,-58.602l-303.293,-1651.63c-11.825,-64.375 -53.558,-119.275 -112.433,-147.854l-66.198,-32.148Zm212.494,2186.13c3.712,16.404 19.75,27.134 35.929,23.384c-0,-0 361.016,-83.759 361.033,-83.763c16.525,-3.829 26.538,-20.904 22.763,-37.621c-0,0 -30.913,-136.629 -30.917,-136.641c-3.704,-16.392 -19.733,-27.121 -35.921,-23.367l-360.996,83.742c-16.521,3.833 -26.566,20.891 -22.783,37.62l30.892,136.646Zm-1858.65,0l30.895,-136.646c3.784,-16.729 -6.254,-33.787 -22.762,-37.62c-0,-0 -361.013,-83.738 -361.017,-83.742c-16.183,-3.754 -32.216,6.971 -35.921,23.363l-30.895,136.65c-3.788,16.729 6.241,33.787 22.758,37.616c0.008,0 0.012,0 0.021,0.004c-0,0 360.996,83.763 360.975,83.755c16.2,3.754 32.233,-6.975 35.946,-23.38Zm407.987,-2318.35l-56.314,54.985c-0.174,0.28 -0.35,0.558 -0.529,0.835c-12.073,33.068 -46.719,138.823 -45.894,260.014c0.637,93.245 22.241,196.479 96.275,280.27c127.2,143.971 312.108,250.713 431.287,309.88c-41.771,-108.467 -114.187,-271.15 -216.133,-410.021c-120.7,-164.421 -181.258,-372.1 -208.692,-495.963Zm1042.68,0c-27.433,123.863 -87.991,331.542 -208.691,495.963c-101.938,138.871 -174.355,301.554 -216.125,410.021c119.229,-59.2 304.095,-165.93 431.279,-309.88c74.029,-83.791 95.637,-187.025 96.271,-280.27c0.826,-120.765 -33.579,-226.202 -45.764,-259.667c-0.311,-0.472 -0.615,-0.949 -0.912,-1.432l-56.058,-54.735Zm-102.851,-57.846l-836.976,0c20.433,105.117 74.558,320.495 196.806,487.03c101.794,138.658 176.04,299.553 221.684,414.347c45.647,-114.795 119.895,-275.689 221.679,-414.347c122.248,-166.535 176.374,-381.913 196.807,-487.03Z"/></svg>