<?xml version="1.0" encoding="UTF-8" standalone="no"?><!DOCTYPE svg PUBLIC "-//W3C//DTD SVG 1.1//EN" "http://www.w3.org/Graphics/SVG/1.1/DTD/svg11.dtd"><svg width="100%" height="100%" viewBox="0 0 750 750" version="1.1" xmlns="http://www.w3.org/2000/svg" xmlns:xlink="http://www.w3.org/1999/xlink" xml:space="preserve" xmlns:serif="http://www.serif.com/" style="fill-rule:evenodd;clip-rule:evenodd;stroke-linejoin:round;stroke-miterlimit:2;"><g id="blazer-2"><path d="M85.043,567.585l75.05,-408.688c2.834,-15.449 12.85,-28.623 26.979,-35.482c0.004,-0.001 43.711,-21.23 43.711,-21.23c6.723,-3.266 9.53,-11.375 6.265,-18.098c-3.265,-6.722 -11.374,-9.529 -18.097,-6.264l-43.708,21.229c-21.884,10.622 -37.4,31.029 -41.789,54.959c0.001,-0.003 -75.049,408.682 -75.049,408.682c-1.35,7.351 3.522,14.415 10.873,15.765c7.351,1.35 14.415,-3.522 15.765,-10.873Z" style="fill:#1c1d20;"/><path d="M525.944,679.918l-0,-369.394c-0,-6.991 5.321,-12.832 12.282,-13.483c6.96,-0.65 13.272,4.104 14.567,10.974l51.744,274.427c1.385,7.344 -3.454,14.431 -10.798,15.816c-7.345,1.385 -14.432,-3.454 -15.816,-10.798l-24.896,-132.033l0,238.032c0,7.479 -6.063,13.542 -13.541,13.542l-328.975,0c-7.478,0 -13.541,-6.063 -13.541,-13.542l-0,-238.032l-24.964,132.397c-1.385,7.344 -8.472,12.183 -15.816,10.798c-7.345,-1.385 -12.183,-8.472 -10.798,-15.817l51.812,-274.79c1.295,-6.87 7.607,-11.624 14.567,-10.974c6.961,0.651 12.282,6.492 12.282,13.483l0,369.394l301.891,-0Z" style="fill:#1c1d20;"/><path d="M519.182,102.172l43.743,21.243c14.13,6.859 24.146,20.035 26.984,35.485c0,-0 75,408.426 75,408.426c1.35,7.351 8.414,12.223 15.764,10.873c7.351,-1.35 12.224,-8.414 10.874,-15.765l-75,-408.426c-4.395,-23.929 -19.91,-44.334 -41.796,-54.957c0.003,0.001 -43.737,-21.242 -43.737,-21.242c-6.723,-3.265 -14.832,-0.457 -18.097,6.266c-3.265,6.723 -0.458,14.832 6.265,18.097Z" style="fill:#1c1d20;"/><path d="M272.02,54.878c-0.632,-5.107 -4.104,-9.415 -8.96,-11.117c-4.857,-1.702 -10.258,-0.505 -13.94,3.09l-33.891,33.091c-1.316,1.285 -2.357,2.825 -3.058,4.526c0,0 -14.312,34.58 -14.033,75.482c0.193,28.355 7.379,59.533 29.892,85.013c52.303,59.198 142.044,94.394 142.044,94.394c4.812,1.878 10.273,0.855 14.079,-2.637c3.807,-3.492 5.295,-8.846 3.836,-13.801c0,-0 -22.545,-76.493 -66.194,-135.95c-40.346,-54.962 -49.775,-132.091 -49.775,-132.091Zm-22.143,29.087l-13.599,13.278c-2.857,7.8 -11.257,33.29 -11.058,62.522c0.153,22.379 5.338,47.155 23.106,67.265c30.528,34.553 74.906,60.171 103.509,74.371c-10.025,-26.032 -27.405,-65.076 -51.872,-98.405c-28.968,-39.461 -43.502,-89.304 -50.086,-119.031Z" style="fill:#1c1d20;"/><path d="M500.877,46.851c-3.682,-3.595 -9.083,-4.792 -13.94,-3.09c-4.856,1.702 -8.328,6.01 -8.96,11.117c0,-0 -9.429,77.129 -49.775,132.091c-43.645,59.457 -66.194,135.949 -66.194,135.949c-1.459,4.956 0.029,10.309 3.835,13.802c3.806,3.492 9.268,4.515 14.08,2.637c0,-0 89.741,-35.196 142.044,-94.394c22.512,-25.48 29.699,-56.658 29.892,-85.013c0.279,-40.902 -14.033,-75.482 -14.033,-75.482c-0.702,-1.701 -1.742,-3.241 -3.059,-4.526l-33.89,-33.091Zm-0.757,37.114c-6.584,29.727 -21.118,79.57 -50.086,119.031c-24.465,33.329 -41.845,72.373 -51.87,98.405c28.615,-14.208 72.983,-39.823 103.507,-74.371c17.767,-20.11 22.953,-44.886 23.105,-67.265c0.2,-29.232 -8.201,-54.722 -11.057,-62.522l-13.599,-13.278Z" style="fill:#1c1d20;"/><path d="M258.58,70.082l232.514,0c7.474,0 13.541,-6.068 13.541,-13.541c0,-7.474 -6.067,-13.542 -13.541,-13.542l-232.514,-0c-7.473,-0 -13.541,6.068 -13.541,13.542c-0,7.473 6.068,13.541 13.541,13.541Z" style="fill:#1c1d20;"/><path d="M178.376,646.349l7.415,-32.799c4.196,-18.542 -7.45,-37.136 -25.756,-41.386c-0.003,-0 -86.646,-20.098 -86.646,-20.098c-18.393,-4.268 -36.951,7.394 -41.16,26.021c0.001,-0.002 -7.413,32.789 -7.413,32.789c-4.198,18.552 7.451,37.145 25.766,41.387c-0.005,-0.001 86.634,20.102 86.634,20.102c0.002,0 0.004,0.001 0.005,0.001c18.392,4.26 36.939,-7.393 41.155,-26.017Zm-26.416,-5.979l7.415,-32.795c0.908,-4.015 -1.501,-8.109 -5.463,-9.029c0,0 -86.643,-20.097 -86.644,-20.098c-3.884,-0.901 -7.732,1.673 -8.621,5.607l-7.415,32.796c-0.909,4.015 1.498,8.109 5.462,9.028c0.002,-0 0.003,0 0.005,0.001c0,-0 86.639,20.103 86.634,20.101c3.888,0.901 7.736,-1.674 8.627,-5.611Z" style="fill:#1c1d20;"/><path d="M571.62,646.346c0.001,0.001 0.001,0.002 0.001,0.003c4.216,18.624 22.763,30.277 41.155,26.017c0.004,-0.001 86.648,-20.104 86.648,-20.104c18.309,-4.241 29.952,-22.83 25.762,-41.383c-0.001,-0.005 -7.419,-32.796 -7.419,-32.796c-4.208,-18.623 -22.766,-30.285 -41.16,-26.017l-86.639,20.098c-18.314,4.249 -29.958,22.844 -25.761,41.39c-0.001,-0.004 7.413,32.792 7.413,32.792Zm26.416,-5.976c0.891,3.937 4.74,6.512 8.623,5.612c0,0 86.644,-20.102 86.648,-20.103c3.966,-0.919 6.369,-5.017 5.463,-9.029c-0,0 -7.419,-32.791 -7.42,-32.794c-0.889,-3.934 -4.736,-6.509 -8.621,-5.608l-86.639,20.098c-3.965,0.92 -6.376,5.014 -5.468,9.029l7.414,32.795Z" style="fill:#1c1d20;"/><path d="M361.457,326.742l-0,366.717c-0,7.474 6.068,13.542 13.541,13.542c7.474,0 13.542,-6.068 13.542,-13.542l0,-366.717c0,-7.474 -6.068,-13.542 -13.542,-13.542c-7.473,0 -13.541,6.068 -13.541,13.542Z" style="fill:#1c1d20;"/></g></svg>