<?xml version="1.0" encoding="UTF-8" standalone="no"?><!DOCTYPE svg PUBLIC "-//W3C//DTD SVG 1.1//EN" "http://www.w3.org/Graphics/SVG/1.1/DTD/svg11.dtd"><svg width="100%" height="100%" viewBox="0 0 13021 13021" version="1.1" xmlns="http://www.w3.org/2000/svg" xmlns:xlink="http://www.w3.org/1999/xlink" xml:space="preserve" xmlns:serif="http://www.serif.com/" style="fill-rule:evenodd;clip-rule:evenodd;stroke-linejoin:round;stroke-miterlimit:2;"><path d="M4774.04,773.542c15.783,-2.921 31.616,-4.175 47.27,-3.855l3378.34,0c8.888,-0.179 17.829,0.151 26.779,1.005c24.704,2.283 48.309,8.391 70.217,17.737c525.958,200.446 1958.92,754.279 2117.21,831.171c84.392,41.025 176.979,120.833 262.15,235.954c152.85,206.6 295.559,540.017 356.513,872.204c-0,0 1480.4,7580.33 1480.92,7583c44.733,244.046 -1.488,492.817 -113.675,706.13l193.066,578.854c40.834,122.429 -24.671,254.896 -146.754,296.771l-1008.68,345.92c-59.308,20.346 -124.271,16.146 -180.488,-11.65c-56.195,-27.795 -98.958,-76.875 -118.8,-136.354l-183.687,-550.791c-253.367,-125.267 -445.808,-366.825 -504.613,-679.521c0,-0 -810,-3908.11 -810.833,-3912.31c-11.829,-62.808 -27.304,-135.858 -44.554,-212.804c-49.621,308.8 -85.654,745.879 -72.529,1352l879.983,3579.45c17.258,70.138 1.283,144.325 -43.262,201.163c-44.567,56.858 -112.796,90.054 -185.038,90.054l-7318.08,-0c-72.138,-0 -140.296,-33.125 -184.863,-89.846c-44.566,-56.733 -60.625,-130.779 -43.558,-200.883l871.892,-3579.69c13.1,-602.154 -22.075,-1036.03 -70.584,-1342.29c-13.3,67.062 -26.483,135.179 -39.225,202.841c-0.262,1.388 -0.537,2.796 -0.816,4.2c-0,0 -810,3908.11 -809.184,3903.91c-59.987,318.558 -256.266,563.029 -513.896,687.516l-182.425,546.996c-19.825,59.479 -62.604,108.559 -118.8,136.354c-56.2,27.796 -121.166,31.996 -180.47,11.65l-1008.77,-345.92c-122.083,-41.875 -187.604,-174.359 -146.754,-296.788l195.933,-587.217c-109.017,-211.362 -153.479,-456.883 -109.267,-697.8c0.159,-0.887 0.33,-1.787 0.505,-2.675c-0,0 1454.76,-7440.62 1507.65,-7729.25c43.612,-237.604 148.266,-481.095 272.971,-661.337c98.558,-142.483 212.675,-246.458 318.454,-297.917c157.429,-76.466 1587.78,-630.125 2114.53,-832.871l0.592,-0.237l1.108,-0.442c13.921,-5.491 28.475,-9.696 43.517,-12.458l-0.004,0.021Zm-3826.18,10749.8l563.941,193.388l29.984,-89.905c-48.713,-6.258 -97.78,-16.287 -146.934,-30.283l-0.962,-0.271c-0.484,-0.137 -0.967,-0.275 -1.446,-0.412l-0.65,-0.192l-107.179,-30.762c-103.938,-29.825 -200.954,-76.08 -288.913,-135.321c-4.612,-2.904 -9.112,-5.959 -13.5,-9.163l-34.341,102.921Zm11092.2,-98.95c-89.946,61.721 -189.579,109.813 -296.546,140.496c0,-0 -108.208,31.075 -108.312,31.112c-52.142,14.95 -104.183,25.442 -155.721,31.688l29.696,89.042l563.887,-193.388l-33.004,-98.95Zm-3429.82,-3364.6l-1864.67,-874.875l0,4302.54l3128.14,-0l-787.812,-3204.51l-464.567,-217.966c-3.75,-1.642 -7.446,-3.375 -11.088,-5.2l0,0.004Zm-2334.88,3427.67l0,-4302.54l-1864.27,874.704c-3.862,1.946 -7.787,3.788 -11.77,5.521l-464.038,217.725l-780.533,3204.59l3120.61,-0Zm-1678.67,-10146c-626.9,241.967 -1646.53,637.63 -1776.83,700.892c-47.967,23.333 -92.571,77.867 -137.325,142.554c-90.225,130.434 -165.608,306.754 -197.154,478.646c-44.709,243.879 -1090.11,5593.29 -1413.63,7248.33c48.25,-68.616 131.763,-109.183 220.805,-98.383c128.8,15.625 220.695,132.879 205.07,261.683l-85.97,708.788l141.004,-407.746c42.396,-122.621 176.387,-187.762 299.029,-145.35c122.621,42.417 187.758,176.392 145.346,299.029l-212.871,615.558c165.492,-47.379 297.137,-186.416 332.958,-376.65c0.259,-1.408 0.538,-2.812 0.834,-4.204c-0,0 810,-3908.12 809.166,-3903.92c82.654,-438.908 185.488,-894.966 226.771,-1013.93c42.55,-122.587 176.613,-187.57 299.183,-145.016c12.138,4.208 23.709,9.316 34.667,15.225c46.004,13.391 88.338,40.9 119.9,81.633c0,0 348.479,415.954 363.7,1947.91l86.471,-40.575l-121.975,-1484.92c-10.629,-129.309 85.746,-242.934 215.067,-253.542c129.304,-10.625 242.933,85.729 253.541,215.05l107.629,1310.27l109.784,-51.509l-0,-1017.56c-0,-129.758 105.333,-235.104 235.087,-235.104c129.759,-0 235.104,105.346 235.104,235.104l0,796.95l98.688,-46.304l77.996,-641.704c15.662,-128.805 132.937,-220.663 261.737,-205.021c128.821,15.662 220.679,132.954 205.017,261.754l-42.454,349.292l582.333,-273.23l0,-1275.58c-411.454,-566.35 -935.396,-1374.33 -1180.31,-2047.29c-279.405,-767.759 -448.65,-1479.21 -498.359,-2001.15l0,0.016Zm3827.64,-0.825c-49.596,522.063 -218.821,1233.84 -498.375,2001.98c-244.942,672.95 -768.804,1480.87 -1180.38,2047.2l0,1275.67l582.455,273.283l-42.488,-349.325c-15.679,-128.8 76.179,-246.091 204.983,-261.75c128.8,-15.679 246.092,76.179 261.771,204.979l78.063,641.78l98.621,46.275l-0,-796.975c-0,-129.759 105.345,-235.105 235.087,-235.105c129.754,0 235.104,105.346 235.104,235.105l0,1017.58l109.775,51.504l107.621,-1310.29c10.625,-129.321 124.233,-225.675 253.558,-215.05c129.321,10.608 225.692,124.233 215.067,253.541l-121.975,1484.93l86.429,40.554c15.442,-1530.88 364.842,-1958.22 371.342,-1966.04c35.354,-52.558 82.8,-74.396 110.475,-85.354c64.529,-25.554 137.725,-28.558 215.208,20.088c23,14.445 90.659,75.087 132.359,201.145c59.583,180.088 162.604,628.696 221.216,940.138c0,-0 810,3908.12 810.85,3912.36c28.609,152.071 118.484,271.421 237.888,337.367l-199.292,-576.308c-42.396,-122.638 22.725,-256.613 145.363,-299.029c122.62,-42.413 256.616,22.729 299.012,145.35l141,407.745l-85.967,-708.787c-15.625,-128.804 76.267,-246.058 205.088,-261.683c128.8,-15.625 246.058,76.266 261.683,205.066l90.034,742.196c49.745,-112.467 68.241,-238.971 45.575,-362.646c-0,0 -1480.4,-7580.33 -1480.89,-7582.96c-41.283,-224.913 -127.133,-449.929 -226.508,-611.508c-46.304,-75.296 -88.388,-138.246 -135.713,-161.25c-131.346,-63.805 -1157.89,-461.492 -1784.04,-701.788l-0,0.004Zm-7426.25,8948.04c-13.617,69.646 -20.921,107 -20.884,106.812c-8.5,46.325 -11.312,92.98 -8.941,139.084l29.825,-245.896Zm8844.62,-4314.71c0.383,-1.867 0.746,-3.763 1.083,-5.688c0.338,-1.925 0.654,-3.879 0.95,-5.858l-2.033,11.546Zm-1880.8,-4734.17l-2902.87,-0c36.487,490.537 202.796,1186.2 477.858,1942c203.367,558.766 613.104,1214.32 973.592,1728.04c360.554,-513.766 770.262,-1169.29 973.629,-1728.02c275.063,-755.812 441.321,-1451.48 477.792,-1942.01Z"/></svg>