<?xml version="1.0" encoding="UTF-8" standalone="no"?><!DOCTYPE svg PUBLIC "-//W3C//DTD SVG 1.1//EN" "http://www.w3.org/Graphics/SVG/1.1/DTD/svg11.dtd"><svg width="100%" height="100%" viewBox="0 0 750 750" version="1.1" xmlns="http://www.w3.org/2000/svg" xmlns:xlink="http://www.w3.org/1999/xlink" xml:space="preserve" xmlns:serif="http://www.serif.com/" style="fill-rule:evenodd;clip-rule:evenodd;stroke-linejoin:round;stroke-miterlimit:2;"><g><path d="M375.001,282.811c20.768,-29.593 44.367,-67.351 56.081,-99.534c18.524,-50.9 28.481,-97.064 27.939,-125.14c-0.145,-7.473 5.805,-13.657 13.277,-13.801c7.473,-0.144 13.657,5.805 13.801,13.278c0.584,30.245 -9.611,80.092 -29.567,134.925c-14.548,39.969 -46.178,88.204 -70.183,120.922c-0.931,1.43 -2.15,2.704 -3.637,3.733c-6.027,4.168 -14.276,2.786 -18.615,-3.119c-24.049,-32.727 -55.988,-81.318 -70.625,-121.536c-19.955,-54.833 -30.155,-104.68 -29.571,-134.925c0.144,-7.473 6.328,-13.422 13.801,-13.278c7.472,0.144 13.422,6.328 13.277,13.801c-0.542,28.076 9.419,74.24 27.943,125.139c11.714,32.185 35.315,69.945 56.079,99.535Z" style="fill:#1c1d20;"/><path d="M543.399,350.268c-2.478,-2.878 -3.736,-6.778 -3.132,-10.825c1.194,-7.998 6.302,-10.433 8.742,-11.399c3.717,-1.472 7.933,-1.645 12.396,1.157c1.325,0.832 5.222,4.325 7.624,11.586c3.432,10.373 9.366,36.213 12.742,54.152c0,0 46.656,225.108 46.705,225.352c3.076,16.351 18.449,26.135 34.239,21.607c-0,0 6.233,-1.79 6.236,-1.791c17.16,-4.923 28.441,-23.546 25.211,-41.17c0,-0 -85.271,-436.627 -85.299,-436.778c-2.378,-12.955 -7.323,-25.916 -13.047,-35.223c-2.667,-4.337 -5.091,-7.963 -7.817,-9.288c-8.998,-4.371 -90.934,-35.946 -120.26,-47.118c-6.984,-2.661 -10.494,-10.491 -7.834,-17.476c2.661,-6.984 10.491,-10.494 17.476,-7.833c29.868,11.378 113.287,43.614 122.456,48.068c4.861,2.363 10.194,6.96 15.1,13.591c8.804,11.9 17.024,31.105 20.535,50.239c0,-0 85.271,436.627 85.301,436.781c5.708,31.141 -14.294,63.617 -44.349,72.239c-0,0 -6.233,1.79 -6.239,1.792c-31.415,9.009 -62.207,-10.11 -68.277,-42.388c-0,0 -46.656,-225.107 -46.704,-225.349c-2.902,-15.408 -9.61,-41.517 -11.805,-49.926Zm23.538,-6.163c0.044,-0.215 0.083,-0.437 0.117,-0.665l-0.117,0.665Z" style="fill:#1c1d20;"/><path d="M695.406,663.746l-8.927,-26.763c-2.364,-7.09 1.472,-14.766 8.562,-17.13c7.09,-2.365 14.766,1.471 17.13,8.561l13.175,39.501c2.352,7.052 -1.421,14.682 -8.453,17.094l-58.1,19.925c-3.416,1.172 -7.158,0.93 -10.396,-0.671c-3.237,-1.601 -5.7,-4.428 -6.843,-7.854l-12.525,-37.557c-2.364,-7.09 1.472,-14.765 8.562,-17.13c7.09,-2.364 14.766,1.472 17.131,8.562l8.204,24.601l32.48,-11.139Z" style="fill:#1c1d20;"/><path d="M568.723,661.679l-46.921,-190.856l-0.387,-2.912c-2.534,-106.842 21.236,-134.957 21.236,-134.957c4.607,-5.885 13.125,-6.924 19.011,-2.318c5.885,4.607 6.924,13.125 2.317,19.011c0,-0 -17.502,24.578 -15.519,116.165l50.687,206.176c0.994,4.04 0.074,8.313 -2.492,11.587c-2.567,3.275 -6.497,5.187 -10.658,5.187l-421.522,0c-4.155,0 -8.081,-1.908 -10.648,-5.175c-2.567,-3.268 -3.492,-7.533 -2.509,-11.571l50.221,-206.19c1.978,-90.915 -15.149,-115.231 -15.149,-115.231c-4.578,-5.908 -3.499,-14.421 2.409,-18.999c5.907,-4.578 14.42,-3.499 18.998,2.409c0,-0 23.308,27.821 20.788,133.906c-0.023,0.972 -0.15,1.939 -0.381,2.884l-46.493,190.884l387.012,0Z" style="fill:#1c1d20;"/><path d="M361.458,306.043l0,369.178c0,7.474 6.068,13.541 13.542,13.541c7.474,0 13.542,-6.067 13.542,-13.541l-0,-369.178c-0,-7.474 -6.068,-13.542 -13.542,-13.542c-7.474,-0 -13.542,6.068 -13.542,13.542Z" style="fill:#1c1d20;"/><path d="M220.799,479.849l159.953,-75.049c6.766,-3.175 9.682,-11.246 6.507,-18.012c-3.174,-6.766 -11.245,-9.682 -18.011,-6.507l-159.953,75.05c-6.766,3.174 -9.682,11.245 -6.507,18.011c3.175,6.766 11.245,9.682 18.011,6.507Z" style="fill:#1c1d20;"/><path d="M261.489,451.026l-7.796,-94.907c-0.611,-7.449 -7.156,-12.999 -14.604,-12.387c-7.449,0.611 -13,7.156 -12.388,14.604l7.796,94.907c0.612,7.449 7.156,12.999 14.605,12.388c7.448,-0.612 12.999,-7.156 12.387,-14.605Z" style="fill:#1c1d20;"/><path d="M293.299,434.417l-0,-64.405c-0,-7.474 -6.068,-13.542 -13.542,-13.542c-7.474,0 -13.541,6.068 -13.541,13.542l-0,64.405c-0,7.474 6.067,13.542 13.541,13.542c7.474,0 13.542,-6.068 13.542,-13.542Z" style="fill:#1c1d20;"/><path d="M324.964,423.958l5.397,-44.403c0.902,-7.419 -4.389,-14.175 -11.809,-15.077c-7.419,-0.901 -14.174,4.39 -15.076,11.809l-5.397,44.403c-0.902,7.419 4.389,14.175 11.809,15.077c7.419,0.902 14.174,-4.39 15.076,-11.809Z" style="fill:#1c1d20;"/><path d="M540.709,455.331l-159.957,-75.05c-6.766,-3.175 -14.837,-0.259 -18.011,6.507c-3.175,6.767 -0.259,14.837 6.507,18.012l159.957,75.049c6.766,3.175 14.837,0.259 18.012,-6.507c3.174,-6.766 0.258,-14.837 -6.508,-18.011Z" style="fill:#1c1d20;"/><path d="M515.508,453.243l7.796,-94.907c0.612,-7.448 -4.939,-13.993 -12.388,-14.604c-7.449,-0.612 -13.993,4.938 -14.605,12.387l-7.795,94.907c-0.612,7.449 4.938,13.993 12.387,14.605c7.449,0.611 13.993,-4.939 14.605,-12.388Z" style="fill:#1c1d20;"/><path d="M483.789,434.417l0,-64.405c0,-7.474 -6.068,-13.542 -13.542,-13.542c-7.473,0 -13.541,6.068 -13.541,13.542l-0,64.405c-0,7.474 6.068,13.542 13.541,13.542c7.474,0 13.542,-6.068 13.542,-13.542Z" style="fill:#1c1d20;"/><path d="M451.93,420.689l-5.401,-44.403c-0.903,-7.419 -7.659,-12.71 -15.078,-11.807c-7.419,0.902 -12.71,7.658 -11.807,15.077l5.401,44.403c0.903,7.42 7.659,12.71 15.078,11.808c7.419,-0.903 12.71,-7.659 11.807,-15.078Z" style="fill:#1c1d20;"/><path d="M277.44,71.417l195.143,-0c7.473,-0 13.541,-6.068 13.541,-13.542c0,-7.474 -6.068,-13.541 -13.541,-13.541l-195.143,-0c-7.474,-0 -13.541,6.067 -13.541,13.541c-0,7.474 6.067,13.542 13.541,13.542Z" style="fill:#1c1d20;"/><path d="M272.576,45.237c-30.174,11.613 -112.906,43.635 -121.994,48.049c-6.093,2.964 -12.666,8.953 -18.343,17.16c-7.183,10.382 -13.211,24.407 -15.723,38.093c-3.047,16.623 -86.841,445.204 -86.841,445.204c-0.01,0.051 -0.02,0.103 -0.029,0.154c-5.715,31.142 14.293,63.619 44.347,72.243l6.24,1.791c31.415,9.008 62.201,-10.108 68.325,-42.63c-0.047,0.242 46.609,-224.865 46.609,-224.865c0.016,-0.081 0.032,-0.162 0.047,-0.242c4.443,-23.592 9.814,-48.141 12.033,-54.535c2.451,-7.061 -1.292,-14.783 -8.353,-17.233c-7.06,-2.451 -14.782,1.292 -17.233,8.353c-2.378,6.852 -8.301,33.121 -13.062,58.402c0.048,-0.242 -46.608,224.866 -46.608,224.866c-0.017,0.08 -0.033,0.161 -0.048,0.242c-3.079,16.352 -18.45,26.137 -34.245,21.608c0.003,0.001 -6.235,-1.79 -6.235,-1.79c0,0 0,0 -0,0c-17.156,-4.922 -28.441,-23.545 -25.179,-41.322c-0.029,0.155 83.822,-428.728 86.871,-445.36c1.817,-9.901 6.159,-20.057 11.356,-27.57c2.578,-3.726 5.147,-6.867 7.91,-8.211c8.922,-4.332 90.236,-35.721 119.883,-47.131c6.975,-2.684 10.459,-10.527 7.774,-17.502c-2.684,-6.975 -10.527,-10.458 -17.502,-7.774Z" style="fill:#1c1d20;"/><path d="M87.079,674.885l8.204,-24.601c2.365,-7.09 10.04,-10.926 17.13,-8.562c7.09,2.365 10.927,10.041 8.562,17.131l-12.525,37.556c-1.142,3.426 -3.606,6.253 -6.843,7.854c-3.237,1.601 -6.979,1.843 -10.395,0.671l-58.105,-19.925c-7.032,-2.412 -10.806,-10.043 -8.453,-17.095l13.18,-39.501c2.365,-7.09 10.041,-10.925 17.131,-8.56c7.09,2.366 10.925,10.042 8.56,17.132l-8.929,26.761l32.483,11.139Z" style="fill:#1c1d20;"/><path d="M77.992,648.503l8.268,-68.167c0.9,-7.419 -4.393,-14.173 -11.812,-15.073c-7.42,-0.9 -14.174,4.393 -15.074,11.812l-8.268,68.167c-0.9,7.42 4.393,14.174 11.812,15.074c7.42,0.9 14.174,-4.393 15.074,-11.813Z" style="fill:#1c1d20;"/><path d="M96.763,659.339l18.263,-52.811c2.443,-7.064 -1.309,-14.781 -8.372,-17.224c-7.064,-2.443 -14.782,1.309 -17.224,8.372l-18.263,52.812c-2.442,7.064 1.309,14.781 8.373,17.224c7.063,2.442 14.781,-1.309 17.223,-8.373Z" style="fill:#1c1d20;"/><path d="M694.62,645.242l-8.269,-68.167c-0.9,-7.419 -7.654,-12.712 -15.073,-11.812c-7.42,0.9 -12.713,7.654 -11.813,15.073l8.268,68.167c0.9,7.42 7.655,12.713 15.074,11.813c7.419,-0.9 12.713,-7.654 11.813,-15.074Z" style="fill:#1c1d20;"/><path d="M674.558,650.488l-18.263,-52.812c-2.442,-7.063 -10.16,-10.815 -17.223,-8.372c-7.064,2.443 -10.815,10.16 -8.373,17.224l18.263,52.812c2.442,7.063 10.16,10.814 17.224,8.372c7.063,-2.443 10.815,-10.16 8.372,-17.224Z" style="fill:#1c1d20;"/></g></svg>