<?xml version="1.0" encoding="UTF-8" standalone="no"?><!DOCTYPE svg PUBLIC "-//W3C//DTD SVG 1.1//EN" "http://www.w3.org/Graphics/SVG/1.1/DTD/svg11.dtd"><svg width="100%" height="100%" viewBox="0 0 750 750" version="1.1" xmlns="http://www.w3.org/2000/svg" xmlns:xlink="http://www.w3.org/1999/xlink" xml:space="preserve" xmlns:serif="http://www.serif.com/" style="fill-rule:evenodd;clip-rule:evenodd;stroke-linejoin:round;stroke-miterlimit:2;"><g id="blouse-2"><path d="M140.523,182.835c1.02,-6.713 5.438,-15.183 15.359,-23.624c0.302,-0.257 0.614,-0.5 0.937,-0.729c0,-0 47.319,-33.569 83.868,-53.718c18.087,-9.971 34.221,-16.257 42.464,-16.257c-0,-0 183.694,-0 183.694,-0c8.244,-0 24.379,6.286 42.467,16.257c36.55,20.149 83.869,53.718 83.869,53.718c0.324,0.23 0.638,0.474 0.94,0.732c9.912,8.438 14.334,16.908 15.352,23.623c8.91,34.616 34.194,124.305 42.918,159.162l-0,0.001c15.636,62.491 52.43,223.988 72.851,280.727c1.335,3.71 0.987,7.818 -0.954,11.251c-1.941,3.432 -5.281,5.848 -9.148,6.617l-103.843,20.638c-3.867,0.769 -7.876,-0.186 -10.982,-2.615c-3.105,-2.428 -4.998,-6.09 -5.184,-10.028c-2.83,-59.92 -23.447,-223.802 -39.804,-285.764c-1.49,-5.646 -2.838,-10.478 -4.091,-14.752c-2.941,16.225 -4.853,33.447 -4.057,59.284l0,0.836c-1.197,38.733 3.908,101.495 12.85,168.831c0.514,3.869 -0.666,7.77 -3.237,10.706c-2.572,2.935 -6.284,4.619 -10.187,4.619l-343.215,-0c-3.902,-0 -7.615,-1.684 -10.186,-4.619c-2.571,-2.936 -3.751,-6.837 -3.238,-10.706c8.943,-67.337 14.047,-130.099 12.855,-168.833l-0,-0.834c0.796,-25.838 -1.117,-43.059 -4.06,-59.29c-1.253,4.275 -2.602,9.108 -4.093,14.757c-16.352,61.962 -36.974,225.844 -39.799,285.764c-0.185,3.938 -2.078,7.6 -5.184,10.029c-3.105,2.429 -7.115,3.384 -10.982,2.615l-103.843,-20.638c-3.867,-0.769 -7.207,-3.185 -9.148,-6.617c-1.94,-3.432 -2.289,-7.54 -0.954,-11.25c20.416,-56.739 57.215,-218.237 72.851,-280.727c8.719,-34.858 34.008,-124.546 42.914,-159.166Zm436.427,-2.659c-5.298,-3.742 -47.568,-33.422 -80.713,-51.693c-8.583,-4.732 -16.499,-8.685 -22.881,-11.064c-2.684,-1.001 -4.866,-1.829 -6.511,-1.829l-183.694,0c-1.645,0 -3.826,0.828 -6.51,1.829c-6.381,2.379 -14.297,6.332 -22.879,11.063c-33.148,18.274 -75.423,47.959 -80.714,51.696c-1.794,1.546 -3.262,3.036 -4.383,4.483c-0.564,0.728 -1.225,1.951 -1.36,2.205c-0.066,0.644 -0.182,1.281 -0.343,1.908c-8.713,33.996 -34.302,124.708 -43.079,159.8c-14.579,58.263 -47.475,201.765 -68.651,268.457l73.553,14.618c5.095,-70.239 24.289,-217.35 39.697,-275.735c8.815,-33.395 12.633,-38.217 20.173,-67.633c1.6,-6.243 7.379,-10.493 13.816,-10.161c6.436,0.332 11.747,5.154 12.696,11.529c6.895,46.305 16.348,64.157 14.735,118.123c1.089,36.811 -3.216,94.53 -11.116,157.494l312.423,0c-7.899,-62.958 -12.204,-120.68 -11.111,-157.494c-1.614,-53.967 7.836,-71.819 14.735,-118.124c0.95,-6.375 6.261,-11.197 12.698,-11.528c6.437,-0.332 12.215,3.92 13.814,10.163c7.535,29.415 11.354,34.237 20.169,67.631c15.413,58.39 34.606,205.526 39.7,275.735l73.553,-14.618c-21.179,-66.691 -54.071,-210.194 -68.649,-268.457c-8.782,-35.091 -34.366,-125.802 -43.085,-159.799c-0.161,-0.629 -0.277,-1.269 -0.344,-1.915c-0.136,-0.258 -0.795,-1.474 -1.357,-2.2c-1.12,-1.447 -2.589,-2.937 -4.382,-4.484Z" style="fill:#1c1d20;"/><path d="M263.659,105.73c10.496,60.895 56.925,105.916 111.704,105.916c54.764,-0 101.193,-45.005 111.7,-105.896c1.271,-7.365 -3.677,-14.376 -11.042,-15.647c-7.365,-1.271 -14.376,3.677 -15.647,11.042c-8.13,47.117 -42.634,83.418 -85.011,83.418c-42.388,-0 -76.892,-36.313 -85.014,-83.434c-1.27,-7.365 -8.28,-12.314 -15.645,-11.044c-7.365,1.269 -12.314,8.279 -11.045,15.645Z" style="fill:#1c1d20;"/></g></svg>