<?xml version="1.0" encoding="UTF-8" standalone="no"?><!DOCTYPE svg PUBLIC "-//W3C//DTD SVG 1.1//EN" "http://www.w3.org/Graphics/SVG/1.1/DTD/svg11.dtd"><svg width="100%" height="100%" viewBox="0 0 13021 13021" version="1.1" xmlns="http://www.w3.org/2000/svg" xmlns:xlink="http://www.w3.org/1999/xlink" xml:space="preserve" xmlns:serif="http://www.serif.com/" style="fill-rule:evenodd;clip-rule:evenodd;stroke-linejoin:round;stroke-miterlimit:2;"><path d="M1362.29,3387.5l-0.138,0.017c0,-0 4650.29,-461.338 4650.67,-461.388c201.042,-19.6 395.642,70.05 512.533,238.004c161.154,234.713 490.267,709.021 873.271,1235.51c4.833,6 9.379,12.246 13.613,18.708c349.458,479.904 742.304,1001.03 1092.58,1422.19c297.516,357.745 558.004,642.779 729.912,748.404c329.396,201.946 723.925,282.396 1130.21,343.508c447.955,67.375 910.192,109.633 1331.03,226.908c949.471,263.192 917.021,1093.93 905.946,1223.72l1.85,529.896c1.596,235.9 -143.75,448.246 -362.637,535.154c-2048.56,806.458 -4161.84,658.35 -4730.46,597.517c-156.008,-15.588 -298.591,-93.959 -398.47,-214.096c-0.938,-1.129 -1.875,-2.292 -2.813,-3.438c-34.2,-42.779 -68.366,-89.512 -96.825,-131.545c-337.621,-91.513 -1602.62,-337.571 -2079.53,-429.063c-7.971,-1.512 -15.992,2.379 -19.775,9.654c-0.033,0.067 -0.05,0.138 -0.088,0.188c0,-0 -244.858,470.8 -244.441,469.983c-92.379,179.325 -284.446,284.238 -484.934,264.375c0,0 -3321.99,-320.483 -3321.56,-320.433c-267.275,-25.296 -464.738,-261.234 -444.896,-528.454c0.038,-0.45 0.071,-0.888 0.104,-1.338c0,0 82.259,-1028.56 82.275,-1028.75c13.921,-172.292 119.129,-314.746 263.679,-384.179c-88.441,-152.167 -133.912,-331.008 -122.166,-518.513c36.021,-563.141 86.3,-1343.4 100.5,-1515.45c17,-211.616 102.954,-1330.12 140.816,-1837.33c20.246,-258.437 223.021,-464.429 479.775,-489.758l-0.02,-0Zm276.987,4845.5l-671.154,-59.496l-81.908,1024.11c-0.938,12.604 7.654,24.341 20.258,25.537c0.158,0 0.296,0.021 0.433,0.038c0,-0 3322.02,320.483 3322.62,320.537c8.8,0.867 17.134,-3.892 21.179,-11.737c0.138,-0.275 0.28,-0.538 0.417,-0.817c0,-0 244.863,-470.779 244.758,-470.588c100.225,-193.145 313.4,-295.141 525.225,-254.966c506.63,97.204 1880.87,366.3 2161.15,450.346c125.121,37.5 177.984,113.82 196.996,152.1l-2.329,-5.434c-0,0 61.442,84.013 96.825,128.334c21.162,25.47 50.608,43.508 85.296,46.979c543.421,58.125 2557.59,201.2 4509.17,-567.084c38.871,-15.433 65.625,-52.67 65.33,-94.704l-0,-0.779l-0.8,-229.525c-565.625,160.942 -1806.13,487.375 -2732.45,540.009c-1235.71,70.245 -2519.88,-253.888 -3150.3,-370.346c-613.021,-113.421 -1045.14,-227.867 -2602.29,-363.804c-785.166,-69.446 -1494.06,-172.459 -2008.45,-258.713l0.017,-0Zm4607.67,-4644.33c-41.538,-59.988 -77.938,-112.817 -108.379,-157.155c-18.192,-26.145 -48.575,-40.466 -79.721,-37.429l-4650.29,461.338l-0.121,-0c-30.658,3.037 -54.758,27.708 -57.116,57.708c-37.85,507.067 -123.925,1627.19 -140.992,1839.62c-14.167,171.562 -64.096,947.362 -99.879,1507.02c-14.25,227.43 144.446,428.817 368.979,468.505c511.437,90.87 1309.51,215.47 2209.44,295.07c1583.6,138.246 2023.12,254.463 2646.6,369.825c608.07,112.33 1846.11,431.025 3038.14,363.267c966.196,-54.896 2287.01,-421.008 2752.41,-557.642c-27.363,-177.966 -137.604,-470.433 -555.992,-586.404c-403.208,-112.362 -846.179,-150.471 -1275.05,-214.966c-470.575,-70.78 -924.512,-173.717 -1306.23,-407.725c-197.15,-121.146 -504.65,-438.7 -845.467,-848.471c-4.875,-5.859 -9.754,-11.738 -14.675,-17.675l-732.6,-0c-129.758,-0 -235.104,-105.346 -235.104,-235.088c-0,-129.758 105.346,-235.104 235.104,-235.104l355.675,0c-42.692,-54.775 -85.542,-110.204 -128.392,-166.042l-630.962,0c-129.758,0 -235.104,-105.329 -235.104,-235.087c-0,-129.754 105.346,-235.104 235.104,-235.104l276.55,-0c-58.467,-78.829 -116.296,-157.379 -173.125,-235.05l-687.663,-0c-129.758,-0 -235.087,-105.329 -235.087,-235.088c-0,-129.758 105.329,-235.104 235.087,-235.104l347.734,0c-62.717,-87.729 -122.871,-172.4 -179.85,-253.004l-649.084,0c-129.754,0 -235.104,-105.346 -235.104,-235.104c0,-129.759 105.35,-235.104 235.104,-235.104l320.059,-0Z"/></svg>