<?xml version="1.0" encoding="UTF-8" standalone="no"?><!DOCTYPE svg PUBLIC "-//W3C//DTD SVG 1.1//EN" "http://www.w3.org/Graphics/SVG/1.1/DTD/svg11.dtd"><svg width="100%" height="100%" viewBox="0 0 13021 13021" version="1.1" xmlns="http://www.w3.org/2000/svg" xmlns:xlink="http://www.w3.org/1999/xlink" xml:space="preserve" xmlns:serif="http://www.serif.com/" style="fill-rule:evenodd;clip-rule:evenodd;stroke-linejoin:round;stroke-miterlimit:2;"><path d="M636.738,7108.17l-0,-5654.33c-0,-193.75 116.595,-367.221 295.504,-441.425c0.433,-0.171 0.85,-0.346 1.283,-0.521l339.2,-138.312c1.217,-0.504 2.433,-0.992 3.646,-1.458c175.712,-68.25 365.279,61.908 365.279,249.529l0,3953.15c29.971,102.125 224.204,743.125 462.933,1045.08c260.434,329.6 585.85,599.533 909.721,866.737c1117.32,923.084 2270.12,1839.49 3112.16,3016.41l768.012,-0c842.038,-1176.92 1994.84,-2093.32 3112.28,-3016.51c323.75,-267.1 649.15,-537.033 909.6,-866.633c238.642,-301.975 432.984,-943.125 462.934,-1045.12l-0,-3953.1c-0,-187.988 190.35,-317.779 365.537,-249.392c1.079,0.433 2.171,0.867 3.246,1.3c-0,0 339.308,138.317 340.625,138.854c178.908,74.204 295.504,247.675 295.504,441.425l0,5654.46c115.088,567.358 196.583,1142.66 216.354,1722.86c4.984,145.446 5.896,291.604 1.288,437.558c2,12.313 3.037,24.959 3.037,37.842l0,2624.91c0,129.845 -105.241,235.104 -235.087,235.104l-2163.54,-0c-10.629,-0 -21.092,-0.704 -31.362,-2.075c-312.763,9.796 -630.467,-26.779 -935.096,-93.425c-468.68,-102 -932.734,-281.696 -1339.37,-538.459l-2779.92,0c-406.583,256.755 -870.55,436.434 -1339.12,538.405c-304.734,66.67 -622.5,103.258 -935.33,93.475c-10.258,1.37 -20.733,2.079 -31.37,2.079l-2163.65,-0c-129.846,-0 -235.104,-105.259 -235.104,-235.104l-0,-2624.91c-0,-13.079 1.07,-25.908 3.133,-38.425c-4.588,-145.775 -3.675,-291.688 1.292,-436.888c19.7,-580.32 101.204,-1155.73 216.375,-1723.1l-0.001,0.03Zm10943.5,-1224.87c-85.558,195.258 -187,391.458 -294.983,528.125c-281.096,355.712 -629.879,649.529 -979.167,937.708c-1080.09,892.309 -2198.8,1773.59 -3015.62,2908.53c404.688,732.204 1224.55,1174.51 2049.55,1354.06c580.938,127.1 1220.02,141.579 1736.91,-152.85c417.587,-237.429 709.858,-656.963 869.479,-1110.21c168.541,-478.558 201.546,-995.087 184.2,-1501.42c-19.075,-559.717 -98.846,-1114.57 -210.575,-1661.86c-0.896,-3.858 -1.692,-7.758 -2.392,-11.687c-13.521,-65.959 -27.521,-131.871 -41.929,-197.667c-36.633,-167.675 -174.704,-665.383 -295.467,-1092.73Zm-10139.6,0.067c-120.762,427.312 -258.837,925.054 -295.483,1092.78c-14.313,65.296 -28.217,130.704 -41.659,196.2c-0.837,4.858 -1.82,9.667 -2.954,14.429c-111.646,546.783 -191.287,1101.18 -210.266,1660.5c-17.346,506.3 15.675,1022.83 184.2,1501.39c159.637,453.245 451.804,872.795 869.55,1110.3c516.82,294.342 1155.9,279.863 1737.1,152.709c427.729,-93.088 854.112,-256.863 1222.01,-495.129c13.204,-10.959 27.625,-20.5 43.029,-28.392c322.875,-217.021 597.663,-492.963 784.246,-830.508c-816.804,-1134.91 -1935.52,-2016.2 -3015.49,-2908.42c-349.409,-288.267 -698.209,-582.083 -979.25,-937.763c-108.059,-136.666 -209.517,-332.883 -295.038,-528.091Zm-554.512,5161.42l-0,651.638l570.645,-0c-227.57,-178.438 -418.779,-402.35 -570.645,-651.638Zm11248.5,0.125c-151.85,249.221 -343.079,473.121 -570.625,651.509l570.625,-0l0,-651.509Zm-5262.25,-571.666l-723.996,-0c-118.841,217.083 -268.141,413.5 -440.508,589.2l1605,-0c-172.392,-175.734 -321.671,-372.138 -440.492,-589.2Zm-5701,-5361.08l0,-3689.45l-59.096,24.096c-3.004,1.25 -5.437,3.821 -5.437,7.084l-0,3883.85c28.217,-98.916 50.833,-177.837 64.533,-225.575Zm10678,-3689.45l0,3689.45c13.692,47.7 36.3,126.605 64.529,225.575l0,-3883.85c0,-3.263 -2.429,-5.834 -4.129,-6.546l-60.4,-24.634Z"/></svg>