<?xml version="1.0" encoding="UTF-8" standalone="no"?><!DOCTYPE svg PUBLIC "-//W3C//DTD SVG 1.1//EN" "http://www.w3.org/Graphics/SVG/1.1/DTD/svg11.dtd"><svg width="100%" height="100%" viewBox="0 0 13021 13021" version="1.1" xmlns="http://www.w3.org/2000/svg" xmlns:xlink="http://www.w3.org/1999/xlink" xml:space="preserve" xmlns:serif="http://www.serif.com/" style="fill-rule:evenodd;clip-rule:evenodd;stroke-linejoin:round;stroke-miterlimit:2;"><path d="M881.408,5624.83c-0.679,-7.258 -1.025,-14.612 -1.025,-22.046l0,-4585.33c0,-193.854 117.534,-369.321 297.517,-442.775l341.338,-139.083c1.42,-0.571 2.845,-1.146 4.287,-1.7c173.904,-66.892 364.737,58.262 364.737,250.537l0,4764c11.2,35.134 14.109,72.809 7.9,110.025c0,0 -49.149,307.117 138.646,580.192c220.313,320.104 603.838,675.917 1344.69,856.163c872.675,212.308 1616.34,871.195 1616.34,871.195c1.65,1.475 3.284,2.971 4.896,4.48c0,-0 788.942,747.329 1037.2,1551.22c89.95,291.529 146.513,506.059 210.417,658.213c28.788,68.541 52.796,120.746 95.867,151.162c40.35,28.509 93.958,32.171 166.2,32.171c72.237,0 125.833,-3.662 166.162,-32.154c43.059,-30.417 67.05,-82.621 95.817,-151.146c63.904,-152.171 120.471,-366.717 210.433,-658.333c248.35,-803.8 1037.17,-1551.11 1037.17,-1551.11c1.617,-1.525 3.246,-3.021 4.912,-4.496c0,0 743.646,-658.887 1616.44,-871.195c740.8,-180.225 1124.22,-536.025 1344.45,-856.13c187.933,-273.158 138.854,-580.279 138.854,-580.279c-4.846,-29.116 -4.112,-58.516 1.804,-86.746l0,-4770.58c0,-191.962 190.017,-317.433 364.425,-250.712c1.584,0.608 3.163,1.233 4.725,1.875c0,-0 341.113,139.008 341.217,139.062c179.946,73.438 297.621,248.942 297.621,442.779l-0,4494.04c14.983,294.05 185.467,3677.9 142.879,4561.42c-9.317,193.2 -25.404,382.329 -52.117,564.825l0,1715.49c0,129.842 -105.241,235.104 -235.087,235.104l-1684.76,0c-22.496,0 -44.263,-3.166 -64.888,-9.087c-695.004,43.212 -1358.75,-180.321 -1771.05,-301.138c-549.633,-159.983 -1090.42,-579.446 -1376.63,-739.412c-214.984,-120.104 -533.575,-134.529 -582.379,-136.004c-48.821,1.475 -367.484,15.9 -582.45,135.987c-286.246,159.983 -826.925,579.446 -1376.25,739.308c-412.663,120.921 -1076.55,344.534 -1771.55,301.284c-20.592,5.904 -42.334,9.062 -64.809,9.062l-1684.74,0c-129.846,0 -235.104,-105.262 -235.104,-235.104l-0,-1715.9c-26.663,-182.304 -42.721,-371.337 -52.013,-564.433c-39.779,-825.279 106.275,-3832.34 137.9,-4464.62l0,-0.063Zm10881.7,4956.5c23.046,-166.233 36.129,-338.887 44.604,-514.487c37.463,-777.258 -92.692,-3509.65 -132.641,-4311.96l-80.067,-0c-13.542,179.616 -65.125,422.55 -221.792,650.275c-266.541,387.433 -724.025,828.354 -1620.69,1046.5c-738.541,179.65 -1370.38,726.388 -1412.97,763.817c-46.58,44.029 -698.8,669.621 -907.413,1344.83c-95.954,311.004 -158.004,539.304 -226.162,701.65c-70.329,167.463 -152.829,278.8 -258.054,353.142c-107.988,76.283 -244.03,118.317 -437.467,118.317c-193.421,-0 -329.479,-42.017 -437.467,-118.3c-105.242,-74.359 -187.758,-185.68 -258.108,-353.142c-68.175,-162.346 -130.258,-390.663 -226.196,-701.617c-208.542,-675.258 -860.833,-1300.85 -907.412,-1344.88c-42.467,-37.308 -674.359,-584.146 -1412.9,-763.817c-896.617,-218.141 -1354.2,-659.045 -1620.9,-1046.53c-156.612,-227.741 -208.104,-470.658 -221.612,-650.241l-80.104,-0c-39.934,802.291 -170.017,3534.7 -132.554,4312c8.462,175.766 21.55,348.579 44.625,514.941c4.587,17.175 7.27,35.113 7.816,53.584c90.438,589.9 316.025,1092.84 922.159,1350.02c827.033,351.821 1735.59,3.317 2232.15,-142.187c512.554,-149.167 1011.77,-549.254 1278.7,-698.438c320.016,-178.787 805.433,-195.746 805.433,-195.746c4.254,-0.125 8.504,-0.125 12.758,0c0,0 485.296,16.959 805.35,195.763c266.892,149.167 766.213,549.254 1279.08,698.542c496.146,145.383 1404.79,493.887 2231.94,141.979c605.834,-257.046 831.425,-759.784 921.938,-1349.47c0.525,-18.804 3.262,-37.054 7.958,-54.517l0,-0.025Zm-10497.4,1289.04l-0,264.317l261.533,-0c-98.758,-80.517 -185.429,-168.929 -261.533,-264.317Zm10489.3,0.075c-76.038,95.333 -162.713,183.75 -261.459,264.242l261.459,-0l-0,-264.242Zm-158.367,-10869.4l0,4283.6l67.588,-0l-0,-4250.67c-0,-3.283 -2.05,-6.216 -4.984,-7.416l-62.604,-25.521Zm-10178.6,-16.559l-62.5,25.471c-3.021,1.234 -5,4.184 -5,7.446l-0,4267.25l67.5,0l-0,-4300.17Z"/></svg>