<?xml version="1.0" encoding="UTF-8" standalone="no"?><!DOCTYPE svg PUBLIC "-//W3C//DTD SVG 1.1//EN" "http://www.w3.org/Graphics/SVG/1.1/DTD/svg11.dtd"><svg width="100%" height="100%" viewBox="0 0 3125 3125" version="1.1" xmlns="http://www.w3.org/2000/svg" xmlns:xlink="http://www.w3.org/1999/xlink" xml:space="preserve" xmlns:serif="http://www.serif.com/" style="fill-rule:evenodd;clip-rule:evenodd;stroke-linejoin:round;stroke-miterlimit:2;"><path d="M732.696,381.433l250.612,0c30.871,0 56.013,24.813 56.417,55.679c0,0 7.425,657.121 176.342,1016.76c64.634,137.656 196.215,294.1 345.502,443.362c149.662,-149.365 282.716,-305.754 347.369,-443.366c168.912,-359.634 176.337,-1016.75 176.337,-1016.75c0.404,-30.866 25.546,-55.679 56.417,-55.679l250.637,0c30.475,0 55.446,24.2 56.396,54.663c-0,-0 12.383,394.937 117.287,802.258c100.93,391.683 433.259,605.617 433.259,605.617c16.146,10.383 25.904,28.262 25.904,47.458l0,795.713c0,31.162 -25.262,56.425 -56.425,56.425l-2812.5,-0c-31.163,-0 -56.425,-25.263 -56.425,-56.425l0,-795.713c0,-19.196 9.758,-37.075 25.904,-47.458c0,-0 332.329,-213.934 433.259,-605.609c104.908,-407.329 117.312,-802.27 117.312,-802.27c0.954,-30.459 25.921,-54.659 56.396,-54.659Zm-520.021,2224.28l0,25.009l2699.65,-0l0,-25.009l-2699.65,0Zm1983.72,-2111.43c-6.733,171.075 -38.946,695.925 -185.321,1007.56c-68.915,146.696 -209.274,314.627 -368.614,474.046c265.076,251.1 556.826,467.429 624.753,516.966l645.111,0l-0,-572.125c-85.913,-63.025 -361.467,-288.946 -455.592,-654.225c-84.391,-327.671 -110.637,-647.571 -118.058,-772.225l-142.279,0Zm-1267.79,0l-142.258,0c-7.429,124.654 -33.688,444.554 -118.079,772.234c-94.125,365.27 -369.68,591.191 -455.592,654.216l-0,572.125l1867.87,0c-135.068,-104.616 -350.23,-278.494 -547.433,-469.201c-3.946,-2.41 -7.657,-5.35 -11.03,-8.815c-2.614,-2.688 -4.907,-5.57 -6.877,-8.598c-172.034,-168.222 -327.947,-348.212 -401.285,-504.402c-146.367,-311.638 -178.583,-836.484 -185.317,-1007.56Z"/></svg>