<?xml version="1.0" encoding="UTF-8" standalone="no"?><!DOCTYPE svg PUBLIC "-//W3C//DTD SVG 1.1//EN" "http://www.w3.org/Graphics/SVG/1.1/DTD/svg11.dtd"><svg width="100%" height="100%" viewBox="0 0 13021 13021" version="1.1" xmlns="http://www.w3.org/2000/svg" xmlns:xlink="http://www.w3.org/1999/xlink" xml:space="preserve" xmlns:serif="http://www.serif.com/" style="fill-rule:evenodd;clip-rule:evenodd;stroke-linejoin:round;stroke-miterlimit:2;"><path d="M6599.08,5342.04c86.6,-252.396 249.488,-487.704 476.542,-689.934c453.471,-403.887 1170.38,-677.446 2003.14,-677.446c692.02,0 2099.99,485.984 2355.1,576.092l935.937,0c166.092,0 238.025,129.596 235.017,241.425c-87.688,3260.12 -87.879,3260.12 -87.879,3260.12c-2.484,92.483 -58.979,174.896 -144.342,210.575c0,0 -2025.7,840.188 -3305.04,780.083c-643.229,-30.708 -1117,-164.008 -1526,-284.287c-365.246,-107.396 -683.85,-184.896 -1028.38,-184.896c-344.529,0 -668.637,77.5 -1033.89,184.896c-409.03,120.279 -882.813,253.579 -1526.27,284.287c-1279.06,60.104 -3304.76,-780.083 -3304.76,-780.083c-85.363,-35.679 -141.859,-118.092 -144.342,-210.575l-87.879,-3260.12c4.712,-112.208 122.708,-241.425 235.016,-241.425l935.942,0c255.125,-90.108 1663.16,-576.092 2355.1,-576.092c832.758,0 1549.67,273.559 2003.14,677.446c227.054,202.229 389.941,437.538 476.541,689.934l177.3,-0Zm-5206.58,-321.096l-499.896,-0l77.204,2864.62c351.455,138.666 1305.06,493.604 2183.98,633.079c-1017.05,-384.742 -1761.29,-1493.58 -1761.29,-2814.62l0,-683.075Zm10235.9,-0l-0,683.075c-0,1321.05 -744.246,2429.88 -1761.19,2814.58c879.042,-139.529 1832.46,-494.392 2183.88,-633.054l77.205,-2864.6l-499.896,-0Zm-5103.62,791.304l-28.667,0c23.396,1161.42 -622.817,2148.84 -1505.92,2595.83c214.717,-55.766 406.709,-116.554 588.5,-168.158c320.85,-91.075 633.313,-153.592 951.867,-153.592c318.55,0 590.792,62.517 911.625,153.592c181.829,51.617 373.858,112.421 588.575,168.187c-883.096,-446.975 -1529.3,-1434.33 -1505.98,-2595.86Zm-502.946,-94.117c-1.842,-30.654 -10.104,-362.966 -389.304,-714.896c-374.729,-347.779 -989.342,-558.383 -1690.42,-558.383c-574.096,0 -1674.42,365.154 -2079.41,506.75l-0,752.417c-0,1365.17 919.562,2489.34 2079.41,2489.34c1155.97,0 2161.58,-1117.03 2079.74,-2475.19l-0.017,-0.034Zm5136.38,-766.529c-404.946,-141.596 -1505.24,-506.75 -2079.41,-506.75c-701.075,0 -1308.65,218.35 -1690.42,558.383c-228.179,203.213 -373.317,449.03 -389.304,714.896l-0.021,0.034c-81.838,1358.16 923.771,2475.19 2079.74,2475.19c1159.85,0 2079.41,-1124.17 2079.41,-2489.34l-0,-752.417Z"/></svg>