<?xml version="1.0" encoding="UTF-8" standalone="no"?><!DOCTYPE svg PUBLIC "-//W3C//DTD SVG 1.1//EN" "http://www.w3.org/Graphics/SVG/1.1/DTD/svg11.dtd"><svg width="100%" height="100%" viewBox="0 0 750 750" version="1.1" xmlns="http://www.w3.org/2000/svg" xmlns:xlink="http://www.w3.org/1999/xlink" xml:space="preserve" xmlns:serif="http://www.serif.com/" style="fill-rule:evenodd;clip-rule:evenodd;stroke-linejoin:round;stroke-miterlimit:2;"><g id="bra-6"><path d="M373.891,327.738c5.711,94.775 -66.161,171.282 -146.827,171.282c-80.458,0 -146.858,-75.768 -146.858,-170.469l0,-52.887c0,-5.687 3.554,-10.768 8.896,-12.719c0,-0 94.034,-34.005 137.962,-34.005c47.967,-0 89.261,15.757 115.381,39.021c18.932,16.862 30.119,37.717 31.446,59.777Zm-266.601,-42.526l-0,43.339c-0,78.634 52.967,143.386 119.774,143.386c66.584,0 124.507,-64.341 119.793,-142.571l-0.001,-0.002c-0.921,-15.314 -9.282,-29.473 -22.424,-41.178c-21.99,-19.586 -56.986,-32.163 -97.368,-32.163c-33.068,0 -96.447,21.033 -119.774,29.189Zm266.601,42.526l-0,-0.001l-0,0.001Z" style="fill:#1c1d20;"/><path d="M93.748,262.123l-10.653,-0c-7.474,-0 -13.542,6.067 -13.542,13.541c0,7.474 6.068,13.542 13.542,13.542l10.653,-0c7.474,-0 13.542,-6.068 13.542,-13.542c-0,-7.474 -6.068,-13.541 -13.542,-13.541Z" style="fill:#1c1d20;"/><path d="M376.109,327.738c1.327,-22.06 12.514,-42.915 31.446,-59.777c26.12,-23.264 67.414,-39.021 115.381,-39.021c43.933,-0 137.962,34.005 137.962,34.005c5.342,1.951 8.896,7.032 8.896,12.719l-0,52.887c-0,94.701 -66.4,170.469 -146.858,170.469c-80.666,0 -152.538,-76.507 -146.827,-171.282Zm266.601,-42.526c-23.325,-8.156 -86.702,-29.189 -119.774,-29.189c-40.382,0 -75.378,12.577 -97.368,32.163c-13.143,11.705 -21.503,25.864 -22.424,41.178l-0.001,0.002c-4.714,78.23 53.209,142.571 119.793,142.571c66.807,0 119.774,-64.752 119.774,-143.386l0,-43.339Zm-266.601,42.524l0,0.002l0,-0.002Z" style="fill:#1c1d20;"/><path d="M698.588,289.206l-42.336,-0c-7.474,-0 -13.542,-6.068 -13.542,-13.542c0,-7.474 6.068,-13.541 13.542,-13.541l56.248,-0c3.655,-0 7.154,1.477 9.704,4.096c2.549,2.619 3.931,6.157 3.833,9.81l-5.062,187.783c-0.143,5.327 -3.397,10.074 -8.314,12.129c0,0 -116.68,48.395 -190.37,44.933c-37.05,-1.769 -64.339,-9.447 -87.898,-16.375c-21.038,-6.186 -38.701,-11.954 -58.504,-10.65c-0.592,0.039 -1.186,0.039 -1.779,-0c-19.802,-1.304 -37.465,4.464 -58.504,10.65c-23.56,6.928 -50.85,14.606 -87.913,16.375c-73.674,3.462 -190.354,-44.933 -190.354,-44.933c-4.917,-2.055 -8.171,-6.802 -8.314,-12.129l-5.062,-187.783c-0.098,-3.653 1.284,-7.191 3.833,-9.81c2.55,-2.619 6.049,-4.096 9.704,-4.096l43.311,-0c7.473,-0 13.541,6.067 13.541,13.541c0,7.474 -6.068,13.542 -13.541,13.542l-29.399,-0l4.447,165.002c26.532,10.468 112.641,42.334 170.553,39.613c41.537,-1.982 69.904,-12.101 94.919,-19.202c18.481,-5.246 35.351,-8.906 53.669,-7.847c18.317,-1.059 35.188,2.601 53.668,7.847c25.014,7.101 53.38,17.22 94.904,19.202c57.926,2.721 144.036,-29.145 170.569,-39.614l4.447,-165.001Z" style="fill:#1c1d20;"/><path d="M359.48,334.785l30.146,-0c7.474,-0 13.542,-6.068 13.542,-13.542c0,-7.474 -6.068,-13.542 -13.542,-13.542l-30.146,0c-7.474,0 -13.541,6.068 -13.541,13.542c-0,7.474 6.067,13.542 13.541,13.542Z" style="fill:#1c1d20;"/></g></svg>