<?xml version="1.0" encoding="UTF-8" standalone="no"?><!DOCTYPE svg PUBLIC "-//W3C//DTD SVG 1.1//EN" "http://www.w3.org/Graphics/SVG/1.1/DTD/svg11.dtd"><svg width="100%" height="100%" viewBox="0 0 13021 13021" version="1.1" xmlns="http://www.w3.org/2000/svg" xmlns:xlink="http://www.w3.org/1999/xlink" xml:space="preserve" xmlns:serif="http://www.serif.com/" style="fill-rule:evenodd;clip-rule:evenodd;stroke-linejoin:round;stroke-miterlimit:2;"><path d="M2255.22,5403.88l0,-4372.12c0,-197.779 119.879,-376.787 303.333,-451.804l354.742,-144.238c0.817,-0.329 1.629,-0.658 2.446,-0.987c176.112,-69.325 368.229,56.458 368.229,250.587l0,5189.75l3226.4,3214.56l3226.4,-3214.48l-0,-5189.83c-0,-193.904 192.379,-319.825 368.317,-250.588c0.816,0.329 1.633,0.659 2.445,0.988c0,-0 354.309,144.046 354.742,144.221c183.454,75.033 303.333,254.041 303.333,451.82l0,4372.13l528.446,5053.42l284.538,0c129.846,0 235.087,105.258 235.087,235.104l0,1677.41c0,129.842 -105.241,235.104 -235.087,235.104l-10136.3,0c-129.841,0 -235.083,-105.262 -235.083,-235.104l0,-1677.41c0,-129.845 105.242,-235.104 235.083,-235.104l284.542,0l528.446,-5053.42l-0.021,0.013Zm4255.17,4285.79c-920.8,497.987 -1801.15,796.166 -2539.42,974.395c-7.996,2.38 -16.079,4.317 -24.2,5.813c-1080.32,258.146 -1851.97,259.346 -1992.98,257.096c-5.004,0.316 -10.038,0.479 -15.113,0.479l-261.321,-0l0,1207.22l9666.17,-0l0,-1207.22l-261.317,-0c-5.075,-0 -10.108,-0.163 -15.112,-0.479c-140.996,2.25 -912.625,1.046 -1993.23,-257.142c-7.967,-1.475 -15.883,-3.371 -23.717,-5.696c-738.433,-178.266 -1618.85,-476.446 -2539.74,-974.466l-0.021,-0Zm-3948.84,-2694.05l-361.487,3456.75c269.7,-11.446 739.679,-49.834 1336.09,-172.68c-165.125,-326.116 -328.258,-780.646 -477.283,-1284.79c-190.642,-644.904 -362.3,-1372.31 -497.317,-1999.28Zm7897.75,-0.004c-135.016,626.975 -306.675,1354.38 -497.316,1999.29c-149.025,504.142 -312.159,958.671 -477.275,1284.77c596.391,122.845 1066.36,161.241 1336.08,172.695l-361.484,-3456.75Zm-7598.75,-878.671c140.063,712.726 374.563,1815.63 649.196,2744.66c158.063,534.683 325.925,1010.88 499.283,1308.44c626.35,-161.467 1351.43,-413.321 2110.82,-805.767l-3259.3,-3247.33Zm7299.71,-0.025l-3259.39,3247.36c759.467,392.429 1484.56,644.279 2110.92,805.75c173.346,-297.538 341.208,-773.738 499.271,-1308.42c274.679,-929.188 509.208,-2032.3 649.2,-2744.69Zm46.704,-5133.21l-0,4422.96l88.437,-88.113l0,-4286.79c0,-7.258 -4.375,-13.854 -10.679,-16.425l-77.758,-31.612l-0,-0.017Zm-7393.21,4422.88l0,-4422.83l-77.237,31.408c-6.738,2.742 -11.113,9.338 -11.113,16.596l0,4286.79l88.35,88.025l0,0.012Z"/></svg>