<?xml version="1.0" encoding="UTF-8" standalone="no"?><!DOCTYPE svg PUBLIC "-//W3C//DTD SVG 1.1//EN" "http://www.w3.org/Graphics/SVG/1.1/DTD/svg11.dtd"><svg width="100%" height="100%" viewBox="0 0 750 750" version="1.1" xmlns="http://www.w3.org/2000/svg" xmlns:xlink="http://www.w3.org/1999/xlink" xml:space="preserve" xmlns:serif="http://www.serif.com/" style="fill-rule:evenodd;clip-rule:evenodd;stroke-linejoin:round;stroke-miterlimit:2;"><g id="bra-2"><path d="M67.476,81.946l-3.404,1.388c-0.173,0.072 -0.313,0.22 -0.313,0.408l-0,327.076c-0,7.474 -6.068,13.542 -13.542,13.542c-7.474,-0 -13.541,-6.068 -13.541,-13.542c-0,-0 -0,-327.076 -0,-327.076c-0,-11.16 6.716,-21.152 17.021,-25.426c0.025,-0.01 0.049,-0.02 0.074,-0.03l19.538,-7.967c0.07,-0.029 0.14,-0.057 0.21,-0.084c10.121,-3.931 21.04,3.566 21.04,14.373l0,230.686c0,7.474 -6.068,13.542 -13.541,13.542c-7.474,-0 -13.542,-6.068 -13.542,-13.542l-0,-213.348Z" style="fill:#1c1d20;"/><path d="M94.328,291.513c-1.683,-5.789 -6.991,-9.768 -13.019,-9.761c-6.029,0.008 -11.327,4 -12.996,9.793c0,-0 -24.792,86.113 -28.808,104.491c-8.111,37.007 -14.002,74.643 -15.292,112.645c-1.113,32.517 1.307,65.658 12.133,96.398c11.339,32.199 32.571,61.63 62.236,78.496c35.505,20.221 79.306,20.451 119.226,11.717c58.104,-12.645 114.981,-46.035 140.297,-99.807c2.056,-4.367 1.632,-9.498 -1.112,-13.468c-48.811,-70.614 -117.171,-124.897 -183.369,-179.587c-18.655,-15.391 -37.399,-30.939 -52.4,-49.924c-14.966,-18.93 -26.896,-60.993 -26.896,-60.993Zm-11.346,47.369c-6.956,24.613 -14.909,53.283 -17.02,62.944c-7.762,35.414 -13.447,71.415 -14.681,107.777c-0.999,29.163 0.903,58.915 10.61,86.48c9.195,26.107 26.024,50.273 50.086,63.953c29.769,16.954 66.58,16.12 100.057,8.796c47.507,-10.339 94.726,-35.817 118.039,-77.992c-47.048,-65.371 -111.486,-116.133 -173.692,-167.525c-20.126,-16.604 -40.217,-33.528 -56.405,-54.015c-6.224,-7.872 -12.068,-19.174 -16.994,-30.418Z" style="fill:#1c1d20;"/><path d="M51.042,673.713l111.084,-0c7.473,-0 13.541,6.067 13.541,13.541c0,7.474 -6.068,13.542 -13.541,13.542l-124.626,-0c-7.479,-0 -13.542,-6.063 -13.542,-13.542l0,-151.195c0,-7.474 6.068,-13.541 13.542,-13.541c7.474,-0 13.542,6.067 13.542,13.541l-0,137.654Z" style="fill:#1c1d20;"/><path d="M682.53,81.946l-0,213.348c-0,7.474 -6.068,13.542 -13.542,13.542c-7.474,-0 -13.541,-6.068 -13.541,-13.542l-0,-230.686c-0,-10.828 10.964,-18.304 21.055,-14.365c0.062,0.025 0.125,0.05 0.187,0.075c0,0 19.544,7.967 19.62,7.998c10.305,4.274 17.021,14.266 17.021,25.426l0,327.076c0,7.474 -6.068,13.542 -13.541,13.542c-7.474,-0 -13.542,-6.068 -13.542,-13.542c-0,-0 -0,-327.076 -0,-327.076c-0,-0.188 -0.14,-0.336 -0.238,-0.377l-3.479,-1.419Z" style="fill:#1c1d20;"/><path d="M681.693,291.545c-1.669,-5.793 -6.967,-9.785 -12.995,-9.793c-6.029,-0.008 -11.336,3.971 -13.02,9.759c-0,0 -11.937,42.066 -26.896,60.995c-15.002,18.985 -33.745,34.533 -52.393,49.918c-66.205,54.696 -134.565,108.979 -183.376,179.593c-2.744,3.97 -3.168,9.1 -1.113,13.467c25.31,53.772 82.194,87.163 140.312,99.811c39.906,8.731 83.707,8.501 119.215,-11.726c29.656,-16.86 50.893,-46.291 62.233,-78.489c10.826,-30.741 13.246,-63.882 12.132,-96.404c-1.295,-37.998 -7.186,-75.632 -15.292,-112.646c-4.015,-18.372 -28.807,-104.485 -28.807,-104.485Zm-14.67,47.333c-4.928,11.247 -10.771,22.548 -16.991,30.42c-16.191,20.489 -36.281,37.413 -56.4,54.012c-62.213,51.397 -126.651,102.159 -173.7,167.531c23.31,42.175 70.534,67.652 118.054,77.994c33.462,7.321 70.273,8.155 100.046,-8.804c24.053,-13.676 40.888,-37.841 50.082,-63.948c9.708,-27.565 11.609,-57.317 10.61,-86.482c-1.239,-36.359 -6.925,-72.362 -14.682,-107.782c-2.11,-9.658 -10.063,-38.326 -17.019,-62.941Z" style="fill:#1c1d20;"/><path d="M698.958,673.713l0,-137.654c0,-7.474 6.068,-13.541 13.542,-13.541c7.474,-0 13.541,6.067 13.541,13.541l0,151.195c0,7.479 -6.062,13.542 -13.541,13.542l-124.62,-0c-7.474,-0 -13.542,-6.068 -13.542,-13.542c0,-7.474 6.068,-13.541 13.542,-13.541l111.078,-0Z" style="fill:#1c1d20;"/><path d="M345.853,603.258l58.299,0c7.474,0 13.542,-6.068 13.542,-13.541c0,-7.474 -6.068,-13.542 -13.542,-13.542l-58.299,-0c-7.474,-0 -13.541,6.068 -13.541,13.542c-0,7.473 6.067,13.541 13.541,13.541Z" style="fill:#1c1d20;"/><path d="M291.061,664.28l165.608,-0c7.474,-0 13.542,-6.068 13.542,-13.542c0,-7.474 -6.068,-13.542 -13.542,-13.542l-165.608,0c-7.474,0 -13.542,6.068 -13.542,13.542c0,7.474 6.068,13.542 13.542,13.542Z" style="fill:#1c1d20;"/></g></svg>