<?xml version="1.0" encoding="UTF-8" standalone="no"?><!DOCTYPE svg PUBLIC "-//W3C//DTD SVG 1.1//EN" "http://www.w3.org/Graphics/SVG/1.1/DTD/svg11.dtd"><svg width="100%" height="100%" viewBox="0 0 13021 13021" version="1.1" xmlns="http://www.w3.org/2000/svg" xmlns:xlink="http://www.w3.org/1999/xlink" xml:space="preserve" xmlns:serif="http://www.serif.com/" style="fill-rule:evenodd;clip-rule:evenodd;stroke-linejoin:round;stroke-miterlimit:2;"><path d="M11014.1,5064.17l0,-3743.43c0,-192.5 192.884,-320.279 369.359,-248.108c0.05,0.017 0.104,0.033 0.154,0.071c-0,-0 341.008,139.737 340.783,139.65c180.192,73.629 297.429,248.25 297.429,442l0,4512.75l204.55,408.954c529.046,1057.75 468.917,2273.59 29.375,3332.31l0,1562.56c0,129.841 -105.262,235.087 -235.104,235.087l-1351.56,0c-405.146,192.137 -854.846,287.7 -1311.25,256.283c-669.15,-46.596 -1317.43,-427.604 -1840.61,-915.641l-2013.57,-0c-523.159,488.041 -1171.46,869.054 -1840.81,915.658c-456.275,31.408 -905.9,-64.15 -1311.05,-256.3l-1351.57,-0c-129.846,-0 -235.105,-105.246 -235.105,-235.088l0,-1562.58c-439.516,-1058.68 -499.608,-2274.52 29.359,-3332.26c2.67,-5.363 5.57,-10.642 8.662,-15.78c0.192,-0.325 84.034,-168.1 195.904,-391.983l0,-4513.96c0,-193.734 117.359,-368.388 297.271,-441.892c0,0 340.904,-139.758 341.096,-139.829c176.475,-72.171 369.358,55.608 369.358,248.108l0,3743.45c441.1,531.488 795.546,733.196 1196.13,936.946c455.083,231.492 964.479,465.746 1693.04,1106.92c890.879,784.646 1373.28,1380.44 1614.5,1726.85c241.279,-346.433 723.725,-942.237 1614.65,-1726.92c728.487,-641.113 1237.85,-875.367 1692.92,-1106.86c400.546,-203.75 754.975,-405.458 1196.09,-936.966Zm-9190.38,504.916l-359.983,718.988c-8.483,38.554 -26.442,73.571 -51.313,102.487l-206.079,411.6l8.663,-15.8c-471.813,943.484 -404.179,2027.88 -3.963,2970.48c3.796,7.666 7.179,15.562 10.134,23.67c88.52,205.075 192.741,403.209 310.545,591.546c233.705,374.025 570.571,681.829 960.734,880.567c11.85,4.758 23.229,10.454 34.029,16.987c339.954,166.33 718.708,250.13 1103.87,223.625c585.045,-40.733 1143.85,-387.395 1594.02,-823.295c13.9,-18.384 30.438,-34.659 49.05,-48.275c216.242,-216.288 405.675,-451.905 558.755,-681.588c233.695,-350.433 356.65,-554.062 413.07,-651.875c-137.012,-227.9 -579.166,-875.262 -1660.03,-1827.24c-686.075,-603.783 -1166.91,-822.725 -1595.5,-1040.73c-395.208,-201.025 -749.896,-401.004 -1165.99,-851.146l-0.004,0Zm9373.29,0.105c-416.058,450.087 -770.675,650.037 -1165.82,851.041c-428.575,218.004 -909.391,436.946 -1595.4,1040.68c-1080.94,952.03 -1523.16,1599.41 -1660.19,1827.29c56.458,97.879 179.425,301.525 413.104,651.925c153.021,229.6 342.383,465.125 558.508,681.317c18.825,13.725 35.542,30.179 49.563,48.779c450.058,435.721 1008.75,782.279 1593.51,822.996c385.2,26.508 763.942,-57.246 1103.95,-223.542c10.87,-6.587 22.32,-12.321 34.258,-17.1c390.121,-198.704 726.979,-506.525 960.675,-880.608c117.725,-188.217 221.887,-386.217 310.337,-591.075c3.038,-8.384 6.538,-16.542 10.463,-24.438c400.075,-942.475 467.687,-2026.71 -4.15,-2970.1l-198.783,-397.408c-23.767,-28.137 -41.05,-61.917 -49.534,-99.029l-360.504,-720.733Zm588.525,5204.62c-120.971,168.362 -260.029,323.32 -413.583,462.012l413.583,0l0,-462.012Zm-10550.2,-0.021l-0,462.033l413.625,0c-153.517,-138.629 -292.621,-293.629 -413.625,-462.033Zm5275.12,-1013.13c-70.038,110.996 -163.192,254.575 -287.029,440.25c-83.505,125.3 -176.875,251.442 -278.796,375.559l1131.65,-0c-101.888,-124.067 -195.254,-250.2 -278.754,-375.488c-123.85,-185.704 -217.017,-329.3 -287.071,-440.321Zm-4973.88,-8138.5l-62.138,25.467c-2.879,1.179 -5.191,3.646 -5.191,6.738l-0,3572.93l67.329,-134.75l-0,-3470.38Zm9947.71,-0.037l0,3470.31l67.325,134.605l0,-3572.68c0,-3.075 -2.221,-5.575 -5.087,-6.738l-62.238,-25.504Z"/></svg>