<?xml version="1.0" encoding="UTF-8" standalone="no"?><!DOCTYPE svg PUBLIC "-//W3C//DTD SVG 1.1//EN" "http://www.w3.org/Graphics/SVG/1.1/DTD/svg11.dtd"><svg width="100%" height="100%" viewBox="0 0 54255 54255" version="1.1" xmlns="http://www.w3.org/2000/svg" xmlns:xlink="http://www.w3.org/1999/xlink" xml:space="preserve" xmlns:serif="http://www.serif.com/" style="fill-rule:evenodd;clip-rule:evenodd;stroke-linejoin:round;stroke-miterlimit:2;"><path d="M44971.1,8831.38l-10901.1,-6131.93l-0.613,1.227c-122.067,-69.235 -259.957,-105.82 -400.291,-106.206l-13084.1,0c-140.334,0.386 -278.223,36.971 -400.29,106.206l-0.613,-1.227l-10901.1,6131.93c-1608.71,899.205 -2577.09,2635.26 -2497.01,4476.49l1533.29,37567.4c17.77,435.702 381.077,784.466 817.141,784.431l7359.78,-0c448.606,-0 817.753,-369.148 817.753,-817.754l0,-2453.26l19626.1,-0l0,2453.26c0,448.606 369.147,817.754 817.754,817.754l7359.78,-0c436.025,-0.02 799.27,-348.768 817.038,-784.431l1533.29,-37567.4c80.1,-1841.2 -888.242,-3577.25 -2496.91,-4476.49Zm-29292.6,41192.8l-5756.99,0l-1501.4,-36783c-53.545,-1227.63 592.048,-2385.22 1664.64,-2984.8l10007.3,-5629.21l6217.28,20982.8l0,17872.1l-11448.6,0l0,-22576.5l-1635.51,-43.136l-0,23437.4c-0.017,66.853 8.188,133.455 24.43,198.305l817.754,3271.01c90.697,362.845 419.315,619.439 793.323,619.449l817.754,-0l-0,1635.51Zm28490.5,-39767.4c1072.58,599.431 1718.27,1756.84 1664.95,2984.39c-0,-0 -1501.4,36783 -1501.4,36783l-5756.99,0l-0,-1635.51l817.753,-0c374.009,-0.01 702.627,-256.604 793.324,-619.449l817.753,-3271.01c16.242,-64.85 24.447,-131.452 24.431,-198.305l-0,-23437.4l-1635.51,43.136l0,22576.5l-11448.6,0l-0,-17872.1l6216.97,-20982.4l10007.3,5629.21Zm-17859.7,36496.3l-10810.1,0l-408.877,-1635.51l11219,-0l0,1635.51Zm1635.51,-1635.51l11219,-0l-408.877,1635.51l-10810.1,0l-0,-1635.51Zm-817.754,-22504.6l-5446.85,-18383.1l10893.7,-0l-5446.85,18383.1Z" style="fill-rule:nonzero;"/></svg>