<!-- Generated by IcoMoon.io -->
<svg version="1.1" xmlns="http://www.w3.org/2000/svg" width="1024" height="1024" viewBox="0 0 1024 1024">
<title>clock-2</title>
<g id="icomoon-ignore">
</g>
<path d="M874.666 418.132c48.641 10.027 85.334 53.121 85.334 104.533v341.334c0 11.732-9.6 21.334-21.334 21.334h-32v42.666c0 11.732-9.6 21.334-21.332 21.334h-85.334c-11.732 0-21.334-9.602-21.334-21.334v-42.666h-533.332v42.666c0 11.732-9.602 21.334-21.334 21.334h-85.334c-11.732 0-21.332-9.602-21.332-21.334v-42.666h-32c-11.734 0-21.334-9.602-21.334-21.334v-341.334c0-51.627 36.693-94.719 85.334-104.533v-279.466c0-35.199 28.799-64 64-64h597.332c35.201 0 64 28.801 64 64v279.466zM192 138.666v279.466c48.641 10.027 85.334 53.121 85.334 104.533v21.334h469.332v-21.334c0-51.627 36.693-94.719 85.334-104.533v-279.466c0-11.732-9.6-21.332-21.334-21.332h-597.332c-11.734 0-21.334 9.6-21.334 21.332zM746.666 586.666h-469.332v85.334h469.332v-85.334zM202.666 906.666v-21.332h-42.666v21.332h42.666zM864 906.666v-21.332h-42.666v21.332h42.666zM917.334 842.666v-320c0-35.199-28.801-64-64-64-35.201 0-64 28.801-64 64v170.668c0 11.732-9.602 21.332-21.334 21.332h-512c-11.732 0-21.334-9.6-21.334-21.332v-170.668c0-35.199-28.799-64-64-64-35.199 0-64 28.801-64 64v320h810.668z"></path>
</svg>
