<?xml version="1.0" encoding="UTF-8" standalone="no"?><!DOCTYPE svg PUBLIC "-//W3C//DTD SVG 1.1//EN" "http://www.w3.org/Graphics/SVG/1.1/DTD/svg11.dtd"><svg width="100%" height="100%" viewBox="0 0 54255 54255" version="1.1" xmlns="http://www.w3.org/2000/svg" xmlns:xlink="http://www.w3.org/1999/xlink" xml:space="preserve" xmlns:serif="http://www.serif.com/" style="fill-rule:evenodd;clip-rule:evenodd;stroke-linejoin:round;stroke-miterlimit:2;"><path d="M50014,46594.2c-493.569,-2402.67 -2938.89,-15258.8 -3220.23,-16705.3c-284.984,-1465.56 -553.193,-2825.88 -811.05,-4111.42c-2040.52,-10175 -3353.47,-15445.4 -4388.16,-16422.7c-794.371,-750.18 -2969.86,-1873.72 -4981.52,-2558.72l-3121.21,-3901.4c-0.479,-0.671 -1.15,-1.246 -1.63,-1.821c-16.679,-20.993 -34.988,-40.548 -53.68,-59.815c-3.642,-3.739 -7.189,-7.765 -10.928,-11.407c-19.842,-19.747 -40.931,-38.247 -62.882,-55.885c-1.821,-1.438 -3.547,-2.78 -5.368,-4.218c-85.697,-67.867 -186.347,-118.863 -299.555,-147.237c-11.694,-2.971 -23.485,-5.56 -35.275,-8.052c-19.459,-3.93 -38.726,-8.148 -58.856,-10.736c-32.975,-4.505 -66.142,-6.902 -99.405,-7.285c-3.738,-0.192 -7.285,-0.959 -11.119,-0.959l-11451.8,0c-3.834,0 -7.381,0.767 -11.215,0.863c-33.263,0.479 -66.43,2.876 -99.404,7.285c-20.131,2.588 -39.398,6.806 -58.857,10.736c-11.79,2.493 -23.581,4.985 -35.275,8.052c-113.208,28.47 -213.762,79.37 -299.555,147.237c-1.821,1.438 -3.547,2.78 -5.368,4.218c-21.951,17.734 -42.944,36.138 -62.882,55.885c-3.739,3.642 -7.19,7.668 -10.928,11.407c-18.692,19.363 -37.001,38.822 -53.68,59.815c-0.575,0.671 -1.151,1.246 -1.63,1.821l-3121.21,3901.49c-2011.66,684.997 -4187.24,1808.54 -4981.52,2558.72c-1034.68,977.171 -2347.64,6247.7 -4388.26,16422.7c-257.856,1285.54 -525.97,2645.95 -811.049,4111.42c-281.342,1446.49 -2726.66,14302.6 -3220.23,16705.3c-94.803,461.649 219.034,907.674 685.572,974.391l5725.85,817.951c435.671,62.211 842.49,-231.4 920.614,-664.484c7.765,-43.231 7.765,-43.231 44.957,-248.941c50.996,-281.629 50.996,-281.629 127.586,-704.073c137.556,-758.328 291.311,-1603.41 457.528,-2513.48c474.877,-2600.04 954.356,-5200.07 1408.24,-7626.51c59.144,-316.138 59.144,-316.138 118.384,-631.988c1088.75,-5804.36 1848.42,-9619 2057.96,-10247c180.883,-543.033 503.155,-1386.48 928.187,-2441.78c53.872,-133.529 53.872,-133.529 107.839,-266.771c111.578,-275.207 226.512,-556.165 343.458,-839.807c456.664,1800.01 781.142,3809.18 902.114,5745.69c-2.013,0.192 -3.931,0.479 -5.944,0.671c-9.777,0.767 -19.459,2.205 -29.14,3.355c-13.324,1.534 -26.553,3.067 -39.685,5.272c-9.969,1.63 -19.651,3.834 -29.428,5.848c-12.558,2.588 -25.115,5.176 -37.576,8.339c-9.97,2.492 -19.651,5.56 -29.429,8.436c-11.982,3.546 -23.964,7.093 -35.659,11.215c-9.681,3.355 -19.171,7.093 -28.757,10.832c-11.503,4.505 -22.91,9.01 -34.125,13.995c-9.394,4.122 -18.596,8.627 -27.799,13.132c-10.928,5.368 -21.855,10.832 -32.495,16.68c-9.011,4.888 -17.83,9.969 -26.553,15.241c-10.448,6.231 -20.801,12.653 -30.962,19.267c-8.531,5.656 -16.967,11.311 -25.306,17.255c-9.874,6.997 -19.459,14.186 -29.045,21.663c-8.148,6.327 -16.104,12.749 -23.964,19.364c-9.203,7.764 -18.213,15.816 -27.032,23.964c-7.573,6.902 -15.05,13.899 -22.335,21.089c-8.627,8.627 -16.967,17.446 -25.306,26.456c-6.902,7.477 -13.708,14.858 -20.322,22.527c-8.052,9.394 -15.625,19.075 -23.293,28.853c-6.231,7.956 -12.462,15.72 -18.309,23.868c-7.381,10.161 -14.187,20.801 -21.185,31.346c-5.464,8.243 -11.023,16.487 -16.104,24.923c-6.71,11.119 -12.845,22.622 -19.075,34.125c-4.602,8.435 -9.394,16.679 -13.612,25.306c-6.039,12.27 -11.503,25.019 -16.967,37.672c-3.642,8.34 -7.573,16.488 -10.928,25.019c-5.655,14.283 -10.448,28.949 -15.241,43.615c-2.396,7.285 -5.272,14.379 -7.477,21.855c-6.71,22.239 -12.461,44.958 -17.35,68.059c-131.9,633.714 -242.903,1283.15 -400.78,2302.4c3.739,-24.06 -154.33,1003.82 -200.821,1299.54c-78.891,501.526 -148.675,923.107 -220.856,1329.45c-5.08,28.373 -8.052,56.46 -10.16,84.45c-0.671,8.531 -0.863,16.871 -1.151,25.402c-0.862,20.226 -1.054,40.26 -0.383,60.103c0.287,8.627 0.479,17.254 1.054,25.881c1.438,23.198 3.835,46.108 7.285,68.73c0.576,4.122 0.863,8.244 1.534,12.366c4.41,26.552 10.257,52.625 17.159,78.219c1.917,7.19 4.313,14.091 6.422,21.185c5.656,18.884 11.886,37.48 18.788,55.789c2.972,7.956 6.039,15.816 9.298,23.677c7.861,18.979 16.488,37.576 25.786,55.789c2.78,5.368 5.176,10.927 8.052,16.295c12.366,23.102 25.786,45.533 40.26,67.292c3.451,5.177 7.189,9.969 10.736,15.05c11.599,16.679 23.773,32.879 36.522,48.6c5.272,6.518 10.736,12.844 16.2,19.267c12.749,14.762 25.977,28.949 39.78,42.656c5.081,5.081 9.97,10.353 15.146,15.338c18.98,18.021 38.63,35.275 59.24,51.475c3.451,2.684 7.093,4.985 10.544,7.669c17.542,13.324 35.755,25.977 54.351,37.959c6.998,4.505 14.187,8.723 21.281,12.941c16.583,9.873 33.454,19.076 50.804,27.799c7.094,3.546 13.995,7.285 21.185,10.64c3.642,1.725 7.093,3.738 10.736,5.368c-1289.67,5920.06 -2119.02,11184.5 -2119.02,14794.9c-0,309.811 175.035,593.069 452.159,731.583c1596.6,798.301 3599.64,1272.7 6010.26,1513.78c1715.27,171.489 3122.36,208.585 5807.23,208.585c2684.87,0 4091.96,-37.001 5807.23,-208.585c2410.62,-241.082 4413.75,-715.48 6010.36,-1513.78c277.124,-138.514 452.159,-421.772 452.159,-731.583c0,-3610.47 -829.358,-8874.96 -2119.02,-14794.9c3.643,-1.63 7.094,-3.643 10.736,-5.368c7.19,-3.355 14.187,-7.094 21.185,-10.64c17.35,-8.723 34.221,-17.926 50.804,-27.799c7.19,-4.218 14.283,-8.531 21.281,-12.941c18.692,-11.982 36.905,-24.635 54.543,-37.959c3.355,-2.588 6.997,-4.889 10.352,-7.477c20.61,-16.2 40.356,-33.454 59.336,-51.476c5.176,-4.888 9.969,-10.161 15.05,-15.145c13.803,-13.804 27.127,-27.99 39.876,-42.753c5.464,-6.326 10.928,-12.749 16.2,-19.267c12.845,-15.72 24.923,-32.016 36.522,-48.6c3.547,-5.08 7.285,-9.873 10.736,-15.049c14.474,-21.76 27.894,-44.19 40.26,-67.292c2.78,-5.272 5.176,-10.736 7.956,-16.104c9.298,-18.309 17.925,-36.905 25.882,-55.981c3.259,-7.86 6.326,-15.72 9.298,-23.677c6.997,-18.308 13.132,-36.905 18.788,-55.789c2.109,-7.093 4.505,-14.091 6.422,-21.184c6.902,-25.69 12.749,-51.763 17.159,-78.22c0.671,-4.122 0.958,-8.244 1.533,-12.365c3.355,-22.719 5.848,-45.629 7.286,-68.73c0.575,-8.627 0.766,-17.254 1.054,-25.882c0.575,-19.938 0.479,-39.972 -0.383,-60.102c-0.384,-8.436 -0.576,-16.871 -1.151,-25.402c-2.109,-27.991 -5.176,-56.173 -10.161,-84.451c-72.276,-406.339 -141.964,-827.92 -220.855,-1329.45c-46.491,-295.72 -204.56,-1323.6 -200.821,-1299.54c-157.877,-1019.25 -268.88,-1668.69 -400.78,-2302.4c-4.793,-23.102 -10.64,-45.82 -17.35,-68.059c-2.205,-7.381 -5.081,-14.474 -7.477,-21.855c-4.793,-14.667 -9.586,-29.333 -15.242,-43.616c-3.355,-8.531 -7.381,-16.775 -11.023,-25.21c-5.464,-12.557 -10.832,-25.211 -16.871,-37.384c-4.314,-8.723 -9.106,-17.063 -13.708,-25.499c-6.23,-11.407 -12.269,-22.909 -18.979,-34.029c-5.177,-8.531 -10.736,-16.775 -16.2,-25.019c-6.902,-10.448 -13.708,-20.992 -20.993,-31.153c-5.943,-8.244 -12.27,-16.104 -18.501,-24.156c-7.572,-9.682 -15.145,-19.364 -23.101,-28.662c-6.614,-7.764 -13.516,-15.145 -20.418,-22.622c-8.244,-9.011 -16.583,-17.83 -25.21,-26.457c-7.285,-7.189 -14.762,-14.187 -22.335,-21.088c-8.915,-8.148 -17.83,-16.2 -27.032,-23.965c-7.86,-6.614 -15.912,-13.036 -23.964,-19.363c-9.49,-7.381 -19.172,-14.666 -28.949,-21.664c-8.34,-5.943 -16.775,-11.694 -25.402,-17.35c-10.161,-6.614 -20.418,-13.036 -30.866,-19.267c-8.819,-5.272 -17.638,-10.353 -26.649,-15.242c-10.736,-5.847 -21.568,-11.311 -32.495,-16.679c-9.203,-4.505 -18.405,-8.914 -27.799,-13.132c-11.215,-4.985 -22.622,-9.49 -34.125,-13.995c-9.49,-3.739 -19.076,-7.477 -28.758,-10.832c-11.79,-4.026 -23.676,-7.669 -35.659,-11.216c-9.777,-2.875 -19.459,-5.847 -29.428,-8.435c-12.365,-3.163 -24.923,-5.751 -37.576,-8.34c-9.777,-2.013 -19.555,-4.217 -29.428,-5.847c-13.133,-2.205 -26.457,-3.643 -39.685,-5.272c-9.682,-1.15 -19.363,-2.588 -29.141,-3.355c-2.013,-0.192 -3.93,-0.575 -5.943,-0.671c120.972,-1936.51 445.45,-3945.68 902.114,-5745.69c116.946,283.546 231.879,564.504 343.457,839.807c53.968,133.337 53.968,133.337 107.84,266.771c425.032,1055.39 747.4,1898.74 928.091,2441.39c209.64,628.345 969.31,4442.99 2058.06,10247.3c59.24,315.85 59.24,315.85 118.384,631.988c453.885,2426.44 933.363,5026.48 1408.24,7626.51c166.217,910.07 319.972,1755.05 457.527,2513.48c76.59,422.444 76.59,422.444 127.587,704.073c37.192,205.71 37.192,205.71 44.957,248.941c78.123,433.084 484.942,726.695 920.71,664.484l5725.85,-817.951c466.825,-66.717 780.662,-512.838 685.859,-974.487Zm-14919.1,-38941.8c-253.159,344.224 -610.612,782.867 -989.248,1211.06c-859.362,971.611 -1682.68,1714.79 -1983.39,1811.99c-44.19,14.283 -88.285,27.127 -132.379,38.63c-1.246,0.288 -2.492,0.576 -3.738,0.863c-219.322,56.939 -439.219,80.137 -669.66,69.401c-463.375,-21.568 -969.502,-180.116 -1599.96,-476.507c-1.438,-0.671 -2.972,-1.438 -4.41,-2.109c-228.14,-107.456 -445.833,-217.117 -809.803,-405.573c-55.981,-29.045 -108.798,-56.364 -160.082,-82.821c-104.389,-54.063 -201.109,-104.005 -289.298,-149.154l2130.62,-2431.71l2240.86,-2557.19l2321.67,2902.18c-16.679,23.389 -32.975,46.204 -51.188,70.935Zm233.317,21928.7c201.013,429.633 281.437,921.094 381.608,1568.13c-4.121,-26.648 154.331,1004.3 201.397,1303.37c11.886,75.344 23.485,148.675 34.988,220.76c3.259,20.226 6.422,39.877 9.585,59.911c6.423,40.068 12.845,80.616 19.268,119.822l-5679.07,-0c32.879,-127.778 57.227,-259.007 74.577,-392.345c1.054,-7.668 1.917,-15.337 2.875,-23.006c6.711,-54.734 12.079,-109.756 16.009,-165.258c1.054,-14.091 2.396,-28.182 3.259,-42.273c3.834,-64.608 6.326,-129.599 6.326,-195.166l0,-1636c0,-65.566 -2.492,-130.558 -6.326,-195.166c-0.863,-14.186 -2.205,-28.182 -3.259,-42.273c-4.026,-55.501 -9.298,-110.523 -16.009,-165.258c-0.958,-7.668 -1.917,-15.337 -2.875,-23.006c-17.35,-133.337 -41.698,-264.566 -74.577,-392.344l5032.23,-0l0,0.096Zm-10665,-19333c-20.418,9.873 -40.548,19.459 -60.582,29.044c-21.089,10.065 -42.177,20.035 -63.266,30.004c-0.479,0.287 -1.055,0.479 -1.534,0.767c-3.355,1.629 -6.614,2.971 -9.969,4.505c-562.875,263.799 -1026.73,417.555 -1449.75,461.362c-33.838,3.45 -67.101,5.463 -100.459,7.572c-13.228,0.863 -26.648,2.397 -39.781,2.972c-229.77,10.736 -449.188,-12.462 -667.838,-69.017c-1.917,-0.48 -3.835,-0.863 -5.752,-1.342c-44.094,-11.503 -88.189,-24.444 -132.379,-38.631c-300.513,-97.104 -1123.93,-840.286 -1983.19,-1811.9c-378.732,-428.195 -736.089,-866.838 -989.248,-1211.06c-18.213,-24.827 -34.509,-47.546 -51.284,-70.935l2321.67,-2902.08l2240.86,2557.19l2130.62,2431.71c-12.558,6.423 -26.553,13.612 -39.302,20.226c-36.138,18.596 -73.618,37.864 -112.345,57.802c-1.917,1.054 -3.93,2.013 -5.847,2.972c-56.939,29.332 -115.892,59.815 -178.966,92.502c-388.51,201.205 -605.339,311.441 -796.096,403.656c-1.821,0.862 -3.738,1.725 -5.559,2.684Zm6385.54,-6024.83l-1693.42,1932.58l-2228.2,2542.71l-2228.21,-2542.71l-1693.42,-1932.58l7843.24,-0Zm-15741.7,18203.5c-54.638,134.967 -54.638,134.967 -109.181,270.222c-436.822,1084.63 -768.585,1952.71 -962.696,2535.72c-247.312,741.361 -987.619,4458.81 -2113.85,10462.6c-59.335,316.233 -59.335,316.233 -118.575,632.85c-454.364,2429.03 -934.227,5031.17 -1409.49,7633.41c-166.312,910.741 -320.259,1756.39 -457.91,2515.39c-12.654,70.072 -23.294,128.449 -32.4,178.487l-4089.28,-584.155c734.459,-3714.09 2797.79,-14559.1 3052.77,-15870.2c284.408,-1462.59 552.042,-2819.84 809.132,-4102.12c1848.61,-9217.65 3279.57,-14961.9 3907.43,-15554.9c544.662,-514.371 2255.14,-1415.62 3930.54,-2037.45c5.463,7.477 11.79,15.529 17.35,23.006c24.252,32.687 49.366,66.045 75.535,100.171c11.12,14.474 22.431,29.236 33.934,43.902c26.169,33.646 53.201,68.059 81.191,103.143c9.203,11.599 18.117,22.814 27.511,34.604c37.289,46.395 76.111,94.037 116.659,143.116c10.256,12.461 21.184,25.402 31.633,38.055c32.304,38.918 65.566,78.699 99.883,119.342c13.804,16.296 27.703,32.784 41.698,49.367c39.014,45.916 79.178,92.982 120.589,141.198c6.71,7.86 13.132,15.337 19.938,23.293c49.079,57.035 100.267,115.988 152.797,176.282c14.187,16.296 29.045,33.263 43.519,49.75c41.123,47.066 83.204,95.186 126.34,144.265c15.625,17.83 31.345,35.659 47.258,53.776c56.46,64.129 113.974,129.312 173.789,196.987c1071.69,1211.73 2012.34,2060.84 2705.96,2284.86c514.85,166.216 1011.1,223.347 1519.53,181.937c652.118,-53.009 1324.08,-268.305 2079.63,-623.265c1.917,-0.863 3.739,-1.63 5.56,-2.588l0.096,-0c-0,-0 0.096,-0 0.096,-0.096c245.682,-115.412 479.478,-232.933 836.26,-417.555c79.753,-41.314 79.753,-41.314 158.931,-82.341c64.033,-33.167 123.656,-64.033 180.883,-93.557c26.744,-13.804 53.68,-27.607 79.082,-40.644c5.56,-2.875 11.216,-5.751 16.776,-8.627c257.377,-131.996 447.845,-226.894 621.156,-308.277c173.597,81.479 364.258,176.473 622.21,308.852c4.122,2.109 8.34,4.314 12.557,6.423c26.553,13.611 54.831,28.182 82.917,42.656c57.035,29.428 116.467,60.103 180.212,93.174c79.178,41.123 79.178,41.123 158.931,82.341c354.385,183.471 587.51,300.609 831.851,415.446c1.438,0.671 2.876,1.342 4.314,2.109c-0,0 0.095,0 0.095,0.096c0.096,-0 0.192,0.096 0.192,0.096c757.849,356.589 1431.54,572.652 2085.38,625.757c24.06,1.917 47.929,2.301 71.989,3.834c48.312,3.068 96.72,6.519 144.936,7.765c8.915,0.191 17.734,-0.192 26.649,-0.096c904.223,5449.97 920.039,10614.8 10.64,15519.4l-2069.75,0c-576.678,-508.715 -1333.57,-817.951 -2163.12,-817.951c-829.55,-0 -1586.44,309.236 -2163.12,817.951l-5257.78,0c-173.501,-2934.1 -789.96,-6024.16 -1639.26,-8430.47c-0.479,-1.534 -0.767,-2.972 -1.342,-4.506c-115.604,-327.544 -239.26,-646.558 -369.914,-956.752c-500.951,-1189.3 -1006.69,-2055.18 -1357.72,-2539.84c-264.95,-365.888 -776.349,-447.75 -1142.24,-182.8c-365.888,264.95 -447.75,776.349 -182.8,1142.24c63.937,88.284 187.88,276.932 351.988,557.89c279.52,478.52 560.383,1033.73 823.128,1657.47c78.699,186.826 153.468,378.541 226.319,572.461c-78.89,186.059 -165.45,390.81 -258.431,612.049c-289.298,689.119 -578.596,1387.63 -848.914,2054.32Zm10666.1,10767.7c-17.35,-23.869 -34.221,-47.929 -54.734,-70.743c-205.71,-228.428 -342.499,-498.65 -398.48,-789.002c-1.438,-7.669 -2.204,-15.625 -3.546,-23.389c-7.094,-39.973 -13.229,-80.233 -17.255,-120.877c-4.793,-51.188 -7.86,-102.951 -7.86,-155.385l-0,-1636c-0,-52.434 2.972,-104.197 7.86,-155.385c4.026,-40.643 10.161,-80.903 17.255,-120.876c1.342,-7.764 2.108,-15.625 3.546,-23.389c55.981,-290.352 192.77,-560.574 398.48,-789.002c20.513,-22.815 37.384,-46.875 54.734,-70.743c295.816,-294.474 703.594,-476.603 1154.12,-476.603c450.434,-0 858.212,182.129 1154.03,476.603c17.35,23.868 34.221,47.928 54.734,70.743c205.71,228.428 342.499,498.65 398.48,789.002c1.437,7.668 2.204,15.625 3.546,23.389c7.094,39.973 13.229,80.233 17.255,120.876c4.792,51.188 7.86,102.951 7.86,155.385l-0,1636c-0,52.434 -2.972,104.197 -7.86,155.385c-4.026,40.644 -10.161,80.904 -17.255,120.877c-1.342,7.764 -2.109,15.624 -3.546,23.389c-55.981,290.352 -192.77,560.574 -398.48,789.002c-20.513,22.814 -37.384,46.874 -54.734,70.743c-295.816,294.474 -703.594,476.603 -1154.12,476.603c-450.434,-0 -858.212,-182.129 -1154.03,-476.603Zm-7693.9,-341.348c5.943,-36.81 11.982,-74.865 18.021,-112.345c3.739,-23.389 7.477,-46.299 11.216,-69.976c11.407,-71.222 22.814,-143.69 34.508,-218.076c47.066,-299.075 205.519,-1330.02 201.397,-1303.37c100.267,-647.037 180.595,-1138.5 258.911,-1568.13l5154.92,-0c-32.879,127.778 -57.226,258.911 -74.577,392.248c-1.054,7.765 -2.013,15.529 -2.971,23.294c-6.71,54.638 -12.078,109.66 -16.008,165.066c-1.055,14.091 -2.397,28.182 -3.26,42.273c-3.834,64.608 -6.326,129.599 -6.326,195.166l-0,1636c-0,65.567 2.492,130.558 6.326,195.166c0.863,14.187 2.205,28.182 3.26,42.273c4.026,55.406 9.298,110.428 16.008,165.066c0.958,7.765 1.917,15.529 2.971,23.294c17.351,133.337 41.698,264.47 74.577,392.248l-5678.98,0l0,-0.191Zm3203.46,16977.2c-1992.68,-199.287 -3660.03,-565.175 -4983.53,-1136.39c76.207,-3504.74 898.951,-8566.49 2136.47,-14204.8l6328.41,-0c576.678,508.715 1333.57,817.951 2163.12,817.951c829.55,0 1586.44,-309.236 2163.12,-817.951l2106.28,-0c914.096,3894.11 831.754,8850.61 -79.37,15457.4c-1129.97,66.621 -2351.67,84.259 -4190.02,84.259c-2631.96,0 -4000.13,-36.042 -5644.47,-200.438Zm16272.5,-1136.39c-1275.29,550.413 -2871.03,909.782 -4768.33,1113.48c862.525,-6408.16 950.81,-11326.7 86.751,-15318.4l2545.11,0c1237.52,5638.43 2060.26,10700.2 2136.47,14204.9Zm6396.18,-2038.41c-9.106,-50.038 -19.65,-108.511 -32.399,-178.487c-137.652,-758.999 -291.599,-1604.65 -457.911,-2515.39c-475.261,-2602.14 -955.124,-5204.39 -1409.49,-7633.41c-59.24,-316.521 -59.24,-316.521 -118.575,-632.85c-1126.23,-6003.84 -1866.44,-9721.38 -2113.94,-10463.1c-194.015,-582.526 -525.682,-1450.61 -962.6,-2535.24c-54.543,-135.255 -54.543,-135.255 -109.181,-270.222c-270.318,-666.688 -559.616,-1365.3 -848.914,-2053.74c-92.981,-221.239 -179.445,-425.99 -258.431,-612.049c72.851,-193.92 147.62,-385.635 226.319,-572.461c262.745,-623.744 543.608,-1178.95 823.128,-1657.47c164.108,-280.958 287.955,-469.606 351.988,-557.89c264.95,-365.888 183.184,-877.287 -182.8,-1142.24c-365.888,-264.95 -877.287,-183.184 -1142.24,182.8c-350.934,484.655 -856.773,1350.54 -1357.72,2539.84c-130.654,310.194 -254.31,629.208 -369.914,956.753c-0.479,1.533 -0.863,2.971 -1.342,4.505c-849.296,2406.31 -1465.76,5496.46 -1639.26,8430.47l-1525,0c893.966,-5029.93 856.198,-10309 -71.03,-15855.7c650.68,-344.32 1467.1,-1111.18 2378.99,-2142.22c59.815,-67.676 117.425,-132.954 173.789,-196.987c15.913,-18.117 31.633,-35.947 47.258,-53.776c43.424,-49.463 85.792,-97.871 127.203,-145.224c13.995,-16.008 28.374,-32.4 42.081,-48.216c52.722,-60.582 104.101,-119.726 153.372,-176.953c6.71,-7.765 12.941,-15.146 19.555,-22.814c41.794,-48.6 82.246,-96.049 121.547,-142.348c13.708,-16.2 27.224,-32.209 40.644,-48.121c34.892,-41.41 68.825,-81.958 101.704,-121.547c9.874,-11.886 20.131,-24.156 29.812,-35.851c40.931,-49.558 80.137,-97.678 117.809,-144.553c8.531,-10.64 16.487,-20.801 24.923,-31.345c29.236,-36.618 57.514,-72.468 84.642,-107.552c10.448,-13.516 20.897,-27.032 31.154,-40.26c28.086,-36.618 55.022,-72.373 80.903,-107.361c4.218,-5.751 9.107,-11.982 13.324,-17.637c1675.3,621.827 3385.78,1523.08 3930.54,2037.45c627.866,592.974 2058.82,6337.32 3907.43,15554.9c257.186,1282.29 524.724,2639.53 809.132,4102.12c254.981,1310.95 2318.31,12156 3052.77,15870.2l-4089.28,584.059Z" style="fill-rule:nonzero;"/></svg>