<?xml version="1.0" encoding="UTF-8" standalone="no"?><!DOCTYPE svg PUBLIC "-//W3C//DTD SVG 1.1//EN" "http://www.w3.org/Graphics/SVG/1.1/DTD/svg11.dtd"><svg width="100%" height="100%" viewBox="0 0 3125 3125" version="1.1" xmlns="http://www.w3.org/2000/svg" xmlns:xlink="http://www.w3.org/1999/xlink" xml:space="preserve" xmlns:serif="http://www.serif.com/" style="fill-rule:evenodd;clip-rule:evenodd;stroke-linejoin:round;stroke-miterlimit:2;"><path d="M1136.51,107.759c8.445,-5.039 18.311,-7.934 28.848,-7.934l794.771,0c10.529,0 20.388,2.89 28.824,7.919l0.133,0.079l0.044,0.027c8.686,5.205 15.913,12.712 20.781,21.837c0.575,1.075 1.116,2.17 1.621,3.283l33.355,71.43c65.746,31.1 282.475,133.618 282.45,133.604c81.275,38.388 138.888,113.213 155.684,201.354c0.008,0.038 0.016,0.071 0.02,0.109l337.842,1791.45c5.429,28.783 -12.071,56.933 -40.283,64.804l-325.379,90.787c-15.18,4.233 -31.434,1.929 -44.838,-6.354c-13.4,-8.287 -22.729,-21.8 -25.721,-37.271l-61.691,-318.671l66.945,840.059c1.25,15.696 -4.112,31.195 -14.795,42.762c-10.68,11.567 -25.709,18.146 -41.45,18.146l-1542.33,-0c-15.741,-0 -30.771,-6.579 -41.45,-18.146c-10.683,-11.566 -16.046,-27.066 -14.796,-42.762l66.942,-840.038l-61.683,318.65c-2.996,15.471 -12.321,28.983 -25.725,37.271c-13.4,8.283 -29.659,10.587 -44.834,6.354l-325.383,-90.787c-28.212,-7.871 -45.712,-36.021 -40.283,-64.805c-0,0 337.841,-1791.44 337.862,-1791.55c16.788,-88.116 74.663,-162.941 155.609,-201.316l283.081,-133.799l33.179,-71.052c0.829,-1.846 1.754,-3.64 2.767,-5.372l0.026,-0.044l0.116,-0.197c4.811,-8.157 11.557,-14.899 19.54,-19.696l0.098,-0.059l0.107,-0.064Zm-44.936,216.151c-87.125,41.179 -245.679,116.119 -245.637,116.098c-48.433,22.963 -83.05,67.746 -93.079,120.371l-328.246,1740.56l216.575,60.43l241.871,-1249.47c5.692,-29.392 33.346,-49.225 63.013,-45.183c29.662,4.037 51.008,30.545 48.629,60.387l-142.263,1785.22l653.763,0l-0,-2246.33l-179.1,104.908c-14.409,8.442 -31.817,10.067 -47.538,4.438c-15.721,-5.63 -28.141,-17.934 -33.921,-33.605l-154.067,-417.827Zm942.298,0.113l-154.026,417.714c-5.775,15.667 -18.192,27.967 -33.909,33.6c-15.716,5.63 -33.121,4.013 -47.529,-4.42l-179.358,-104.963l-0,2246.37l653.521,0l-142.263,-1785.22c-2.379,-29.841 18.967,-56.35 48.629,-60.387c29.667,-4.042 57.321,15.791 63.013,45.183l241.875,1249.47l216.571,-60.43l-328.225,-1740.45c-10.042,-52.704 -44.434,-97.487 -93.03,-120.441l-245.269,-116.019Zm-380.768,231.106l144.167,84.371l139.241,-377.621l-283.408,293.25Zm-324.896,84.346l143.979,-84.338l-283.187,-293.195l139.208,377.533Zm-29.902,-426.8l264.333,273.676l264.488,-273.676l-528.821,-0Z"/></svg>