<?xml version="1.0" encoding="UTF-8" standalone="no"?><!DOCTYPE svg PUBLIC "-//W3C//DTD SVG 1.1//EN" "http://www.w3.org/Graphics/SVG/1.1/DTD/svg11.dtd"><svg width="100%" height="100%" viewBox="0 0 3125 3125" version="1.1" xmlns="http://www.w3.org/2000/svg" xmlns:xlink="http://www.w3.org/1999/xlink" xml:space="preserve" xmlns:serif="http://www.serif.com/" style="fill-rule:evenodd;clip-rule:evenodd;stroke-linejoin:round;stroke-miterlimit:2;"><path d="M1200.16,107.743c8.435,-5.028 18.295,-7.918 28.823,-7.918l667.43,0c10.703,0 20.714,2.987 29.243,8.17l0.05,0.031c7.962,4.836 14.68,11.615 19.453,19.805c1.011,1.73 1.933,3.517 2.758,5.357l26.483,56.717c58.477,27.662 234.27,110.817 234.246,110.803c70.871,33.475 121.117,98.717 135.762,175.575c0.005,0.038 0.013,0.071 0.021,0.109l283.709,1504.42c5.429,28.784 -12.067,56.934 -40.28,64.805l-273.25,76.241c-15.175,4.233 -31.433,1.929 -44.833,-6.354c-13.404,-8.287 -22.729,-21.8 -25.725,-37.271l-47.571,-245.737l69.942,1132.78c0.958,15.542 -4.546,30.783 -15.208,42.129c-10.663,11.342 -25.542,17.775 -41.109,17.775l-1295.22,0c-15.567,0 -30.446,-6.433 -41.109,-17.775c-10.662,-11.346 -16.166,-26.587 -15.208,-42.129l69.942,-1132.76l-47.567,245.721c-2.996,15.471 -12.321,28.984 -25.725,37.271c-13.4,8.283 -29.658,10.588 -44.837,6.354l-273.25,-76.241c-28.213,-7.871 -45.709,-36.021 -40.28,-64.805c0,0 283.709,-1504.42 283.73,-1504.53c14.641,-76.833 65.104,-142.075 135.687,-175.537l234.787,-110.974l26.421,-56.584c0.825,-1.838 1.746,-3.624 2.755,-5.351c4.829,-8.29 11.652,-15.136 19.742,-19.984l0.128,-0.077l0.056,-0.033Zm-38.206,201.696c-74.53,35.227 -197.382,93.294 -197.341,93.274c-38.071,18.05 -65.28,53.25 -73.154,94.591l-274.117,1453.53l164.442,45.884l201.254,-1039.65c5.654,-29.204 33.004,-49 62.512,-45.25c29.504,3.75 51.034,29.762 49.2,59.45l-119.85,1941.06l531.275,0l0,-2312.23l-136.8,80.129c-14.408,8.438 -31.812,10.063 -47.537,4.433c-15.721,-5.629 -28.142,-17.933 -33.917,-33.6l-125.967,-341.619Zm801.452,0.1l-125.931,341.519c-5.775,15.663 -18.192,27.967 -33.908,33.596c-15.717,5.634 -33.121,4.013 -47.529,-4.416l-137.017,-80.186l-0,2312.27l531.071,0l-119.85,-1941.06c-1.834,-29.688 19.696,-55.7 49.2,-59.45c29.508,-3.75 56.858,16.046 62.512,45.25l201.259,1039.65l164.437,-45.884l-274.096,-1453.42c-7.891,-41.416 -34.908,-76.62 -73.1,-94.658l-197.048,-93.211Zm-310.331,179.69l101.825,59.592l98.346,-266.713l-200.171,207.121Zm-282.587,59.563l101.67,-59.555l-199.979,-207.045l98.309,266.6Zm-8.56,-336.117l200.684,207.774l200.799,-207.774l-401.483,0Z"/></svg>