<?xml version="1.0" encoding="UTF-8" standalone="no"?><!DOCTYPE svg PUBLIC "-//W3C//DTD SVG 1.1//EN" "http://www.w3.org/Graphics/SVG/1.1/DTD/svg11.dtd"><svg width="100%" height="100%" viewBox="0 0 54255 54255" version="1.1" xmlns="http://www.w3.org/2000/svg" xmlns:xlink="http://www.w3.org/1999/xlink" xml:space="preserve" xmlns:serif="http://www.serif.com/" style="fill-rule:evenodd;clip-rule:evenodd;stroke-linejoin:round;stroke-miterlimit:2;"><path d="M47170.8,23010.3c713.65,-3968.77 525.716,-9208.86 -1236.78,-11255.6c-1662.05,-1930.28 -6343.22,-3672.34 -7594.87,-4113.53l-1867.35,-3734.5c-410.691,-821.671 -1236.58,-1332.13 -2155.24,-1332.13l-14378.8,-0c-918.564,-0 -1744.55,510.462 -2155.34,1332.04l-1867.35,3734.6c-1251.64,441.102 -5932.82,2183.26 -7594.87,4113.53c-1762.49,2046.74 -1950.43,7286.83 -1236.68,11255.6c-214.411,916.549 -1138.83,5279.13 -294.995,9106.01c-48.543,737.345 -300.752,4717.24 -202.516,6176.97c81.831,1214.9 457.123,2270.46 1076.18,3094.43l-94.591,3004.45c-42.498,948.495 477.749,1835.69 1326.76,2261.73c9.594,4.892 19.475,9.497 29.356,14.006l5949.42,2676.45l-0,758.834c-0,876.449 712.978,1589.43 1589.43,1589.43l21328.9,-0c876.449,-0 1589.43,-712.979 1589.43,-1589.43l0,-758.834l5949.51,-2676.55c9.977,-4.509 19.57,-9.114 29.355,-14.006c851.123,-427.001 1371.76,-1317.46 1326.38,-2271.23l-149.656,-2923.29c651.964,-833.95 1047.5,-1915.31 1131.63,-3165.9c98.236,-1459.73 -153.973,-5439.63 -202.516,-6176.97c844.024,-3826.98 -80.392,-8189.56 -294.804,-9106.11Zm-1506.83,-317.253l-4182.32,1737.36c-111.667,-508.352 -261.132,-1024.95 -460.002,-1543.57l0,-3131.85c1.727,-146.683 89.506,-3504.17 4114.98,-6424.1c915.494,1819.67 1163.29,5787.19 527.347,9362.16Zm-1537.24,-10528.8c-4587.35,3388.85 -4643.09,7409.62 -4643.09,7586.24l0,2512.31l-11587.4,0l0,-7625.38c4255.9,-971.039 8781.47,-4466.95 10053.6,-5503.23c1550.1,550.754 4580.83,1781.29 6176.97,3030.06Zm-4424.07,19840c335.192,1083.67 1002.22,3839.26 221.799,6665.27l-12028.2,0l0,-6665.27l11806.4,0Zm-11806.4,-1538.1l0,-6665.27l11817.6,0c938.71,2811.81 310.249,5578.06 -14.87,6665.27l-11802.7,0Zm7214.49,-25821.8c2.11,-2.783 3.933,-5.661 6.044,-8.539l1712.13,3424.16c-1325.8,1059.2 -5280.57,4038.23 -8932.66,4995.55l0,-1904.57c1104.39,-715.856 4424.55,-3019.03 7214.49,-6506.6Zm-18806.2,4489.79c1272.17,1036.37 5797.55,4532.09 10053.5,5503.13l0,7625.38l-11587.1,0l-0,-2512.21c-0,-176.614 -55.738,-4197.38 -4642.99,-7586.14c1595.38,-1247.62 4626.4,-2478.73 6176.68,-3030.16Zm-7186.86,4196.71c4025.57,2919.93 4113.34,6277.32 4114.98,6419.59l-0,3136.36c-198.871,518.617 -348.431,1035.32 -460.002,1543.57l-4182.32,-1737.36c-635.848,-3575.06 -388.147,-7542.49 527.347,-9362.16Zm-722.476,10946.5l4144.81,1721.82c-194.937,2453.98 393.616,4499.48 643.619,5235.19c-135.075,392.273 -370.88,1160.32 -544.136,2164.36l-4392.89,-1824.85c-539.051,-2691.99 -137.089,-5731.55 148.601,-7296.52Zm-274.37,13912.5c-68.209,-1012.87 54.97,-3482.87 139.679,-4944.7l4191.63,1741.29c-85.285,1351.8 8.538,2920.31 516.986,4508.49c-85.093,486.958 -299.313,1782.54 -390.45,2962.24l-2404.29,-998.86c-1641.13,-681.704 -1991.1,-2340.39 -2053.55,-3268.46Zm1451.28,7082.87c-300.656,-156.756 -483.793,-474.871 -467.58,-814.38c0.192,-4.125 0.288,-8.155 0.384,-12.28l55.737,-1771.41c137.089,73.581 277.056,143.325 423.451,204.147l3000.42,1246.46c143.901,1058.24 609.85,2035.81 1348.92,2805.58c235.134,244.918 491.372,461.057 764.207,647.839l-5125.54,-2305.95Zm16786.2,4881.68l-9895.45,-0c-28.3,-0 -51.229,-23.12 -51.229,-51.229l0,-1794.25c323.009,67.249 655.515,102.265 994.064,102.265l8952.62,-0l0,1743.21Zm-0.096,-3281.41l-8952.62,-0c-1867.83,-0 -3330.91,-1516.81 -3330.91,-3453.22c-0,-977.467 204.146,-2400.45 335,-3212.05l11948.5,0l0,6665.27Zm0,-8203.38l-12028.2,0c-775.911,-2815.46 -110.516,-5579.4 223.045,-6665.27l11805.2,0l0,6665.27Zm0,-8203.47l-11802.7,0c-325.407,-1088.17 -953.484,-3853.94 -14.966,-6665.27l11817.7,0l0,6665.27Zm0,-17410.7c-3648.07,-957.034 -7605.9,-3936.64 -8932.57,-4995.65l1711.93,-3423.77c2.111,2.782 3.933,5.756 6.14,8.538c2789.94,3487.57 6110.2,5790.74 7214.49,6506.5l0,1904.38Zm-5661.14,-8942.83l12860.2,-0c-2495.62,2977.68 -5391.66,5017.52 -6430.43,5701.81c-1038.1,-683.047 -3929.44,-2717.99 -6429.76,-5701.81Zm17145.9,45990.5c0,28.205 -23.12,51.229 -51.228,51.229l-9895.45,-0l0,-1743.21l8952.71,-0c338.454,-0 671.056,-35.016 993.968,-102.265l0,1794.25Zm-993.968,-3230.08l-8952.71,-0l0,-6665.27l11948.5,0c130.853,811.214 335,2233.24 335,3212.05c0,1936.42 -1463.08,3453.22 -3330.81,3453.22Zm7833.36,-1600.27l-5125.92,2306.05c272.931,-186.878 529.265,-403.017 764.494,-647.935c738.977,-769.771 1205.12,-1747.33 1348.92,-2805.58l3000.32,-1246.37c134.211,-55.737 263.146,-118.861 389.586,-185.247l90.37,1764.99c16.02,339.221 -167.117,657.336 -467.773,814.092Zm1451.19,-7082.87c-62.357,927.966 -412.323,2586.75 -2053.46,3268.46l-2404.29,998.86c-91.137,-1179.89 -305.452,-2475.28 -390.545,-2962.24c508.544,-1588.18 602.367,-3156.7 517.082,-4508.49l4191.62,-1741.29c84.71,1461.74 207.888,3931.55 139.584,4944.7Zm-125.577,-6615.96l-4392.9,1824.85c-173.16,-1004.14 -409.06,-1772.18 -544.135,-2164.36c250.003,-735.714 838.459,-2781.31 643.522,-5235.19l4144.91,-1721.82c285.691,1565.06 687.652,4604.62 148.602,7296.52Z" style="fill-rule:nonzero;"/></svg>