<?xml version="1.0" encoding="UTF-8" standalone="no"?><!DOCTYPE svg PUBLIC "-//W3C//DTD SVG 1.1//EN" "http://www.w3.org/Graphics/SVG/1.1/DTD/svg11.dtd"><svg width="100%" height="100%" viewBox="0 0 226063 226063" version="1.1" xmlns="http://www.w3.org/2000/svg" xmlns:xlink="http://www.w3.org/1999/xlink" xml:space="preserve" xmlns:serif="http://www.serif.com/" style="fill-rule:evenodd;clip-rule:evenodd;stroke-linejoin:round;stroke-miterlimit:2;"><path d="M181301,193295c-65.675,5.028 -131.741,5.85 -196.563,5.85c-1406.79,-0.621 -2658.96,-919.88 -3080.99,-2261.87l-245.529,-781.109c-568.214,448.898 -1190.26,826.934 -1852.31,1124.78l0,17604.6c0,1772.61 -1458.63,3231.24 -3231.24,3231.24c-0,0 -119332,0 -119332,0c-1772.61,0 -3231.25,-1458.64 -3231.25,-3231.24l-0,-17604.5c-662.084,-297.908 -1284.1,-675.826 -1852.4,-1124.8l-245.444,780.672c-375.293,1193.37 -1407.04,2052.49 -2620.33,2228.52l-2401.61,12808.2c-285.366,1521.56 -1626.07,2634.79 -3174.57,2635.62c-57.045,0 -114.635,-1.224 -169.248,-4.323c0,-0 -23997.7,-1249.5 -23997.7,-1249.5c-1706.93,-88.92 -3063.15,-1517.62 -3063.15,-3226.87c0,-89.884 3.752,-179.734 11.242,-269.31c0.002,-0.032 0.005,-0.064 0.008,-0.097l1066.86,-12741c-1186.62,-611.576 -1905.6,-1922.44 -1728.7,-3288.91c0.005,-0.04 0.01,-0.079 0.015,-0.119c-0,0 10494.1,-80963.8 10494.2,-80964c937.858,-7216.37 2257.5,-14378 3953.44,-21455c1119.83,-4664.59 2415.91,-9333.7 3850.3,-13877c2790.49,-8869.16 7839.86,-16860 14648,-23186l0,-593.503c0,-3186.86 1896.2,-6085.09 4815.29,-7361.05c0,-0 3908.96,-1715 3909.32,-1715.15c9176.03,-4020.4 18735.4,-7100.36 28531.6,-9192.87l-0.008,-12522.1c0,-1766.56 1453.66,-3220.22 3220.22,-3220.22c4.859,-0 9.718,0.011 10.98,0.025l55280,-4.084c29.216,-0.002 58.264,1.632 87.013,5.033c1732.2,40.956 3144.3,1478.12 3144.3,3219.25l-0.012,12525.1c9797.01,2088.17 19357,5167.3 28532.2,9189.98c0.006,0.002 0.012,0.005 0.018,0.007c-0,0 3911.42,1715 3910.83,1714.74c2919.13,1277.08 4814.08,4175.35 4813.2,7361.38l0,592.533c6805.45,6330.43 11854.4,14321.7 14648.5,23189.7c1438.83,4552.57 2733.36,9221.58 3845.7,13874.6c1699.16,7076.23 3020.21,14237.9 3957.53,21454.7c0.009,0.067 0.018,0.135 0.026,0.202c0,0 10494.1,80963.8 10494,80962.9c141.489,1082.62 -277.468,2154.77 -1087.18,2856l1102.36,13176.1c7.489,89.576 11.241,179.426 11.241,269.31c-0,1709.25 -1356.22,3137.95 -3063.15,3226.87c-0.007,0 -0.013,0.001 -0.02,0.001c-0,-0 -23997.7,1249.5 -23978.9,1248.3c-62.665,4.774 -128.295,5.524 -188.392,5.524c-1548.09,-0.824 -2888.79,-1114.06 -3174.16,-2635.62l-2396.95,-12783l-26.078,1.478Zm-124706,-1137.84l-0,13598.9l112868,-0l0,-13598.9l-112868,-0Zm131236,760.067l1722.71,9188.94l17844.8,-929.456l-782.613,-9344.84l-18784.9,1085.36Zm-168495,8259.48l17844.4,929.456l1713.99,-9150.61l-18780.7,-1086.09l-777.615,9307.24Zm161965,-7881.7c4.413,-0.338 8.82,-0.694 13.225,-1.071l-22.338,1.587l9.113,-0.516Zm-162490,-7974.77l23813.4,1378.96l2277.06,-7239.89l0.772,-14952.2l-23219.1,-1344.48l-2872.15,22157.6Zm162344,-20816.7l0,14960.6l2276.2,7233.54l23815.5,-1377.04l-2872.56,-22161.6l-23219.1,1344.48Zm-71356.7,-8397.94l-56052.9,0c-1304.02,0.671 -2377.29,1072.55 -2379.64,2375.16c0,-0 0,24834.8 0,24834.1c1.007,1241.75 974.314,2284.4 2213.06,2370.74c1.977,0.138 3.953,0.283 5.929,0.436l73.908,5.716c2.572,0.199 5.143,0.411 7.713,0.635c22.08,1.928 44.242,2.737 66.403,2.425c3.667,-0.052 7.335,-0.078 11.003,-0.078l56054.6,0l0,-29589.2Zm6462.43,29589.2l56055.8,0c3.667,0 7.335,0.026 11.002,0.078c22.161,0.312 44.321,-0.496 66.398,-2.424c2.572,-0.225 5.144,-0.437 7.718,-0.636c0,0 73.908,-5.716 79.838,-6.152c1238.38,-86.311 2211.47,-1128.36 2213.05,-2369.74l-0.012,-0.389c0,-0 0,-24834.8 0.002,-24833.3c-2.356,-1304.02 -1075.62,-2375.9 -2379.24,-2376.57l-56054.6,-0l0,29589.2Zm-71359,-58195.1l-18458,-1069.23l-3928.51,30307.4l22398.3,1296.75c95.871,-1892.87 800.871,-3703.47 2004.55,-5160.77c-1298.36,-1572.82 -2016.47,-3555.94 -2016.32,-5609.94l0,-19764.2Zm136243,30530.9l22398.5,-1295.62l-3928.52,-30309.9l-18457.6,1068.85l-0,19770.1c-0.314,2054.01 -718.984,4036.88 -2017.49,5608.83c1203.41,1456.38 1908.58,3265.87 2005.14,5157.75Zm-71346.3,-37980.7l-56053.7,-0.001c-1305.14,1.516 -2378.63,1075.01 -2380.15,2380.11l-0,24833c1.515,1305.14 1075.01,2378.63 2379.24,2380.15l56054.6,-0l0,-29593.2Zm6462.35,29593.2l56053.7,0.001c1305.14,-1.516 2378.63,-1075.01 2380.15,-2380.11l0.001,-24833c-1.516,-1305.14 -1075.01,-2378.63 -2379.24,-2380.15l-56054.6,0l0,29593.2Zm-84181.1,-59993c-1346.47,5976.34 -2430.92,12066.8 -3220.47,18147.2l-1581.87,12206.2l17744.1,1027.32c246.821,-1546.86 902.137,-3001.19 1897.97,-4210.56c-1298.69,-1571.63 -2017.25,-3554.33 -2017.16,-5608.02l0.001,-20819.4l-12822.6,-742.708Zm161897,-4.059l-12819.7,743.448l0,20822.7l-0.011,0.387c0.156,2054.06 -718.541,4036.94 -2017.46,5608.49c994.859,1208.07 1650,2660.59 1897.46,4205.66l17744.6,-1026.59l-1581.44,-12202.8c-789.551,-6084.35 -1873.97,-12176.7 -3223.37,-18151.3Zm-84178.4,-5647.84l-56054.2,-0c-1304.02,0.671 -2377.29,1072.55 -2379.64,2376.48l-0.001,24836.1c2.359,1304.02 1075.63,2375.9 2379.24,2376.57l56054.6,-0l0,-29589.2Zm6462.35,29589.1l56054.2,-0c1304.02,-0.672 2377.29,-1072.55 2379.64,-2376.48l0.002,-24836.1c-2.356,-1304.02 -1075.62,-2375.9 -2379.24,-2376.57l-56054.6,0l0,29589.2Zm-71358.7,-55714.8c-3800.55,4641.01 -6682.98,9971.81 -8485.26,15707.7c-1004.69,3181.75 -1935.26,6426.76 -2784.31,9687.43l11611.9,672.391c334.544,-1161.8 904.527,-2242.39 1674.24,-3174.26c-1298.46,-1572.7 -2016.74,-3556.03 -2016.59,-5610.27l0,-17283Zm136255,2.436l-0,17281.3c0.261,2054.44 -718.014,4037.94 -2016.53,5610.72c768.886,930.717 1338.62,2009.93 1673.22,3170.19l11611.6,-673.495c-846.256,-3254.86 -1775.87,-6496.62 -2782.89,-9682.06c-1804.77,-5733.7 -4686.97,-11063.8 -8485.43,-15706.6Zm-37256.4,-21667.6l0,1696.97c-0.165,1034.89 -497.497,2009.1 -1335.49,2616.17l-26304.5,19061.4l0,17953.7l56053.7,0c1304.09,-1.514 2376.92,-1073.29 2380.11,-2377.11l-0.053,-2.114c-0,-0 -0.409,-27302.3 -0.409,-27302.8c0.359,-623.476 -370.336,-1190.69 -941.516,-1440.64c-0.098,-0.043 -0.195,-0.085 -0.293,-0.128c0,0 -3914.68,-1715 -3914.78,-1715.04c-8352.19,-3660.47 -17038.4,-6503.76 -25936.7,-8490.4Zm-61742.8,-3.242c-8897.48,1990.5 -17583.6,4834.86 -25936.6,8493.62c0,-0 -3911.83,1715 -3913.09,1715.55c-572.196,249.651 -943.799,817.425 -943.591,1441.71l-0.079,2.933l-0,27297.5c1.515,1305.14 1075.01,2378.63 2379.24,2380.15l56054.6,0l0,-17953.7l-26304.8,-19061.3c-838.08,-607.134 -1335.41,-1581.34 -1335.58,-2616.23l-0,-1700.2Zm34102.9,4073.37l-0,11323.3l21177.5,-15345.6l0,-12552l-21177.5,16574.3Zm-27640,-4022.34l21177.5,15344.9l0,-11322.5l-21177.5,-16574.3l0,12552Zm24408.7,-1653.8l18269.3,-14299l-36538.6,-0l18269.3,14299Z" style="fill-rule:nonzero;"/></svg>