<?xml version="1.0" encoding="UTF-8" standalone="no"?><!DOCTYPE svg PUBLIC "-//W3C//DTD SVG 1.1//EN" "http://www.w3.org/Graphics/SVG/1.1/DTD/svg11.dtd"><svg width="100%" height="100%" viewBox="0 0 750 750" version="1.1" xmlns="http://www.w3.org/2000/svg" xmlns:xlink="http://www.w3.org/1999/xlink" xml:space="preserve" xmlns:serif="http://www.serif.com/" style="fill-rule:evenodd;clip-rule:evenodd;stroke-linejoin:round;stroke-miterlimit:2;"><g id="coat-2"><path d="M601.837,468.2l-65.783,-348.822c-1.894,-9.94 -8.378,-18.389 -17.544,-22.718l-60.71,-28.718c-6.756,-3.195 -9.646,-11.275 -6.45,-18.031c3.195,-6.756 11.275,-9.647 18.031,-6.451c0,0 60.702,28.714 60.695,28.71c17.009,8.034 29.068,23.692 32.583,42.138c0.001,0.009 0.003,0.017 0.005,0.026l68.09,361.06c1.303,6.908 -2.896,13.664 -9.667,15.553l-65.58,18.298c-3.642,1.016 -7.544,0.463 -10.76,-1.525c-3.217,-1.989 -5.455,-5.232 -6.174,-8.945l-11.417,-58.977l16.786,271.867c0.23,3.73 -1.091,7.388 -3.65,10.111c-2.559,2.722 -6.13,4.266 -9.866,4.266l-310.852,-0c-3.736,-0 -7.307,-1.544 -9.866,-4.266c-2.559,-2.723 -3.88,-6.381 -3.65,-10.111l16.786,-271.863l-11.416,58.973c-0.719,3.713 -2.957,6.956 -6.174,8.945c-3.216,1.988 -7.118,2.541 -10.761,1.525l-65.58,-18.298c-6.771,-1.889 -10.97,-8.645 -9.667,-15.553c-0,0 68.09,-361.06 68.095,-361.086c3.514,-18.44 15.625,-34.098 32.565,-42.129l60.765,-28.721c6.757,-3.193 14.836,-0.301 18.03,6.457c3.193,6.757 0.3,14.836 -6.457,18.029c0,0 -60.75,28.714 -60.736,28.707c-9.137,4.332 -15.667,12.78 -17.557,22.702l-65.788,348.847l39.466,11.012l48.301,-249.516c1.357,-7.009 7.921,-11.76 15.003,-10.86c7.081,0.9 12.248,7.143 11.808,14.268l-28.764,465.854l282.046,0l-28.764,-465.854c-0.44,-7.125 4.727,-13.368 11.808,-14.268c7.082,-0.9 13.646,3.851 15.003,10.86l48.302,249.516l39.465,-11.012Z" style="fill:#1c1d20;"/><path d="M304.697,28.092c-3.097,-3.207 -7.575,-4.683 -11.972,-3.948c-4.398,0.734 -8.152,3.587 -10.038,7.626l-8.499,18.202c-1.529,3.274 -1.686,7.024 -0.436,10.414l35.35,95.868c1.386,3.76 4.367,6.713 8.14,8.064c3.774,1.351 7.951,0.961 11.409,-1.064l53.218,-31.172c3.584,-2.1 6.006,-5.728 6.571,-9.843c0.565,-4.115 -0.79,-8.262 -3.675,-11.25l-80.068,-82.897Zm24.221,103.618l24.401,-14.293l-47.995,-49.691l23.594,63.984Z" style="fill:#1c1d20;"/><path d="M467.41,31.77c-1.886,-4.039 -5.64,-6.891 -10.036,-7.626c-4.397,-0.736 -8.874,0.74 -11.972,3.945l-80.115,82.898c-2.888,2.988 -4.244,7.136 -3.678,11.253c0.565,4.117 2.989,7.746 6.576,9.845l53.265,31.172c3.458,2.023 7.635,2.412 11.407,1.06c3.772,-1.351 6.752,-4.304 8.138,-8.063l35.35,-95.868c1.25,-3.39 1.093,-7.14 -0.436,-10.414l-8.499,-18.202Zm-70.671,85.645l24.438,14.302l23.603,-64.011l-48.041,49.709Z" style="fill:#1c1d20;"/><path d="M294.957,51.042l160.183,-0c7.474,-0 13.542,-6.068 13.542,-13.542c-0,-7.474 -6.068,-13.542 -13.542,-13.542l-160.183,0c-7.474,0 -13.542,6.068 -13.542,13.542c0,7.474 6.068,13.542 13.542,13.542Z" style="fill:#1c1d20;"/><path d="M361.483,120.397l-0,592.103c-0,7.474 6.068,13.542 13.541,13.542c7.474,-0 13.542,-6.068 13.542,-13.542l0,-592.103c0,-7.474 -6.068,-13.541 -13.542,-13.541c-7.473,-0 -13.541,6.067 -13.541,13.541Z" style="fill:#1c1d20;"/></g></svg>