<?xml version="1.0" encoding="UTF-8" standalone="no"?><!DOCTYPE svg PUBLIC "-//W3C//DTD SVG 1.1//EN" "http://www.w3.org/Graphics/SVG/1.1/DTD/svg11.dtd"><svg width="100%" height="100%" viewBox="0 0 13021 13021" version="1.1" xmlns="http://www.w3.org/2000/svg" xmlns:xlink="http://www.w3.org/1999/xlink" xml:space="preserve" xmlns:serif="http://www.serif.com/" style="fill-rule:evenodd;clip-rule:evenodd;stroke-linejoin:round;stroke-miterlimit:2;"><path d="M10492.2,2213.54c-0,-992.78 -804.83,-1797.61 -1797.61,-1797.61l-4368.46,0c-992.775,0 -1797.58,804.825 -1797.58,1797.61l-0,8593.75c-0,992.779 804.808,1797.6 1797.58,1797.6l4368.46,-0c992.775,-0 1797.61,-804.825 1797.61,-1797.6l-0,-8593.75Zm-470.209,817.662l-322.519,387.329c-495.209,558.229 -671.65,1075.3 -1682.19,1304.06c-837.483,189.583 -1320.15,103.342 -2012.24,-235.908c-248.856,-121.989 -1324.58,-441.733 -1957.22,-422.209l-1049.1,278.279l-0,3788.08c10.066,22.183 16.825,46.304 19.583,71.816c-0,0 27.45,246.2 151.354,492.642c109.463,217.758 299.446,443.454 643.058,443.454c129.755,0 235.105,105.346 235.105,235.104c-0,129.738 -105.35,235.088 -235.105,235.088c-361.591,-0 -624.775,-144.5 -813.995,-342.438l-0,1540.79c-0,733.108 594.308,1327.4 1327.39,1327.4l4368.46,-0c733.108,-0 1327.4,-594.288 1327.4,-1327.4l-0,-7776.08l0.016,-0.004Zm-973.662,4797.7c-0,-129.737 105.329,-235.083 235.083,-235.083c129.758,-0 235.104,105.346 235.104,235.083l0,2917.07c0,129.741 -105.346,235.087 -235.104,235.087c-129.754,0 -235.083,-105.346 -235.083,-235.087l-0,-2917.07Zm545.625,-5023.73l-4294.6,959.762c330.554,65.192 678.537,184.805 912.637,299.542c612.846,300.417 959.86,367.404 1701.47,199.521c510.279,-115.521 812.971,-376.059 1064.6,-665.729c187.834,-216.234 182.988,-281.355 369.654,-491.771l246.22,-301.325l0.021,-0Zm428.037,-577.45l0,-14.183c0,-733.109 -594.287,-1327.4 -1327.4,-1327.4l-4368.46,-0c-733.087,-0 -1327.4,594.287 -1327.4,1327.4l0,1583.75l7023.25,-1569.57Z"/></svg>