<!-- Generated by IcoMoon.io -->
<svg version="1.1" xmlns="http://www.w3.org/2000/svg" width="1024" height="1024" viewBox="0 0 1024 1024">
<title>clock-2</title>
<g id="icomoon-ignore">
</g>
<path d="M896 384.426c36.693 9.387 64 42.668 64 82.135v256c0 11.732-9.6 21.332-21.334 21.332h-18.559v45.441c0 11.732-9.602 21.332-21.334 21.332h-64c-11.734 0-21.334-9.6-21.334-21.332v-45.441h-602.666v45.441c0 11.732-9.6 21.332-21.334 21.332h-64c-11.732 0-21.332-9.6-21.332-21.332v-45.227h-18.773c-11.734 0-21.334-9.602-21.334-21.334v-256c0-39.68 27.307-72.746 64-82.348v-117.76c0-29.439 23.893-53.332 53.334-53.332h661.332c29.441 0 53.334 23.893 53.334 53.332v117.76zM170.666 266.666v117.76c36.693 9.602 64 42.668 64 82.348v10.666h554.668v-10.666c0-39.68 27.307-72.746 64-82.348v-117.76c0-5.973-4.693-10.666-10.668-10.666h-661.332c-5.975 0-10.668 4.693-10.668 10.666zM789.334 520.108h-554.668v53.332h554.668v-53.332zM168.107 768v-24.107h-21.334v24.107h21.334zM877.44 768v-24.107h-21.332v24.107h21.332zM917.334 701.439v-234.666c0-23.467-19.201-42.666-42.668-42.666s-42.666 19.199-42.666 42.666v128c0 11.732-9.6 21.334-21.334 21.334h-597.332c-11.734 0-21.334-9.602-21.334-21.334v-128c0-23.467-19.199-42.666-42.666-42.666s-42.668 19.199-42.668 42.666v234.666h810.669z"></path>
</svg>
