<?xml version="1.0" encoding="UTF-8" standalone="no"?><!DOCTYPE svg PUBLIC "-//W3C//DTD SVG 1.1//EN" "http://www.w3.org/Graphics/SVG/1.1/DTD/svg11.dtd"><svg width="100%" height="100%" viewBox="0 0 750 750" version="1.1" xmlns="http://www.w3.org/2000/svg" xmlns:xlink="http://www.w3.org/1999/xlink" xml:space="preserve" xmlns:serif="http://www.serif.com/" style="fill-rule:evenodd;clip-rule:evenodd;stroke-linejoin:round;stroke-miterlimit:2;"><g id="detergent"><path d="M210.302,76.595c-7.479,-0 -13.542,6.063 -13.542,13.541l0,622.364c0,7.479 6.063,13.542 13.542,13.542l466.347,-0c7.479,-0 13.542,-6.063 13.542,-13.542l-0,-622.364c-0,-7.478 -6.063,-13.541 -13.542,-13.541l-466.347,-0Zm13.542,27.083l-0,595.28l439.263,0l0,-595.28l-439.263,0Z"/><path d="M78.924,24.873c-4.164,-1.613 -8.854,-1.07 -12.539,1.451c-3.684,2.521 -5.89,6.697 -5.894,11.161l-0.682,627.537c-0.006,5.775 3.651,10.919 9.108,12.81l136.951,47.463c4.141,1.435 8.72,0.777 12.29,-1.765c3.57,-2.543 5.688,-6.656 5.686,-11.038l-0.39,-622.364c-0.004,-5.588 -3.44,-10.6 -8.651,-12.619l-135.879,-52.636Zm7.979,630.529l109.845,38.069l-0.372,-594.056l-108.824,-42.155l-0.649,598.142Z"/><path d="M74.032,23.958c-6.519,0 -12.113,4.646 -13.311,11.054c-1.198,6.408 2.341,12.76 8.42,15.115l135.879,52.637c1.56,0.604 3.219,0.914 4.892,0.914l466.737,0c6.544,0 12.151,-4.679 13.323,-11.117c1.171,-6.438 -2.429,-12.793 -8.553,-15.098l-139.847,-52.637c-1.525,-0.574 -3.141,-0.868 -4.77,-0.868l-462.77,0Zm72.446,27.084l65.965,25.553l389.785,-0l-67.891,-25.553l-387.859,-0Z"/><path d="M368.411,23.958c-6.519,0 -12.113,4.646 -13.311,11.054c-1.197,6.408 2.341,12.76 8.42,15.115l135.88,52.637c1.56,0.604 3.218,0.914 4.891,0.914l172.358,0c6.544,0 12.151,-4.679 13.323,-11.117c1.171,-6.438 -2.429,-12.793 -8.553,-15.098l-139.847,-52.637c-1.525,-0.574 -3.141,-0.868 -4.77,-0.868l-168.391,0Zm72.447,27.084l65.964,25.553l95.406,-0l-67.891,-25.553l-93.479,-0Z"/><path d="M675.492,319.36c-79.764,-0 -158.423,23.546 -237.043,47.291c-76.049,22.968 -152.058,46.135 -229.213,46.135c-7.474,-0 -13.542,6.067 -13.542,13.541c0,7.474 6.068,13.542 13.542,13.542c79.764,-0 158.423,-23.547 237.043,-47.291c76.049,-22.969 152.058,-46.135 229.213,-46.135c7.474,0 13.542,-6.068 13.542,-13.542c0,-7.473 -6.068,-13.541 -13.542,-13.541Z"/><path d="M570.889,553.959c-29.372,0 -53.219,23.847 -53.219,53.22c-0,29.373 23.847,53.22 53.219,53.22c29.373,-0 53.22,-23.847 53.22,-53.22c0,-29.373 -23.847,-53.22 -53.22,-53.22Zm0,27.084c14.426,-0 26.137,11.711 26.137,26.136c-0,14.425 -11.711,26.136 -26.137,26.136c-14.425,0 -26.136,-11.711 -26.136,-26.136c0,-14.425 11.711,-26.136 26.136,-26.136Z"/><path d="M570.889,417.325c-29.372,-0 -53.219,23.847 -53.219,53.22c-0,29.373 23.847,53.219 53.219,53.219c29.373,0 53.22,-23.846 53.22,-53.219c0,-29.373 -23.847,-53.22 -53.22,-53.22Zm0,27.083c14.426,0 26.137,11.712 26.137,26.137c-0,14.425 -11.711,26.136 -26.137,26.136c-14.425,0 -26.136,-11.711 -26.136,-26.136c0,-14.425 11.711,-26.137 26.136,-26.137Z"/><path d="M433.965,553.959c-29.373,0 -53.22,23.847 -53.22,53.22c-0,29.373 23.847,53.22 53.22,53.22c29.372,-0 53.219,-23.847 53.219,-53.22c0,-29.373 -23.847,-53.22 -53.219,-53.22Zm-0,27.084c14.425,-0 26.136,11.711 26.136,26.136c0,14.425 -11.711,26.136 -26.136,26.136c-14.426,0 -26.137,-11.711 -26.137,-26.136c0,-14.425 11.711,-26.136 26.137,-26.136Z"/><path d="M129.176,166.759l-0,435.934c-0,7.474 6.068,13.541 13.541,13.541c7.474,0 13.542,-6.067 13.542,-13.541l0,-435.934c0,-7.474 -6.068,-13.542 -13.542,-13.542c-7.473,-0 -13.541,6.068 -13.541,13.542Z"/></g></svg>