<?xml version="1.0" encoding="UTF-8" standalone="no"?><!DOCTYPE svg PUBLIC "-//W3C//DTD SVG 1.1//EN" "http://www.w3.org/Graphics/SVG/1.1/DTD/svg11.dtd"><svg width="100%" height="100%" viewBox="0 0 3125 3125" version="1.1" xmlns="http://www.w3.org/2000/svg" xmlns:xlink="http://www.w3.org/1999/xlink" xml:space="preserve" xmlns:serif="http://www.serif.com/" style="fill-rule:evenodd;clip-rule:evenodd;stroke-linejoin:round;stroke-miterlimit:2;"><path d="M851.117,163.917l140.075,-59.588c25.7,-10.933 55.533,-1.416 70.158,22.375l501.236,815.494l501.064,-815.486c14.621,-23.8 44.458,-33.316 70.162,-22.383l140.076,59.588c24.095,10.25 37.975,35.737 33.508,61.541l-180.2,1041.41l241.225,1693.92c2.304,16.187 -2.525,32.583 -13.246,44.933c-10.717,12.35 -26.262,19.446 -42.617,19.446l-1500.12,0c-16.354,0 -31.9,-7.096 -42.617,-19.446c-10.721,-12.35 -15.55,-28.746 -13.246,-44.933l241.229,-1693.92l-180.2,-1041.41c-4.466,-25.804 9.409,-51.291 33.509,-61.541Zm1167.59,1141.55l-456.114,-194.183l-456.295,194.188l-228.83,1606.85l1370.07,-0l-228.827,-1606.86Zm-1082.29,-1055.2l161.95,935.942l381.85,-162.508l-489.567,-796.504l-54.233,23.07Zm708.533,773.438l381.675,162.492l161.95,-935.93l-54.221,-23.066l-489.404,796.504Z"/></svg>