<?xml version="1.0" encoding="UTF-8" standalone="no"?><!DOCTYPE svg PUBLIC "-//W3C//DTD SVG 1.1//EN" "http://www.w3.org/Graphics/SVG/1.1/DTD/svg11.dtd"><svg width="100%" height="100%" viewBox="0 0 750 750" version="1.1" xmlns="http://www.w3.org/2000/svg" xmlns:xlink="http://www.w3.org/1999/xlink" xml:space="preserve" xmlns:serif="http://www.serif.com/" style="fill-rule:evenodd;clip-rule:evenodd;stroke-linejoin:round;stroke-miterlimit:2;"><g id="dress-9"><path d="M204.268,39.34c-5.784,2.46 -9.114,8.577 -8.042,14.77l43.612,252.043c0.705,4.076 3.235,7.606 6.868,9.584c3.633,1.978 7.971,2.187 11.778,0.567l121.842,-51.853c3.627,-1.544 6.401,-4.591 7.598,-8.347c1.198,-3.755 0.7,-7.846 -1.365,-11.204l-131.835,-214.491c-3.51,-5.71 -10.67,-7.994 -16.838,-5.37l-33.618,14.301Zm20.473,20.723l38.868,224.626l91.644,-39.002l-117.496,-191.161l-13.016,5.537Z" style="fill:#1c1d20;"/><path d="M553.775,54.11c1.072,-6.193 -2.259,-12.31 -8.042,-14.77l-33.618,-14.301c-6.169,-2.624 -13.33,-0.34 -16.839,5.372l-131.791,214.491c-2.063,3.357 -2.561,7.448 -1.364,11.203c1.197,3.754 3.971,6.801 7.597,8.345l121.797,51.853c3.807,1.621 8.145,1.412 11.779,-0.566c3.633,-1.977 6.163,-5.508 6.869,-9.584l43.612,-252.043Zm-158.986,191.578l91.602,38.998l38.868,-224.623l-13.013,-5.536l-117.457,191.161Z" style="fill:#1c1d20;"/><path d="M539.408,698.958l-55.995,-393.205c-1.054,-7.399 4.098,-14.262 11.497,-15.316c7.4,-1.053 14.262,4.098 15.316,11.498l58.195,408.656c0.553,3.885 -0.606,7.82 -3.179,10.784c-2.572,2.964 -6.303,4.667 -10.228,4.667l-360.028,-0c-3.925,-0 -7.656,-1.703 -10.228,-4.667c-2.573,-2.964 -3.732,-6.899 -3.179,-10.784l58.196,-408.656c1.053,-7.4 7.916,-12.551 15.315,-11.498c7.399,1.054 12.551,7.917 11.498,15.316l-55.996,393.205l328.816,0Z" style="fill:#1c1d20;"/></g></svg>