<?xml version="1.0" encoding="UTF-8" standalone="no"?><!DOCTYPE svg PUBLIC "-//W3C//DTD SVG 1.1//EN" "http://www.w3.org/Graphics/SVG/1.1/DTD/svg11.dtd"><svg width="100%" height="100%" viewBox="0 0 750 750" version="1.1" xmlns="http://www.w3.org/2000/svg" xmlns:xlink="http://www.w3.org/1999/xlink" xml:space="preserve" xmlns:serif="http://www.serif.com/" style="fill-rule:evenodd;clip-rule:evenodd;stroke-linejoin:round;stroke-miterlimit:2;"><g id="dress-8"><path d="M286.534,51.042l-74.087,32.022c-8.43,3.665 -15.12,10.407 -18.671,18.847c-0,-0 -51.654,123.109 -51.654,123.111c-3.761,8.959 -3.678,18.592 -0.379,27.004c2.728,6.957 -0.705,14.822 -7.663,17.55c-6.958,2.729 -14.823,-0.704 -17.551,-7.662c-5.787,-14.757 -5.977,-31.656 0.619,-47.372c0,-0 51.654,-123.11 51.659,-123.122c6.256,-14.87 18.01,-26.746 32.841,-33.194c0.009,-0.004 0.018,-0.008 0.027,-0.011l76.685,-33.145c1.696,-0.733 3.524,-1.112 5.372,-1.112l181.673,0c7.474,0 13.541,6.068 13.541,13.542c0,7.474 -6.067,13.542 -13.541,13.542l-178.871,-0Z" style="fill:#1c1d20;"/><path d="M194.595,297.538c3.932,-6.303 2.052,-14.598 -4.214,-18.59l-1.726,-1.099c-0.051,-0.033 -0.103,-0.065 -0.154,-0.097l-52.244,-32.301l-4.456,-2.728c-6.348,-3.888 -14.643,-1.923 -18.573,4.399l-13.038,20.975c-1.899,3.054 -2.504,6.739 -1.683,10.24c0.82,3.501 3,6.532 6.058,8.425l58.332,36.093c6.343,3.925 14.666,1.981 18.614,-4.347l13.084,-20.97Z" style="fill:#1c1d20;"/><path d="M211.211,293.046c-8.587,5.455 -18.426,8.82 -28.651,9.714c-7.446,0.651 -14.019,-4.865 -14.671,-12.31c-0.651,-7.446 4.865,-14.019 12.311,-14.67c14.005,-1.225 26.763,-10.512 31.465,-24.909l7.959,-24.203c2.176,-6.619 9.019,-10.506 15.818,-8.986c6.799,1.52 11.336,7.951 10.486,14.866l-57.283,466.41l372.71,0l-57.283,-466.41c-0.85,-6.915 3.687,-13.346 10.486,-14.866c6.799,-1.52 13.642,2.367 15.818,8.986c0,-0 7.95,24.177 7.959,24.203c4.703,14.399 17.467,23.683 31.508,24.908c7.446,0.65 12.963,7.223 12.313,14.668c-0.649,7.446 -7.222,12.963 -14.667,12.313c-10.254,-0.894 -20.11,-4.263 -28.701,-9.717l51.314,417.806c0.473,3.85 -0.728,7.719 -3.298,10.624c-2.571,2.905 -6.263,4.569 -10.142,4.569l-403.324,-0c-3.879,-0 -7.571,-1.664 -10.142,-4.569c-2.57,-2.905 -3.771,-6.774 -3.298,-10.624l51.313,-417.803Z" style="fill:#1c1d20;"/><path d="M463.51,51.042l-178.915,-0c-7.474,-0 -13.541,-6.068 -13.541,-13.542c-0,-7.474 6.067,-13.542 13.541,-13.542l181.718,0c1.849,0 3.678,0.379 5.375,1.113c0,-0 76.64,33.145 76.664,33.155c14.844,6.454 26.654,18.352 32.846,33.206c0,0 51.654,123.11 51.637,123.069c6.66,15.731 6.428,32.644 0.636,47.413c-2.728,6.958 -10.593,10.391 -17.551,7.662c-6.958,-2.728 -10.391,-10.593 -7.663,-17.55c3.294,-8.4 3.426,-18.019 -0.362,-26.965c-0.006,-0.014 -0.012,-0.027 -0.017,-0.041c-0,0 -51.654,-123.109 -51.666,-123.138c-3.518,-8.439 -10.242,-15.159 -18.635,-18.808l-74.067,-32.032Z" style="fill:#1c1d20;"/><path d="M559.753,278.864c-3.056,1.897 -5.232,4.932 -6.048,8.435c-0.815,3.503 -0.204,7.187 1.7,10.239l13.084,20.97c3.948,6.328 12.271,8.272 18.614,4.347l58.332,-36.093c3.058,-1.893 5.238,-4.924 6.058,-8.425c0.821,-3.501 0.216,-7.186 -1.683,-10.24l-13.038,-20.975c-3.93,-6.322 -12.225,-8.287 -18.573,-4.399l-4.46,2.731l-52.214,32.31l-1.772,1.1Z" style="fill:#1c1d20;"/><path d="M424.2,203.798c30.251,0 54.746,-24.469 54.746,-54.624c0,0 0,-111.674 0,-111.674c0,-7.479 -6.062,-13.542 -13.541,-13.542l-181.673,0c-7.479,0 -13.541,6.063 -13.541,13.542l-0,111.674c-0,30.155 24.494,54.624 54.746,54.624c-0,0 99.263,0 99.263,0Zm27.663,-152.756l-154.589,-0l-0,98.132c-0,15.221 12.394,27.541 27.663,27.541l99.263,-0c15.269,-0 27.663,-12.32 27.663,-27.541l0,-98.132Z" style="fill:#1c1d20;"/><path d="M488.291,698.958l-26.235,-271.995c-0.717,-7.439 4.74,-14.061 12.179,-14.779c7.44,-0.718 14.062,4.74 14.78,12.179l27.666,286.837c0.367,3.8 -0.888,7.578 -3.455,10.404c-2.566,2.826 -6.206,4.438 -10.024,4.438l-256.404,-0c-3.818,-0 -7.458,-1.612 -10.024,-4.438c-2.567,-2.826 -3.822,-6.604 -3.455,-10.404l27.666,-286.837c0.718,-7.439 7.34,-12.897 14.78,-12.179c7.439,0.718 12.896,7.34 12.179,14.779l-26.235,271.995l226.582,0Z" style="fill:#1c1d20;"/><path d="M402.698,698.958l-10.973,-272.751c-0.3,-7.467 5.519,-13.774 12.987,-14.075c7.468,-0.3 13.775,5.519 14.075,12.987l11.539,286.837c0.148,3.683 -1.212,7.267 -3.765,9.925c-2.554,2.658 -6.08,4.161 -9.766,4.161l-83.59,-0c-3.686,-0 -7.212,-1.503 -9.766,-4.161c-2.553,-2.658 -3.913,-6.242 -3.765,-9.925l11.539,-286.837c0.3,-7.468 6.607,-13.287 14.075,-12.987c7.468,0.301 13.287,6.608 12.987,14.075l-10.973,272.751l55.396,0Z" style="fill:#1c1d20;"/></g></svg>