<?xml version="1.0" encoding="UTF-8" standalone="no"?><!DOCTYPE svg PUBLIC "-//W3C//DTD SVG 1.1//EN" "http://www.w3.org/Graphics/SVG/1.1/DTD/svg11.dtd"><svg width="100%" height="100%" viewBox="0 0 3125 3125" version="1.1" xmlns="http://www.w3.org/2000/svg" xmlns:xlink="http://www.w3.org/1999/xlink" xml:space="preserve" xmlns:serif="http://www.serif.com/" style="fill-rule:evenodd;clip-rule:evenodd;stroke-linejoin:round;stroke-miterlimit:2;"><path d="M1025,635.837c11.304,-28.399 20.421,-62.654 27.242,-106.458c22.287,-144.616 13.858,-237.142 -18.871,-324.954c-6.008,-16.117 -4.337,-34.1 4.546,-48.833c8.879,-14.734 23.996,-24.609 41.054,-26.825l219.2,-28.471c16.1,-2.092 32.317,2.854 44.508,13.566c12.196,10.713 19.184,26.155 19.184,42.388l-0,403.854c83.653,24.028 154.604,77.506 200.631,148.363c46.04,-70.889 117.007,-124.381 200.635,-148.388l0,-403.829c0,-16.233 6.992,-31.675 19.184,-42.388c12.195,-10.712 28.412,-15.658 44.508,-13.566l219.2,28.471c17.058,2.216 32.175,12.091 41.054,26.825c8.883,14.733 10.554,32.716 4.546,48.833c-32.721,87.792 -41.146,180.304 -18.671,325.046c6.675,43.796 15.763,78.012 27.042,106.367c72.896,64.7 118.792,158.72 118.792,263.32c-0,56.67 -13.587,110.201 -37.371,157.681c-32.825,95.999 -59.349,243.048 -78.554,368.682c-19.05,124.967 12.725,251.1 83.791,355.592c75.209,110.375 126.209,238.87 126.209,375.712c-0,1.642 -0.071,3.279 -0.213,4.913l-70.983,811.925c-2.55,29.145 -26.954,51.512 -56.213,51.512l-1245.91,-0c-29.258,-0 -53.663,-22.367 -56.213,-51.513l-70.983,-811.925l-0.212,-4.912c-0,-136.854 51.179,-265.388 126.2,-375.833c71.095,-104.396 102.858,-230.392 83.987,-355.171c-19.156,-125.707 -45.749,-272.709 -78.152,-368.052c-24.225,-47.7 -37.956,-101.59 -37.956,-158.611c-0,-104.6 45.891,-198.62 118.787,-263.321Zm1048.86,386.767c1.059,-4.298 2.645,-8.542 4.785,-12.642c17.313,-33.166 27.288,-70.833 27.288,-110.804c-0,-74.704 -34.563,-141.4 -88.505,-185.483c-6.858,-5.608 -12.304,-12.754 -15.887,-20.858c-16.796,-37.955 -30.704,-84.367 -40.125,-146.184c-20.779,-133.8 -17.504,-229.55 3.621,-314.591l-89.059,-11.567l0,375.921c2.23,13.55 -0.57,27.546 -8.016,39.296c-8.875,13.995 -23.454,23.383 -39.871,25.666c-117.967,16.429 -209.171,116.367 -209.171,237.8c0,30.899 -24.89,56.031 -55.696,56.421l-0.729,0.004c-31.142,0 -56.425,-25.283 -56.425,-56.425c0,-121.241 -90.917,-221.029 -208.733,-237.721c-16.017,-2.27 -30.292,-11.304 -39.196,-24.808c-6.954,-10.55 -10.108,-23.033 -9.125,-35.437l-0,-380.717l-89.063,11.567c21.125,85.016 24.43,180.77 3.805,314.616c-9.642,61.917 -23.53,108.246 -40.305,146.154c-3.583,8.109 -9.029,15.255 -15.891,20.863c-53.942,44.083 -88.504,110.779 -88.504,185.483c-0,40.859 10.404,79.346 28.608,113.013c2.964,5.484 4.926,11.243 5.947,17.068c32.965,100.483 60.615,250.618 80.278,379.648c23.142,153.038 -15.133,307.646 -102.246,435.567c-62.05,91.346 -106.108,197.071 -106.642,310.208l66.242,757.663l1142.5,0l66.242,-757.662c-0.529,-113.071 -44.392,-218.721 -106.621,-310.046c-87.15,-128.142 -125.417,-282.917 -102.063,-436.121c20.072,-131.332 48.343,-284.697 82.557,-385.892Z"/></svg>