<?xml version="1.0" encoding="UTF-8" standalone="no"?><!DOCTYPE svg PUBLIC "-//W3C//DTD SVG 1.1//EN" "http://www.w3.org/Graphics/SVG/1.1/DTD/svg11.dtd"><svg width="100%" height="100%" viewBox="0 0 750 750" version="1.1" xmlns="http://www.w3.org/2000/svg" xmlns:xlink="http://www.w3.org/1999/xlink" xml:space="preserve" xmlns:serif="http://www.serif.com/" style="fill-rule:evenodd;clip-rule:evenodd;stroke-linejoin:round;stroke-miterlimit:2;"><g id="dress-7"><path d="M520.504,382.129c0,-0 -116.08,-114.995 -178.635,-223.488c-25.271,-43.829 -42.317,-86.213 -36.493,-118.756c1.316,-7.357 -3.588,-14.398 -10.945,-15.715c-7.357,-1.316 -14.398,3.588 -15.715,10.945c-6.688,37.375 10.666,86.716 39.69,137.054c64.13,111.223 183.03,229.193 183.03,229.193c5.308,5.262 13.889,5.225 19.151,-0.083c5.262,-5.307 5.225,-13.888 -0.083,-19.15Z" style="fill:#1c1d20;"/><path d="M524.508,391.432c-1.714,-74.083 10.43,-99.316 13.074,-103.595c0.172,-0.278 0.273,-0.403 0.273,-0.403c4.013,-5.294 2.81,-13.791 -3.164,-18.282c-5.973,-4.492 -14.47,-3.289 -18.961,2.685c-0,-0 -20.5,25.04 -18.298,120.221c0.173,7.472 6.38,13.398 13.852,13.225c7.472,-0.173 13.397,-6.379 13.224,-13.851Z" style="fill:#1c1d20;"/><path d="M212.402,288.293c-3.912,-5.944 -2.549,-13.992 3.232,-18.294c5.995,-4.463 14.486,-3.219 18.948,2.776c0,0 20.095,24.778 17.94,119.279c-0.17,7.472 -6.375,13.4 -13.847,13.229c-7.471,-0.17 -13.399,-6.375 -13.229,-13.846c1.677,-73.552 -10.21,-98.54 -12.799,-102.777l-0.096,-0.147l-0.095,-0.135l-0.044,-0.07l-0.03,-0.042l0.02,0.027l0.01,0.015l0.091,0.131l-0.051,-0.078l-0.05,-0.068Z" style="fill:#1c1d20;"/><path d="M292.046,51.042l165.908,-0c7.474,-0 13.542,-6.068 13.542,-13.542c-0,-7.474 -6.068,-13.542 -13.542,-13.542l-165.908,0c-7.474,0 -13.542,6.068 -13.542,13.542c0,7.474 6.068,13.542 13.542,13.542Z" style="fill:#1c1d20;"/><path d="M116.082,154.785l117.184,116.472c5.301,5.268 5.327,13.849 0.058,19.15c-5.268,5.301 -13.849,5.327 -19.15,0.059l-127.612,-126.835c-2.685,-2.67 -4.131,-6.342 -3.985,-10.126c0.146,-3.784 1.869,-7.334 4.752,-9.789c-0,0 86.249,-72.987 95.93,-77.72c7.757,-3.782 78.199,-31.19 103.904,-41.127c6.971,-2.695 14.819,0.777 17.514,7.748c2.695,6.971 -0.777,14.819 -7.748,17.514c-25.177,9.733 -94.203,36.505 -101.788,40.203c-7.019,3.431 -56.477,45.23 -79.059,64.451Z" style="fill:#1c1d20;"/><path d="M633.888,154.765c-22.606,-19.232 -72.055,-60.999 -79.062,-64.425c-7.598,-3.705 -76.629,-30.478 -101.762,-40.212c-6.97,-2.699 -10.437,-10.549 -7.738,-17.518c2.699,-6.97 10.549,-10.437 17.518,-7.738c25.658,9.937 96.095,37.342 103.865,41.131c9.667,4.726 95.959,77.711 95.959,77.711c2.889,2.458 4.614,6.016 4.756,9.806c0.141,3.79 -1.313,7.467 -4.01,10.134l-127.338,125.949c-5.314,5.255 -13.895,5.208 -19.151,-0.105c-5.256,-5.314 -5.208,-13.895 0.105,-19.151l116.858,-115.582Z" style="fill:#1c1d20;"/><path d="M522.859,386.379c-2.142,-4.962 -7.029,-8.175 -12.434,-8.175l-270.577,-0c-5.406,-0 -10.293,3.214 -12.434,8.177l-119.389,276.747c-0.731,1.694 -1.108,3.52 -1.108,5.364c0,4.382 1.516,9.131 5.597,13.69c2.986,3.335 7.972,6.99 15.082,10.394c34.517,16.522 132.265,33.466 247.54,33.466c115.275,-0 213.051,-16.943 247.58,-33.465c7.112,-3.404 12.099,-7.058 15.086,-10.393c4.083,-4.559 5.599,-9.309 5.599,-13.692c0,-1.845 -0.377,-3.671 -1.108,-5.365l-119.434,-276.748Zm91.216,279.713l-112.555,-260.805l-252.766,-0l-112.512,260.806c3.89,2.064 10.472,5.321 16.856,7.409c41.592,13.61 125.425,25.456 222.038,25.456c96.614,0 180.47,-11.847 222.076,-25.456c6.387,-2.089 12.971,-5.346 16.863,-7.41Z" style="fill:#1c1d20;"/><path d="M444.608,39.795c0,0 12.567,80.778 -84.644,176.349c-5.33,5.24 -5.403,13.821 -0.163,19.15c5.24,5.33 13.82,5.403 19.15,0.163c109.59,-107.741 92.349,-200.252 92.349,-200.252c-1.267,-7.366 -8.275,-12.317 -15.641,-11.051c-7.366,1.267 -12.317,8.275 -11.051,15.641Z" style="fill:#1c1d20;"/></g></svg>