<?xml version="1.0" encoding="UTF-8" standalone="no"?><!DOCTYPE svg PUBLIC "-//W3C//DTD SVG 1.1//EN" "http://www.w3.org/Graphics/SVG/1.1/DTD/svg11.dtd"><svg width="100%" height="100%" viewBox="0 0 750 750" version="1.1" xmlns="http://www.w3.org/2000/svg" xmlns:xlink="http://www.w3.org/1999/xlink" xml:space="preserve" xmlns:serif="http://www.serif.com/" style="fill-rule:evenodd;clip-rule:evenodd;stroke-linejoin:round;stroke-miterlimit:2;"><g id="dress"><path d="M269.508,321.304l0,-171.583c0,-7.479 6.063,-13.542 13.542,-13.542l183.9,0c7.479,0 13.542,6.063 13.542,13.542l-0,171.583l80.849,357.352c0.222,0.981 0.334,1.983 0.334,2.988c-0,5.754 -4.003,14.357 -16.372,20.464c-23.748,11.726 -90.971,23.934 -170.303,23.934c-79.332,-0 -146.555,-12.208 -170.303,-23.934c-12.369,-6.107 -16.372,-14.71 -16.372,-20.464c0,-1.005 0.112,-2.007 0.334,-2.988l80.849,-357.352Zm183.9,-158.042l-156.816,0l-0,159.555c-0,1.005 -0.112,2.008 -0.334,2.988l-79.588,351.776c2.346,1.166 5.657,2.692 8.85,3.77c27.996,9.448 84.434,17.607 149.48,17.607c65.046,0 121.485,-8.159 149.48,-17.607c3.193,-1.078 6.504,-2.604 8.85,-3.77l-79.588,-351.776c-0.222,-0.98 -0.334,-1.983 -0.334,-2.988l0,-159.555Z" style="fill:#1c1d20;"/><path d="M342.612,37.5c0,-7.479 -6.063,-13.542 -13.541,-13.542l-29.939,0c-7.478,0 -13.541,6.063 -13.541,13.542l-0,112.221c-0,7.479 6.063,13.541 13.541,13.541l29.939,0c7.478,0 13.541,-6.062 13.541,-13.541l0,-112.221Zm-29.938,13.542l0,85.137l2.855,0l-0,-85.137l-2.855,-0Z" style="fill:#1c1d20;"/><path d="M464.41,37.5c-0,-7.479 -6.063,-13.542 -13.542,-13.542l-29.939,0c-7.478,0 -13.541,6.063 -13.541,13.542l-0,112.221c-0,7.479 6.063,13.541 13.541,13.541l29.939,0c7.479,0 13.542,-6.062 13.542,-13.541l-0,-112.221Zm-29.939,13.542l0,85.137l2.855,0l0,-85.137l-2.855,-0Z" style="fill:#1c1d20;"/><path d="M361.458,149.721l0,562.461c0,7.474 6.068,13.542 13.542,13.542c7.474,-0 13.542,-6.068 13.542,-13.542l-0,-562.461c-0,-7.474 -6.068,-13.542 -13.542,-13.542c-7.474,0 -13.542,6.068 -13.542,13.542Z" style="fill:#1c1d20;"/><path d="M419.797,183.311c0,-11.87 -9.614,-21.542 -21.582,-21.542c-11.969,0 -21.583,9.672 -21.583,21.542c-0,11.882 9.616,21.547 21.583,21.547c11.966,-0 21.582,-9.665 21.582,-21.547Zm-27.083,0c0,-3.04 2.438,-5.536 5.501,-5.536c3.062,-0 5.5,2.496 5.5,5.536c0,3.04 -2.436,5.542 -5.5,5.542c-3.065,-0 -5.501,-2.502 -5.501,-5.542Z" style="fill:#1c1d20;"/><path d="M419.797,238.377c0,-11.871 -9.614,-21.542 -21.582,-21.542c-11.969,-0 -21.583,9.671 -21.583,21.542c-0,11.893 9.616,21.546 21.583,21.546c11.966,0 21.582,-9.653 21.582,-21.546Zm-27.083,-0c0,-3.044 2.438,-5.537 5.501,-5.537c3.062,-0 5.5,2.493 5.5,5.537c0,3.039 -2.436,5.541 -5.5,5.541c-3.065,0 -5.501,-2.502 -5.501,-5.541Z" style="fill:#1c1d20;"/><path d="M419.797,293.447c0,-11.882 -9.616,-21.546 -21.582,-21.546c-11.967,-0 -21.583,9.664 -21.583,21.546c-0,11.883 9.614,21.542 21.583,21.542c11.968,-0 21.582,-9.659 21.582,-21.542Zm-27.083,-0c0,-3.043 2.436,-5.542 5.501,-5.542c3.064,0 5.5,2.499 5.5,5.542c0,3.041 -2.438,5.537 -5.5,5.537c-3.063,-0 -5.501,-2.496 -5.501,-5.537Z" style="fill:#1c1d20;"/><path d="M419.797,348.512c0,-11.881 -9.616,-21.546 -21.582,-21.546c-11.967,-0 -21.583,9.665 -21.583,21.546c-0,11.884 9.614,21.542 21.583,21.542c11.968,-0 21.582,-9.658 21.582,-21.542Zm-27.083,0c0,-3.043 2.436,-5.541 5.501,-5.541c3.064,-0 5.5,2.498 5.5,5.541c0,3.041 -2.438,5.537 -5.5,5.537c-3.063,0 -5.501,-2.496 -5.501,-5.537Z" style="fill:#1c1d20;"/><path d="M419.797,403.577c0,-11.88 -9.616,-21.546 -21.582,-21.546c-11.967,0 -21.583,9.666 -21.583,21.546c-0,11.884 9.614,21.542 21.583,21.542c11.968,0 21.582,-9.658 21.582,-21.542Zm-27.083,0c0,-3.042 2.436,-5.541 5.501,-5.541c3.064,-0 5.5,2.499 5.5,5.541c0,3.041 -2.438,5.538 -5.5,5.538c-3.063,-0 -5.501,-2.497 -5.501,-5.538Z" style="fill:#1c1d20;"/><path d="M419.797,458.643c0,-11.881 -9.616,-21.546 -21.582,-21.546c-11.967,-0 -21.583,9.665 -21.583,21.546c-0,11.88 9.616,21.547 21.583,21.547c11.966,-0 21.582,-9.667 21.582,-21.547Zm-27.083,0c0,-3.04 2.438,-5.537 5.501,-5.537c3.062,0 5.5,2.497 5.5,5.537c0,3.041 -2.438,5.537 -5.5,5.537c-3.063,-0 -5.501,-2.496 -5.501,-5.537Z" style="fill:#1c1d20;"/><path d="M419.797,513.709c0,-11.884 -9.614,-21.542 -21.582,-21.542c-11.969,-0 -21.583,9.658 -21.583,21.542c-0,11.881 9.616,21.546 21.583,21.546c11.966,-0 21.582,-9.665 21.582,-21.546Zm-27.083,-0c0,-3.041 2.438,-5.537 5.501,-5.537c3.062,-0 5.5,2.496 5.5,5.537c0,3.042 -2.436,5.541 -5.5,5.541c-3.065,0 -5.501,-2.499 -5.501,-5.541Z" style="fill:#1c1d20;"/><path d="M419.797,568.774c0,-11.884 -9.614,-21.542 -21.582,-21.542c-11.969,0 -21.583,9.658 -21.583,21.542c-0,11.882 9.616,21.546 21.583,21.546c11.966,0 21.582,-9.664 21.582,-21.546Zm-27.083,-0c0,-3.041 2.438,-5.537 5.501,-5.537c3.062,-0 5.5,2.496 5.5,5.537c0,3.043 -2.436,5.541 -5.5,5.541c-3.065,0 -5.501,-2.498 -5.501,-5.541Z" style="fill:#1c1d20;"/><path d="M419.797,623.844c0,-11.894 -9.616,-21.547 -21.582,-21.547c-11.967,0 -21.583,9.653 -21.583,21.547c-0,11.871 9.614,21.542 21.583,21.542c11.968,0 21.582,-9.671 21.582,-21.542Zm-27.083,-0c0,-3.04 2.436,-5.541 5.501,-5.541c3.064,-0 5.5,2.501 5.5,5.541c0,3.044 -2.438,5.537 -5.5,5.537c-3.063,-0 -5.501,-2.493 -5.501,-5.537Z" style="fill:#1c1d20;"/><path d="M419.797,678.91c0,-11.882 -9.616,-21.547 -21.582,-21.547c-11.967,-0 -21.583,9.665 -21.583,21.547c-0,11.87 9.614,21.541 21.583,21.541c11.968,0 21.582,-9.671 21.582,-21.541Zm-27.083,-0c0,-3.04 2.436,-5.542 5.501,-5.542c3.064,0 5.5,2.502 5.5,5.542c0,3.04 -2.438,5.536 -5.5,5.536c-3.063,0 -5.501,-2.496 -5.501,-5.536Z" style="fill:#1c1d20;"/></g></svg>