<?xml version="1.0" encoding="UTF-8" standalone="no"?><!DOCTYPE svg PUBLIC "-//W3C//DTD SVG 1.1//EN" "http://www.w3.org/Graphics/SVG/1.1/DTD/svg11.dtd"><svg width="100%" height="100%" viewBox="0 0 3125 3125" version="1.1" xmlns="http://www.w3.org/2000/svg" xmlns:xlink="http://www.w3.org/1999/xlink" xml:space="preserve" xmlns:serif="http://www.serif.com/" style="fill-rule:evenodd;clip-rule:evenodd;stroke-linejoin:round;stroke-miterlimit:2;"><path d="M1741.74,264.195l-0,-107.945c-0,-31.142 25.283,-56.425 56.425,-56.425c31.141,0 56.425,25.283 56.425,56.425l-0,103.893c9.84,54.06 38.258,179.337 81.954,240.144c40.442,56.265 82.094,96.719 115.171,108.204c1.064,0.352 2.123,0.738 3.176,1.158c5.194,2.063 9.925,4.827 14.12,8.146l0.156,0.123l0.152,0.121l0.129,0.105c6.565,5.292 11.751,11.92 15.327,19.301l0.131,0.273c4.26,8.899 6.206,18.911 5.353,29.056l-0.006,0.072l-0.018,0.204c-0.478,5.418 -1.753,10.85 -3.888,16.134c-0.247,0.615 -0.505,1.223 -0.772,1.826c-79.643,182.756 -144.922,333.751 -144.381,552.228c31.846,75.783 94.733,300.175 94.733,365.645l0,1365.87c0,31.163 -25.258,56.425 -56.421,56.425l-834.204,0c-31.162,0 -56.425,-25.262 -56.425,-56.425l0,-1365.87c0,-65.47 63.058,-289.908 94.738,-365.57c0.549,-218.539 -64.734,-369.56 -144.209,-552.341c-0.205,-0.463 -0.405,-0.93 -0.598,-1.401l-0.085,-0.206l-0.02,-0.049c-2.339,-5.75 -3.66,-11.675 -4.042,-17.572c-0.627,-9.575 1.229,-19.003 5.16,-27.455l0.074,-0.158l0.071,-0.152l0.073,-0.154l0.073,-0.152l0.074,-0.154c3.371,-6.981 8.178,-13.291 14.231,-18.438l0.23,-0.195c5.049,-4.253 10.931,-7.682 17.508,-10.008l0.24,-0.084l0.028,-0.01c0.151,-0.053 0.303,-0.105 0.454,-0.156c32.992,-11.342 74.799,-51.878 115.379,-108.332c43.705,-60.816 72.119,-186.093 81.963,-240.155l-0,-103.891c-0,-31.142 25.283,-56.425 56.421,-56.425c31.141,-0 56.425,25.283 56.425,56.425l-0,107.944c0.016,0.992 0.005,1.988 -0.032,2.988c-0.962,50.824 22.733,133.591 64.398,225.118c24.349,53.288 70.856,114.606 115.008,166.199c44.08,-51.595 90.579,-112.892 114.905,-166.128c41.699,-91.598 65.39,-174.365 64.427,-225.189c-0.037,-1.001 -0.047,-1.998 -0.031,-2.987Zm60.99,221.545c-6.891,17.472 -14.464,35.337 -22.715,53.46c-36.415,79.696 -115.193,176.192 -175.034,241.386c-1.314,1.501 -2.723,2.95 -4.225,4.335c-22.887,21.117 -58.612,19.675 -79.729,-3.213c-60.167,-65.212 -139.617,-162.362 -176.267,-242.579c-8.24,-18.101 -15.804,-35.944 -22.683,-53.386c-12.569,30.702 -26.716,58.888 -42.183,80.411c-38.279,53.254 -79.613,94.079 -116.866,120.37c77.666,180.97 136.235,339.666 133.337,563.722c-0.109,8.425 -2.1,16.716 -5.834,24.266c-25.17,50.942 -88.804,267.788 -88.804,328.371l0,1309.44l721.354,0l0,-1309.44c0,-60.558 -63.404,-277.321 -88.741,-328.254c-3.771,-7.587 -5.788,-15.925 -5.9,-24.4c-2.898,-224.008 55.648,-382.694 133.464,-563.661c-37.336,-26.294 -78.695,-67.135 -116.993,-120.422c-15.466,-21.521 -29.613,-49.705 -42.181,-80.406Z"/></svg>