<?xml version="1.0" encoding="UTF-8" standalone="no"?><!DOCTYPE svg PUBLIC "-//W3C//DTD SVG 1.1//EN" "http://www.w3.org/Graphics/SVG/1.1/DTD/svg11.dtd"><svg width="100%" height="100%" viewBox="0 0 3125 3125" version="1.1" xmlns="http://www.w3.org/2000/svg" xmlns:xlink="http://www.w3.org/1999/xlink" xml:space="preserve" xmlns:serif="http://www.serif.com/" style="fill-rule:evenodd;clip-rule:evenodd;stroke-linejoin:round;stroke-miterlimit:2;"><path d="M1206.55,100.767c3.773,-0.705 7.559,-1.011 11.308,-0.942l689.323,0c2.541,-0.046 5.101,0.082 7.663,0.389l0.239,0.029l0.115,0.015l0.231,0.029l0.113,0.015l0.25,0.034c0.992,0.136 1.977,0.298 2.953,0.485l0.076,0.014l0.141,0.028c3.655,0.711 7.184,1.775 10.554,3.156c107.73,41.726 399.501,155.255 431.775,170.993c40.28,19.692 399.83,323.796 399.83,323.796c12.037,10.242 19.225,25.067 19.816,40.859c0.588,15.791 -5.47,31.112 -16.708,42.225l-525.898,520.162c-13.504,24.184 -59.156,131.934 -52.996,423.503l490.89,1137.47c3.046,7.059 4.617,14.667 4.617,22.354c-0,18.263 -6.317,38.055 -23.33,57.05c-12.445,13.896 -33.225,29.121 -62.858,43.305c-143.871,68.841 -551.271,139.437 -1031.58,139.437c-480.313,0 -887.596,-70.6 -1031.42,-139.442c-29.625,-14.183 -50.4,-29.412 -62.842,-43.308c-17.004,-18.996 -23.32,-38.783 -23.32,-57.042c-0,-7.683 1.57,-15.291 4.616,-22.35l489.302,-1134.22c6.409,-291.445 -38.402,-398.989 -51.75,-423.249l-526.981,-523.772c-11.187,-11.125 -17.212,-26.425 -16.604,-42.192c0.608,-15.766 7.787,-30.558 19.8,-40.787c-0,-0 359.371,-304.113 399.708,-323.834c32.227,-15.712 324.129,-129.296 431.99,-170.997c3.465,-1.415 7.102,-2.494 10.87,-3.199l0.107,-0.02Zm1352.1,2674.62l-468.979,-1086.69l-1053.19,-0l-468.8,1086.69c16.208,8.6 43.633,22.17 70.233,30.87c173.3,56.709 522.605,106.067 925.159,106.067c402.558,0 751.958,-49.362 925.316,-106.067c26.613,-8.704 54.046,-22.275 70.263,-30.875Zm-1402.71,-2535.02c-128.347,49.812 -317.561,123.703 -342.85,136.033c-29.246,14.295 -235.321,188.458 -329.413,268.546l487.571,484.608c1.302,1.252 2.553,2.577 3.748,3.973c0.912,1.06 1.778,2.147 2.596,3.254c3.896,5.054 75.281,102.265 75.259,439.077l943.1,0c-156.566,-165.827 -473.901,-519.666 -669.257,-858.479c-97.908,-169.807 -163.944,-336.891 -170.754,-477.012Zm811.127,-0.74c-6.815,135.618 -62.329,404.837 -354.001,707.041c165.923,226.212 351.204,431.362 460.376,547.057c10.349,-272.178 70.984,-355.298 75.204,-360.769c1.175,-1.582 2.446,-3.118 3.81,-4.598c0.76,-0.827 1.54,-1.627 2.34,-2.401l486.406,-481.095c-94.192,-80.133 -300.229,-254.162 -329.425,-268.437c-25.456,-12.414 -216.418,-86.974 -344.71,-136.798Zm-112.369,-26.944l-586.934,0c-3.484,128.281 63.053,285.924 156.692,448.329c36.855,63.921 78.17,128.383 121.967,191.986c272.325,-289.766 306.874,-540.004 308.275,-640.315Z"/></svg>