<?xml version="1.0" encoding="UTF-8" standalone="no"?><!DOCTYPE svg PUBLIC "-//W3C//DTD SVG 1.1//EN" "http://www.w3.org/Graphics/SVG/1.1/DTD/svg11.dtd"><svg width="100%" height="100%" viewBox="0 0 750 750" version="1.1" xmlns="http://www.w3.org/2000/svg" xmlns:xlink="http://www.w3.org/1999/xlink" xml:space="preserve" xmlns:serif="http://www.serif.com/" style="fill-rule:evenodd;clip-rule:evenodd;stroke-linejoin:round;stroke-miterlimit:2;"><g id="dress-3"><path d="M266.211,171.712c11.342,-3.873 27,-16.408 40.964,-35.835c12.907,-17.961 21.986,-55.253 24.557,-69.9c1.292,-7.361 -3.635,-14.387 -10.996,-15.679c-7.361,-1.293 -14.387,3.635 -15.679,10.996c-2.154,12.266 -9.066,43.736 -19.875,58.777c-9.753,13.568 -19.801,23.305 -27.724,26.011c-7.073,2.416 -10.854,10.119 -8.438,17.192c2.415,7.072 10.118,10.854 17.191,8.438Z" style="fill:#1c1d20;"/><path d="M304.856,63.316c-0.348,14.794 5.679,39.259 17.887,66.075c8.796,19.252 27.864,42.568 42.304,58.219c5.068,5.493 13.642,5.839 19.135,0.771c5.493,-5.068 5.839,-13.642 0.771,-19.136c-12.728,-13.796 -29.822,-34.138 -37.569,-51.093c-10.046,-22.068 -15.739,-42.014 -15.452,-54.198c0.176,-7.471 -5.747,-13.68 -13.219,-13.856c-7.471,-0.177 -13.68,5.747 -13.857,13.218Z" style="fill:#1c1d20;"/><path d="M418.022,63.954c0.287,12.184 -5.405,32.13 -15.459,54.215c-7.742,16.943 -24.842,37.288 -37.532,51.089c-5.058,5.501 -4.699,14.075 0.803,19.134c5.502,5.058 14.075,4.699 19.134,-0.803c14.388,-15.648 33.45,-38.952 42.236,-58.181c12.216,-26.833 18.243,-51.298 17.894,-66.092c-0.176,-7.471 -6.385,-13.395 -13.857,-13.218c-7.472,0.176 -13.395,6.385 -13.219,13.856Z" style="fill:#1c1d20;"/><path d="M284.068,296.955c0.132,-52.486 -15.558,-88.745 -34.652,-132.658c-2.98,-6.854 0.165,-14.838 7.019,-17.818c6.854,-2.981 14.838,0.164 17.818,7.018c21.005,48.309 37.63,88.195 36.875,146.562c-0.026,2.022 -0.504,4.012 -1.4,5.824c-6.041,12.226 -21.313,64.269 -21.313,78.809l-0,314.266l173.125,0l0,-314.266c0,-14.534 -15.217,-66.557 -21.298,-78.781c-0.905,-1.821 -1.389,-3.822 -1.416,-5.856c-0.755,-58.367 15.871,-98.256 36.925,-146.568c2.986,-6.851 10.973,-9.99 17.824,-7.004c6.852,2.986 9.99,10.973 7.005,17.824c-19.134,43.906 -34.823,80.159 -34.693,132.63c7.643,18.188 22.736,72.042 22.736,87.755l0,327.808c0,7.479 -6.062,13.542 -13.541,13.542l-200.209,-0c-7.479,-0 -13.542,-6.063 -13.542,-13.542c0,0 0,-327.808 0,-327.808c0,-15.713 15.134,-69.578 22.737,-87.737Z" style="fill:#1c1d20;"/><path d="M492.523,146.076c-7.957,-2.705 -18.001,-12.441 -27.752,-26.007c-10.807,-15.039 -17.72,-46.509 -19.873,-58.775c-1.293,-7.361 -8.318,-12.289 -15.679,-10.996c-7.362,1.292 -12.289,8.318 -10.997,15.679c2.572,14.647 11.651,51.939 24.557,69.898c13.967,19.433 29.63,31.969 41.028,35.843c7.077,2.406 14.774,-1.387 17.18,-8.463c2.405,-7.076 -1.387,-14.774 -8.464,-17.179Z" style="fill:#1c1d20;"/><path d="M331.936,63.635l0,-26.135c0,-7.474 -6.068,-13.542 -13.542,-13.542c-7.473,0 -13.541,6.068 -13.541,13.542l-0,26.135c-0,7.474 6.068,13.542 13.541,13.542c7.474,0 13.542,-6.068 13.542,-13.542Z" style="fill:#1c1d20;"/><path d="M445.102,63.635l-0,-26.135c-0,-7.474 -6.068,-13.542 -13.542,-13.542c-7.474,0 -13.542,6.068 -13.542,13.542l0,26.135c0,7.474 6.068,13.542 13.542,13.542c7.474,0 13.542,-6.068 13.542,-13.542Z" style="fill:#1c1d20;"/></g></svg>