<?xml version="1.0" encoding="UTF-8" standalone="no"?><!DOCTYPE svg PUBLIC "-//W3C//DTD SVG 1.1//EN" "http://www.w3.org/Graphics/SVG/1.1/DTD/svg11.dtd"><svg width="100%" height="100%" viewBox="0 0 750 750" version="1.1" xmlns="http://www.w3.org/2000/svg" xmlns:xlink="http://www.w3.org/1999/xlink" xml:space="preserve" xmlns:serif="http://www.serif.com/" style="fill-rule:evenodd;clip-rule:evenodd;stroke-linejoin:round;stroke-miterlimit:2;"><g id="dress-6"><path d="M423.152,134.419l0,-96.919c0,-3.896 1.678,-7.602 4.604,-10.173c2.927,-2.571 6.819,-3.758 10.682,-3.256l52.608,6.833c4.094,0.532 7.722,2.902 9.853,6.438c2.132,3.536 2.533,7.852 1.091,11.72c-7.853,21.07 -9.875,43.273 -4.481,78.011c1.602,10.511 3.783,18.723 6.49,25.528c17.495,15.528 28.51,38.093 28.51,63.197c-0,14.113 -3.511,27.415 -9.624,39.125c-3.458,6.626 -11.645,9.197 -18.27,5.739c-6.626,-3.458 -9.198,-11.645 -5.739,-18.271c4.155,-7.96 6.549,-17 6.549,-26.593c0,-17.929 -8.295,-33.936 -21.241,-44.516c-1.646,-1.346 -2.953,-3.061 -3.813,-5.006c-4.031,-9.109 -7.369,-20.248 -9.63,-35.084c-4.987,-32.112 -4.201,-55.092 0.869,-75.502l-21.374,-2.776l-0,90.221c0.535,3.252 -0.137,6.611 -1.924,9.431c-2.13,3.359 -5.629,5.612 -9.569,6.16c-28.312,3.943 -50.201,27.928 -50.201,57.072c-0,7.474 -6.068,13.542 -13.542,13.542c-7.474,0 -13.542,-6.068 -13.542,-13.542c0,-38.609 26.057,-71.149 61.694,-81.379Z" style="fill:#1c1d20;"/><path d="M246.001,152.601c2.713,-6.816 4.901,-15.037 6.538,-25.55c5.349,-34.708 3.326,-56.914 -4.529,-77.989c-1.442,-3.868 -1.041,-8.184 1.091,-11.72c2.131,-3.536 5.759,-5.906 9.853,-6.438l52.608,-6.833c3.864,-0.502 7.756,0.685 10.682,3.256c2.927,2.571 4.604,6.277 4.604,10.173l0,96.925c35.654,10.241 61.694,42.773 61.694,81.373c-0,7.474 -6.068,13.542 -13.542,13.542c-7.474,0 -13.542,-6.068 -13.542,-13.542c0,-29.098 -21.82,-53.047 -50.096,-57.053c-3.844,-0.545 -7.27,-2.713 -9.407,-5.954c-1.669,-2.532 -2.426,-5.528 -2.19,-8.505l-0,-91.372l-21.375,2.776c5.07,20.404 5.863,43.385 0.913,75.508c-2.314,14.86 -5.647,25.979 -9.673,35.077c-0.86,1.946 -2.167,3.661 -3.814,5.007c-12.946,10.58 -21.241,26.587 -21.241,44.516c0,9.806 2.497,19.043 6.866,27.123c3.554,6.574 1.103,14.798 -5.471,18.353c-6.575,3.554 -14.798,1.103 -18.353,-5.471c-6.444,-11.918 -10.125,-25.542 -10.125,-40.005c-0,-25.104 11.014,-47.669 28.509,-63.197Z" style="fill:#1c1d20;"/><path d="M527.998,517.119c-0.127,-27.137 -10.654,-52.493 -25.589,-74.411c-20.916,-30.754 -30.1,-67.9 -24.495,-104.669c4.895,-32.029 11.822,-69.518 20.214,-93.785c2.443,-7.063 10.16,-10.815 17.224,-8.372c7.063,2.443 10.815,10.161 8.372,17.224c-7.963,23.027 -14.392,58.633 -19.037,89.019c-4.572,29.992 3.054,60.264 20.11,85.342c18.05,26.49 30.29,57.329 30.29,90.171c0,0.394 -0.017,0.787 -0.051,1.179l-17.036,194.862c-0.612,6.995 -6.469,12.363 -13.491,12.363l-299.018,-0c-7.022,-0 -12.879,-5.368 -13.491,-12.363l-17.036,-194.862l-0.051,-1.179c-0,-32.845 12.283,-63.693 30.288,-90.2c17.063,-25.055 24.686,-55.294 20.157,-85.241c-4.603,-30.206 -10.995,-65.535 -18.785,-88.417c-2.408,-7.075 1.38,-14.775 8.455,-17.183c7.075,-2.409 14.775,1.38 17.184,8.455c8.201,24.093 15.074,61.261 19.923,93.081c5.554,36.729 -3.632,73.835 -24.539,104.536c-14.892,21.923 -25.466,47.297 -25.594,74.45l15.898,181.839l274.2,0l15.898,-181.839Z" style="fill:#1c1d20;"/></g></svg>