<?xml version="1.0" encoding="UTF-8" standalone="no"?><!DOCTYPE svg PUBLIC "-//W3C//DTD SVG 1.1//EN" "http://www.w3.org/Graphics/SVG/1.1/DTD/svg11.dtd"><svg width="100%" height="100%" viewBox="0 0 750 750" version="1.1" xmlns="http://www.w3.org/2000/svg" xmlns:xlink="http://www.w3.org/1999/xlink" xml:space="preserve" xmlns:serif="http://www.serif.com/" style="fill-rule:evenodd;clip-rule:evenodd;stroke-linejoin:round;stroke-miterlimit:2;"><g id="gloves"><path d="M383.604,334.252c-3.455,-0.964 -6.681,-3.611 -8.955,-7.242c0.012,0.02 -63.886,-102.347 -63.886,-102.347c-2.122,-3.408 -3.074,-7.183 -2.665,-10.567c0.237,-1.969 0.88,-3.86 2.48,-4.863c1.557,-0.968 3.53,-0.706 5.395,-0.057c3.212,1.117 6.179,3.62 8.306,7.024c-0.006,-0.01 27.719,44.438 27.719,44.438c3.956,6.341 12.315,8.278 18.657,4.323c6.341,-3.955 8.278,-12.315 4.323,-18.657l-27.731,-44.457c-12.095,-19.354 -35.398,-25.3 -51.013,-15.586c-15.644,9.804 -20.541,33.315 -8.454,52.73c0.008,0.014 63.906,102.38 63.906,102.38c0.004,0.006 0.008,0.013 0.012,0.019c6.137,9.794 15.301,16.346 24.622,18.948c7.199,2.01 14.675,-2.203 16.685,-9.401c2.01,-7.199 -2.203,-14.675 -9.401,-16.685Z" style="fill:#1c1d20;"/><path d="M369.287,52.888c3.238,-14.749 13.971,-26.115 27.283,-28.475c13.285,-2.302 27.236,4.723 35.295,17.495c4.756,-5.01 10.777,-8.448 17.432,-9.601c18.142,-3.216 37.547,10.993 41.492,33.569l0.684,3.892c4.22,-3.554 9.191,-5.997 14.583,-6.953l0.052,-0.009c18.127,-3.14 37.494,11.083 41.445,33.576l11.796,67.264c-0,-0 2.163,12.344 2.163,12.341c0,0 8.599,49.001 8.599,49.001l7.66,43.651c-0,-0 7.655,43.65 7.654,43.648c4.767,27.155 -5.752,53.585 -25.308,70.477l48.621,124.878c1.472,3.781 1.171,8.023 -0.82,11.558c-1.991,3.535 -5.463,5.992 -9.459,6.693l-171.216,30.039c-3.997,0.701 -8.097,-0.427 -11.173,-3.074c-3.075,-2.646 -4.802,-6.532 -4.705,-10.589l3.208,-133.971c-24.13,-9.208 -43.018,-30.483 -47.784,-57.675l-7.655,-43.604l-7.661,-43.653c0,0 -8.598,-49.047 -8.597,-49.039l-2.165,-12.304c0,0 -18.69,-106.544 -18.689,-106.541c-3.95,-22.49 9.418,-42.502 27.594,-45.724c6.665,-1.154 13.498,0.038 19.671,3.13Zm141.471,36.601c-1.843,0.337 -3.133,1.847 -4.086,3.574c-1.643,2.979 -2.178,6.826 -1.483,10.782l11.795,67.214c0.621,3.538 -0.189,7.178 -2.252,10.118c-2.063,2.941 -5.21,4.941 -8.748,5.561l-7.501,1.314c-7.365,1.291 -14.382,-3.633 -15.675,-10.997c0,-0 -18.694,-106.497 -18.696,-106.507c-0.693,-3.965 -2.497,-7.403 -5.053,-9.64c-1.476,-1.29 -3.196,-2.259 -5.087,-1.924c-1.836,0.318 -3.116,1.821 -4.063,3.536c-1.643,2.975 -2.176,6.821 -1.483,10.773l18.694,106.543c0.621,3.538 -0.19,7.178 -2.253,10.119c-2.063,2.94 -5.211,4.94 -8.749,5.56l-7.505,1.314c-7.365,1.29 -14.382,-3.634 -15.674,-10.999c0,-0 -21.599,-123.159 -21.599,-123.155c-0.694,-3.952 -2.503,-7.38 -5.059,-9.616c-1.491,-1.304 -3.23,-2.282 -5.035,-1.969c-1.856,0.329 -3.155,1.845 -4.112,3.579c-1.643,2.98 -2.178,6.827 -1.483,10.783l21.6,123.114c0.621,3.538 -0.189,7.178 -2.253,10.118c-2.063,2.941 -5.209,4.941 -8.748,5.561l-7.5,1.314c-7.365,1.291 -14.383,-3.633 -15.675,-10.999c0,0 -18.69,-106.543 -18.689,-106.54c-0.694,-3.952 -2.503,-7.38 -5.059,-9.616c-1.491,-1.304 -3.23,-2.282 -5.036,-1.969c-1.856,0.329 -3.154,1.845 -4.111,3.58c-1.643,2.979 -2.178,6.826 -1.483,10.782c0,0.001 0,0.002 0,0.003c0,0 18.69,106.544 18.689,106.537l2.165,12.305c0,0 8.599,49.048 8.598,49.045c0,0 7.66,43.65 7.66,43.649c-0,0 7.655,43.603 7.656,43.607c4.19,23.908 25.377,40.681 48.921,40.24c7.069,-0.132 13.05,5.196 13.732,12.233c0.682,7.037 -4.164,13.415 -11.127,14.642l-3.455,0.609l-2.7,112.734l138.669,-24.329l-40.905,-105.061l-3.436,0.605c-6.963,1.228 -13.699,-3.108 -15.464,-9.954c-1.765,-6.847 2.033,-13.899 8.722,-16.192c22.291,-7.64 36.519,-30.623 32.328,-54.501c-0,-0 -0,-0.001 -0,-0.002c-0,0 -7.656,-43.65 -7.655,-43.648l-7.66,-43.65l-8.599,-49.003c-0,-0 -2.164,-12.344 -2.164,-12.343c0,-0 -11.795,-67.259 -11.794,-67.255c-0.694,-3.952 -2.503,-7.38 -5.059,-9.616c-1.484,-1.298 -3.214,-2.273 -5.061,-1.963Z" style="fill:#1c1d20;"/><path d="M223.778,260.565c2.044,-6.605 5.923,-12.366 11.386,-16.373c14.855,-10.888 38.55,-6.734 52.056,11.737l63.964,87.206c4.42,6.026 3.116,14.508 -2.911,18.928c-6.026,4.421 -14.508,3.117 -18.928,-2.91c-0,0 -63.964,-87.206 -63.976,-87.222c-2.371,-3.244 -5.51,-5.521 -8.79,-6.393c-1.907,-0.507 -3.891,-0.612 -5.4,0.495c-1.511,1.108 -2.001,3.029 -2.09,4.997c-0.155,3.404 1.076,7.098 3.446,10.338l63.963,87.206c4.423,6.029 3.121,14.502 -2.907,18.926l-6.139,4.506c-2.896,2.125 -6.518,3.013 -10.069,2.467c-3.55,-0.545 -6.739,-2.479 -8.863,-5.376c-0,-0 -73.933,-100.817 -73.929,-100.812c-2.379,-3.24 -5.528,-5.522 -8.818,-6.399c-1.899,-0.507 -3.877,-0.624 -5.388,0.484c-1.514,1.11 -2.001,3.039 -2.091,5.011c-0.154,3.397 1.07,7.082 3.444,10.316l73.937,100.823c4.422,6.031 3.119,14.505 -2.912,18.928l-6.144,4.505c-2.896,2.125 -6.518,3.011 -10.068,2.465c-3.551,-0.547 -6.738,-2.481 -8.862,-5.378c0,-0 -63.963,-87.253 -63.958,-87.246c-2.372,-3.231 -5.514,-5.5 -8.795,-6.369c-1.91,-0.506 -3.897,-0.613 -5.411,0.497c-1.51,1.108 -2,3.028 -2.09,4.992c-0.154,3.388 1.071,7.061 3.443,10.292c0.001,0.002 0.003,0.005 0.005,0.007c-0,0 63.964,87.253 63.959,87.247l7.407,10.091l24.896,33.937c3.835,5.227 3.427,12.439 -0.973,17.2c-4.4,4.762 -11.557,5.737 -17.07,2.326c0,0 -44.537,-27.551 -44.518,-27.539c-3.419,-2.107 -7.19,-3.034 -10.566,-2.61c-1.958,0.247 -3.841,0.886 -4.834,2.489c-0.983,1.586 -0.711,3.543 -0.059,5.393c1.133,3.214 3.658,6.178 7.067,8.291c-0,0 102.647,63.457 102.653,63.461c3.786,2.343 27.817,14.357 51.804,20.879c7.569,2.058 15.128,3.576 21.987,3.922c5.065,0.255 9.66,0.045 13.154,-1.758c6.281,-3.242 13.999,-1.108 17.722,4.9c3.723,6.009 2.199,13.87 -3.501,18.051l-2.824,2.072l47.53,102.245l113.536,-83.253l-24.091,-22.037c-5.514,-5.045 -5.896,-13.617 -0.852,-19.132c5.045,-5.515 13.617,-5.896 19.132,-0.852l36.277,33.183c2.993,2.738 4.601,6.674 4.381,10.725c-0.219,4.05 -2.242,7.789 -5.514,10.188l-140.177,102.788c-3.272,2.4 -7.448,3.205 -11.377,2.196c-3.93,-1.01 -7.2,-3.728 -8.911,-7.408l-58.133,-125.057c-3.75,-0.257 -7.624,-0.751 -11.572,-1.465c-31.266,-5.653 -67.771,-24.031 -72.818,-27.154c0,-0 -102.648,-63.457 -102.663,-63.467c-19.439,-12.053 -25.463,-35.35 -15.773,-50.976c7.774,-12.556 24.485,-18.264 40.831,-13.81l-57.947,-79.046c-13.521,-18.417 -10.385,-42.258 4.462,-53.15c5.463,-4.006 12.124,-5.974 19.036,-5.942c-3.643,-14.671 0.946,-29.638 11.828,-37.614c10.879,-7.977 26.511,-7.848 39.406,0.038Z" style="fill:#1c1d20;"/></g></svg>