<?xml version="1.0" encoding="UTF-8" standalone="no"?><!DOCTYPE svg PUBLIC "-//W3C//DTD SVG 1.1//EN" "http://www.w3.org/Graphics/SVG/1.1/DTD/svg11.dtd"><svg width="100%" height="100%" viewBox="0 0 750 750" version="1.1" xmlns="http://www.w3.org/2000/svg" xmlns:xlink="http://www.w3.org/1999/xlink" xml:space="preserve" xmlns:serif="http://www.serif.com/" style="fill-rule:evenodd;clip-rule:evenodd;stroke-linejoin:round;stroke-miterlimit:2;"><g id="hat"><path d="M541.007,179.653l-116.029,-14.024c-45.609,-5.512 -91.893,5.334 -130.306,30.545c-38.413,25.21 -66.78,63.349 -79.871,107.393l-32.552,109.501l-137.987,75.266c-3.812,2.079 -6.33,5.926 -6.712,10.251c-0.38,4.324 1.429,8.554 4.818,11.265c58.818,47.054 129.699,73.241 204.98,75.728c3.924,0.13 7.831,0.196 11.739,0.196c71.057,-0 139.219,-21.403 197.792,-62.227l77.002,-53.667l163.838,16.806c0.443,0.044 0.884,0.067 1.325,0.067c3.185,-0 6.277,-1.172 8.668,-3.322c2.722,-2.447 4.286,-5.928 4.303,-9.588l0.483,-99.777c0.48,-98.963 -73.247,-182.54 -171.491,-194.413Zm-98.959,322.608c-110.249,76.839 -258.652,75.72 -367.659,-0.811l121.447,-66.244l298.494,30.615l-52.282,36.44Zm244.094,-42.846l-476.091,-48.829l8.172,-27.491l179.094,19.129c0.472,0.05 0.942,0.076 1.408,0.076c6.539,0 12.163,-4.932 12.88,-11.582c0.767,-7.123 -4.384,-13.518 -11.505,-14.288l-174.359,-18.618l13.927,-46.852c23.543,-79.199 100.165,-129.485 182.198,-119.575l116.029,14.023c85.165,10.292 149.078,82.743 148.663,168.527l-0.416,85.48Z" style="fill-rule:nonzero;"/></g></svg>