<?xml version="1.0" encoding="UTF-8" standalone="no"?><!DOCTYPE svg PUBLIC "-//W3C//DTD SVG 1.1//EN" "http://www.w3.org/Graphics/SVG/1.1/DTD/svg11.dtd"><svg width="100%" height="100%" viewBox="0 0 750 750" version="1.1" xmlns="http://www.w3.org/2000/svg" xmlns:xlink="http://www.w3.org/1999/xlink" xml:space="preserve" xmlns:serif="http://www.serif.com/" style="fill-rule:evenodd;clip-rule:evenodd;stroke-linejoin:round;stroke-miterlimit:2;"><g id="hat-4"><path d="M625,500l-500,0c-20.675,0 -37.5,16.825 -37.5,37.5l0,75c0,34.45 28.05,62.5 62.5,62.5l450,-0c34.45,-0 62.5,-28.05 62.5,-62.5l-0,-75c-0,-20.675 -16.825,-37.5 -37.5,-37.5Zm12.5,112.5c-0,20.676 -16.825,37.5 -37.5,37.5l-450,0c-20.675,0 -37.5,-16.824 -37.5,-37.5l0,-75c0,-6.9 5.6,-12.5 12.5,-12.5l500.001,-0c6.9,-0 12.5,5.6 12.5,12.5l0,75l-0.001,0Z" style="fill-rule:nonzero;"/><path d="M225,550c-6.9,-0 -12.5,5.6 -12.5,12.5l-0,50c-0,6.9 5.6,12.501 12.5,12.501c6.9,-0 12.5,-5.601 12.5,-12.501l0,-50c0,-6.9 -5.6,-12.5 -12.5,-12.5Z" style="fill-rule:nonzero;"/><path d="M375,75c-48.25,0 -87.5,39.25 -87.5,87.5c-0,48.251 39.249,87.501 87.5,87.501c48.251,-0 87.5,-39.25 87.5,-87.501c0,-48.25 -39.25,-87.5 -87.5,-87.5Zm0,150c-34.45,0 -62.5,-28.05 -62.5,-62.5c0,-34.449 28.05,-62.5 62.5,-62.5c34.45,-0 62.5,28.05 62.5,62.499c-0,34.45 -28.05,62.501 -62.5,62.501Z" style="fill-rule:nonzero;"/><path d="M150,550c-6.9,-0 -12.5,5.6 -12.5,12.5l-0,50c-0,6.9 5.6,12.501 12.5,12.501c6.9,-0 12.5,-5.601 12.5,-12.501l0,-50c0,-6.9 -5.6,-12.5 -12.5,-12.5Z" style="fill-rule:nonzero;"/><path d="M450,550c-6.9,-0 -12.5,5.6 -12.5,12.5l-0,50c-0,6.9 5.6,12.501 12.5,12.501c6.9,-0 12.5,-5.601 12.5,-12.501l0,-50c0,-6.9 -5.6,-12.5 -12.5,-12.5Z" style="fill-rule:nonzero;"/><path d="M300,550c-6.9,-0 -12.5,5.6 -12.5,12.5l-0,50c-0,6.9 5.6,12.501 12.5,12.501c6.9,-0 12.5,-5.601 12.5,-12.501l0,-50c0,-6.9 -5.6,-12.5 -12.5,-12.5Z" style="fill-rule:nonzero;"/><path d="M525,550c-6.9,-0 -12.5,5.6 -12.5,12.5l-0,50c-0,6.9 5.6,12.501 12.5,12.501c6.9,-0 12.5,-5.601 12.5,-12.501l0,-50c0,-6.9 -5.6,-12.5 -12.5,-12.5Z" style="fill-rule:nonzero;"/><path d="M600,550c-6.9,-0 -12.5,5.6 -12.5,12.5l-0,50c-0,6.9 5.6,12.501 12.5,12.501c6.9,-0 12.5,-5.601 12.5,-12.501l0,-50c0,-6.9 -5.6,-12.5 -12.5,-12.5Z" style="fill-rule:nonzero;"/><path d="M375,550c-6.9,-0 -12.5,5.6 -12.5,12.5l-0,50c-0,6.9 5.6,12.501 12.5,12.501c6.9,-0 12.5,-5.601 12.5,-12.501l0,-50c0,-6.9 -5.6,-12.5 -12.5,-12.5Z" style="fill-rule:nonzero;"/><path d="M444.725,184.65c-6.699,-1.825 -13.55,2.075 -15.375,8.725c-1.824,6.675 2.076,13.55 8.725,15.375c102.7,28.25 174.425,122.325 174.425,228.75l0,62.499l-475,0l-0,-62.499c-0,-106.425 71.724,-200.5 174.425,-228.75c6.65,-1.851 10.55,-8.725 8.725,-15.375c-1.851,-6.651 -8.775,-10.551 -15.375,-8.725c-113.5,31.225 -192.775,135.2 -192.775,252.85l0,75c0,6.9 5.6,12.5 12.5,12.5l500.001,-0c6.9,-0 12.5,-5.6 12.5,-12.5l0,-75c-0.001,-117.65 -79.276,-221.625 -192.776,-252.85Z" style="fill-rule:nonzero;"/></g></svg>