<?xml version="1.0" encoding="UTF-8" standalone="no"?><!DOCTYPE svg PUBLIC "-//W3C//DTD SVG 1.1//EN" "http://www.w3.org/Graphics/SVG/1.1/DTD/svg11.dtd"><svg width="100%" height="100%" viewBox="0 0 13021 13021" version="1.1" xmlns="http://www.w3.org/2000/svg" xmlns:xlink="http://www.w3.org/1999/xlink" xml:space="preserve" xmlns:serif="http://www.serif.com/" style="fill-rule:evenodd;clip-rule:evenodd;stroke-linejoin:round;stroke-miterlimit:2;"><path d="M6510.83,2720.88c1651.32,0.038 3401.23,1327.47 3843.27,2918.53c794.513,271.43 1416.07,627.246 1795.81,1027.26c298.821,314.775 455,660.296 455,1017.97c0,594.671 -447.708,1165.75 -1251.65,1611.29c-1092.13,605.258 -2853.9,1004.05 -4842.83,1004.05c-1988.92,-0 -3750.7,-398.788 -4842.83,-1004.05c-803.942,-445.538 -1251.65,-1016.62 -1251.65,-1611.28c-0,-357.675 156.146,-703.179 454.912,-1017.95c379.738,-400.112 1001.36,-755.979 1795.95,-1027.45c442.129,-1591.03 2192.7,-2918.38 3844.03,-2918.35l0.008,0Zm-3954.28,3458.31c-584.695,225.325 -1048.82,499.475 -1344.65,811.175c-205.483,216.508 -325.746,448.262 -325.746,694.27c0,457.03 391.492,857.6 1009.36,1200.02c1040.22,576.492 2720.54,945.104 4614.92,945.104c1894.38,0 3574.69,-368.612 4614.92,-945.104c617.867,-342.416 1009.36,-742.987 1009.36,-1200.02c0,-246.004 -120.279,-477.741 -325.816,-694.25c-295.821,-311.641 -759.896,-585.721 -1344.56,-811.025c23,173.15 34.892,350.125 34.892,529.88c-0,494.233 -335.017,907.291 -907.775,1203.84c-747.171,386.837 -1913.54,586.042 -3081.01,586.042c-1167.47,-0.004 -2333.84,-199.204 -3081.01,-586.042c-572.758,-296.546 -907.775,-709.604 -907.775,-1203.84c0,-179.755 11.892,-356.73 34.913,-530.046l-0.009,-0Zm435.3,530.933c0.471,334.771 265.659,584.45 653.746,785.396c694.254,359.446 1780.07,533.387 2864.83,533.387c1084.76,0 2170.57,-173.941 2864.83,-533.387c388.088,-200.946 653.275,-450.625 653.746,-785.396c-180.896,153.367 -409.596,288.308 -677.2,401.508c-742.221,313.938 -1791.53,474.217 -2841.37,474.217c-1049.84,0 -2099.15,-160.279 -2841.37,-474.217c-267.604,-113.2 -496.304,-248.141 -677.2,-401.508Zm3518.97,-3519.03c-1559.48,-0 -3170.78,1333.87 -3457.8,2866.7c124.2,260.379 417.692,459.408 799.184,620.779c694.1,293.579 1676.42,437.067 2658.21,437.067c981.788,-0 1964.12,-143.488 2658.21,-437.067c381.491,-161.371 674.983,-360.396 799.183,-620.779c-287.021,-1532.84 -1897.52,-2866.7 -3456.99,-2866.7Z"/></svg>