<?xml version="1.0" encoding="UTF-8" standalone="no"?><!DOCTYPE svg PUBLIC "-//W3C//DTD SVG 1.1//EN" "http://www.w3.org/Graphics/SVG/1.1/DTD/svg11.dtd"><svg width="100%" height="100%" viewBox="0 0 750 750" version="1.1" xmlns="http://www.w3.org/2000/svg" xmlns:xlink="http://www.w3.org/1999/xlink" xml:space="preserve" xmlns:serif="http://www.serif.com/" style="fill-rule:evenodd;clip-rule:evenodd;stroke-linejoin:round;stroke-miterlimit:2;"><g id="heels-4"><path d="M568.775,638.041c-9.257,-1.973 -33.193,-3.138 -54.66,-8.297c-11.276,-2.71 -22.039,-6.074 -27.587,-12.673c-16.994,-20.26 -71.474,-113.925 -77.873,-154.466c-5.747,-36.566 1.244,-346.451 3.053,-424.792c0.084,-3.645 -1.305,-7.17 -3.853,-9.777c-2.548,-2.608 -6.04,-4.078 -9.686,-4.078l-232.954,0c-3.865,0 -7.545,1.651 -10.115,4.538c-2.569,2.886 -3.783,6.733 -3.336,10.571c3.704,31.788 30.879,263.241 46.444,323.58c15.883,61.441 3.125,120.785 -0.078,134.576c-1.935,8.42 -9.229,23.78 -14.147,38.7c-4.106,12.457 -6.487,24.724 -5.24,33.881c2.111,15.592 7.218,25.861 15.921,33.693c1.199,1.08 2.583,1.936 4.084,2.529l64.101,25.314c0.082,0.033 0.165,0.064 0.247,0.095c13.168,4.905 27.36,11.117 40.97,19.291c20.697,12.294 38.842,32.814 56.683,48.103c14.456,12.389 28.98,21.487 43.682,23.619c36.442,5.31 71.967,4.238 97.259,-0.051c20.467,-3.424 65.879,-17.978 83.235,-27.84c4.989,-2.835 8.309,-5.769 10.005,-8.003c2.6,-3.423 3.397,-6.822 3.397,-9.721c0,-11.883 -5.676,-33.629 -29.514,-38.784l-0.038,-0.008Zm-184.451,-586.999l-203.884,-0c7.148,60.654 30.152,251.183 43.991,304.833c17.405,67.327 3.59,132.362 0.087,147.444c-2.044,8.898 -9.597,25.257 -14.813,41.083c-2.651,8.043 -4.932,15.836 -4.125,21.758c0.929,6.86 2.422,11.923 5.727,15.707l61.243,24.188c14.617,5.445 30.353,12.38 45.404,21.42c18.516,10.998 35.357,27.946 51.537,42.855c13.232,12.191 25.516,23.385 38.836,25.316c33.291,4.851 65.736,3.966 88.864,0.044c14.588,-2.441 43.142,-11.117 62.286,-19.026c3.849,-1.59 8.064,-3.738 10.962,-5.287c-0.954,-2.978 -3.019,-5.913 -7.333,-6.852c-9.39,-1.996 -33.599,-3.228 -55.32,-8.447c-17.534,-4.214 -33.361,-11.317 -41.998,-21.59c-18.427,-21.967 -76.95,-123.727 -83.887,-167.669c-5.517,-35.108 0.25,-319.211 2.423,-415.777Z" style="fill:#1c1d20;"/><path d="M217.243,593.385l-4.487,-10.042c2.92,2.615 6.761,4.595 11.7,6.473c10.221,3.996 28.019,8.682 48.138,16.256c6.994,2.633 10.536,10.449 7.902,17.444c-2.633,6.995 -10.449,10.536 -17.444,7.903c-20.254,-7.625 -38.167,-12.355 -48.34,-16.333c-8.418,-3.201 -14.927,-7.002 -20.024,-11.567c-2.868,-2.569 -4.508,-6.237 -4.508,-10.088l0,-0.046l27.063,-0Z" style="fill:#1c1d20;"/><path d="M281.365,618.745c-0,-5.638 -3.494,-10.687 -8.771,-12.673c-20.119,-7.574 -37.917,-12.26 -48.138,-16.256c-4.939,-1.878 -8.78,-3.858 -11.7,-6.473c-4.114,-3.683 -10.052,-4.5 -15.007,-2.065c-4.956,2.436 -7.936,7.636 -7.533,13.143l8.718,118.972c0.518,7.075 6.41,12.552 13.505,12.552l55.384,-0c7.479,-0 13.542,-6.063 13.542,-13.542l-0,-93.658Zm-62.363,-2.086l6.023,82.202l29.256,0l0,-70.623c-14.089,-4.943 -26.534,-8.531 -35.279,-11.579Z" style="fill:#1c1d20;"/></g></svg>