<?xml version="1.0" encoding="UTF-8" standalone="no"?><!DOCTYPE svg PUBLIC "-//W3C//DTD SVG 1.1//EN" "http://www.w3.org/Graphics/SVG/1.1/DTD/svg11.dtd"><svg width="100%" height="100%" viewBox="0 0 13021 13021" version="1.1" xmlns="http://www.w3.org/2000/svg" xmlns:xlink="http://www.w3.org/1999/xlink" xml:space="preserve" xmlns:serif="http://www.serif.com/" style="fill-rule:evenodd;clip-rule:evenodd;stroke-linejoin:round;stroke-miterlimit:2;"><path d="M1692.11,8833.92c-156.02,-171.709 -249.137,-393.838 -292.454,-709.888c-29.341,-217.537 29.529,-508.058 126.004,-803.437c123.525,-378.267 306.042,-767.675 354.446,-980.663c80.504,-351.146 402.067,-1862.74 1.338,-3429.41c-87.017,-341.546 -189.204,-900.538 -295.642,-1571.6c-10.783,-67.938 8.729,-137.171 53.4,-189.479c44.671,-52.329 110,-82.45 178.788,-82.45l4821.04,-0c62.796,-0 122.988,25.121 167.138,69.775c44.166,44.633 68.629,105.087 67.95,167.883c-21.717,1997.46 -21.371,3752.52 41.946,4159.5c160.695,1029.88 1531.28,3412.46 1958.82,3927.81c149.634,179.376 436.18,278.192 739.721,351.892c534.392,129.738 1130.03,159.288 1360.73,208.925l0.521,0.121c529.513,115.154 653.559,603.733 653.559,871.613c-0,53.716 -15.417,116.425 -63.351,179.912c-36.737,48.667 -109.737,111.167 -217.758,173.004c-424.462,243.059 -1535.16,601.859 -2035.7,686.929c-620.762,105.505 -1492.14,131.788 -2387.99,0.85c-348.904,-50.954 -691.788,-272.379 -1034.79,-569.341c-447.55,-387.463 -903.646,-906.546 -1421.89,-1217.71c-237.367,-142.904 -481.034,-262.766 -718.334,-364.65l0,2002.15c0,129.846 -105.258,235.105 -235.104,235.105l-1376.91,-0c-123.23,-0 -225.538,-95.138 -234.48,-218.038l-210.983,-2898.81l-0.021,-0Zm4709.43,-7296.71l-4307.35,0c87.379,531.596 170.296,972.238 242.85,1257.03c426.562,1667.66 87.083,3276.93 1.475,3650.33c-50.296,221.354 -237.242,628.054 -365.888,1022c-71.666,219.441 -128.783,433.021 -107.066,594.112c28.579,208.492 79.566,357.379 185.175,468.163l1546.75,616.621l0.163,0.062l0.975,0.371c357.167,135.162 741.479,306.496 1111.58,529.3c454.479,272.862 866.979,693.975 1263.94,1063.53c345.641,321.787 670.625,610.433 1018.45,661.229c840.8,122.9 1658.61,99.879 2241.23,0.85c367.188,-62.396 1086.92,-282.933 1569.46,-484.062c132.341,-55.155 279.929,-136.525 349.858,-176.405c-17.846,-125.225 -82.292,-285.487 -277.083,-327.933c-233.004,-50.033 -833.504,-80.783 -1372.41,-211.617c-412.221,-100.083 -786.633,-264.025 -990.258,-508.104c-452.275,-545.175 -1892.08,-3067.59 -2061.95,-4156.15c-61.979,-398.458 -69.133,-2064.64 -49.912,-3999.33Zm-4214.26,7622.96l168.883,2320.4l923.213,-0l-0,-1951.18c-270.558,-97.438 -1078.99,-363.8 -1092.1,-369.221Z"/></svg>