<?xml version="1.0" encoding="UTF-8" standalone="no"?><!DOCTYPE svg PUBLIC "-//W3C//DTD SVG 1.1//EN" "http://www.w3.org/Graphics/SVG/1.1/DTD/svg11.dtd"><svg width="100%" height="100%" viewBox="0 0 750 750" version="1.1" xmlns="http://www.w3.org/2000/svg" xmlns:xlink="http://www.w3.org/1999/xlink" xml:space="preserve" xmlns:serif="http://www.serif.com/" style="fill-rule:evenodd;clip-rule:evenodd;stroke-linejoin:round;stroke-miterlimit:2;"><g id="hoodie-2"><path d="M272.3,280.789c-14.589,-20.593 -24.625,-44.713 -24.625,-71.742c0,-54.557 19.743,-109.368 49.835,-144.545c21.627,-25.283 48.618,-40.544 77.49,-40.544c28.872,0 55.863,15.261 77.49,40.544c30.091,35.177 49.835,89.988 49.835,144.545c-0,27.029 -10.039,51.149 -24.629,71.741l58.07,24.309c19.4,8.12 33.654,25.148 38.232,45.674l-0.001,-0.003l70.788,317.114c1.57,7.032 -2.642,14.062 -9.583,15.995l-69.399,19.326c-3.52,0.98 -7.288,0.496 -10.446,-1.343c-3.158,-1.839 -5.439,-4.876 -6.325,-8.422l-27.404,-109.727l0,128.789c0,7.479 -6.063,13.542 -13.541,13.542l-266.174,-0c-7.478,-0 -13.541,-6.063 -13.541,-13.542l-0,-128.789l-27.404,109.727c-0.886,3.546 -3.167,6.583 -6.325,8.422c-3.158,1.839 -6.926,2.323 -10.446,1.343l-69.399,-19.326c-6.941,-1.933 -11.153,-8.963 -9.583,-15.995c-0,-0 70.784,-317.113 70.784,-317.114c4.582,-20.525 18.836,-37.551 38.234,-45.671l58.067,-24.308Zm182.67,19.846c-5.156,-0.155 -9.787,-3.239 -11.916,-7.965c-2.187,-4.857 -1.324,-10.545 2.206,-14.535c16.632,-18.795 29.982,-41.962 29.982,-69.088c-0,-47.862 -16.934,-96.08 -43.333,-126.94c-16.033,-18.744 -35.505,-31.065 -56.909,-31.065c-21.405,-0 -40.876,12.321 -56.91,31.065c-26.398,30.86 -43.332,79.078 -43.332,126.94c0,27.126 13.345,50.293 29.977,69.088c3.53,3.99 4.394,9.678 2.206,14.535c-2.128,4.724 -6.757,7.808 -11.91,7.965l-70.34,29.445c-11.294,4.727 -19.592,14.64 -22.259,26.589l-67.984,304.566l43.614,12.145l50.713,-203.058c1.658,-6.636 8.003,-10.994 14.791,-10.16c6.789,0.835 11.889,6.601 11.889,13.441l0,225.355l239.09,0l-0,-225.355c-0,-6.84 5.1,-12.606 11.889,-13.441c6.788,-0.834 13.133,3.524 14.791,10.16l50.713,203.058l43.614,-12.145l-67.988,-304.566l-0.001,-0.003c-2.664,-11.948 -10.961,-21.859 -22.254,-26.586l-70.339,-29.445Z" style="fill:#1c1d20;"/><path d="M456.754,203.627c0,-37.999 -12.211,-76.154 -30.647,-100.656c-14.179,-18.845 -32.178,-29.803 -51.107,-29.803c-18.929,-0 -36.929,10.958 -51.109,29.802c-18.437,24.503 -30.65,62.657 -30.65,100.657c-0,26.756 12.234,49.481 27.294,66.963c21.414,24.857 48.206,38.777 48.206,38.777c3.922,2.044 8.596,2.044 12.518,-0c0,-0 26.791,-13.921 48.203,-38.777c15.059,-17.482 27.292,-40.207 27.292,-66.963Zm-81.754,78.04c7.906,-4.956 21.927,-14.806 33.942,-28.753c11.135,-12.927 20.729,-29.503 20.729,-49.287c0,-31.802 -9.776,-63.867 -25.205,-84.373c-8.403,-11.168 -18.248,-19.003 -29.466,-19.003c-11.218,0 -21.064,7.835 -29.468,19.004c-15.43,20.505 -25.208,52.571 -25.208,84.372c0,19.784 9.595,36.36 20.731,49.286c12.015,13.948 26.037,23.798 33.945,28.754Z" style="fill:#1c1d20;"/><path d="M244.088,565.048c8.206,-1.337 16.645,-0.495 24.505,2.949c24.67,10.82 33.443,42.322 20.942,69.938c-9.459,20.896 -28.575,34.267 -48.208,35.118c-7.467,0.324 -13.266,6.649 -12.942,14.116c0.323,7.466 6.648,13.266 14.115,12.942c28.968,-1.256 57.753,-20.177 71.708,-51.008c19.085,-42.16 2.929,-89.389 -34.741,-105.91c-12.751,-5.588 -26.427,-7.045 -39.737,-4.875c-7.376,1.202 -12.389,8.167 -11.186,15.544c1.202,7.376 8.167,12.389 15.544,11.186Z" style="fill:#1c1d20;"/><path d="M510.515,538.318c-13.309,-2.17 -26.991,-0.713 -39.737,4.873c-37.669,16.523 -53.83,63.752 -34.746,105.912c13.962,30.832 42.741,49.752 71.713,51.008c7.467,0.324 13.792,-5.476 14.116,-12.943c0.323,-7.466 -5.476,-13.791 -12.943,-14.115c-19.638,-0.851 -38.75,-14.223 -48.213,-35.12c-12.5,-27.614 -3.723,-59.116 20.948,-69.938c7.855,-3.442 16.298,-4.284 24.505,-2.947c7.376,1.203 14.341,-3.81 15.544,-11.186c1.202,-7.377 -3.811,-14.342 -11.187,-15.544Z" style="fill:#1c1d20;"/></g></svg>