<?xml version="1.0" encoding="UTF-8" standalone="no"?><!DOCTYPE svg PUBLIC "-//W3C//DTD SVG 1.1//EN" "http://www.w3.org/Graphics/SVG/1.1/DTD/svg11.dtd"><svg width="100%" height="100%" viewBox="0 0 750 750" version="1.1" xmlns="http://www.w3.org/2000/svg" xmlns:xlink="http://www.w3.org/1999/xlink" xml:space="preserve" xmlns:serif="http://www.serif.com/" style="fill-rule:evenodd;clip-rule:evenodd;stroke-linejoin:round;stroke-miterlimit:2;"><g id="lint-roller"><path d="M284.384,346.571l-19.187,-19.348c-11.472,-11.566 -11.472,-30.389 -0,-41.957c18.639,-18.793 110.785,-111.862 129.332,-130.408c-0,0 0.037,-0.037 0.028,-0.028c-0,0 110.848,-111.77 110.838,-111.759c11.383,-11.587 30.6,-11.569 41.926,-0.011l31.472,31.735l14.185,-14.302c11.382,-11.587 30.6,-11.569 41.925,-0.011c0,0 52.153,52.587 52.153,52.587c11.473,11.567 11.47,30.39 -0,41.956l-14.346,14.465l31.626,31.889c11.471,11.566 11.474,30.389 -0,41.958c-30.222,30.472 -201.852,203.533 -240.207,242.206c-11.341,11.436 -30.591,11.526 -41.916,0l-19.117,-19.275c-51.465,12.619 -96.804,43.043 -128.261,86.223l-95.181,130.657c-13.657,18.748 -34.696,30.502 -57.716,32.251c-22.985,1.746 -45.511,-6.671 -61.801,-23.097c-16.287,-16.423 -24.599,-39.308 -22.852,-62.252c1.76,-23.106 13.403,-44.228 31.938,-57.956l129.58,-95.969c42.885,-31.759 73.083,-77.565 85.581,-129.554Zm21.135,21.311c-15.841,51.625 -47.658,96.89 -91.227,129.158l-129.58,95.97c-12.466,9.231 -20.291,23.453 -21.477,39.014c-1.177,15.589 4.415,30.892 15.382,41.95c10.907,10.999 25.977,16.641 41.348,15.472c15.408,-1.17 29.495,-9.054 38.651,-21.623l95.181,-130.657c32.042,-43.983 77.01,-76.094 128.308,-92.061l-76.586,-77.223Zm229.027,9.695l-182.757,0l88.912,89.651c1.339,1.364 3.597,1.36 4.933,-0.001c0.004,-0.003 0.008,-0.007 0.011,-0.01l88.901,-89.64Zm-208.568,-26.027l234.381,0l73.622,-74.234l-324.243,0l-26.061,26.278c-1.45,1.462 -1.451,3.841 -0.001,5.302l42.302,42.654Zm317.47,-174.497l-234.274,0l-73.624,74.236l324.243,-0l26.062,-26.278c1.45,-1.462 1.45,-3.842 -0.001,-5.305c-2.397,-2.418 -35.56,-35.191 -42.406,-42.653Zm-25.707,-26.027l-88.91,-89.648c-1.341,-1.364 -3.593,-1.366 -4.934,-0c-0.004,0.003 -0.007,0.007 -0.011,0.01l-88.9,89.638l182.755,0Zm36.64,-0.016l14.195,-14.313c1.45,-1.462 1.451,-3.84 0.001,-5.3c0,-0.001 -0,-0.001 -0.001,-0.001c0,-0 -52.152,-52.587 -52.163,-52.597c-1.341,-1.366 -3.593,-1.364 -4.934,0l-14.358,14.477l57.26,57.734Z"/><path d="M119.828,588.734c-24.326,0 -44.076,19.75 -44.076,44.076c-0,24.327 19.75,44.076 44.076,44.076c24.326,0 44.076,-19.749 44.076,-44.076c0,-24.326 -19.75,-44.076 -44.076,-44.076Zm0,27.083c9.379,0 16.993,7.615 16.993,16.993c-0,9.379 -7.614,16.993 -16.993,16.993c-9.379,0 -16.993,-7.614 -16.993,-16.993c0,-9.378 7.614,-16.993 16.993,-16.993Z"/></g></svg>