<?xml version="1.0" encoding="UTF-8" standalone="no"?><!DOCTYPE svg PUBLIC "-//W3C//DTD SVG 1.1//EN" "http://www.w3.org/Graphics/SVG/1.1/DTD/svg11.dtd"><svg width="100%" height="100%" viewBox="0 0 3125 3125" version="1.1" xmlns="http://www.w3.org/2000/svg" xmlns:xlink="http://www.w3.org/1999/xlink" xml:space="preserve" xmlns:serif="http://www.serif.com/" style="fill-rule:evenodd;clip-rule:evenodd;stroke-linejoin:round;stroke-miterlimit:2;"><path d="M877.7,272.3c10.502,-9.65 25.33,-16.105 39.592,-16.225c322.466,-2.704 1895.21,0 1895.21,0c31.163,0 56.425,25.263 56.425,56.425l0,2500c0,31.163 -25.262,56.425 -56.425,56.425l-2500,0c-31.162,0 -56.425,-25.262 -56.425,-56.425c0,0 -2.704,-1572.74 0,-1895.21c0.12,-14.262 6.575,-29.09 16.225,-39.592c52.721,-57.381 300.1,-304.692 300.1,-304.692c0.2,-0.204 0.404,-0.408 0.608,-0.608c0,0 247.311,-247.379 304.692,-300.1Zm1828.39,2483.78l-549.97,-549.967l-1787.2,0l0,549.967l2337.17,0Zm-462.537,-2387.15l0,1765.03l512.517,512.517l0,-2277.54l-512.517,0Zm-1732.61,2257.43c-31.142,0 -56.421,-25.283 -56.421,-56.42c0,-31.142 25.279,-56.425 56.421,-56.425l1867.58,-0c31.142,-0 56.425,25.283 56.425,56.425c0,31.137 -25.283,56.42 -56.425,56.42l-1867.58,0Zm-0,-167.383c-31.142,0 -56.421,-25.283 -56.421,-56.425c0,-31.142 25.279,-56.421 56.421,-56.421l1667.7,0c31.141,0 56.425,25.279 56.425,56.421c-0,31.142 -25.284,56.425 -56.425,56.425l-1667.7,0Zm2038.34,-1945.58c-0,-31.138 25.283,-56.421 56.425,-56.421c31.141,0 56.421,25.283 56.421,56.421l-0,1867.58c-0,31.142 -25.28,56.425 -56.421,56.425c-31.142,0 -56.425,-25.283 -56.425,-56.425l-0,-1867.58Zm-167.384,-0c0,-31.138 25.284,-56.421 56.421,-56.421c31.142,-0 56.425,25.283 56.425,56.421l0,1667.7c0,31.141 -25.283,56.425 -56.425,56.425c-31.137,-0 -56.421,-25.284 -56.421,-56.425l0,-1667.7Zm-251.196,-144.471l-1157,-0l-0,548.367c-0,31.162 -25.263,56.425 -56.425,56.425l-548.367,-0l-0,1119.55l1761.79,-0.001l0,-1724.34Zm-1477.91,283.271l-205.529,208.671l413.596,-0l-0,-413.6l-208.067,204.929Z"/></svg>