<?xml version="1.0" encoding="UTF-8" standalone="no"?><!DOCTYPE svg PUBLIC "-//W3C//DTD SVG 1.1//EN" "http://www.w3.org/Graphics/SVG/1.1/DTD/svg11.dtd"><svg width="100%" height="100%" viewBox="0 0 750 750" version="1.1" xmlns="http://www.w3.org/2000/svg" xmlns:xlink="http://www.w3.org/1999/xlink" xml:space="preserve" xmlns:serif="http://www.serif.com/" style="fill-rule:evenodd;clip-rule:evenodd;stroke-linejoin:round;stroke-miterlimit:2;"><g id="napkin"><path d="M611.83,123.215l0,448.22c0,7.474 6.068,13.542 13.542,13.542c7.474,-0 13.541,-6.068 13.541,-13.542l0,-448.22c0,-7.473 -6.067,-13.541 -13.541,-13.541c-7.474,-0 -13.542,6.068 -13.542,13.541Z"/><path d="M571.658,123.215l-0,400.247c-0,7.474 6.068,13.542 13.541,13.542c7.474,-0 13.542,-6.068 13.542,-13.542l0,-400.247c0,-7.473 -6.068,-13.541 -13.542,-13.541c-7.473,-0 -13.541,6.068 -13.541,13.541Z"/><path d="M122.628,630.326l448.22,0c7.474,0 13.542,-6.068 13.542,-13.541c-0,-7.474 -6.068,-13.542 -13.542,-13.542l-448.22,-0c-7.474,-0 -13.541,6.068 -13.541,13.542c-0,7.473 6.067,13.541 13.541,13.541Z"/><path d="M122.628,590.154l400.247,-0c7.474,-0 13.542,-6.068 13.542,-13.542c-0,-7.474 -6.068,-13.541 -13.542,-13.541l-400.247,-0c-7.474,-0 -13.541,6.067 -13.541,13.541c-0,7.474 6.067,13.542 13.541,13.542Z"/><path d="M219.642,61.471l0.508,-0.013l454.85,0c7.479,0 13.542,6.063 13.542,13.542l-0,600c-0,7.479 -6.063,13.542 -13.542,13.542l-600,-0c-7.479,-0 -13.542,-6.063 -13.542,-13.542l0,-454.85l0.013,-0.508l0.001,-0.111l0.003,-0.03c0.014,-0.3 0.038,-0.598 0.073,-0.893l0.005,-0.055l0.013,-0.087l0.048,-0.378l0.085,-0.476l0.005,-0.028l0.003,-0.013c0.123,-0.643 0.293,-1.271 0.506,-1.878l0.001,-0.004c0.212,-0.61 0.467,-1.2 0.762,-1.766l0.02,-0.041l0.014,-0.026c0.146,-0.277 0.301,-0.549 0.465,-0.815l0.012,-0.021l0.032,-0.048l0.252,-0.393l0.218,-0.307l0.055,-0.081l0.034,-0.043c0.175,-0.24 0.359,-0.473 0.549,-0.7l0.039,-0.049l0.076,-0.084l0.234,-0.27l0.31,-0.325l0.066,-0.072l72.024,-73.126c0.048,-0.049 0.097,-0.098 0.146,-0.146l73.126,-72.024l0.072,-0.066l0.325,-0.31l0.27,-0.234l0.084,-0.076l0.049,-0.039c0.227,-0.191 0.46,-0.374 0.7,-0.549l0.043,-0.034l0.081,-0.055l0.307,-0.218l0.393,-0.252l0.048,-0.032l0.021,-0.012c0.265,-0.165 0.537,-0.32 0.815,-0.465l0.026,-0.014l0.041,-0.02c0.566,-0.295 1.156,-0.551 1.766,-0.762l0.004,-0.001c0.607,-0.214 1.234,-0.384 1.878,-0.506l0.013,-0.003l0.028,-0.005l0.476,-0.085l0.378,-0.048l0.087,-0.013l0.055,-0.005c0.295,-0.035 0.593,-0.06 0.893,-0.073l0.03,-0.003l0.111,-0.001Zm-131.1,172.221l-0,427.766l572.916,0l0,-572.916l-427.766,-0l-0,131.608c-0,7.479 -6.063,13.542 -13.542,13.542l-131.608,-0Zm68.13,-77.165l-49.327,50.081l99.263,0l0,-99.264l-49.936,49.183Z"/><path d="M510.487,522.483l154.655,154.654c5.285,5.285 13.866,5.285 19.151,0c5.285,-5.284 5.285,-13.866 -0,-19.15l-154.655,-154.655c-5.285,-5.285 -13.866,-5.285 -19.151,-0c-5.285,5.285 -5.285,13.866 0,19.151Z"/><path d="M538.454,515.925l-0,-438.458c-0,-7.474 -6.068,-13.542 -13.542,-13.542c-7.474,0 -13.541,6.068 -13.541,13.542l-0,438.458c-0,7.474 6.067,13.541 13.541,13.541c7.474,0 13.542,-6.067 13.542,-13.541Z"/><path d="M524.912,502.383l-448.249,0c-7.474,0 -13.542,6.068 -13.542,13.542c0,7.474 6.068,13.541 13.542,13.541l448.249,0c7.474,0 13.542,-6.067 13.542,-13.541c-0,-7.474 -6.068,-13.542 -13.542,-13.542Z"/></g></svg>