<?xml version="1.0" encoding="UTF-8" standalone="no"?><!DOCTYPE svg PUBLIC "-//W3C//DTD SVG 1.1//EN" "http://www.w3.org/Graphics/SVG/1.1/DTD/svg11.dtd"><svg width="100%" height="100%" viewBox="0 0 750 750" version="1.1" xmlns="http://www.w3.org/2000/svg" xmlns:xlink="http://www.w3.org/1999/xlink" xml:space="preserve" xmlns:serif="http://www.serif.com/" style="fill-rule:evenodd;clip-rule:evenodd;stroke-linejoin:round;stroke-miterlimit:2;"><g id="thread"><path d="M662.154,555.251l-0,-360.511l41.325,-66.658c11.507,-18.561 12.035,-41.034 1.415,-60.114c-10.62,-19.081 -29.998,-30.473 -51.834,-30.473l-399.712,0c-21.838,0 -41.215,11.392 -51.835,30.475c-10.619,19.082 -10.091,41.554 1.416,60.114l41.325,66.657l0,5.188c-51.899,116.456 -133.092,302.751 -203.91,465.963c-6.84,15.766 -1.004,33.445 13.881,42.037c5.347,3.087 11.127,4.576 16.811,4.576c10.137,-0 19.976,-4.734 26.53,-13.581c47.739,-64.438 98.487,-133.048 146.688,-198.427l0,54.753l-41.324,66.656c-11.508,18.56 -12.036,41.033 -1.417,60.113c10.62,19.085 29.997,30.477 51.835,30.477l399.712,-0c21.837,-0 41.214,-11.392 51.834,-30.473c10.62,-19.082 10.092,-41.555 -1.415,-60.115l-41.325,-66.657Zm8.183,107.536c-1.7,3.053 -6.786,10.158 -17.279,10.158l-399.71,-0c-10.492,-0 -15.579,-7.105 -17.279,-10.159c-1.7,-3.054 -5.056,-11.121 0.473,-20.038l38.493,-62.088l356.338,-0l38.493,62.089c5.528,8.918 2.17,16.985 0.471,20.038Zm-0,-575.583c1.699,3.055 5.057,11.122 -0.472,20.039l-38.492,62.088l-152.569,0c10.333,-31.7 4.058,-66.312 -15.736,-92.285l189.992,-0c10.491,-0 15.577,7.103 17.277,10.158Zm-47.733,250.918l-230.618,-39.068c11.563,-15.907 22.156,-30.539 31.572,-43.617l199.047,33.741l0,48.944l-0.001,0Zm0,40.114l0,49.126l-288.629,-48.877c11.121,-15.173 21.817,-29.791 31.992,-43.726l256.637,43.477Zm0,89.24l0,49.426l-338.801,-57.373l-0,-12.728c8.133,-11.054 16.142,-21.948 23.992,-32.636l314.809,53.311Zm-93.938,73.633l-244.863,-0l-0,-41.465l244.863,41.465Zm93.938,-292.047l-173.493,-29.409c2.755,-3.904 5.276,-7.499 7.552,-10.771l165.941,-0l0,40.18Zm-386.535,-161.857c1.7,-3.054 6.787,-10.159 17.279,-10.159l49.813,-0c-2.602,3.418 -5.024,7.006 -7.207,10.787c-3.925,6.799 -14.9,30.284 -30.821,65.524l-28.591,-46.117c-5.529,-8.916 -2.173,-16.981 -0.473,-20.035Zm94.135,20.403c8.159,-14.134 21.335,-24.243 37.097,-28.467c15.758,-4.223 32.226,-2.057 46.359,6.102c29.174,16.845 39.205,54.287 22.362,83.462c-10.952,18.971 -133.348,186.671 -337.478,462.443c136.706,-314.704 220.708,-504.571 231.66,-523.54Z" style="fill-rule:nonzero;"/><path d="M351.068,196.359c3.114,1.798 6.514,2.652 9.869,2.652c6.833,0 13.48,-3.546 17.143,-9.89l23.324,-40.402c5.461,-9.458 2.22,-21.553 -7.237,-27.014c-9.457,-5.462 -21.553,-2.221 -27.012,7.238l-23.325,40.403c-5.46,9.458 -2.22,21.552 7.238,27.013Z" style="fill-rule:nonzero;"/></g></svg>