<?xml version="1.0" encoding="UTF-8" standalone="no"?><!DOCTYPE svg PUBLIC "-//W3C//DTD SVG 1.1//EN" "http://www.w3.org/Graphics/SVG/1.1/DTD/svg11.dtd"><svg width="100%" height="100%" viewBox="0 0 750 750" version="1.1" xmlns="http://www.w3.org/2000/svg" xmlns:xlink="http://www.w3.org/1999/xlink" xml:space="preserve" xmlns:serif="http://www.serif.com/" style="fill-rule:evenodd;clip-rule:evenodd;stroke-linejoin:round;stroke-miterlimit:2;"><g id="pants"><path d="M359.249,197.153c18.13,0 34.915,-17.745 34.915,-41.626l-0,-70.657c-0,-7.474 -6.068,-13.542 -13.542,-13.542c-7.474,0 -13.542,6.068 -13.542,13.542l0,70.657c0,4.532 -1.239,8.685 -3.5,11.654c-1.172,1.539 -2.548,2.889 -4.331,2.889c-7.473,0 -13.541,6.068 -13.541,13.542c-0,7.474 6.068,13.541 13.541,13.541Z" style="fill:#1c1d20;"/><path d="M375.001,279.329l-108.067,436.426c-0.885,3.578 -3.192,6.64 -6.386,8.48c-3.194,1.839 -7,2.297 -10.539,1.268l-132.698,-38.588c-6.871,-1.998 -11.001,-8.997 -9.43,-15.977l133.037,-590.884c1.391,-6.178 6.879,-10.568 13.211,-10.568l241.743,0c6.333,0 11.82,4.39 13.211,10.568l133.036,590.884c1.571,6.98 -2.559,13.979 -9.43,15.977l-132.696,38.588c-3.54,1.029 -7.346,0.571 -10.54,-1.268c-3.194,-1.84 -5.5,-4.902 -6.386,-8.48l-108.066,-436.426Zm130.966,416.231l106.933,-31.096l-127.86,-567.894l-220.079,-0l-127.861,567.894l106.934,31.096l117.822,-475.825c1.496,-6.043 6.919,-10.287 13.145,-10.287c6.225,-0 11.648,4.244 13.144,10.287l117.822,475.825Z" style="fill:#1c1d20;"/><path d="M509.171,37.5c-0,-7.479 -6.063,-13.542 -13.542,-13.542l-241.5,0c-7.478,0 -13.541,6.063 -13.541,13.542l-0,45.528c-0,7.479 6.063,13.542 13.541,13.542l241.5,-0c7.479,-0 13.542,-6.063 13.542,-13.542l-0,-45.528Zm-241.5,13.542l0,18.444l214.417,0l-0,-18.444l-214.417,-0Z" style="fill:#1c1d20;"/><path d="M285.039,90.382c9.401,14.453 7.877,34.83 -4.373,50.563c-11.272,14.465 -28.669,21.329 -44.452,18.556c-7.362,-1.293 -14.388,3.633 -15.681,10.994c-1.294,7.361 3.633,14.388 10.994,15.681c24.927,4.379 52.7,-5.738 70.505,-28.587c19.837,-25.477 20.931,-58.574 5.71,-81.974c-4.075,-6.265 -12.47,-8.043 -18.735,-3.968c-6.265,4.075 -8.043,12.47 -3.968,18.735Z" style="fill:#1c1d20;"/><path d="M442.065,75.615c-15.22,23.4 -14.127,56.497 5.707,81.97c17.744,22.846 45.585,32.971 70.465,28.59c7.361,-1.296 12.284,-8.325 10.988,-15.685c-1.296,-7.361 -8.325,-12.284 -15.685,-10.988c-15.736,2.771 -33.159,-4.085 -44.388,-18.543c-12.261,-15.747 -13.785,-36.124 -4.384,-50.577c4.075,-6.265 2.297,-14.66 -3.968,-18.735c-6.265,-4.075 -14.66,-2.297 -18.735,3.968Z" style="fill:#1c1d20;"/><path d="M291.088,37.5l-0,45.499c-0,7.473 6.068,13.541 13.541,13.541c7.474,0 13.542,-6.068 13.542,-13.541l0,-45.499c0,-7.474 -6.068,-13.542 -13.542,-13.542c-7.473,0 -13.541,6.068 -13.541,13.542Z" style="fill:#1c1d20;"/><path d="M431.588,37.5l-0,45.499c-0,7.473 6.067,13.541 13.541,13.541c7.474,0 13.542,-6.068 13.542,-13.541l-0,-45.499c-0,-7.474 -6.068,-13.542 -13.542,-13.542c-7.474,0 -13.541,6.068 -13.541,13.542Z" style="fill:#1c1d20;"/></g></svg>