<?xml version="1.0" encoding="UTF-8" standalone="no"?><!DOCTYPE svg PUBLIC "-//W3C//DTD SVG 1.1//EN" "http://www.w3.org/Graphics/SVG/1.1/DTD/svg11.dtd"><svg width="100%" height="100%" viewBox="0 0 13021 13021" version="1.1" xmlns="http://www.w3.org/2000/svg" xmlns:xlink="http://www.w3.org/1999/xlink" xml:space="preserve" xmlns:serif="http://www.serif.com/" style="fill-rule:evenodd;clip-rule:evenodd;stroke-linejoin:round;stroke-miterlimit:2;"><path d="M4406.9,415.938l4193.56,-0c129.842,-0 235.105,105.262 235.105,235.104c-0,-0 -1.438,752.979 -0,775.054l386.837,5757c58.475,372.862 149.029,740 270.854,1097.38l1247.93,3337.05c23.487,62.812 19.041,132.658 -12.225,191.979c-31.267,59.308 -86.371,102.467 -151.475,118.579l-2705.28,669.929c-68.416,16.946 -140.833,2.292 -197.291,-39.929c-56.459,-42.208 -90.988,-107.521 -94.096,-177.937l-171.371,-3893.16c-68.679,-459.304 -592.017,-2512.4 -899.071,-3700c-307.054,1187.6 -830.387,3240.69 -899.054,3700l-171.408,3893.16c-3.088,70.416 -37.621,135.729 -94.079,177.937c-56.459,42.221 -128.871,56.875 -197.292,39.929l-2705.26,-669.929c-65.105,-16.112 -120.209,-59.271 -151.475,-118.579c-31.271,-59.321 -35.713,-129.167 -12.225,-191.979l1247.85,-3336.86c121.091,-357.43 212.412,-724.6 270.937,-1097.58l373.417,-5749.5l-0,-782.537c-0,-129.842 105.262,-235.104 235.104,-235.104Zm3986.69,1260.49l-3766.36,-0l-360.346,5548.25c-0.466,6.979 -1.233,13.942 -2.308,20.867c-62.812,404.112 -161.475,801.979 -292.829,1189.13c-0.767,2.275 -1.579,4.546 -2.413,6.804l-1156.89,3093.63l2170.4,537.467l159.325,-3618.79l2.1,-22.725c89.633,-631.096 1133.99,-4619.29 1133.99,-4619.29c28.096,-107.183 125.975,-177.667 232.146,-175.479c106.171,-2.188 204.05,68.296 232.146,175.479c-0,-0 1044.35,3988.21 1134.01,4619.29c1.059,7.533 1.771,15.12 2.1,22.725l159.309,3618.79l2170.42,-537.467l-1156.91,-3093.61l-2.292,-6.421c-132.187,-387.292 -230.121,-785.279 -292.95,-1189.55c-1.058,-6.908 -1.825,-13.871 -2.292,-20.85l-360.345,-5548.25Zm-3344.75,-790.279l-406.842,-0l0,320.087l406.842,0l-0,-320.087Zm470.208,-0l0,320.087l1969.29,0l-0,-320.087l-1969.29,-0Zm2439.5,-0l-0,320.087l406.842,0l-0,-320.087l-406.842,-0Z"/></svg>