<?xml version="1.0" encoding="UTF-8" standalone="no"?><!DOCTYPE svg PUBLIC "-//W3C//DTD SVG 1.1//EN" "http://www.w3.org/Graphics/SVG/1.1/DTD/svg11.dtd"><svg width="100%" height="100%" viewBox="0 0 750 750" version="1.1" xmlns="http://www.w3.org/2000/svg" xmlns:xlink="http://www.w3.org/1999/xlink" xml:space="preserve" xmlns:serif="http://www.serif.com/" style="fill-rule:evenodd;clip-rule:evenodd;stroke-linejoin:round;stroke-miterlimit:2;"><g id="pillow"><path d="M197.912,600.882c-0.061,-0.005 -39.926,-4.65 -39.988,-4.66c-19.111,-2.452 -37.589,6.746 -47.09,23.421c-2.482,4.357 -5.263,8.168 -7.838,10.743c-10.388,10.387 -27.289,10.387 -37.682,-0.005c-5.036,-5.032 -7.812,-11.721 -7.812,-18.844c-0,-7.117 2.776,-13.806 7.817,-18.843c2.323,-2.322 5.588,-4.769 9.445,-7.076c16.686,-9.975 25.549,-29.617 22.062,-48.887c-19.446,-107.302 -19.446,-216.129 0,-323.446c3.492,-19.256 -5.376,-38.897 -22.041,-48.862c-3.899,-2.338 -7.174,-4.789 -9.471,-7.086c-5.036,-5.037 -7.812,-11.732 -7.812,-18.849c-0,-7.117 2.776,-13.806 7.817,-18.843c5.032,-5.036 11.721,-7.807 18.839,-7.807c7.117,-0 13.806,2.771 18.853,7.823c2.565,2.554 5.341,6.36 7.823,10.722c9.506,16.685 27.994,25.877 47.095,23.426c144.036,-18.498 290.101,-18.498 434.142,0c19.116,2.451 37.589,-6.746 47.1,-23.421c2.493,-4.373 5.274,-8.189 7.828,-10.738c5.037,-5.041 11.732,-7.812 18.854,-7.812c7.117,-0 13.806,2.771 18.838,7.812c10.387,10.382 10.387,27.294 -0,37.692c-2.292,2.292 -5.567,4.743 -9.45,7.076c-16.691,9.975 -25.559,29.617 -22.067,48.872c2.152,11.844 4.115,24.086 5.84,36.368l4.66,39.237c7.941,82.243 4.409,165.624 -10.505,247.841c-3.487,19.26 5.381,38.907 22.077,48.882c3.857,2.307 7.122,4.754 9.445,7.076c5.031,5.031 7.807,11.726 7.807,18.849c0,7.122 -2.776,13.811 -7.807,18.843c-10.382,10.392 -27.299,10.387 -37.697,-0c-0.273,-0.273 -0.541,-0.562 -0.845,-0.891c-20.501,-22.237 -50.082,-33.536 -79.086,-30.245c-122.417,13.915 -246.615,14.466 -369.151,1.632c-5.505,-0.576 -10.413,3.415 -10.984,8.904c-0.577,5.495 3.409,10.419 8.904,10.99c123.977,12.983 249.633,12.427 373.487,-1.648c22.706,-2.58 45.931,6.365 62.122,23.926c0.016,0.016 0.103,0.114 0.124,0.134c0.438,0.469 0.865,0.922 1.293,1.35c9.099,9.089 21.047,13.636 32.995,13.631c11.947,0 23.895,-4.542 32.984,-13.637c8.807,-8.811 13.663,-20.527 13.663,-32.989c-0,-12.468 -4.851,-24.184 -13.663,-32.996c-3.522,-3.522 -8.008,-6.916 -13.327,-10.098c-9.584,-5.727 -14.667,-17.041 -12.653,-28.144c15.238,-84.025 18.848,-169.26 10.727,-253.336l-4.759,-40.087c-1.761,-12.555 -3.769,-25.059 -5.968,-37.161c-2.014,-11.103 3.069,-22.407 12.668,-28.144c5.351,-3.219 9.831,-6.612 13.312,-10.094c18.185,-18.199 18.185,-47.8 0,-65.979c-8.806,-8.817 -20.522,-13.673 -32.984,-13.673c-12.463,-0 -24.184,4.856 -33,13.673c-3.832,3.831 -7.653,9.012 -11.057,14.97c-5.48,9.61 -16.155,14.909 -27.176,13.493c-145.73,-18.72 -293.515,-18.72 -439.24,-0c-11.031,1.416 -21.691,-3.878 -27.16,-13.482c-3.394,-5.964 -7.231,-11.155 -11.073,-14.981c-8.811,-8.817 -20.527,-13.673 -32.989,-13.673c-12.463,-0 -24.179,4.856 -32.98,13.668c-8.822,8.811 -13.678,20.527 -13.678,32.989c0,12.463 4.856,24.179 13.673,32.995c3.481,3.482 7.961,6.881 13.328,10.104c9.573,5.722 14.651,17.026 12.642,28.134c-19.873,109.686 -19.873,220.908 0,330.579c2.014,11.113 -3.069,22.427 -12.642,28.149c-5.325,3.182 -9.806,6.581 -13.323,10.098c-8.822,8.807 -13.678,20.528 -13.678,32.99c0,12.468 4.856,24.184 13.673,32.995c9.094,9.095 21.037,13.637 32.985,13.637c11.947,0 23.89,-4.542 32.984,-13.637c3.852,-3.852 7.679,-9.032 11.072,-14.98c5.459,-9.579 16.073,-14.868 27.073,-13.498c0.032,0.005 40.545,4.722 40.545,4.722c-0,0 2.264,-19.871 2.08,-19.894Z" style="fill-rule:nonzero;"/><path d="M195.363,624.916l-0.013,-0.001c-0,-0 -40.716,-4.746 -40.748,-4.751l0.17,0.024c-9.318,-1.16 -18.313,3.312 -22.939,11.428c-3.595,6.302 -7.663,11.781 -11.744,15.863c-9.908,9.907 -22.916,14.857 -35.931,14.857c-13.016,-0 -26.024,-4.95 -35.931,-14.856c-9.604,-9.599 -14.894,-22.361 -14.894,-35.943c0,-13.576 5.291,-26.345 14.899,-35.936c3.733,-3.733 8.48,-7.351 14.131,-10.729c8.102,-4.842 12.385,-14.425 10.681,-23.829c-19.963,-110.164 -19.963,-221.885 -0.001,-332.063c1.7,-9.4 -2.579,-18.974 -10.688,-23.821c-5.692,-3.42 -10.436,-7.037 -14.128,-10.729c-9.604,-9.604 -14.894,-22.366 -14.894,-35.942c0,-13.576 5.29,-26.339 14.897,-35.934c9.588,-9.599 22.351,-14.89 35.928,-14.89c13.575,0 26.338,5.29 35.93,14.887c4.073,4.057 8.155,9.55 11.752,15.872c4.633,8.135 13.666,12.611 23.009,11.411c146.077,-18.765 294.22,-18.765 440.302,0c9.336,1.2 18.383,-3.283 23.027,-11.427c3.606,-6.312 7.669,-11.79 11.728,-15.85c9.604,-9.603 22.371,-14.893 35.947,-14.893c13.576,0 26.339,5.291 35.93,14.893c19.808,19.802 19.81,52.047 0.001,71.873c-3.693,3.692 -8.436,7.304 -14.121,10.724c-8.124,4.855 -12.411,14.427 -10.707,23.822c2.209,12.156 4.226,24.716 5.995,37.327c0.005,0.03 0.008,0.059 0.012,0.088c-0,0 4.758,40.086 4.768,40.177c8.158,84.456 4.533,170.076 -10.775,254.48c-1.704,9.396 2.581,18.978 10.693,23.825c5.645,3.377 10.397,6.99 14.135,10.728c9.598,9.598 14.883,22.36 14.883,35.942c-0,13.575 -5.29,26.337 -14.882,35.935c-9.902,9.907 -22.917,14.858 -35.93,14.858c-13.015,0.005 -26.029,-4.949 -35.944,-14.852c-0.459,-0.46 -0.92,-0.947 -1.391,-1.452l0.099,0.103c-0.034,-0.035 -0.225,-0.239 -0.225,-0.239c0,-0 0.083,0.086 0.101,0.105l-0.117,-0.122c-15.274,-16.567 -37.169,-25.045 -58.589,-22.611c-124.153,14.109 -250.114,14.666 -374.388,1.652l-0.038,-0.004Zm439.237,15.418l0.01,0.01c0.405,0.433 0.799,0.852 1.192,1.246c8.287,8.277 19.168,12.417 30.051,12.413c10.88,-0 21.76,-4.134 30.037,-12.416c8.02,-8.025 12.443,-18.695 12.443,-30.044c0,-11.355 -4.417,-22.025 -12.442,-30.049c-3.307,-3.307 -7.526,-6.482 -12.519,-9.469c-11.057,-6.607 -16.939,-19.653 -14.615,-32.464c15.169,-83.645 18.764,-168.495 10.689,-252.101c0,-0 -4.758,-40.087 -4.747,-39.999c-1.753,-12.499 -3.753,-24.947 -5.942,-36.996c-2.323,-12.81 3.556,-25.846 14.62,-32.458c5.026,-3.024 9.244,-6.2 12.513,-9.469c16.56,-16.574 16.562,-43.532 -0.001,-60.09c-8.019,-8.028 -18.688,-12.451 -30.036,-12.451c-11.35,0 -22.025,4.424 -30.054,12.453c-3.604,3.604 -7.184,8.487 -10.384,14.088c-6.317,11.079 -18.621,17.194 -31.326,15.562c-145.378,-18.675 -292.805,-18.675 -438.179,-0c-12.718,1.632 -25.005,-4.48 -31.312,-15.555c-3.189,-5.604 -6.78,-10.493 -10.398,-14.096c-8.024,-8.029 -18.693,-12.452 -30.042,-12.452c-11.349,0 -22.018,4.422 -30.035,12.45c-8.034,8.024 -12.456,18.692 -12.456,30.041c-0,11.35 4.423,22.02 12.452,30.049c3.27,3.27 7.487,6.451 12.519,9.474c11.046,6.601 16.923,19.635 14.605,32.453c-19.784,109.193 -19.784,219.915 0,329.093c2.324,12.822 -3.559,25.867 -14.605,32.468c-4.998,2.988 -9.212,6.167 -12.516,9.471c-8.033,8.019 -12.455,18.693 -12.455,30.041c-0,11.354 4.422,22.024 12.452,30.049c8.282,8.282 19.158,12.417 30.039,12.417c10.88,-0 21.756,-4.135 30.038,-12.417c3.623,-3.623 7.208,-8.505 10.398,-14.098c6.294,-11.043 18.526,-17.148 31.208,-15.569c0.057,0.007 0.114,0.015 0.17,0.025l27.399,3.188c-0.578,-1.811 -0.798,-3.767 -0.587,-5.777c0.221,-2.128 0.903,-4.097 1.937,-5.818l-27.482,-3.205l0.155,0.023c-17.426,-2.236 -34.276,6.146 -42.94,21.351c-2.69,4.721 -5.722,8.836 -8.512,11.626c-12.012,12.012 -31.556,12.012 -43.572,-0.004c-5.825,-5.818 -9.035,-13.554 -9.035,-21.791c0,-8.23 3.209,-15.966 9.038,-21.789c2.524,-2.524 6.061,-5.198 10.253,-7.706c15.21,-9.093 23.278,-27.003 20.1,-44.568c-19.535,-107.795 -19.535,-217.122 0,-324.933c3.183,-17.551 -4.89,-35.459 -20.084,-44.545c-4.234,-2.539 -7.779,-5.218 -10.274,-7.713c-5.824,-5.824 -9.033,-13.565 -9.033,-21.795c0,-8.23 3.209,-15.966 9.037,-21.788c5.818,-5.824 13.555,-9.029 21.786,-9.029c8.229,0 15.965,3.203 21.793,9.037c2.782,2.771 5.812,6.883 8.503,11.612c8.668,15.214 25.528,23.592 42.944,21.356c144.388,-18.543 290.81,-18.543 435.203,0c17.431,2.236 34.278,-6.147 42.951,-21.352c2.701,-4.739 5.735,-8.86 8.499,-11.619c5.824,-5.83 13.566,-9.034 21.802,-9.034c8.231,0 15.968,3.205 21.783,9.032c12.011,12.005 12.014,31.561 0.001,43.585c-2.489,2.489 -6.033,5.168 -10.259,7.706c-15.213,9.093 -23.287,27.001 -20.105,44.551c2.163,11.898 4.134,24.195 5.867,36.533c0.004,0.03 0.008,0.059 0.011,0.089l4.671,39.327c7.977,82.623 4.429,166.389 -10.553,248.984c-3.178,17.557 4.895,35.47 20.116,44.564c4.192,2.508 7.728,5.182 10.252,7.706c5.818,5.818 9.028,13.559 9.028,21.795c-0,8.235 -3.21,15.971 -9.026,21.788c-12.005,12.016 -31.567,12.013 -43.591,0.001c-0.311,-0.311 -0.616,-0.638 -0.962,-1.013c-19.589,-21.247 -47.84,-32.073 -75.552,-28.929c-121.306,13.788 -244.357,14.487 -365.833,2.071c-0.351,3.427 -0.878,8.202 -1.259,11.601c122.334,12.507 246.249,11.808 368.407,-2.074c23.991,-2.726 48.548,6.686 65.656,25.242l-0.117,-0.122l0.212,0.226Zm-436.327,-43.602l0.073,0.006c122.235,12.802 246.13,12.253 368.248,-1.628c30.295,-3.438 61.204,8.333 82.619,31.561c0.262,0.284 0.492,0.533 0.726,0.767c8.772,8.764 23.045,8.771 31.806,0.001c4.244,-4.244 6.586,-9.888 6.586,-15.896c0,-6.009 -2.342,-11.658 -6.586,-15.903c-2.122,-2.121 -5.115,-4.339 -8.636,-6.445c-18.173,-10.857 -27.835,-32.237 -24.04,-53.203c14.845,-81.837 18.362,-164.834 10.468,-246.606c-4.661,-39.237 -4.661,-39.237 -4.649,-39.148c-1.718,-12.227 -3.671,-24.412 -5.814,-36.205c-3.801,-20.959 5.862,-42.334 24.021,-53.187c3.549,-2.132 6.555,-4.356 8.648,-6.449c8.764,-8.772 8.766,-23.041 -0.001,-31.803c-4.244,-4.253 -9.886,-6.589 -15.889,-6.589c-6.009,-0 -11.657,2.337 -15.911,6.595c-2.34,2.335 -4.867,5.846 -7.151,9.852c-10.35,18.145 -30.449,28.157 -51.251,25.49c-143.689,-18.453 -289.396,-18.453 -433.081,-0c-20.785,2.667 -40.901,-7.34 -51.247,-25.499c-2.272,-3.993 -4.793,-7.492 -7.149,-9.838c-4.258,-4.262 -9.901,-6.6 -15.905,-6.6c-6.004,-0 -11.647,2.336 -15.894,6.588c-4.253,4.249 -6.595,9.892 -6.595,15.895c-0,6.005 2.342,11.653 6.592,15.903c2.099,2.099 5.104,4.322 8.662,6.456c18.14,10.847 27.804,32.222 24.003,53.181c-19.356,106.824 -19.356,215.151 0,321.961c3.795,20.975 -5.863,42.348 -24.023,53.205c-3.523,2.107 -6.516,4.325 -8.639,6.448c-4.253,4.249 -6.595,9.892 -6.595,15.895c-0,6.008 2.341,11.652 6.592,15.897c8.767,8.768 23.026,8.768 31.788,0.006c2.36,-2.36 4.89,-5.867 7.165,-9.86c10.339,-18.145 30.444,-28.159 51.24,-25.491c0.052,0.007 0.103,0.014 0.155,0.023c0.061,0.01 39.588,4.613 39.649,4.618l0.015,0.002Zm-5.03,9.528c-1.184,0.94 -2.002,2.338 -2.171,3.961c-0.169,1.605 0.329,3.126 1.271,4.286l0.288,-2.579c0.12,-1.104 0.241,-2.207 0.361,-3.311l0.251,-2.357Z"/><path d="M142.207,176.216c-5.289,1.597 -8.281,7.179 -6.685,12.468c3.976,13.173 7.478,26.563 10.552,40.133c-23.061,45.88 -34.782,93.855 -34.782,142.655c0,48.79 11.721,96.766 34.782,142.656c-3.074,13.57 -6.576,26.96 -10.552,40.133c-1.596,5.289 1.396,10.871 6.685,12.468c0.963,0.288 1.936,0.427 2.894,0.427c4.295,0 8.265,-2.791 9.573,-7.112c17.927,-59.419 27.016,-122.86 27.016,-188.572c0,-65.706 -9.089,-129.153 -27.016,-188.566c-1.596,-5.289 -7.179,-8.286 -12.467,-6.69Zm-10.908,195.256c0,-36.95 7.22,-73.442 21.439,-108.852c5.938,35.297 8.95,71.686 8.95,108.852c0,37.167 -3.012,73.556 -8.95,108.853c-14.219,-35.416 -21.439,-71.908 -21.439,-108.853Z" style="fill-rule:nonzero;"/><path d="M141.68,228.292c-2.972,-12.98 -6.341,-25.792 -10.147,-38.404c-2.261,-7.492 1.978,-15.399 9.47,-17.661c7.491,-2.261 15.399,1.983 17.66,9.475c18.041,59.793 27.194,123.644 27.194,189.77c0,66.132 -9.152,129.977 -27.195,189.779c-1.852,6.12 -7.478,10.072 -13.561,10.072c-1.354,-0 -2.729,-0.195 -4.098,-0.606c-7.492,-2.261 -11.731,-10.168 -9.47,-17.66c3.806,-12.612 7.175,-25.424 10.147,-38.405c-22.919,-46.077 -34.555,-94.226 -34.555,-143.18c0,-48.964 11.637,-97.112 34.555,-143.18Zm1.731,-48.087c3.086,-0.932 6.343,0.819 7.274,3.905c17.812,59.034 26.839,122.075 26.839,187.362c-0,65.293 -9.027,128.329 -26.839,187.369c-0.762,2.517 -3.078,4.148 -5.584,4.148c-0.563,0 -1.134,-0.083 -1.699,-0.252c-3.077,-0.929 -4.822,-4.186 -3.891,-7.272c4.004,-13.267 7.531,-26.751 10.627,-40.416c0.213,-0.942 0.093,-1.929 -0.341,-2.792c-22.759,-45.289 -34.338,-92.634 -34.338,-140.785c-0,-48.16 11.579,-95.505 34.338,-140.784c0.434,-0.863 0.554,-1.85 0.341,-2.792c-3.096,-13.666 -6.623,-27.15 -10.627,-40.416c-0.931,-3.086 0.814,-6.343 3.9,-7.275Zm-16.278,191.267c-0,37.472 7.317,74.485 21.738,110.405c0.696,1.732 2.458,2.791 4.314,2.59c1.856,-0.2 3.352,-1.61 3.662,-3.451c5.975,-35.521 9.008,-72.141 9.008,-109.544c0,-37.402 -3.033,-74.022 -9.008,-109.543c-0.31,-1.841 -1.806,-3.251 -3.662,-3.451c-1.855,-0.201 -3.618,0.857 -4.314,2.59c-14.421,35.915 -21.738,72.928 -21.738,110.404Zm23.937,-92.42c-10.355,30.215 -15.604,61.151 -15.604,92.42c-0,31.266 5.25,62.201 15.604,92.419c4.284,-30.115 6.452,-60.987 6.452,-92.419c-0,-31.431 -2.168,-62.303 -6.452,-92.42Z"/></g></svg>