<?xml version="1.0" encoding="UTF-8" standalone="no"?><!DOCTYPE svg PUBLIC "-//W3C//DTD SVG 1.1//EN" "http://www.w3.org/Graphics/SVG/1.1/DTD/svg11.dtd"><svg width="100%" height="100%" viewBox="0 0 3125 3125" version="1.1" xmlns="http://www.w3.org/2000/svg" xmlns:xlink="http://www.w3.org/1999/xlink" xml:space="preserve" xmlns:serif="http://www.serif.com/" style="fill-rule:evenodd;clip-rule:evenodd;stroke-linejoin:round;stroke-miterlimit:2;"><path d="M328.6,1471.13c12.609,-36.981 245.796,-710.821 591.213,-998.794c226.762,-189.05 397.47,-235.529 527.57,-209.475c91.971,18.421 166.85,72.73 229.434,147.517c62.6,74.808 102.846,158.083 104.671,251.746c2.579,132.496 -73.559,292.021 -300.396,481.129l-0.017,0.013c-158.659,132.188 -393.37,226.719 -604.473,290.841l1866.8,0c31.162,0 56.425,25.263 56.425,56.425l-0,464.929c-0,76.659 -36.955,158.03 -93.733,216.772l-0,640.266c-0,31.162 -25.263,56.425 -56.425,56.425l-2174.34,-0c-31.162,-0 -56.425,-25.263 -56.425,-56.425l0,-640.318c-56.708,-58.868 -93.729,-140.157 -93.729,-216.72l0,-464.684c-0.004,-0.907 0.014,-1.815 0.054,-2.723l0.002,-0.064l0.011,-0.236l0.003,-0.051c0.286,-5.799 1.447,-11.368 3.355,-16.573Zm2263.33,775.906c0,0 -840.975,290.909 -841.004,290.917c-103.683,35.804 -273.171,35.804 -376.85,0l-841.058,-290.933l-1.263,-0.458l0,509.512l2061.49,0l-0,-509.498c-0.382,0.135 -0.768,0.271 -1.154,0.406l-0.163,0.054Zm20.489,-141.264l0.003,-0.002c43.421,-38.159 74.558,-95.629 74.558,-150.309l0,-408.504l-2248.96,0l-0,408.504c-0,54.73 31.362,112.23 74.896,150.63c17.154,15.187 36.604,27.145 57.229,34.3c-0,-0 840.979,290.907 840.983,290.908c113.576,39.217 193.572,40.934 312.95,-2.014l830.8,-288.84c20.634,-7.207 40.002,-19.433 57.539,-34.673Zm-1143.37,288.51l186.908,0c31.138,0 56.421,-25.279 56.421,-56.421c-0,-31.141 -25.283,-56.425 -56.421,-56.425l-186.908,0c-31.138,0 -56.421,25.284 -56.421,56.425c-0,31.142 25.283,56.421 56.421,56.421Zm-60.209,-1337.71c188.155,-156.867 261.967,-282.342 259.821,-392.25c-1.321,-67.929 -32.983,-127.271 -78.383,-181.525c-45.421,-54.275 -98.308,-95.921 -165.054,-109.288c-107.996,-21.629 -244.909,28.571 -433.146,185.5c-260.729,217.371 -451.875,668.121 -524.65,859.876c201.937,-37.384 680.587,-145.009 941.412,-362.313Z" style="fill:#1c1d20;"/></svg>