<?xml version="1.0" encoding="UTF-8" standalone="no"?><!DOCTYPE svg PUBLIC "-//W3C//DTD SVG 1.1//EN" "http://www.w3.org/Graphics/SVG/1.1/DTD/svg11.dtd"><svg width="100%" height="100%" viewBox="0 0 226063 226063" version="1.1" xmlns="http://www.w3.org/2000/svg" xmlns:xlink="http://www.w3.org/1999/xlink" xml:space="preserve" xmlns:serif="http://www.serif.com/" style="fill-rule:evenodd;clip-rule:evenodd;stroke-linejoin:round;stroke-miterlimit:2;"><path d="M169548,74850c-3654.68,-7552.08 -11021.7,-12652.5 -19376.9,-13415l-3298.85,-21454.5c-2560.02,-16628.8 -17016.2,-29029.8 -33841,-29029.8c-16824.7,0 -31281,12401 -33841,29029.8l-3300.98,21454.5c-8351.21,760.8 -15715.5,5857.21 -19370,13404.8l-35450.2,73839.6c-774.854,1615.79 -155.754,3580.57 1405.43,4460.29l29264.9,16458.3l-6994.67,31085.2c-383.008,1703.41 597.396,3440.4 2253.65,3992.8c20724.2,6917.04 42430.8,10440 64278.8,10432.4l3503.95,0c21848.5,7.725 43555.4,-3515.22 64280,-10432.4c1656.25,-552.4 2636.66,-2289.39 2253.64,-3992.8l-6994.67,-31086.5l29264.9,-16458.3c1561.19,-879.708 2180.29,-2844.49 1405.43,-4460.29l-35442.5,-73827.9l0.192,-0.125Zm-87969.1,-6737.08l9905.08,-0l18126.6,12084.8l0,128042c-19517,-150.404 -38902.5,-3216.07 -57513.8,-9095.33l29482,-131031l0.096,-0.308Zm34868.7,140126l-0,-128042l18127.4,-12084.8l9904.25,-0l29481.1,131031c-18610.8,5879.17 -37996,8944.83 -57512.8,9095.33Zm56305.9,-45609l-21169,-94084.6c5144,1099.53 9501.08,4517.5 11793.8,9251.75l34061.5,70949.2l-24686.2,13883.8l0.042,-0.125Zm-144135,-13884l34068.2,-70960.2c2291.74,-4730.38 6646.46,-8144.79 11787,-9241.92l-21169,94084.6l-24686.1,-13882.4Zm84410.5,-74487.5l-17092.5,-11393.8l0,-10736.2c0,-9376.67 7715.83,-17092.5 17092.5,-17092.5c9376.67,0 17092.5,7715.83 17092.5,17092.5l-0,10736.2c-0,-0 -17092.5,11393.8 -17092.5,11393.8Zm-27084.3,-33237.6c2046.79,-13310.5 13617.4,-23237.8 27084.3,-23237.8c13466.9,-0 25037.5,9927.38 27084.3,23237.8l3114.68,20254.6l-6269.5,0l-0,-9147.04c-0,-13127.3 -10802.2,-23929.5 -23929.5,-23929.5c-13127.3,0 -23929.5,10802.2 -23929.5,23929.5l0,9147.04l-6269.5,0l3114.68,-20254.6l-0.1,0Z" style="fill-rule:nonzero;"/></svg>