<?xml version="1.0" encoding="UTF-8" standalone="no"?><!DOCTYPE svg PUBLIC "-//W3C//DTD SVG 1.1//EN" "http://www.w3.org/Graphics/SVG/1.1/DTD/svg11.dtd"><svg width="100%" height="100%" viewBox="0 0 226063 226063" version="1.1" xmlns="http://www.w3.org/2000/svg" xmlns:xlink="http://www.w3.org/1999/xlink" xml:space="preserve" xmlns:serif="http://www.serif.com/" style="fill-rule:evenodd;clip-rule:evenodd;stroke-linejoin:round;stroke-miterlimit:2;"><path d="M72139.6,215192l81779.6,0c1869.29,0 3407.48,-1538.19 3407.48,-3407.48l-0,-23852.3l17037.4,-0c1869.29,-0 3407.48,-1538.19 3407.48,-3407.47c0,-38425.3 -2325.18,-67499.6 -6911.21,-86415.8c-3428.78,-14145.3 -7052.62,-17761.5 -8081.71,-18534.5c-77.233,-56.792 -156.741,-111.313 -238.521,-163.558l-21009.7,-13131.1c4363.29,-3787.98 8306.58,-8034.29 11761.8,-12665.6l-11.5,-8.096c759.446,-1060.62 845.875,-2468.05 221.912,-3613.63l-18507.3,-33924.9c-1789.27,-3279.08 -5239.38,-5325.79 -8974.88,-5324.17l-25982,-0c-3735.5,-0.817 -7185.17,2046.75 -8973.58,5326.33l-18507.3,33922.7c-623.967,1145.58 -537.538,2553 221.912,3613.63l-11.5,8.096c3455.17,4631.33 7398.46,8877.62 11761.8,12665.6l-21010.9,13131.1c-81.779,51.108 -161.288,105.629 -238.525,163.558c-1029.06,771.792 -4652.92,4389.25 -8081.71,18534.5c-4586.04,18916.2 -6911.21,47990.4 -6911.21,86415.8c0,1869.29 1538.19,3407.47 3407.48,3407.47l17037.4,-0l0,23852.3c0,1869.29 1538.19,3407.48 3407.48,3407.48l-0.029,0Zm84161.2,-131644l-2551.35,5102.71c-2123.55,4260.21 -3231.63,8955 -3237.1,13715.1l0,41269.2l-17038.2,0c-1869.29,0 -3407.48,1538.19 -3407.48,3407.48l0,34074.8c0,1869.29 1538.19,3407.48 3407.48,3407.48l17037.4,0l0,23852.3l-34240.1,-0l-0,-129680c5291.7,-0 13957.7,-2500.11 19550.9,-7947.95l20478.5,12798.9l0.02,-0.095Zm-66063.8,-12798.9c4677.91,4667.21 14306.5,7948.04 19219.4,7948.04l-0,129680l-33909.5,0l0,-23852.3l17037.4,-0c1869.28,-0 3407.47,-1538.19 3407.47,-3407.48l0,-34074.8c0,-1869.29 -1538.19,-3407.48 -3407.47,-3407.48l-17037.4,-0l0,-41269.7c-5.475,-4760.12 -1113.56,-9454.92 -3237.1,-13715.1l-2551.35,-5102.71l20478.5,-12798.5l0.033,-0.208Zm67089.6,31616.3c4.412,-3702.28 866.383,-7353.71 2518.12,-10667.1l1153.86,-2307.72c1123.19,2677 2500.24,6800.04 3861.1,13026.8c3918.6,17924.6 5963.08,44389.2 6090.88,78700l-13624,-0l-0,-78752.1l-0,0.134Zm-102218,78752.1c127.779,-34310.8 2172.27,-60775.4 6090.88,-78700c1360.86,-6226.75 2737.91,-10350.2 3861.1,-13026.8l1153.86,2307.72c1651.6,3313.44 2513.42,6964.88 2517.7,10667.1l0,78752.1l-13623.5,0l0.008,-0.133Zm95402.9,-3407.48l-13629.9,-0l0,-13629.9l13629.9,0l-0,13629.9Zm-61334.6,-13629.9l0,13629.9l-13629.9,-0l-0,-13629.9l13629.9,0Zm61334.6,-6814.96l-13629.9,-0l0,-6814.96l13629.9,0l-0,6814.96Zm-74964.6,-0l0,-6814.96l13629.9,0l0,6814.96l-13629.9,-0Zm13736.8,-95914.6c-3202.23,-2780.04 -6176.17,-5812.62 -8893.08,-9068.58l0.85,0c3200.55,-1971.48 6655.67,-3496.12 10269.3,-4531.54c1778.26,-408.962 5370.42,-1423.64 7893.42,-1815.33c7032.46,-1091.78 19359.2,-1489.34 28952.5,0c-0,0 5982,1268.56 7890.88,1815.33c3613.84,1035.14 7069.17,2559.8 10269.7,4531.54c-2716.58,3255.31 -5073.17,5784.12 -8274.62,8563.96l-616.342,503.346c-3158.42,2309.2 -5330.54,3897.3 -7887.46,5766.75c-4812.62,2886.56 -10228.4,4962.12 -15859.7,4962.12c-5631.29,0 -11050.9,-2076.86 -15864.8,-4965.12l-7880.67,-5762.46l-0.008,-0.013Zm7761.79,-42016.2c596.517,-1093.55 1746.96,-1776.18 2992.62,-1775.73l25982,0c1245.12,-0.075 2394.93,682.317 2991.34,1775.3l12789.1,23442.2c-8054.42,-3166.83 -17733,-4772.58 -28771.5,-4772.58c-11038.5,-0 -20717,1605.78 -28773.2,4770.46l12789.5,-23439.6l-0.046,0.012Z" style="fill-rule:nonzero;"/></svg>