<?xml version="1.0" encoding="UTF-8" standalone="no"?><!DOCTYPE svg PUBLIC "-//W3C//DTD SVG 1.1//EN" "http://www.w3.org/Graphics/SVG/1.1/DTD/svg11.dtd"><svg width="100%" height="100%" viewBox="0 0 750 750" version="1.1" xmlns="http://www.w3.org/2000/svg" xmlns:xlink="http://www.w3.org/1999/xlink" xml:space="preserve" xmlns:serif="http://www.serif.com/" style="fill-rule:evenodd;clip-rule:evenodd;stroke-linejoin:round;stroke-miterlimit:2;"><g id="robe-2"><path d="M622.941,414.308l-19.262,-23.038c-4.794,-5.733 -13.341,-6.496 -19.075,-1.702c-5.734,4.794 -6.496,13.341 -1.702,19.075l19.262,23.038c4.794,5.733 13.341,6.496 19.075,1.702c5.733,-4.794 6.496,-13.341 1.702,-19.075Z" style="fill:#1c1d20;"/><path d="M659.026,410.279l-0.772,-29.974c-0.193,-7.471 -6.415,-13.381 -13.886,-13.188c-7.472,0.192 -13.381,6.415 -13.189,13.886l0.773,29.974c0.193,7.471 6.415,13.381 13.886,13.188c7.471,-0.192 13.381,-6.414 13.188,-13.886Z" style="fill:#1c1d20;"/><path d="M641.669,412.033l-9.995,-26.503c-2.637,-6.994 -10.456,-10.53 -17.449,-7.893c-6.993,2.637 -10.53,10.456 -7.892,17.449l9.994,26.504c2.638,6.993 10.456,10.529 17.449,7.892c6.993,-2.637 10.53,-10.456 7.893,-17.449Z" style="fill:#1c1d20;"/><path d="M611.495,447.939l51.245,-19.23c6.997,-2.626 10.547,-10.439 7.921,-17.436c-2.626,-6.998 -10.439,-10.547 -17.436,-7.921l-51.245,19.23c-6.998,2.626 -10.547,10.438 -7.921,17.436c2.626,6.997 10.439,10.546 17.436,7.921Z" style="fill:#1c1d20;"/><path d="M648.82,394.917l6.096,-9.268c5.698,-8.599 6.472,-19.529 2.15,-28.707c0,0 -134.971,-278.08 -134.973,-278.084c-2.909,-5.997 -8.177,-10.515 -14.576,-12.493l-51.433,-15.93c-7.14,-2.211 -11.141,-9.802 -8.93,-16.941c2.212,-7.14 9.803,-11.141 16.942,-8.929c0,-0 51.427,15.927 51.42,15.925c13.59,4.201 24.768,13.812 30.944,26.546c-0,-0 134.971,278.08 135.04,278.223c8.422,17.882 6.924,38.852 -3.981,55.312l-8.496,12.915c-1.576,2.396 -3.871,4.229 -6.555,5.237l-57.378,21.534c-2.67,1.002 -5.589,1.135 -8.339,0.381c0,0 -14.946,-4.098 -14.945,-4.097c-19.091,-5.233 -34.06,-19.992 -39.512,-38.835l-61.331,-204.702c-2.145,-7.159 1.927,-14.713 9.086,-16.858c7.159,-2.146 14.713,1.926 16.858,9.085c0,-0 61.331,204.702 61.367,204.824c2.87,9.919 10.707,17.629 20.691,20.366l10.716,2.938l49.139,-18.442Z" style="fill:#1c1d20;"/><path d="M147.836,431.681l19.262,-23.038c4.794,-5.734 4.032,-14.281 -1.702,-19.075c-5.734,-4.794 -14.281,-4.031 -19.075,1.702l-19.262,23.038c-4.794,5.734 -4.031,14.281 1.702,19.075c5.734,4.794 14.281,4.031 19.075,-1.702Z" style="fill:#1c1d20;"/><path d="M118.048,410.977l0.773,-29.974c0.192,-7.471 -5.717,-13.694 -13.189,-13.886c-7.471,-0.193 -13.693,5.717 -13.886,13.188l-0.772,29.974c-0.193,7.472 5.717,13.694 13.188,13.886c7.471,0.193 13.693,-5.717 13.886,-13.188Z" style="fill:#1c1d20;"/><path d="M133.673,421.59l9.994,-26.504c2.638,-6.993 -0.899,-14.812 -7.892,-17.449c-6.993,-2.637 -14.812,0.899 -17.449,7.893l-9.995,26.503c-2.637,6.993 0.9,14.812 7.893,17.449c6.993,2.637 14.811,-0.899 17.449,-7.892Z" style="fill:#1c1d20;"/><path d="M148.024,422.583l-51.199,-19.23c-6.997,-2.628 -14.811,0.919 -17.439,7.916c-2.628,6.996 0.919,14.81 7.916,17.438l51.199,19.23c6.997,2.628 14.811,-0.919 17.439,-7.915c2.627,-6.997 -0.919,-14.811 -7.916,-17.439Z" style="fill:#1c1d20;"/><path d="M150.319,413.359l10.716,-2.938c9.984,-2.737 17.821,-10.447 20.691,-20.366c0.012,-0.042 0.025,-0.083 0.037,-0.125l61.376,-204.702c2.146,-7.159 9.701,-11.228 16.86,-9.082c7.159,2.147 11.229,9.702 9.082,16.861c0,-0 -61.375,204.702 -61.339,204.577c-5.488,18.965 -20.457,33.724 -39.547,38.956l-14.946,4.098c-2.75,0.754 -5.669,0.621 -8.339,-0.381l-57.378,-21.534c-2.684,-1.008 -4.979,-2.841 -6.555,-5.237c-0,0 -8.496,-12.915 -8.47,-12.878c-10.931,-16.497 -12.429,-37.467 -4.007,-55.349c0.023,-0.047 0.046,-0.095 0.069,-0.143c-0,0 134.971,-278.08 134.969,-278.076c6.176,-12.733 17.406,-22.345 30.929,-26.545l51.437,-15.93c3.922,-1.215 8.183,-0.585 11.585,1.713c3.402,2.298 5.579,6.015 5.917,10.107c-0,-0 12.903,149.255 166.468,309.743c5.167,5.4 4.978,13.979 -0.422,19.146c-5.4,5.167 -13.979,4.978 -19.146,-0.422c-130.335,-136.211 -163.562,-265.115 -171.524,-309.729l-36.283,11.237c-6.374,1.98 -11.681,6.496 -14.592,12.498c-0,0.001 -0.001,0.002 -0.002,0.004c0,-0 -134.971,278.08 -134.903,277.937c-4.39,9.321 -3.616,20.251 2.082,28.85l6.096,9.268l49.139,18.442Z" style="fill:#1c1d20;"/><path d="M482.124,367.097c-0,-0 9.513,-112.727 24.908,-174.721c1.802,-7.253 -2.625,-14.605 -9.878,-16.406c-7.254,-1.801 -14.605,2.625 -16.407,9.879c-15.77,63.502 -25.61,178.959 -25.61,178.959c-0.631,7.447 4.902,14.006 12.349,14.638c7.447,0.631 14.006,-4.902 14.638,-12.349Z" style="fill:#1c1d20;"/><path d="M243.928,192.148c17.556,70.104 23.604,174.593 23.604,174.593c0.435,7.461 6.846,13.165 14.307,12.73c7.461,-0.435 13.166,-6.845 12.731,-14.307c-0,0 -6.309,-107.477 -24.37,-179.595c-1.815,-7.25 -9.175,-11.662 -16.425,-9.847c-7.25,1.816 -11.662,9.176 -9.847,16.426Z" style="fill:#1c1d20;"/><path d="M481.736,360.058c-1.969,-5.309 -7.034,-8.833 -12.697,-8.833l-186.988,0c-5.664,0 -10.729,3.525 -12.697,8.835l-117.437,316.773c-0.558,1.506 -0.844,3.1 -0.844,4.707c-0,3.765 1.237,7.914 4.95,11.801c2.747,2.875 8.3,6.365 16.697,9.322c32.957,11.605 123.274,23.379 202.825,23.379c79.55,-0 169.896,-11.773 202.864,-23.378c8.399,-2.957 13.953,-6.447 16.701,-9.321c3.716,-3.888 4.953,-8.037 4.953,-11.803c0,-1.607 -0.286,-3.202 -0.845,-4.709l-117.482,-316.773Zm88.47,316.433l-110.587,-298.182l-168.146,-0l-110.545,298.184c3.835,1.432 9.083,3.237 14.116,4.479c38.856,9.584 113.651,17.986 180.501,17.986c66.851,0 141.668,-8.402 180.538,-17.986c5.035,-1.242 10.286,-3.048 14.123,-4.481Z" style="fill:#1c1d20;"/><path d="M446.757,35.13c0,0 -17.673,98.933 -82.538,197.9c-4.097,6.251 -2.348,14.652 3.903,18.749c6.251,4.097 14.652,2.348 18.749,-3.903c68.154,-103.986 86.552,-208.006 86.552,-208.006c1.307,-7.359 -3.605,-14.395 -10.963,-15.703c-7.359,-1.308 -14.395,3.605 -15.703,10.963Z" style="fill:#1c1d20;"/><path d="M289.91,51.042l170.18,-0c7.474,-0 13.542,-6.068 13.542,-13.542c-0,-7.474 -6.068,-13.542 -13.542,-13.542l-170.18,0c-7.474,0 -13.542,6.068 -13.542,13.542c0,7.474 6.068,13.542 13.542,13.542Z" style="fill:#1c1d20;"/><path d="M455.814,361.858c-0,0 -24.98,113.668 -94.039,203.057c-44.777,57.959 -108.374,105.86 -196.736,103.09c-7.47,-0.234 -13.725,5.64 -13.96,13.111c-0.234,7.47 5.641,13.725 13.111,13.959c98.155,3.077 169.277,-49.219 219.017,-113.603c72.717,-94.124 99.058,-213.796 99.058,-213.796c1.605,-7.3 -3.017,-14.529 -10.317,-16.135c-7.299,-1.605 -14.529,3.018 -16.134,10.317l-0,0Z" style="fill:#1c1d20;"/></g></svg>