<?xml version="1.0" encoding="UTF-8" standalone="no"?><!DOCTYPE svg PUBLIC "-//W3C//DTD SVG 1.1//EN" "http://www.w3.org/Graphics/SVG/1.1/DTD/svg11.dtd"><svg width="100%" height="100%" viewBox="0 0 750 750" version="1.1" xmlns="http://www.w3.org/2000/svg" xmlns:xlink="http://www.w3.org/1999/xlink" xml:space="preserve" xmlns:serif="http://www.serif.com/" style="fill-rule:evenodd;clip-rule:evenodd;stroke-linejoin:round;stroke-miterlimit:2;"><g id="sandal"><path d="M316.781,452.457l7.453,-17.215c2.448,-5.654 8.404,-8.943 14.493,-8.003c67.191,10.37 136.382,20.654 162.941,21.236l0.003,-0c6.898,0.152 15.62,-0.324 25.611,-1.135c3.953,-0.321 7.848,1.107 10.657,3.907c2.809,2.8 4.249,6.691 3.939,10.645l-3.102,39.68c-0.524,6.703 -5.886,12.007 -12.594,12.456c-38.558,2.585 -101.671,4.683 -130.375,4.683c-36.363,0 -125.423,-5.937 -183.421,-7.062c-42.521,-0.822 -135.053,-11.386 -163.929,-21.267c-16.662,-5.726 -26.79,-22.585 -24.059,-39.821c0,0 4.92,-31.444 4.93,-31.507c2.48,-15.379 16.494,-26.165 31.923,-24.582c29.014,2.875 93.321,9.162 124.14,10.915c6.317,0.333 16.791,1.533 30.255,3.307c4.243,0.558 7.972,3.09 10.057,6.828c2.085,3.737 2.281,8.24 0.528,12.145l-8.025,17.87c26.989,2.415 77.594,5.628 98.575,6.92Zm-122.778,-19.137c-4.058,-0.445 -7.452,-0.751 -10.093,-0.89c-31.158,-1.772 -96.051,-8.106 -125.376,-11.011c-1.206,-0.124 -2.275,0.748 -2.459,1.884c0,0 -4.919,31.445 -4.923,31.471c-0.688,4.344 1.914,8.554 6.09,9.989c27.399,9.376 115.298,19.027 155.668,19.808c57.834,1.122 146.638,7.057 182.897,7.057c25.562,-0 78.799,-1.691 116.886,-3.902l0.967,-12.37c-4.631,0.204 -8.85,0.278 -12.586,0.196c-25.769,-0.565 -90.847,-9.938 -156.136,-19.963l-7.079,16.35c-2.266,5.233 -7.566,8.486 -13.258,8.136c0,0 -117.853,-7.4 -129.394,-10.123c-3.932,-0.927 -7.245,-3.562 -9.034,-7.185c-1.788,-3.623 -1.865,-7.856 -0.21,-11.542l8.04,-17.905Zm307.07,42.232l0.002,-0l-0.002,-0Z" style="fill:#1c1d20;"/><path d="M726.042,431.371c-0,-4.061 -1.823,-7.908 -4.965,-10.479c-3.143,-2.572 -7.273,-3.598 -11.254,-2.796c-0,0 -57.244,11.545 -114.328,20.43c-6.329,0.985 -11.102,6.269 -11.44,12.665l-1.978,37.38c-0.224,4.228 1.542,8.318 4.774,11.053c3.232,2.735 7.557,3.801 11.69,2.881c35.149,-7.823 79.78,-18.377 102.498,-23.789c14.689,-3.58 25.003,-16.562 25.003,-31.73c-0,0 -0,-15.615 -0,-15.615Zm-27.151,16.462c-19.26,3.718 -53.163,10.061 -88.37,15.733l-0.454,8.58c31.28,-7.105 65.677,-15.246 84.627,-19.76c2.216,-0.54 3.861,-2.342 4.197,-4.553Z" style="fill:#1c1d20;"/><path d="M614.202,393.96c0.689,-12.96 -8.475,-24.324 -21.322,-26.388c-0.071,-0.012 -42.8,-6.643 -42.8,-6.643c-14.531,-2.288 -27.891,8.297 -29.151,22.973c-0.006,0.081 -6.05,75.858 -6.05,75.858l-3.104,39.701c-0.305,3.906 1.096,7.753 3.842,10.547c2.746,2.795 6.567,4.263 10.478,4.026c11.001,-0.667 20.057,-1.509 25.891,-2.287c7.797,-0.974 25.484,-4.621 46.514,-9.233c5.953,-1.305 10.3,-6.426 10.622,-12.512l1.978,-37.381l3.102,-58.665l-0,0.004Zm-72.324,67.932l-1.87,23.931c3.301,-0.306 6.166,-0.623 8.509,-0.936c6.192,-0.774 18.704,-3.31 34.106,-6.637l1.432,-27.059l3.02,-57.113l-39.302,-6.099l-5.895,73.913Z" style="fill:#1c1d20;"/><path d="M409.154,306.619c0.003,-0.008 0.007,-0.016 0.01,-0.025c6.82,-15.913 -0.631,-34.359 -16.543,-40.989c0.048,0.02 -75.623,-31.853 -75.623,-31.853c-15.608,-6.622 -33.531,0.478 -40.451,15.93c0.008,-0.018 -75.021,166.885 -75.021,166.885l-15.563,34.658c-1.655,3.686 -1.578,7.919 0.21,11.542c1.789,3.623 5.102,6.258 9.034,7.185c11.541,2.723 129.394,10.123 129.394,10.123c5.692,0.35 10.992,-2.903 13.258,-8.136l11.238,-25.958l60.057,-139.362Zm-24.883,-10.693c0.88,-2.055 -0.012,-4.465 -2.067,-5.321c-0.016,-0.007 -0.032,-0.014 -0.048,-0.02c-0,-0 -75.671,-31.873 -75.704,-31.887c-2.006,-0.851 -4.299,0.072 -5.187,2.053c-0.002,0.006 -0.005,0.012 -0.008,0.018c0,-0 -75.028,166.903 -75.026,166.898l-8.025,17.87c26.989,2.415 77.594,5.628 98.575,6.92l7.444,-17.194l60.046,-139.337Z" style="fill:#1c1d20;"/><path d="M77.266,309.872l166.137,40.588c7.26,1.774 11.715,9.109 9.941,16.369c-1.774,7.26 -9.108,11.715 -16.369,9.941l-178.4,-43.584c-6.908,-1.688 -11.334,-8.431 -10.134,-15.44l5.776,-33.744c0.625,-3.653 2.72,-6.89 5.796,-8.956c3.077,-2.067 6.865,-2.782 10.483,-1.98l188.561,41.82c7.297,1.618 11.907,8.856 10.289,16.152c-1.618,7.297 -8.856,11.907 -16.153,10.288l-174.68,-38.74l-1.247,7.286Z" style="fill:#1c1d20;"/></g></svg>