<?xml version="1.0" encoding="UTF-8" standalone="no"?><!DOCTYPE svg PUBLIC "-//W3C//DTD SVG 1.1//EN" "http://www.w3.org/Graphics/SVG/1.1/DTD/svg11.dtd"><svg width="100%" height="100%" viewBox="0 0 750 750" version="1.1" xmlns="http://www.w3.org/2000/svg" xmlns:xlink="http://www.w3.org/1999/xlink" xml:space="preserve" xmlns:serif="http://www.serif.com/" style="fill-rule:evenodd;clip-rule:evenodd;stroke-linejoin:round;stroke-miterlimit:2;"><g id="sandal-2"><path d="M726.042,450.818c-0,-14.244 -13.011,-24.79 -26.844,-22.05c-54.53,11.034 -203.265,41.043 -222.744,39.17c-22.479,-2.162 -67.43,-22.059 -86.137,-37.095c-20.818,-16.632 -133.59,-88.877 -159.114,-98.351c-18.663,-6.917 -114.358,-32.533 -162.586,-45.264c-22.59,-5.977 -44.659,10.995 -44.659,34.383c0,-0 0,213.384 0,213.384c0,26.43 20.201,48.501 46.483,50.944c83.497,7.646 297.136,26.571 388.367,27.772c82.914,1.157 178.636,-15.332 226.383,-24.815c23.774,-4.755 40.851,-25.615 40.851,-49.817c-0,-0 -0,-88.261 -0,-88.261Zm-27.084,5.624c-60.312,12.139 -205.564,40.333 -225.097,38.455c-26.198,-2.52 -78.709,-25.42 -100.48,-42.919c-19.832,-15.845 -127.25,-85.057 -151.596,-94.093c-18.367,-6.807 -112.601,-31.937 -160.088,-44.472c-5.39,-1.426 -10.655,2.619 -10.655,8.198l-0,213.384c-0,12.447 9.528,22.827 21.887,23.976c83.025,7.602 295.5,26.464 386.247,27.659c80.857,1.129 174.182,-15.051 220.721,-24.295c11.091,-2.218 19.061,-11.958 19.061,-23.256l0,-82.637Z" style="fill:#1c1d20;"/><path d="M423.136,198.117l-184.492,158.697c-5.666,4.874 -14.223,4.231 -19.097,-1.435c-4.874,-5.666 -4.231,-14.223 1.435,-19.097l194.327,-167.157c5.512,-4.742 13.785,-4.284 18.74,1.036c0,0 106.228,114.344 123.784,126.961c14.21,10.241 61.632,37.387 78.685,47.14c7.375,4.13 12.701,11.196 14.658,19.41l20.309,83.905c1.759,7.264 -2.711,14.589 -9.975,16.348c-7.264,1.758 -14.589,-2.712 -16.348,-9.976c0,-0 -20.309,-83.906 -20.32,-83.952c-0.212,-0.887 -0.764,-1.661 -1.662,-2.165c-17.691,-10.116 -66.532,-38.18 -81.167,-48.728c-14.925,-10.725 -92.376,-92.758 -118.877,-120.987Z" style="fill:#1c1d20;"/><path d="M96.515,180.224l219.267,83.929c6.98,2.671 10.478,10.507 7.806,17.487c-2.672,6.98 -10.508,10.478 -17.488,7.806c0,0 -224.328,-85.865 -224.301,-85.855c-9.801,-3.727 -15.35,-14.144 -12.886,-24.312c-0,0 6.364,-27.006 6.346,-26.927c2.816,-12.281 15.943,-19.254 27.765,-14.748l249.485,94.904c6.985,2.657 10.499,10.486 7.842,17.472c-2.658,6.985 -10.486,10.499 -17.472,7.842l-242.877,-92.391l-3.487,14.793Z" style="fill:#1c1d20;"/></g></svg>