<?xml version="1.0" encoding="UTF-8" standalone="no"?><!DOCTYPE svg PUBLIC "-//W3C//DTD SVG 1.1//EN" "http://www.w3.org/Graphics/SVG/1.1/DTD/svg11.dtd"><svg width="100%" height="100%" viewBox="0 0 750 750" version="1.1" xmlns="http://www.w3.org/2000/svg" xmlns:xlink="http://www.w3.org/1999/xlink" xml:space="preserve" xmlns:serif="http://www.serif.com/" style="fill-rule:evenodd;clip-rule:evenodd;stroke-linejoin:round;stroke-miterlimit:2;"><g id="scarf-2"><path d="M587.246,136.432l-94.61,-95.285c-0.999,-0.961 -2.176,-1.752 -3.473,-2.329c-0.321,-0.148 -0.648,-0.28 -0.987,-0.395c-1.367,-0.555 -2.83,-0.868 -4.322,-0.923l-219.525,-0c-1.505,0.044 -2.991,0.346 -4.376,0.89c-0.327,0.121 -0.642,0.236 -0.958,0.379c-1.308,0.582 -2.485,1.373 -3.484,2.34l-92.785,93.488c-27.23,27.521 -25.209,70.214 4.519,95.433l91.15,77.245l-2.545,2.488c-18.312,17.655 -22.081,44.259 -9.298,65.676l32.628,55.35c7.29,12.464 20.554,20.983 35.739,22.961c2.354,0.313 4.726,0.472 7.099,0.472c1.135,0 2.229,-0.236 3.347,-0.302l0,247.33c0,6.213 5.452,11.25 12.176,11.25c6.725,0 12.177,-5.037 12.177,-11.25l-0,-36.887l24.353,-7.503l-0,33.14c-0,6.213 5.452,11.25 12.176,11.25c6.724,0 12.176,-5.037 12.176,-11.25l0,-40.633l24.353,-7.504l0,36.887c0,6.213 5.452,11.25 12.176,11.25c6.725,0 12.177,-5.037 12.177,-11.25l-0,-44.39l24.353,-7.493l-0,29.383c-0,6.213 5.452,11.25 12.176,11.25c6.724,0 12.176,-5.037 12.176,-11.25l0,-78.179l24.353,-7.476l0,29.405c0,6.213 5.452,11.25 12.176,11.25c6.725,0 12.177,-5.037 12.177,-11.25l-0,-332.842l40.388,-37.282c27.765,-25.538 28.788,-66.758 2.318,-93.444Zm-158.59,5.043l-52.356,50.905l-57.945,-53.63l113.101,0l-2.8,2.725Zm40.626,-81.475l-6.166,34.063c-1.456,7.971 -4.798,15.546 -9.774,22.187l-158.127,0c-5.321,-6.91 -8.888,-14.848 -10.434,-23.209l-5.928,-33.041l190.429,0Zm-288.583,89.841l75.895,-76.498l4.191,23.346c2.527,14.018 9.091,27.153 19.008,38.024l0.131,0.087l0.196,0.259c1.462,1.477 2.919,2.949 4.518,4.411l74.824,69.246l-84.42,82.222l-91.322,-77.454c-19.835,-16.809 -21.196,-45.28 -3.045,-63.643l0.024,-0Zm169.019,297.317l6.665,-6.152l115.099,-106.348l-0,268.479l-121.764,37.507l-0,-193.486Zm170.469,99.729l-24.353,7.481l0,-242.21l24.353,-22.5l0,257.229Zm47.487,-332.996l-92.661,85.611l-135.884,125.552c-5.416,5.026 -13.08,7.404 -20.685,6.41c-7.604,-0.994 -14.251,-5.246 -17.943,-11.464l-32.653,-55.371c-7.657,-12.843 -5.392,-28.795 5.589,-39.375l191.409,-186.301c0.06,-0.066 0.952,-0.956 1.023,-1.01c1.082,-1.05 2.111,-2.143 3.068,-3.285l0.148,-0.193l0.22,-0.236l0.107,-0.181c9.222,-10.476 15.334,-22.995 17.73,-36.315l4.417,-24.401l77.726,78.277c17.646,17.809 16.939,45.314 -1.611,62.326l-0,-0.044Z" style="fill-rule:nonzero;"/></g></svg>