<!-- Generated by IcoMoon.io -->
<svg version="1.1" xmlns="http://www.w3.org/2000/svg" width="1024" height="1024" viewBox="0 0 1024 1024">
<title>clock-2</title>
<g id="icomoon-ignore">
</g>
<path d="M917.334 128c23.467 0 42.666 19.199 42.666 42.666v725.334c0 23.467-19.199 42.666-42.666 42.666h-810.668c-23.467 0-42.666-19.199-42.666-42.666v-149.334c0-23.467 19.199-42.666 42.666-42.666v-42.666c0-11.734 9.602-21.334 21.334-21.334h213.334c11.732 0 21.332 9.6 21.332 21.334v42.666h277.334v-362.666h-181.334l-51.199 68.266c-8.107 10.668-20.693 17.066-34.133 17.066h-117.334v149.334c0 11.732-9.6 21.334-21.334 21.334-11.732 0-21.332-9.602-21.332-21.334v-149.334h-106.668c-23.467 0-42.666-19.199-42.666-42.666v-213.334c0-23.467 19.199-42.666 42.666-42.666h725.334v-21.334c0-11.732 9.6-21.332 21.334-21.332 11.732 0 21.332 9.6 21.332 21.332v21.334h42.668zM149.334 682.666v21.334h170.666v-21.334h-170.666zM917.334 896v-725.334h-810.668v213.334h266.668l51.199-68.268c8.107-10.666 20.693-17.066 34.133-17.066h181.334c23.467 0 42.666 19.201 42.666 42.668v362.666c0 23.467-19.199 42.666-42.666 42.666h-533.334v149.334h810.668zM789.334 853.334c-35.201 0-64-28.801-64-64 0-35.201 28.799-64 64-64 35.199 0 64 28.799 64 64 0 35.199-28.801 64-64 64zM789.334 768c-11.734 0-21.334 9.6-21.334 21.334 0 11.732 9.6 21.332 21.334 21.332 11.732 0 21.332-9.6 21.332-21.332 0-11.734-9.6-21.334-21.332-21.334zM746.666 426.666c-11.732 0-21.332-9.6-21.332-21.332 0-11.734 9.6-21.334 21.332-21.334h106.668c11.732 0 21.332 9.6 21.332 21.334 0 11.732-9.6 21.332-21.332 21.332h-106.668zM746.666 512c-11.732 0-21.332-9.6-21.332-21.334 0-11.732 9.6-21.332 21.332-21.332h106.668c11.732 0 21.332 9.6 21.332 21.332 0 11.734-9.6 21.334-21.332 21.334h-106.668zM746.666 597.334c-11.732 0-21.332-9.602-21.332-21.334s9.6-21.334 21.332-21.334h106.668c11.732 0 21.332 9.602 21.332 21.334s-9.6 21.334-21.332 21.334h-106.668z"></path>
</svg>
