<?xml version="1.0" encoding="UTF-8" standalone="no"?><!DOCTYPE svg PUBLIC "-//W3C//DTD SVG 1.1//EN" "http://www.w3.org/Graphics/SVG/1.1/DTD/svg11.dtd"><svg width="100%" height="100%" viewBox="0 0 3125 3125" version="1.1" xmlns="http://www.w3.org/2000/svg" xmlns:xlink="http://www.w3.org/1999/xlink" xml:space="preserve" xmlns:serif="http://www.serif.com/" style="fill-rule:evenodd;clip-rule:evenodd;stroke-linejoin:round;stroke-miterlimit:2;"><path id="_-Curves-" serif:id="(Curves)" d="M1091.21,88.429l922.387,0c0.261,-0 0.522,0.001 0.784,0.005l0.252,0.003l0.434,0.009l0.04,0.001c10.193,0.255 19.718,3.218 27.88,8.196l0.069,0.042l0.16,0.098c7.653,4.703 14.142,11.209 18.838,19.037l0.046,0.076l0.099,0.166c1.209,2.032 2.293,4.145 3.244,6.33l39.885,87.62l471.349,218.996c15.45,7.18 26.35,20.65 30.625,36.234l413.504,988.7c11.125,26.596 0.408,57.3 -24.85,71.2l-423.592,233.108c-13.141,7.233 -28.62,8.933 -43.016,4.733c-14.4,-4.204 -26.529,-13.97 -33.717,-27.133l-118.717,-217.537l0.001,1461.83c-0.001,31.162 -25.259,56.425 -56.421,56.425l-1515.28,-0c-31.158,-0 -56.421,-25.263 -56.421,-56.425l0,-1463.22l-119.412,218.913c-7.183,13.17 -19.317,22.937 -33.713,27.141c-14.4,4.209 -29.883,2.504 -43.025,-4.729l-423.591,-233.108c-25.263,-13.9 -35.975,-44.613 -24.846,-71.213c-0,0 378.333,-904.158 378.333,-904.162c29.95,-71.563 84.95,-129.713 154.742,-163.596l361.981,-175.67l40.106,-88.106c0.994,-2.285 2.134,-4.492 3.41,-6.607c4.626,-7.701 10.989,-14.121 18.491,-18.803l0.122,-0.076l0.064,-0.039c8.247,-5.117 17.909,-8.166 28.257,-8.423l0.032,-0.001l0.299,-0.006l0.134,-0.003l0.259,-0.003c0.26,-0.004 0.52,-0.005 0.778,-0.005Zm1003.63,241.144l-182.737,508.369c-5.713,15.896 -18.246,28.391 -34.154,34.062c-15.913,5.671 -33.525,3.917 -48,-4.783l-277.554,-166.754l-277.513,166.754c-14.475,8.7 -32.092,10.454 -48,4.783c-15.908,-5.666 -28.446,-18.166 -34.158,-34.062l-182.396,-507.378c-105.92,51.402 -323.772,157.122 -323.763,157.119c-45.07,21.884 -80.587,59.434 -99.929,105.646l-358.762,857.392l329.558,181.362l198.246,-363.446c12.354,-22.641 38.483,-34.029 63.475,-27.654c24.996,6.371 42.483,28.88 42.483,54.675l0,1628.06l1402.43,-0l-0,-1626.59c-0,-25.791 17.487,-48.295 42.475,-54.67c24.991,-6.375 51.12,5.004 63.475,27.641l197.545,361.984l329.575,-181.371l-388.483,-928.879l-413.817,-192.265Zm132.709,972.823l-0,-228.433c-0,-31.163 -25.263,-56.425 -56.425,-56.425l-408.692,-0c-31.162,-0 -56.425,25.262 -56.425,56.425l0,228.433c0,145.587 116.929,263.262 260.779,263.262c143.825,0 260.763,-117.675 260.763,-263.262Zm-112.846,-172.008l-295.85,-0l-0,172.008c-0,82.887 66.037,150.412 147.933,150.412c81.884,0 147.917,-67.525 147.917,-150.412l-0,-172.008Zm-1011.66,-875.5l172.63,480.208l187.637,-112.75l-355.637,-377.633l-4.63,10.175Zm538.446,367.454l187.667,112.754l172.617,-480.208l-4.634,-10.175l-355.65,377.629Zm-419.706,-421.063l330.616,351.065l330.63,-351.065l-661.246,0Z"/></svg>