<?xml version="1.0" encoding="UTF-8" standalone="no"?><!DOCTYPE svg PUBLIC "-//W3C//DTD SVG 1.1//EN" "http://www.w3.org/Graphics/SVG/1.1/DTD/svg11.dtd"><svg width="100%" height="100%" viewBox="0 0 3125 3125" version="1.1" xmlns="http://www.w3.org/2000/svg" xmlns:xlink="http://www.w3.org/1999/xlink" xml:space="preserve" xmlns:serif="http://www.serif.com/" style="fill-rule:evenodd;clip-rule:evenodd;stroke-linejoin:round;stroke-miterlimit:2;"><g id="shirt"><path d="M1078.24,114.042l969.237,-0c7.734,-0 15.384,1.587 22.475,4.671l505.421,219.5c16.129,7.004 27.567,20.82 31.963,36.9l413.466,988.825c11.121,26.595 0.409,57.295 -24.846,71.195l-423.591,233.167c-13.142,7.233 -28.621,8.938 -43.021,4.733c-14.4,-4.204 -26.533,-13.97 -33.717,-27.137l-118.716,-217.583l-0,1526.22c-0,31.163 -25.259,56.425 -56.421,56.425l-1515.28,0c-31.162,0 -56.42,-25.262 -56.42,-56.425l-0,-1527.6l-119.409,218.954c-7.183,13.175 -19.316,22.942 -33.716,27.15c-14.4,4.205 -29.884,2.505 -43.03,-4.733l-423.591,-233.167c-25.259,-13.9 -35.971,-44.608 -24.842,-71.204c0,0 375.888,-898.483 375.888,-898.479c31.72,-75.846 91.533,-136.483 166.962,-169.242l408.717,-177.495c7.091,-3.084 14.741,-4.671 22.475,-4.671Zm1006.6,134.164c-36.886,261.559 -257.009,462.015 -522.343,462.015c-265.247,-0 -485.312,-200.324 -522.302,-461.721l-348.194,151.217c-48.704,21.15 -87.325,60.304 -107.808,109.279l-356.329,851.721l329.558,181.408l198.25,-363.525c12.346,-22.646 38.479,-34.033 63.475,-27.662c24.992,6.375 42.483,28.883 42.483,54.675l0,1692.5l1402.43,-0l-0,-1691.02c-0,-25.792 17.487,-48.3 42.479,-54.675c24.992,-6.375 51.125,5.008 63.475,27.65l197.542,362.062l329.579,-181.416l-388.167,-928.309l-424.132,-184.198Zm-111.014,-21.318l-822.658,-0c26.798,208.806 200.407,370.487 411.329,370.487c210.922,0 384.531,-161.681 411.329,-370.487Z"/></g></svg>