<?xml version="1.0" encoding="UTF-8" standalone="no"?><!DOCTYPE svg PUBLIC "-//W3C//DTD SVG 1.1//EN" "http://www.w3.org/Graphics/SVG/1.1/DTD/svg11.dtd"><svg width="100%" height="100%" viewBox="0 0 750 750" version="1.1" xmlns="http://www.w3.org/2000/svg" xmlns:xlink="http://www.w3.org/1999/xlink" xml:space="preserve" xmlns:serif="http://www.serif.com/" style="fill-rule:evenodd;clip-rule:evenodd;stroke-linejoin:round;stroke-miterlimit:2;"><g id="shirt"><path d="M179.709,342.463l-28.658,52.549c-1.724,3.162 -4.636,5.506 -8.092,6.516c-3.456,1.009 -7.172,0.601 -10.327,-1.136l-101.662,-55.96c-6.062,-3.336 -8.633,-10.706 -5.962,-17.089c-0,-0 90.213,-215.636 90.213,-215.635c7.613,-18.203 21.968,-32.756 40.071,-40.618l98.092,-42.599c1.702,-0.74 3.538,-1.121 5.394,-1.121l232.617,-0c1.856,-0 3.692,0.381 5.394,1.121l121.301,52.68c3.871,1.681 6.616,4.997 7.671,8.856l99.232,237.318c2.669,6.383 0.098,13.751 -5.963,17.087l-101.662,55.96c-3.154,1.736 -6.869,2.145 -10.325,1.136c-3.456,-1.009 -6.368,-3.353 -8.092,-6.513l-28.492,-52.22l0,366.293c0,7.479 -6.062,13.542 -13.541,13.542l-363.668,0c-7.479,0 -13.541,-6.063 -13.541,-13.542l-0,-366.625Zm436.506,27.648l79.099,-43.54l-93.16,-222.794l-113.573,-49.324l-226.99,0l-95.51,41.479c-11.689,5.076 -20.958,14.473 -25.874,26.227l-85.519,204.413l79.094,43.538l47.58,-87.246c2.963,-5.435 9.235,-8.168 15.234,-6.639c5.998,1.53 10.196,6.932 10.196,13.122l-0,406.2l336.584,-0l0,-405.845c0,-6.19 4.197,-11.592 10.195,-13.122c5.998,-1.53 12.27,1.202 15.234,6.636l47.41,86.895Z" style="fill:#1c1d20;"/><path d="M248.334,40.912c0,71.636 56.803,129.541 126.666,129.541c69.863,0 126.666,-57.905 126.666,-129.541c-0,-7.474 -6.068,-13.542 -13.542,-13.542c-7.474,-0 -13.542,6.068 -13.542,13.542c0,56.493 -44.487,102.458 -99.582,102.458c-55.095,-0 -99.582,-45.965 -99.582,-102.458c-0,-7.474 -6.068,-13.542 -13.542,-13.542c-7.474,-0 -13.542,6.068 -13.542,13.542Z" style="fill:#1c1d20;"/></g></svg>