<?xml version="1.0" encoding="UTF-8" standalone="no"?><!DOCTYPE svg PUBLIC "-//W3C//DTD SVG 1.1//EN" "http://www.w3.org/Graphics/SVG/1.1/DTD/svg11.dtd"><svg width="100%" height="100%" viewBox="0 0 750 750" version="1.1" xmlns="http://www.w3.org/2000/svg" xmlns:xlink="http://www.w3.org/1999/xlink" xml:space="preserve" xmlns:serif="http://www.serif.com/" style="fill-rule:evenodd;clip-rule:evenodd;stroke-linejoin:round;stroke-miterlimit:2;"><g id="shoes-3"><path d="M45.538,437.863c-0.515,-0.401 -0.998,-0.84 -1.448,-1.313c-2.449,-2.575 -6.13,-9.329 -8.898,-19.092c-4.913,-17.326 -8.822,-45.832 -4.883,-68.163c5.404,-30.641 27.302,-91.597 27.302,-91.597c1.441,-3.999 4.676,-7.089 8.737,-8.345c4.061,-1.256 8.476,-0.533 11.923,1.954c58.366,42.095 120.575,32.19 152.164,24.529c30.559,-7.421 62.603,-46.886 62.603,-46.886c4.336,-5.207 11.853,-6.406 17.595,-2.809c-0,0 102.301,64.116 141.526,93.023c37.295,27.451 94.113,57.074 155.891,60.031c33.358,1.572 54.795,3.488 69.49,6.531c17.801,3.688 27.243,9.21 34.949,16.917c16.914,16.913 13.039,43.534 13.039,43.534c-0.903,5.684 -5.3,10.177 -10.964,11.201c-0,-0 -217.354,39.198 -267.05,40.271c-39.386,0.835 -154.342,-22.087 -212.686,-34.954c-15.956,-3.518 -27.698,-6.305 -32.472,-7.656c-22.189,-6.034 -148.785,-13.921 -148.785,-13.921c-1.808,-0.116 -3.574,-0.593 -5.194,-1.403c-0.963,-0.481 -2.623,-1.693 -2.839,-1.852Zm260.22,-182.784c-13.53,14.021 -41.935,40.52 -68.935,47.077c-33.539,8.133 -97.053,17.827 -159.392,-19.063c-6.598,19.342 -17.028,51.503 -20.451,70.906c-3.241,18.376 0.225,41.814 4.268,56.072c0.42,1.48 0.979,3.094 1.511,4.522c28.119,1.918 127.043,8.965 146.837,14.349c4.673,1.321 15.864,3.953 31.064,7.305c56.606,12.484 168.068,35.135 206.275,34.325c42.213,-0.911 207.335,-29.932 251.756,-37.862c-0.623,-3.617 -2.106,-7.67 -5.352,-10.916c-4.632,-4.631 -10.595,-7.331 -21.292,-9.547c-13.801,-2.859 -33.945,-4.523 -65.282,-5.999c-67.578,-3.235 -129.871,-35.248 -170.668,-65.277c-31.521,-23.231 -104.271,-69.448 -130.339,-85.892Zm-260.22,182.784l0.249,0.195c-0.096,-0.073 -0.273,-0.212 -0.273,-0.212l0.024,0.017Z" style="fill:#1c1d20;"/><path d="M234.817,490.946c58.342,12.916 173.295,35.743 212.68,34.957c42.158,-0.878 204.998,-29.212 253.486,-37.846c14.287,-2.558 24.713,-14.96 24.713,-29.587l-0,-14.418c-0,-7.474 -6.068,-13.541 -13.542,-13.541c-7.474,-0 -13.542,6.067 -13.542,13.541l0,14.418c0,1.434 -0.991,2.675 -2.39,2.925c-47.68,8.491 -207.822,36.567 -249.277,37.431c-38.202,0.762 -149.667,-21.791 -206.274,-34.323c-7.297,-1.615 -14.533,2.997 -16.149,10.295c-1.615,7.297 2.998,14.533 10.295,16.148Z" style="fill:#1c1d20;"/><path d="M57.827,414.259c18.327,1.224 130.543,8.909 151.769,14.683c4.673,1.321 15.864,3.953 31.064,7.305c6.206,1.368 10.626,6.868 10.626,13.224l-0,55.636c-0,7.479 -6.063,13.542 -13.542,13.542l-200.244,0c-7.479,0 -13.542,-6.063 -13.542,-13.542c0,0 0,-61.635 0,-61.635c0,-16.495 13.302,-29.797 29.798,-29.797l0.145,-0c1.339,-0 2.662,0.198 3.926,0.584Zm-5.224,26.758c-0.925,0.429 -1.561,1.366 -1.561,2.455l-0,48.094l173.16,-0l0,-31.248c-10.518,-2.385 -18.207,-4.249 -21.846,-5.279c-22.189,-6.034 -148.785,-13.921 -148.785,-13.921c-0.325,-0.021 -0.648,-0.054 -0.968,-0.101Zm-6.768,-2.944l-0.321,-0.227c0,-0 0.177,0.139 0.273,0.212l0.048,0.015Z" style="fill:#1c1d20;"/><path d="M341.533,254.935l-13.934,21.142c-4.113,6.24 -2.386,14.646 3.854,18.758c6.241,4.113 14.646,2.386 18.759,-3.854l13.934,-21.142c4.113,-6.241 2.386,-14.646 -3.855,-18.759c-6.24,-4.113 -14.646,-2.386 -18.758,3.855Z" style="fill:#1c1d20;"/><path d="M377.139,278.399l-13.933,21.142c-4.112,6.241 -2.385,14.647 3.856,18.759c6.241,4.113 14.646,2.385 18.759,-3.856l13.932,-21.142c4.113,-6.24 2.385,-14.646 -3.855,-18.758c-6.241,-4.113 -14.646,-2.385 -18.759,3.855Z" style="fill:#1c1d20;"/><path d="M412.699,301.863l-13.934,21.142c-4.113,6.24 -2.386,14.646 3.855,18.759c6.24,4.113 14.646,2.385 18.759,-3.855l13.934,-21.142c4.112,-6.24 2.385,-14.646 -3.855,-18.759c-6.241,-4.113 -14.646,-2.385 -18.759,3.855Z" style="fill:#1c1d20;"/></g></svg>