<?xml version="1.0" encoding="UTF-8" standalone="no"?><!DOCTYPE svg PUBLIC "-//W3C//DTD SVG 1.1//EN" "http://www.w3.org/Graphics/SVG/1.1/DTD/svg11.dtd"><svg width="100%" height="100%" viewBox="0 0 13021 13021" version="1.1" xmlns="http://www.w3.org/2000/svg" xmlns:xlink="http://www.w3.org/1999/xlink" xml:space="preserve" xmlns:serif="http://www.serif.com/" style="fill-rule:evenodd;clip-rule:evenodd;stroke-linejoin:round;stroke-miterlimit:2;"><path d="M5293.38,4972.17c-61.946,-185.617 -53.025,-393.096 36.696,-579.517c-0,-0 158.817,-332.775 159.375,-333.938c115.067,-237.779 404.737,-331.425 636.875,-206.72c447.342,240.658 1505.31,806.929 2098.23,1112.83c750.85,388.404 2901.8,995.208 3522.81,1098.09c320.35,53.005 515.071,179.2 636.809,304.392c208.691,214.579 219.891,445.096 220.296,455.633c0.27,4.355 0.42,8.734 0.441,13.138l0.004,0.617l0,0.25l0.005,0.57l-0,966.18c-0,313.458 -198.038,592.433 -494.896,696.479c-631.875,221.25 -1969.06,537.966 -2895.43,598.816c-601.858,40 -2927.48,58.163 -3538.85,31.496c-604.516,-26.32 -1721.39,79.684 -2522.43,92.846c-588.975,9.567 -1539.01,-70.383 -2024.06,-116.408c-286.562,-27.725 -514.216,-251.475 -546.562,-536.475l-137.654,-1217.48c-1.1,-8.167 -2.017,-16.417 -2.746,-24.725l-0.133,-1.438l-0.075,-0.925c-16.646,-185.716 -31.23,-442.575 -24.355,-706.495c13.734,-507.03 393.438,-1739.69 393.438,-1739.69c26.283,-84.429 97.708,-146.962 184.858,-161.858c87.171,-14.896 175.313,20.383 228.146,91.287c142.204,190.883 385.258,308.35 647.029,392.742c449.55,144.929 959.913,182.9 1249.6,213.454c416.825,43.167 1533.86,-63.833 1857.07,-96.637l315.529,-346.521Zm6841.33,2159.37c-711.02,158.537 -2567.55,561.079 -3595.61,677.92c-1130.2,128.005 -6319.42,32.971 -7568.46,7.23c37.783,334.183 79.237,700.787 79.237,700.737c7.342,64.775 59.529,115.192 124.217,121.458c472.137,44.775 1397.73,123.646 1971.51,114.309c809.946,-13.3 1939.32,-119.063 2550.59,-92.45c602.467,26.266 2894.13,8.508 3487.38,-30.921c886.721,-58.246 2166.35,-361.7 2770.99,-573.4c107.812,-37.796 180.137,-138.854 180.137,-252.729l0,-672.154l0.004,-0Zm-6224.83,-2862.08l-155.762,326.405c-44.767,93 -35.605,212.612 13.733,297.625c45.262,45.258 1091.34,876.42 1091.39,876.47c174.113,137.359 224.93,380.713 119.717,576.467l-2.979,5.792c-122.363,225.346 -407.846,305.296 -629.342,179.029l-1306.67,-746.529c-315.034,31.162 -1522.22,144.429 -1968.06,98.246c-312.291,-32.934 -861.058,-77.55 -1344.98,-233.575c-209.654,-67.588 -406.7,-156.788 -573.367,-271.338c-107.187,375.783 -257.641,952.621 -265.8,1253.82c-6.316,242.733 7.188,479.204 22.584,651.312l0.933,8.275c5.158,30.917 31.583,54.421 63.983,55.03c1231.41,25.416 6388.75,122.866 7510.83,-4.217c1008.08,-114.583 2823.63,-508.283 3534.38,-666.946c-68.75,-60.487 -177.796,-120.054 -349.913,-148.525c-645.729,-106.979 -2881.35,-740.521 -3661.82,-1144.24c-591.979,-305.413 -1646.55,-869.788 -2098.88,-1113.11l0.017,0Zm1069.08,2076.97l2.558,-4.971l-3.783,7.238l1.225,-2.267Zm-1401.22,-988.154l-115.091,126.392l999.862,571.254l-884.771,-697.646Z"/></svg>