<?xml version="1.0" encoding="UTF-8" standalone="no"?><!DOCTYPE svg PUBLIC "-//W3C//DTD SVG 1.1//EN" "http://www.w3.org/Graphics/SVG/1.1/DTD/svg11.dtd"><svg width="100%" height="100%" viewBox="0 0 13021 13021" version="1.1" xmlns="http://www.w3.org/2000/svg" xmlns:xlink="http://www.w3.org/1999/xlink" xml:space="preserve" xmlns:serif="http://www.serif.com/" style="fill-rule:evenodd;clip-rule:evenodd;stroke-linejoin:round;stroke-miterlimit:2;"><path d="M622.217,7285.38c-3.83,-12.296 -7.584,-24.908 -11.246,-37.825c-85.296,-300.796 -153.159,-795.692 -84.775,-1183.38c93.821,-531.963 473.996,-1590.23 473.996,-1590.23c25.016,-69.429 81.179,-123.075 151.683,-144.879c70.504,-21.809 147.154,-9.255 206.996,33.92c1013.3,730.817 2093.32,558.859 2641.74,425.855c530.538,-128.838 1086.86,-813.996 1086.86,-813.996c75.275,-90.396 205.779,-111.213 305.466,-48.767c0,0 273.613,171.483 647.342,410.254c68.617,-26.675 148.692,-20.841 214.775,22.717c64.363,42.412 101.071,111.121 105.304,182.633c100.042,64.463 203.179,131.2 306.996,198.763c66.563,-22.85 142.625,-15.725 205.879,25.962c62.834,41.409 99.317,107.892 104.942,177.584c104.833,69.129 207.837,137.595 306.433,203.854c66.592,-22.896 142.7,-15.784 205.988,25.925c65.496,43.171 102.354,113.587 105.479,186.471c794.146,580.4 1887.82,1171.69 2960.35,1223.03c579.129,27.291 951.3,60.558 1206.42,113.387c309.046,64.025 472.971,159.896 606.754,293.696c251.246,251.229 230.871,602.812 229.288,934.496c-1.063,223.091 -181.005,469.254 -429.046,513.666c-841.804,149.896 -3668.89,641.805 -4400.79,657.046c-624.142,12.459 -2341.4,-316.658 -3406.44,-544.683l0,218.367c0,129.841 -105.262,235.104 -235.104,235.104l-3476.46,-0c-129.846,-0 -235.104,-105.263 -235.104,-235.104l-0,-1070.06c-0,-169.475 80.879,-319.533 206.279,-413.808l-0.004,0Zm290.925,371.238c-16.005,7.47 -26.996,23.704 -26.996,42.57l-0,834.967l3006.25,0l-0,-542.471c-113.529,-25.758 -377.538,-91.191 -379.271,-91.679c-385.225,-104.758 -2595.76,-242.992 -2599.98,-243.387Zm4395.17,-3228.14c-234.896,243.421 -728.041,703.475 -1196.79,817.308c-582.271,141.2 -1684.95,309.5 -2767.22,-330.954c-114.55,335.8 -295.625,894.15 -355.05,1231.01c-56.271,319.03 3.904,725.938 74.096,973.471c7.291,25.692 16.991,53.704 26.229,78.496c388.687,26.521 1825.33,157.858 2190.6,189.454c0.342,0.029 1.012,0.129 1.012,0.129l0.296,0.038c325.821,56.917 3432.47,804.808 4477.79,782.25c732.867,-15.817 3599.57,-519.654 4370.75,-657.329c-10.813,-62.792 -36.558,-133.159 -92.917,-189.513c-80.412,-80.4 -183.937,-127.275 -369.65,-165.746c-239.6,-49.637 -589.325,-78.525 -1133.37,-104.15c-1173.23,-56.162 -2291.46,-701.962 -3160.38,-1274.64l-58.125,88.196c-71.408,108.333 -217.346,138.333 -325.679,66.929c-108.35,-71.408 -138.333,-217.346 -66.925,-325.679l62.421,-94.713c-72.813,-48.812 -147.913,-98.758 -224.317,-149.254l-62.829,95.338c-71.404,108.354 -217.325,138.354 -325.675,66.945c-108.35,-71.387 -138.333,-217.325 -66.946,-325.675l62.088,-94.212c-76.446,-49.663 -152.375,-98.783 -226.8,-146.767l-60.875,92.367c-71.409,108.333 -217.329,138.316 -325.679,66.908c-108.334,-71.387 -138.317,-217.325 -66.909,-325.658l57.625,-87.438c-177.412,-113.166 -329.775,-209.595 -436.808,-277.112l0.033,-0Z"/></svg>