<?xml version="1.0" encoding="UTF-8" standalone="no"?><!DOCTYPE svg PUBLIC "-//W3C//DTD SVG 1.1//EN" "http://www.w3.org/Graphics/SVG/1.1/DTD/svg11.dtd"><svg width="100%" height="100%" viewBox="0 0 750 750" version="1.1" xmlns="http://www.w3.org/2000/svg" xmlns:xlink="http://www.w3.org/1999/xlink" xml:space="preserve" xmlns:serif="http://www.serif.com/" style="fill-rule:evenodd;clip-rule:evenodd;stroke-linejoin:round;stroke-miterlimit:2;"><g id="shoes-2"><path d="M372.238,348.82l-52.635,-41.503c-16.42,-12.978 -21.641,-35.499 -12.592,-54.301c0,-0 9.148,-19.168 9.18,-19.235c6.628,-13.696 23.313,-19.09 36.684,-11.907c25.767,13.862 86.706,46.479 120.858,64.099c43.249,22.372 167.144,57.324 202.914,63.25c18.452,3.053 29.668,10.322 36.68,17.533c12.305,12.652 12.69,26.266 12.69,26.266c0.399,6.605 -4.032,12.531 -10.481,14.015c0,-0 -149.396,34.344 -223.685,42.787c-65.178,7.382 -364.717,1.886 -436.207,0.411c-15.813,-0.291 -28.821,-12.506 -30.174,-28.173c-0.962,-10.703 -1.808,-25.54 -1.411,-40.786c0.791,-29.205 22.662,-100.206 22.662,-100.206c1.514,-4.863 5.628,-8.465 10.648,-9.323c5.021,-0.858 10.098,1.174 13.141,5.258c8.191,10.995 22.191,17.761 37.269,22.622c25.894,8.348 55.291,10.535 71.977,12.295c28.206,2.921 112.078,-6.096 112.078,-6.096c2.826,-0.299 5.674,0.299 8.141,1.708l72.263,41.286Zm-31.831,-102.9l-8.972,18.801c-3.564,7.404 -1.49,16.249 4.95,21.339c-0,0 58.702,46.286 58.705,46.289c10.067,7.942 12.978,22.036 6.825,33.335l0.218,-0.417l-0.319,0.62c-7.048,12.98 -23.492,17.585 -36.25,10.312l-75.264,-43c-18.146,1.795 -87.68,8.319 -113.36,5.659c-17.988,-1.897 -49.597,-4.467 -77.471,-13.454c-12.076,-3.893 -23.426,-9.031 -33.026,-15.629c-6.174,21.645 -14.84,54.871 -15.31,72.22c-0.366,14.063 0.423,27.761 1.316,37.689c0.166,1.928 1.753,3.436 3.724,3.473c70.929,1.464 367.991,7.077 432.625,-0.243c58.065,-6.6 162.641,-29.277 203.58,-38.416c-3.96,-3.484 -10.241,-6.915 -20.155,-8.555c-37.194,-6.162 -165.966,-42.654 -210.921,-65.908c-34.098,-17.592 -94.841,-50.1 -120.895,-64.115Z" style="fill:#1c1d20;"/><path d="M303.27,328.409l27.718,-30.44c5.032,-5.526 4.631,-14.097 -0.895,-19.129c-5.527,-5.032 -14.098,-4.631 -19.13,0.895l-27.718,30.44c-5.032,5.526 -4.631,14.098 0.896,19.13c5.526,5.032 14.098,4.631 19.129,-0.896Z" style="fill:#1c1d20;"/><path d="M25.501,422.371l8.06,71.286c1.863,16.416 14.976,29.304 31.482,30.901c27.939,2.651 82.661,7.256 116.586,6.705c46.14,-0.758 110.472,-6.864 145.292,-5.348c35.215,1.536 169.171,0.49 203.838,-1.814c53.359,-3.505 130.381,-21.748 166.777,-34.492c17.099,-5.993 28.506,-22.062 28.506,-40.117c-0,-0 -0,-55.652 -0,-55.652c-0,-7.474 -6.068,-13.542 -13.542,-13.542c-7.474,0 -13.542,6.068 -13.542,13.542l0,55.652c0,6.559 -4.166,12.38 -10.376,14.557c-34.827,12.194 -108.534,29.673 -159.609,33.028c-34.171,2.271 -166.171,3.294 -200.873,1.781c-35.209,-1.533 -100.261,4.559 -146.914,5.325c-33.05,0.538 -86.364,-4.005 -113.559,-6.584c-3.726,-0.361 -6.732,-3.265 -7.155,-6.996c0,0.005 -8.059,-71.275 -8.059,-71.275c-0.839,-7.427 -7.55,-12.774 -14.977,-11.935c-7.427,0.84 -12.774,7.551 -11.935,14.978Z" style="fill:#1c1d20;"/></g></svg>