<?xml version="1.0" encoding="UTF-8" standalone="no"?><!DOCTYPE svg PUBLIC "-//W3C//DTD SVG 1.1//EN" "http://www.w3.org/Graphics/SVG/1.1/DTD/svg11.dtd"><svg width="100%" height="100%" viewBox="0 0 750 750" version="1.1" xmlns="http://www.w3.org/2000/svg" xmlns:xlink="http://www.w3.org/1999/xlink" xml:space="preserve" xmlns:serif="http://www.serif.com/" style="fill-rule:evenodd;clip-rule:evenodd;stroke-linejoin:round;stroke-miterlimit:2;"><g id="shoes"><path d="M64.355,278.95c2.09,-3.002 11.212,-15.473 23.454,-22.999c11.729,-7.21 25.802,-10.085 39.999,-1.973c24.491,14.01 37.518,26.189 68.657,31.046c26.438,4.128 56.439,1.819 84.293,-14.981c9.631,-5.82 17.824,-14.537 25.326,-23.045c8.889,-10.082 16.907,-19.986 24.546,-26.441c10.202,-8.62 20.498,-11.824 30.655,-9.042c13.028,3.602 26.891,10.749 40.836,19.946c32.289,21.363 177.916,129.596 241.022,159.254c5.02,2.381 47.279,14.695 65.251,22.505c5.577,2.424 9.465,4.889 11.265,6.568c1.981,1.847 3.116,3.732 3.793,5.305c5.415,12.577 2.689,23.7 -6.65,33.526c-10.545,10.971 -33.231,20.094 -60.917,26.289c-58.199,13.024 -139.141,15.899 -152.774,15.821c-61.349,-0.272 -265.355,1.577 -306.681,2.502c-46.805,1.075 -113.018,2.813 -155.578,-16.203c-0.05,-0.023 -0.1,-0.046 -0.15,-0.069c-3.432,-1.583 -6.597,-4.207 -9.129,-7.807c-3.82,-5.468 -6.425,-14.586 -7.096,-25.827c-2.139,-32.941 3.443,-71.057 8.514,-97.08c1.645,-10.51 3.907,-20.349 6.549,-29.563c0.221,-1.597 0.643,-2.839 1.112,-3.794c7.021,-22.334 20.965,-40.508 23.703,-43.938Zm633.781,159.854c-13.516,-4.657 -61.786,-21.336 -66.555,-23.597c-63.919,-30.041 -211.678,-139.506 -244.387,-161.148c-11.338,-7.477 -22.52,-13.507 -33.096,-16.431c-1.236,-0.339 -2.178,0.794 -3.409,1.633c-2.577,1.757 -5.144,4.197 -7.827,6.99c-13.448,13.995 -28.585,35.182 -48.107,46.977c-33.887,20.439 -70.315,23.575 -102.467,18.556c-35.184,-5.489 -50.253,-18.466 -77.923,-34.294c-4.418,-2.525 -8.72,-0.712 -12.372,1.534c-9.068,5.574 -15.421,15.407 -15.421,15.407c-0.284,0.434 -0.592,0.851 -0.923,1.25c-0,-0 -13.366,16.067 -19.408,36.145c-0.185,1.155 -0.484,2.106 -0.827,2.882c-2.304,8.113 -4.276,16.766 -5.711,26l-0.09,0.514c-4.72,24.175 -10.101,59.67 -8.105,90.419c0.281,4.702 0.49,8.756 1.837,11.288c39.373,16.881 99.726,14.207 142.471,13.225c41.432,-0.927 245.921,-2.78 307.432,-2.508c13.108,0.075 90.836,-2.661 146.723,-15.167c21.215,-4.748 39.225,-10.222 47.253,-18.573c0.343,-0.361 0.659,-0.725 0.912,-1.102Zm-635.548,-100.325c0.073,-0.074 0.145,-0.149 0.218,-0.224l0.277,-0.308l-0.495,0.532Zm3.653,-6.653c0.135,-0.786 0.211,-1.669 0.211,-2.657c-0,1.199 -0.159,2.393 -0.48,3.547c-0.545,1.886 -1.493,3.627 -2.776,5.104l0.048,-0.053c0.217,-0.254 1.322,-1.112 2.17,-3.059l0.496,-1.748l0.062,-0.244l0.003,-0.008l0.266,-0.882Z" style="fill:#1c1d20;"/><path d="M695.803,476.754l2.758,-36.174c-0.031,-7.474 6.011,-13.567 13.485,-13.599c7.473,-0.031 13.567,6.011 13.598,13.485c0,-0 0.021,26.665 -2.811,40.33c-1.346,6.495 -3.888,11.094 -6.031,13.326c-10.545,10.97 -33.231,20.093 -60.916,26.29c-58.185,13.024 -139.107,15.913 -152.775,15.874c-61.349,-0.272 -265.355,1.577 -306.681,2.502c-46.809,1.075 -113.028,2.81 -155.592,-16.264c-0.045,-0.021 -0.091,-0.041 -0.136,-0.062c-3.447,-1.591 -6.586,-4.137 -9.129,-7.753c-1.142,-1.634 -2.762,-5.187 -3.745,-10.258c-2.002,-10.321 -3.384,-31.486 -3.84,-38.366c-0.494,-7.457 5.159,-13.913 12.616,-14.408c7.458,-0.494 13.914,5.159 14.408,12.617c0.379,5.717 2.799,27.632 3.583,34.666c39.389,16.354 98.926,13.723 141.221,12.751c41.432,-0.926 245.921,-2.78 307.393,-2.508c13.111,0.037 90.86,-2.707 146.761,-15.221c20.014,-4.48 37.177,-9.605 45.833,-17.228Z" style="fill:#1c1d20;"/><path d="M501.473,369.329l29.894,-27.335c5.516,-5.043 5.899,-13.616 0.856,-19.132c-5.044,-5.515 -13.616,-5.899 -19.132,-0.855l-29.894,27.335c-5.516,5.043 -5.899,13.616 -0.855,19.131c5.043,5.516 13.616,5.899 19.131,0.856Z" style="fill:#1c1d20;"/><path d="M461.498,342.002l29.948,-27.335c5.52,-5.038 5.911,-13.61 0.873,-19.13c-5.039,-5.521 -13.611,-5.912 -19.131,-0.873l-29.949,27.335c-5.52,5.038 -5.911,13.61 -0.872,19.13c5.038,5.521 13.61,5.912 19.131,0.873Z" style="fill:#1c1d20;"/><path d="M423.009,314.659l29.894,-27.334c5.515,-5.044 5.899,-13.616 0.855,-19.132c-5.043,-5.516 -13.616,-5.899 -19.131,-0.856l-29.894,27.335c-5.516,5.043 -5.899,13.616 -0.856,19.132c5.044,5.515 13.616,5.899 19.132,0.855Z" style="fill:#1c1d20;"/><path d="M64.355,278.95c2.09,-3.002 11.212,-15.473 23.454,-22.999c11.729,-7.21 25.802,-10.085 39.999,-1.973c24.491,14.01 37.518,26.189 68.657,31.046c26.438,4.128 56.439,1.819 84.293,-14.981c9.631,-5.82 17.824,-14.537 25.326,-23.045c8.889,-10.082 16.907,-19.986 24.546,-26.441c10.202,-8.62 20.498,-11.824 30.655,-9.042c13.028,3.602 26.891,10.749 40.836,19.946c32.289,21.363 177.916,129.596 241.022,159.254c5.02,2.381 47.279,14.695 65.251,22.505c5.577,2.424 9.465,4.889 11.265,6.568c1.981,1.847 3.116,3.732 3.793,5.305c5.415,12.577 2.689,23.7 -6.65,33.526c-10.545,10.971 -33.231,20.094 -60.917,26.289c-58.199,13.024 -139.141,15.899 -152.774,15.821c-61.349,-0.272 -265.355,1.577 -306.681,2.502c-46.805,1.075 -113.018,2.813 -155.578,-16.203c-0.05,-0.023 -0.1,-0.046 -0.15,-0.069c-3.432,-1.583 -6.597,-4.207 -9.129,-7.807c-3.82,-5.468 -6.425,-14.586 -7.096,-25.827c-2.139,-32.941 3.443,-71.057 8.514,-97.08c1.645,-10.51 3.907,-20.349 6.549,-29.563c0.221,-1.597 0.643,-2.839 1.112,-3.794c7.021,-22.334 20.965,-40.508 23.703,-43.938Zm633.781,159.854c-13.516,-4.657 -61.786,-21.336 -66.555,-23.597c-63.919,-30.041 -211.678,-139.506 -244.387,-161.148c-11.338,-7.477 -22.52,-13.507 -33.096,-16.431c-1.236,-0.339 -2.178,0.794 -3.409,1.633c-2.577,1.757 -5.144,4.197 -7.827,6.99c-13.448,13.995 -28.585,35.182 -48.107,46.977c-33.887,20.439 -70.315,23.575 -102.467,18.556c-35.184,-5.489 -50.253,-18.466 -77.923,-34.294c-4.418,-2.525 -8.72,-0.712 -12.372,1.534c-9.068,5.574 -15.421,15.407 -15.421,15.407c-0.284,0.434 -0.592,0.851 -0.923,1.25c-0,-0 -13.366,16.067 -19.408,36.145c-0.185,1.155 -0.484,2.106 -0.827,2.882c-2.304,8.113 -4.276,16.766 -5.711,26l-0.09,0.514c-4.72,24.175 -10.101,59.67 -8.105,90.419c0.281,4.702 0.49,8.756 1.837,11.288c39.373,16.881 99.726,14.207 142.471,13.225c41.432,-0.927 245.921,-2.78 307.432,-2.508c13.108,0.075 90.836,-2.661 146.723,-15.167c21.215,-4.748 39.225,-10.222 47.253,-18.573c0.343,-0.361 0.659,-0.725 0.912,-1.102Zm-635.548,-100.325c0.073,-0.074 0.145,-0.149 0.218,-0.224l0.277,-0.308l-0.495,0.532Zm3.653,-6.653c0.135,-0.786 0.211,-1.669 0.211,-2.657c-0,1.199 -0.159,2.393 -0.48,3.547c-0.545,1.886 -1.493,3.627 -2.776,5.104l0.048,-0.053c0.217,-0.254 1.322,-1.112 2.17,-3.059l0.496,-1.748l0.062,-0.244l0.003,-0.008l0.266,-0.882Z" style="fill:#1c1d20;"/><path d="M695.803,476.754l2.758,-36.174c-0.031,-7.474 6.011,-13.567 13.485,-13.599c7.473,-0.031 13.567,6.011 13.598,13.485c0,-0 0.021,26.665 -2.811,40.33c-1.346,6.495 -3.888,11.094 -6.031,13.326c-10.545,10.97 -33.231,20.093 -60.916,26.29c-58.185,13.024 -139.107,15.913 -152.775,15.874c-61.349,-0.272 -265.355,1.577 -306.681,2.502c-46.809,1.075 -113.028,2.81 -155.592,-16.264c-0.045,-0.021 -0.091,-0.041 -0.136,-0.062c-3.447,-1.591 -6.586,-4.137 -9.129,-7.753c-1.142,-1.634 -2.762,-5.187 -3.745,-10.258c-2.002,-10.321 -3.384,-31.486 -3.84,-38.366c-0.494,-7.457 5.159,-13.913 12.616,-14.408c7.458,-0.494 13.914,5.159 14.408,12.617c0.379,5.717 2.799,27.632 3.583,34.666c39.389,16.354 98.926,13.723 141.221,12.751c41.432,-0.926 245.921,-2.78 307.393,-2.508c13.111,0.037 90.86,-2.707 146.761,-15.221c20.014,-4.48 37.177,-9.605 45.833,-17.228Z" style="fill:#1c1d20;"/><path d="M501.473,369.329l29.894,-27.335c5.516,-5.043 5.899,-13.616 0.856,-19.132c-5.044,-5.515 -13.616,-5.899 -19.132,-0.855l-29.894,27.335c-5.516,5.043 -5.899,13.616 -0.855,19.131c5.043,5.516 13.616,5.899 19.131,0.856Z" style="fill:#1c1d20;"/><path d="M461.498,342.002l29.948,-27.335c5.52,-5.038 5.911,-13.61 0.873,-19.13c-5.039,-5.521 -13.611,-5.912 -19.131,-0.873l-29.949,27.335c-5.52,5.038 -5.911,13.61 -0.872,19.13c5.038,5.521 13.61,5.912 19.131,0.873Z" style="fill:#1c1d20;"/><path d="M423.009,314.659l29.894,-27.334c5.515,-5.044 5.899,-13.616 0.855,-19.132c-5.043,-5.516 -13.616,-5.899 -19.131,-0.856l-29.894,27.335c-5.516,5.043 -5.899,13.616 -0.856,19.132c5.044,5.515 13.616,5.899 19.132,0.855Z" style="fill:#1c1d20;"/></g></svg>