<?xml version="1.0" encoding="UTF-8" standalone="no"?><!DOCTYPE svg PUBLIC "-//W3C//DTD SVG 1.1//EN" "http://www.w3.org/Graphics/SVG/1.1/DTD/svg11.dtd"><svg width="100%" height="100%" viewBox="0 0 13021 13021" version="1.1" xmlns="http://www.w3.org/2000/svg" xmlns:xlink="http://www.w3.org/1999/xlink" xml:space="preserve" xmlns:serif="http://www.serif.com/" style="fill-rule:evenodd;clip-rule:evenodd;stroke-linejoin:round;stroke-miterlimit:2;"><path d="M1117.28,4842.88c36.283,-52.121 194.654,-268.629 407.188,-399.287c203.629,-125.175 447.949,-175.088 694.425,-34.255c425.191,243.23 651.354,454.667 1191.96,538.992c458.992,71.667 979.846,31.579 1463.42,-260.087c167.204,-101.042 309.446,-252.38 439.687,-400.088c154.321,-175.033 293.525,-346.979 426.146,-459.042c177.117,-149.654 355.867,-205.279 532.204,-156.979c226.18,62.534 466.859,186.613 708.959,346.284c777.804,513.929 3254.66,2323.84 4184.42,2764.83c87.155,41.337 820.817,255.12 1132.83,390.712c96.82,42.083 164.32,84.879 195.57,114.029c34.392,32.063 54.096,64.792 65.851,92.1c31.041,72.1 46.675,141.446 47.85,208.154c0.108,2.721 0.166,5.459 0.174,8.209c0,-0 -9.604,513.462 -58.77,750.704c-23.367,112.758 -67.5,192.604 -104.705,231.354c-183.075,190.45 -576.929,348.837 -1057.57,456.421c-1010.15,226.112 -2415.05,276.271 -2652.34,275.591c-1065.09,-4.72 -4606.88,27.38 -5324.33,43.438c-812.655,18.662 -1962.29,48.783 -2701.25,-282.362c-0.78,-0.363 -1.58,-0.713 -2.359,-1.075c-59.846,-27.621 -114.341,-71.825 -158.491,-134.6c-19.825,-28.371 -47.95,-90.055 -65.017,-178.092c-34.758,-179.183 -54.992,-826.446 -62.908,-945.892c-0.709,-10.654 -0.692,-21.191 0.012,-31.571c-22.362,-550.287 69.071,-1167.26 152.529,-1595.56c28.563,-182.467 67.834,-353.279 113.7,-513.246c3.838,-27.725 11.163,-49.287 19.304,-65.867c121.892,-387.745 363.975,-703.266 411.513,-762.812Zm10969.6,3352.31c-192.25,88.013 -432.7,163.542 -699.996,223.35c-1010.4,226.113 -2415.64,276.025 -2652.33,274.671c-1065.09,-4.721 -4606.88,27.379 -5324.33,43.438c-732.871,16.833 -1739.82,43.025 -2472.43,-194.204c3.966,54.354 7.433,96.887 10.016,120.054c683.838,283.925 1717.47,238.246 2451.76,221.371c719.304,-16.075 4269.46,-48.263 5336.67,-43.542c227.621,0.642 1577.43,-46.996 2547.93,-264.254c347.466,-77.775 645.433,-166.75 795.712,-299.096l6.975,-81.788l0.025,0Zm-4754.75,-3358.74c-272.925,-193.238 -487.775,-344.809 -610.038,-425.705c-196.837,-129.808 -390.97,-234.495 -574.583,-285.258c-21.458,-5.887 -37.812,13.783 -59.183,28.35c-44.738,30.504 -89.304,72.863 -135.884,121.354c-233.475,242.967 -496.27,610.796 -835.191,815.571c-588.317,354.846 -1220.75,409.288 -1778.94,322.154c-610.833,-95.296 -872.45,-320.591 -1352.83,-595.383c-76.704,-43.838 -151.392,-12.358 -214.792,26.633c-157.433,96.771 -267.725,267.484 -267.725,267.484c-4.933,7.533 -10.279,14.775 -16.025,21.7c0,-0 -232.05,278.941 -336.946,627.516c-3.212,20.054 -8.404,36.563 -14.358,50.038c-40,140.85 -74.233,291.075 -99.15,451.387l-1.562,8.925c-81.942,419.705 -175.363,1035.94 -140.709,1569.77c4.875,81.634 8.504,152.017 31.892,195.975c683.558,293.071 1731.35,246.65 2473.45,229.6c719.304,-16.096 4269.46,-48.262 5337.38,-43.541c227.567,1.299 1577.01,-46.2 2547.27,-263.317c368.317,-82.429 680.992,-177.467 820.367,-322.446c5.954,-6.271 11.441,-12.587 15.833,-19.133c-234.654,-80.85 -1072.67,-370.417 -1155.47,-409.671c-458.196,-215.346 -1164.55,-665.775 -1875.77,-1146.75l-383.046,350.258c-95.745,87.55 -244.583,80.9 -332.137,-14.862c-87.567,-95.746 -80.921,-244.584 14.846,-332.134l301.433,-275.629c-98.75,-68.012 -196.708,-135.879 -293.283,-203.091l-384.871,351.287c-95.85,87.483 -244.671,80.696 -332.133,-15.154c-87.484,-95.833 -80.696,-244.654 15.137,-332.121l307.092,-280.283c-95.321,-67.038 -188.017,-132.434 -277.296,-195.529l-381.013,348.383c-95.762,87.571 -244.583,80.904 -332.15,-14.842c-87.554,-95.766 -80.904,-244.604 14.859,-332.154l305.541,-279.383l-0.012,-0Zm-6245.54,1039.92c1.267,-1.283 2.517,-2.587 3.788,-3.887l4.808,-5.35l-8.596,9.237Zm67.075,-159.508c-0.179,20.1 -2.941,40.104 -8.325,59.458c-9.462,32.742 -25.921,62.967 -48.191,88.609l0.833,-0.921c3.767,-4.408 22.95,-19.304 37.671,-53.104l8.612,-30.35l1.075,-4.233l4.671,-15.455c2.246,-13.079 3.554,-27.708 3.654,-44.004c0.009,-0.708 0.009,-1.416 0.009,-2.125l-0.009,2.125Z"/></svg>