<?xml version="1.0" encoding="UTF-8" standalone="no"?><!DOCTYPE svg PUBLIC "-//W3C//DTD SVG 1.1//EN" "http://www.w3.org/Graphics/SVG/1.1/DTD/svg11.dtd"><svg width="100%" height="100%" viewBox="0 0 750 750" version="1.1" xmlns="http://www.w3.org/2000/svg" xmlns:xlink="http://www.w3.org/1999/xlink" xml:space="preserve" xmlns:serif="http://www.serif.com/" style="fill-rule:evenodd;clip-rule:evenodd;stroke-linejoin:round;stroke-miterlimit:2;"><g id="shorts-3"><path d="M576.954,151.113c-0,-7.479 -6.063,-13.542 -13.542,-13.542l-376.824,0c-7.479,0 -13.542,6.063 -13.542,13.542l0,72.327c0,7.479 6.063,13.541 13.542,13.541l376.824,0c7.479,0 13.542,-6.062 13.542,-13.541l-0,-72.327Zm-376.824,13.541l-0,45.244l349.74,0l0,-45.244l-349.74,0Z" style="fill:#1c1d20;"/><path d="M374.991,519.269c-7.716,27.509 -19.838,58.223 -38.88,87.077c-3.035,4.6 -8.555,6.901 -13.959,5.82l-287.309,-57.488c-6.329,-1.266 -10.885,-6.824 -10.885,-13.278c0,-136.888 61.303,-257.464 154.133,-328.703c2.365,-1.815 5.263,-2.799 8.244,-2.799l377.33,0c2.981,0 5.879,0.984 8.244,2.799c92.83,71.239 154.133,191.815 154.133,328.703c-0,6.454 -4.556,12.012 -10.885,13.278l-287.309,57.488c-5.404,1.081 -10.924,-1.22 -13.959,-5.82c-19.041,-28.852 -31.171,-59.565 -38.898,-87.077Zm184.018,-282.288l-368.018,0c-82.197,64.914 -136.674,171.824 -139.805,293.347l267.158,53.456c43.572,-71.637 43.084,-152.346 43.084,-152.346l0.001,0l-0.001,-0.16c0.041,-7.448 6.089,-13.464 13.537,-13.466c7.447,-0.003 13.499,6.009 13.546,13.457l-0.001,0.16l0.001,-0c-0,-0 -0.434,80.714 43.145,152.355l267.158,-53.456c-3.132,-121.527 -57.61,-228.437 -139.805,-293.347Z" style="fill:#1c1d20;"/><path d="M346.215,552.118l-302.217,-60.16c-7.33,-1.459 -14.466,3.308 -15.925,10.638c-1.459,7.33 3.307,14.465 10.637,15.925l302.217,60.159c7.33,1.459 14.466,-3.307 15.925,-10.637c1.459,-7.33 -3.307,-14.466 -10.637,-15.925Z" style="fill:#1c1d20;"/><path d="M411.093,578.68l302.218,-60.159c7.331,-1.459 12.097,-8.595 10.638,-15.925c-1.459,-7.33 -8.595,-12.097 -15.925,-10.638l-302.218,60.16c-7.33,1.459 -12.097,8.595 -10.638,15.925c1.459,7.33 8.595,12.096 15.925,10.637Z" style="fill:#1c1d20;"/><path d="M377.897,187.273c-0,-13.504 -10.799,-24.363 -24.218,-24.363c-13.418,0 -24.217,10.859 -24.217,24.363c-0,13.517 10.801,24.37 24.217,24.37c13.416,-0 24.218,-10.853 24.218,-24.37Zm-27.084,-0c0,-1.553 1.325,-2.713 2.866,-2.713c1.541,-0 2.866,1.16 2.866,2.713c0,1.553 -1.322,2.721 -2.866,2.721c-1.543,-0 -2.866,-1.168 -2.866,-2.721Z" style="fill:#1c1d20;"/><path d="M420.538,187.273c0,-13.504 -10.941,-24.363 -24.217,-24.363c-13.397,0 -24.281,10.881 -24.281,24.363c0,13.495 10.887,24.37 24.281,24.37c13.273,-0 24.217,-10.853 24.217,-24.37Zm-27.083,-0c-0,-1.553 1.341,-2.713 2.866,-2.713c1.519,-0 2.802,1.183 2.802,2.713c0,1.531 -1.281,2.721 -2.802,2.721c-1.527,-0 -2.866,-1.168 -2.866,-2.721Z" style="fill:#1c1d20;"/><path d="M357.255,200.362c-0.574,1.376 -1.663,4.282 -2.104,7.396c-1.057,7.455 -0.919,18.225 1.263,33.796c9.059,64.631 -14.035,94.021 -14.035,94.021c-4.455,6.001 -12.944,7.256 -18.945,2.801c-6.001,-4.455 -7.256,-12.944 -2.801,-18.945c-0,0 16.075,-23.359 8.96,-74.118c-3.656,-26.089 -2.036,-41.459 0.72,-50.517c3.239,-10.646 8.467,-15.311 12.268,-17.727c6.739,-4.283 12.207,-3.292 12.207,-3.292l-0,-0c7.448,0.611 12.999,7.155 12.387,14.604c-0.48,5.856 -4.628,10.539 -9.92,11.981Zm-3.98,0.45l-0.539,-0.03c-0,-0 0.025,0.001 0.076,0.005l0.463,0.025Z" style="fill:#1c1d20;"/><path d="M384.246,193.402c-0,-0 18.728,36.253 9.682,69.553c-5.2,19.152 -2.663,33.293 1.79,43.385c7.457,16.899 20.962,23.356 20.962,23.356c6.67,3.372 14.822,0.695 18.195,-5.975c3.372,-6.67 0.695,-14.823 -5.975,-18.195c-0,0 -15.872,-9.56 -8.835,-35.473c11.55,-42.521 -11.669,-88.909 -11.669,-88.909c-3.383,-6.665 -11.54,-9.329 -18.204,-5.946c-6.665,3.382 -9.329,11.539 -5.946,18.204Z" style="fill:#1c1d20;"/></g></svg>