<?xml version="1.0" encoding="UTF-8" standalone="no"?><!DOCTYPE svg PUBLIC "-//W3C//DTD SVG 1.1//EN" "http://www.w3.org/Graphics/SVG/1.1/DTD/svg11.dtd"><svg width="100%" height="100%" viewBox="0 0 750 750" version="1.1" xmlns="http://www.w3.org/2000/svg" xmlns:xlink="http://www.w3.org/1999/xlink" xml:space="preserve" xmlns:serif="http://www.serif.com/" style="fill-rule:evenodd;clip-rule:evenodd;stroke-linejoin:round;stroke-miterlimit:2;"><g id="shorts-2"><path d="M561.381,37.5c0,-7.479 -6.062,-13.542 -13.541,-13.542l-345.894,0c-7.478,0 -13.541,6.063 -13.541,13.542l-0,80.102c-0,7.479 6.063,13.542 13.541,13.542l345.894,0c7.479,0 13.541,-6.063 13.541,-13.542l0,-80.102Zm-345.893,13.542l0,53.019l318.81,-0l0,-53.019l-318.81,-0Z" style="fill:#1c1d20;"/><path d="M375,522.728l-17.135,190.982c-0.627,6.982 -6.478,12.332 -13.488,12.332l-217.278,-0c-7.479,-0 -13.542,-6.063 -13.542,-13.542c0,0 0,-423.397 0,-423.397c0,-71.112 30.306,-135.344 79.099,-181.353c2.513,-2.369 5.837,-3.689 9.29,-3.689l346.108,-0c3.453,-0 6.777,1.32 9.29,3.689c48.793,46.009 79.099,110.241 79.099,181.353l-0,423.397c-0,7.479 -6.063,13.542 -13.542,13.542l-217.278,-0c-7.01,-0 -12.861,-5.35 -13.488,-12.332l-17.135,-190.982Zm167.585,-391.584l-335.17,0c-41.26,40.723 -66.774,96.437 -66.774,157.959l-0,409.855l191.355,0l29.517,-328.975c0.626,-6.982 6.477,-12.331 13.487,-12.331c7.01,-0 12.861,5.349 13.487,12.331l29.517,328.975l191.355,0l0,-409.855c0,-61.522 -25.514,-117.236 -66.774,-157.959Z" style="fill:#1c1d20;"/></g></svg>