<?xml version="1.0" encoding="UTF-8" standalone="no"?><!DOCTYPE svg PUBLIC "-//W3C//DTD SVG 1.1//EN" "http://www.w3.org/Graphics/SVG/1.1/DTD/svg11.dtd"><svg width="100%" height="100%" viewBox="0 0 750 750" version="1.1" xmlns="http://www.w3.org/2000/svg" xmlns:xlink="http://www.w3.org/1999/xlink" xml:space="preserve" xmlns:serif="http://www.serif.com/" style="fill-rule:evenodd;clip-rule:evenodd;stroke-linejoin:round;stroke-miterlimit:2;"><g id="shorts"><path d="M374.662,542.488l-24.82,104.796c-1.666,7.035 -8.565,11.521 -15.671,10.189l-299.165,-56.063c-3.691,-0.692 -6.929,-2.885 -8.941,-6.057c-2.012,-3.171 -2.616,-7.035 -1.669,-10.669l101.524,-389.517c1.555,-5.964 6.941,-10.126 13.104,-10.126l471.352,0c6.156,0 11.538,4.152 13.099,10.107l102.124,389.517c0.953,3.637 0.352,7.507 -1.66,10.683c-2.012,3.175 -5.255,5.372 -8.95,6.063l-299.841,56.063c-7.105,1.328 -14.001,-3.157 -15.666,-10.19l-24.82,-104.796Zm48.198,85.991l272.852,-51.017l-95.785,-365.338l-450.438,0l-95.223,365.34l272.198,51.01l35.021,-147.866c1.446,-6.107 6.9,-10.42 13.177,-10.42c6.276,-0 11.73,4.313 13.177,10.42l35.021,147.871Z" style="fill:#1c1d20;"/><path d="M623.392,105.837c-0,-7.479 -6.063,-13.542 -13.542,-13.542l-470.826,0c-7.479,0 -13.541,6.063 -13.541,13.542l-0,92.746c-0,7.479 6.062,13.541 13.541,13.541l470.826,0c7.479,0 13.542,-6.062 13.542,-13.541l-0,-92.746Zm-470.826,13.542l0,65.662l443.742,0l0,-65.662l-443.742,-0Z" style="fill:#1c1d20;"/></g></svg>