<?xml version="1.0" encoding="UTF-8" standalone="no"?><!DOCTYPE svg PUBLIC "-//W3C//DTD SVG 1.1//EN" "http://www.w3.org/Graphics/SVG/1.1/DTD/svg11.dtd"><svg width="100%" height="100%" viewBox="0 0 13021 13021" version="1.1" xmlns="http://www.w3.org/2000/svg" xmlns:xlink="http://www.w3.org/1999/xlink" xml:space="preserve" xmlns:serif="http://www.serif.com/" style="fill-rule:evenodd;clip-rule:evenodd;stroke-linejoin:round;stroke-miterlimit:2;"><path d="M2380.16,2239.21l0,-1588.17c0,-129.842 105.259,-235.105 235.105,-235.105l7784.79,0c129.842,0 235.104,105.263 235.104,235.105l0,1583.08c225.284,221.7 431.946,461.421 617.446,716.612c675.959,928.2 1073.53,2062.69 1073.53,3288.22l0,6130.83c0,129.845 -105.258,235.104 -235.104,235.104l-11161.2,-0c-129.842,-0 -235.104,-105.258 -235.104,-235.104l-0,-6130.83c-0,-1560.04 644.187,-2972.55 1685.47,-3999.75l0.016,0Zm3892.41,334.596l-3078.23,0c272.691,349.8 434.758,786.038 434.758,1259.69c-0,1149.86 -952.708,2084.84 -2129.7,2084.84c-109.896,0 -217.629,-8.512 -322.938,-24.579c-7.671,114.196 -11.558,229.254 -11.558,345.204l-0,5895.75l5107.67,0l-0.001,-123.175c0.001,-129.758 105.33,-235.104 235.088,-235.104c129.754,0 235.104,105.346 235.104,235.104l0,123.175l5113.17,0l-0,-5895.75c-0,-115.946 -3.888,-231.004 -11.558,-345.204c-105.317,16.067 -213.055,24.579 -322.971,24.579c-1176.95,0 -2129.71,-934.983 -2129.71,-2084.84c0,-473.638 162.055,-909.8 434.813,-1259.69l-3083.75,0l-0,123.054c-0,129.759 -105.35,235.104 -235.104,235.104c-129.759,0 -235.088,-105.345 -235.088,-235.104l0,-123.054l0.017,0Zm-0,1078.47c-0,-129.758 105.329,-235.104 235.087,-235.104c129.754,-0 235.104,105.346 235.104,235.104l0,7881.5c0,129.758 -105.35,235.104 -235.104,235.104c-129.758,0 -235.087,-105.346 -235.087,-235.104l-0,-7881.5Zm-3642.24,-997.221c-726.267,747.933 -1227.74,1705.81 -1399.2,2771.3c87.363,14.2 176.858,21.771 268.263,21.771c914.391,-0 1659.52,-721.3 1659.52,-1614.63c0,-466.009 -204.341,-884.413 -528.579,-1178.44Zm7759.75,0.429c-324.021,294.084 -528.175,712.217 -528.175,1178.01c0,893.333 745.142,1614.63 1659.52,1614.63c91.421,-0 180.916,-7.571 268.296,-21.771c-126.809,-788.237 -434.309,-1517.66 -879.996,-2146.91c-156.85,-221.021 -330.667,-429.575 -519.642,-623.959Zm-6470.29,-1769.34l-1069.43,-0l0,1217.47l1069.43,0l0,-1217.47Zm470.192,-0l0,1217.47l4236.75,0l0,-1217.47l-4236.75,-0Zm4706.92,-0l-0,1217.47l1068.08,0l-0,-1217.47l-1068.08,-0Z"/></svg>