<?xml version="1.0" encoding="UTF-8" standalone="no"?><!DOCTYPE svg PUBLIC "-//W3C//DTD SVG 1.1//EN" "http://www.w3.org/Graphics/SVG/1.1/DTD/svg11.dtd"><svg width="100%" height="100%" viewBox="0 0 3125 3125" version="1.1" xmlns="http://www.w3.org/2000/svg" xmlns:xlink="http://www.w3.org/1999/xlink" xml:space="preserve" xmlns:serif="http://www.serif.com/" style="fill-rule:evenodd;clip-rule:evenodd;stroke-linejoin:round;stroke-miterlimit:2;"><path d="M766.479,445.769l0,-289.519c0,-31.163 25.263,-56.425 56.425,-56.425l1478.95,0c31.159,0 56.421,25.263 56.421,56.425l0,288.693l650.796,2262.39c1.458,5.071 2.196,10.321 2.196,15.6c-0,20.292 -7.217,42.092 -25.713,63.2c-15.195,17.346 -40.725,36.088 -76.916,53.788c-187.713,91.8 -719.363,185.258 -1346.14,185.258c-626.779,0 -1158.43,-93.458 -1346.14,-185.258c-36.191,-17.7 -61.72,-36.442 -76.916,-53.788c-18.496,-21.108 -25.713,-42.908 -25.713,-63.2c0,-5.279 0.738,-10.529 2.196,-15.6l650.554,-2261.56Zm1493.13,64.373l-247.215,-0l83.449,293.529c8.516,29.954 -8.888,61.187 -38.842,69.704c-29.954,8.517 -61.187,-8.887 -69.704,-38.842l-92.222,-324.391l-665.178,-0l-92.442,324.421c-8.533,29.95 -39.775,47.337 -69.725,38.804c-29.95,-8.534 -47.333,-39.779 -38.8,-69.725l83.627,-293.5l-247.173,-0l-634.812,2206.85c3.137,2.617 6.925,5.575 10.362,7.767c23.546,14.995 58.321,29.75 102.538,44.533c228.375,76.346 688.65,143.029 1219.03,143.029c530.379,0 990.654,-66.683 1219.03,-143.029c44.217,-14.783 78.992,-29.538 102.538,-44.533c3.437,-2.192 7.225,-5.15 10.362,-7.767l-634.821,-2206.85Zm-1380.28,-112.846l1366.11,-0l0,-184.621l-1366.11,0l0,184.621Z"/></svg>