<?xml version="1.0" encoding="UTF-8" standalone="no"?><!DOCTYPE svg PUBLIC "-//W3C//DTD SVG 1.1//EN" "http://www.w3.org/Graphics/SVG/1.1/DTD/svg11.dtd"><svg width="100%" height="100%" viewBox="0 0 13021 13021" version="1.1" xmlns="http://www.w3.org/2000/svg" xmlns:xlink="http://www.w3.org/1999/xlink" xml:space="preserve" xmlns:serif="http://www.serif.com/" style="fill-rule:evenodd;clip-rule:evenodd;stroke-linejoin:round;stroke-miterlimit:2;"><path d="M4056.2,1297.66l0,-646.616c0,-129.842 105.258,-235.105 235.104,-235.105l4435.62,0c129.842,0 235.104,105.263 235.104,235.105l-0.004,643.991c596.1,600.159 963.492,1417.71 963.492,2319.06l-0,8755.71c-0,75.625 -36.371,146.633 -97.758,190.817c-61.376,44.166 -140.246,56.129 -211.963,32.117l-387.329,-129.634l-463.975,131.588c-21.742,6.641 -44.813,10.216 -68.717,10.216c-22.808,0 -44.867,-3.254 -65.721,-9.325l-504.729,-134.891l-488.516,134.437c-21.305,6.363 -43.88,9.779 -67.246,9.779c-23.967,0 -47.1,-3.595 -68.875,-10.266l-465.484,-132.875l-454.875,132.421c-22.208,6.966 -45.833,10.72 -70.333,10.72c-25.083,0 -49.25,-3.937 -71.933,-11.229l-438.829,-131.879l-480.542,133.279c-21.358,6.392 -43.996,9.829 -67.429,9.829c-23.896,0 -46.967,-3.575 -68.721,-10.22l-473.95,-133.98l-519.333,135.309c-20.421,5.791 -41.959,8.891 -64.209,8.891c-25.55,0 -50.154,-4.083 -73.179,-11.633l-429.721,-130.242l-421.912,131.25c-71.355,22.205 -149.025,9.15 -209.2,-35.158c-60.192,-44.304 -95.73,-114.583 -95.73,-189.321l0,-8755.71c0,-900.038 366.321,-1716.53 960.888,-2316.44Zm1463.08,333.905l-137.329,-0c-508.012,514.037 -821.792,1212.39 -821.792,1982.53l0,8451.5l291.667,-76c40.467,-10.538 83,-10.104 123.229,1.267l241.125,68.166l0,-8444.92c0,-747.517 114.008,-1435.06 303.1,-1982.53l0,-0.016Zm2119.6,-0l-137.329,-0c189.092,547.47 303.1,1235.02 303.1,1982.53l0,8447.17l257.413,-70.842c40.241,-11.075 82.741,-11.233 123.07,-0.45l275.542,73.637l0,-8449.5c0,-770.141 -313.783,-1468.5 -821.796,-1982.53l0,-0.012Zm-1363.99,10422.1l-0,-10422.1l-254.413,-0c-209.062,524.85 -334.112,1220.05 -334.112,1982.53l-0,8446.5l252.642,-70.067c42.758,-11.858 87.999,-11.371 130.483,1.388l205.4,61.725l-0,0.004Zm2358.58,-10422.1l-373.229,0c421.245,554.146 670.646,1239.9 670.646,1982.53l-0.001,8444.62l239.184,-67.829c45.537,-12.9 93.887,-11.771 138.767,3.246l146.491,49.025l0,-8429.08c0,-770.137 -313.783,-1468.5 -821.858,-1982.53l-0,0.017Zm-1633.12,-0l-255.262,-0l-0,10424.9l223.766,-65.137c42.517,-12.379 87.659,-12.484 130.242,-0.329l235.367,67.183l-0,-8444.12c-0,-762.484 -125.05,-1457.68 -334.113,-1982.53l0,0.025Zm-2239.76,0l-373.229,0c-508.075,514.03 -821.859,1212.4 -821.859,1982.53l0,8436.33l185.904,-57.829c44.93,-13.975 93.021,-14.15 138.038,-0.504l200.504,60.775l0,-8438.79c0,-742.633 249.396,-1428.39 670.642,-1982.53l-0,0.016Zm-234.184,-745.416l0,275.225l3965.43,-0l-0,-275.225l-3965.43,-0Z"/></svg>