<?xml version="1.0" encoding="UTF-8" standalone="no"?><!DOCTYPE svg PUBLIC "-//W3C//DTD SVG 1.1//EN" "http://www.w3.org/Graphics/SVG/1.1/DTD/svg11.dtd"><svg width="100%" height="100%" viewBox="0 0 750 750" version="1.1" xmlns="http://www.w3.org/2000/svg" xmlns:xlink="http://www.w3.org/1999/xlink" xml:space="preserve" xmlns:serif="http://www.serif.com/" style="fill-rule:evenodd;clip-rule:evenodd;stroke-linejoin:round;stroke-miterlimit:2;"><g id="skirt-4"><path d="M608.616,124.899c-2.518,-2.395 -5.86,-3.731 -9.334,-3.731l-448.643,0c-3.478,0 -6.822,1.338 -9.34,3.737c-62.444,59.482 -101.285,142.523 -101.285,234.459l0,353.136c0,7.479 6.063,13.542 13.542,13.542l642.888,-0c7.479,-0 13.542,-6.063 13.542,-13.542l-0,-353.136c-0,-91.939 -38.845,-174.982 -101.37,-234.465Zm-14.822,23.352l-437.662,0c-54.974,54.22 -89.034,128.761 -89.034,211.113l-0,339.594l615.804,0l0,-339.594c0,-82.35 -34.061,-156.889 -89.108,-211.113Z" style="fill:#1c1d20;"/><path d="M612.586,37.5c-0,-7.479 -6.063,-13.542 -13.542,-13.542l-448.405,0c-7.479,0 -13.542,6.063 -13.542,13.542l0,97.21c0,7.479 6.063,13.541 13.542,13.541l448.405,0c7.479,0 13.542,-6.062 13.542,-13.541l-0,-97.21Zm-448.406,13.542l0,70.126l421.322,0l0,-70.126l-421.322,-0Z" style="fill:#1c1d20;"/><path d="M42.328,321.44c-0.784,6.608 3.349,12.806 9.751,14.623c10.925,3.1 22.385,4.833 34.286,4.833c67.795,-0 122.671,-53.855 122.671,-120.087c0,-39.892 -19.959,-75.177 -50.616,-97.031c-5.287,-3.769 -12.505,-3.255 -17.204,1.225c-53.674,51.168 -89.79,119.763 -98.888,196.437Zm109.179,-168.509c-41.833,43.081 -70.718,98.255 -80.594,159.627c5.032,0.818 10.187,1.254 15.452,1.254c52.669,0 95.588,-41.547 95.588,-93.003c-0,-26.842 -11.77,-50.942 -30.446,-67.878Z" style="fill:#1c1d20;"/><path d="M608.784,125.003c-4.7,-4.481 -11.919,-4.994 -17.206,-1.224c-30.659,21.863 -50.616,57.139 -50.616,97.03c-0,66.232 54.879,120.087 122.671,120.087c11.903,-0 23.363,-1.733 34.288,-4.833c6.402,-1.817 10.535,-8.015 9.751,-14.623c-9.098,-76.674 -45.214,-145.269 -98.888,-196.437Zm-10.29,27.929c-18.678,16.939 -30.449,41.034 -30.449,67.877c0,51.456 42.92,93.003 95.588,93.003c5.266,0 10.421,-0.436 15.454,-1.254c-9.872,-61.363 -38.755,-116.538 -80.593,-159.626Z" style="fill:#1c1d20;"/><path d="M361.3,134.71l-0,20.629c-0,7.474 6.067,13.542 13.541,13.542c7.474,-0 13.542,-6.068 13.542,-13.542l0,-20.629c0,-7.474 -6.068,-13.542 -13.542,-13.542c-7.474,0 -13.541,6.068 -13.541,13.542Z" style="fill:#1c1d20;"/><path d="M361.3,210.371l-0,453.975c-0,7.474 6.067,13.542 13.541,13.542c7.474,0 13.542,-6.068 13.542,-13.542l0,-453.975c0,-7.474 -6.068,-13.542 -13.542,-13.542c-7.474,0 -13.541,6.068 -13.541,13.542Z" style="fill:#1c1d20;"/><path d="M361.3,691.863l-0,20.637c-0,7.474 6.067,13.542 13.541,13.542c7.474,-0 13.542,-6.068 13.542,-13.542l0,-20.637c0,-7.474 -6.068,-13.542 -13.542,-13.542c-7.474,0 -13.541,6.068 -13.541,13.542Z" style="fill:#1c1d20;"/><path d="M252.862,134.71l0,-97.21c0,-7.474 -6.067,-13.542 -13.541,-13.542c-7.474,0 -13.542,6.068 -13.542,13.542l0,97.21c0,7.474 6.068,13.541 13.542,13.541c7.474,0 13.541,-6.067 13.541,-13.541Z" style="fill:#1c1d20;"/><path d="M523.981,134.71l0,-97.21c0,-7.474 -6.068,-13.542 -13.542,-13.542c-7.473,0 -13.541,6.068 -13.541,13.542l-0,97.21c-0,7.474 6.068,13.541 13.541,13.541c7.474,0 13.542,-6.067 13.542,-13.541Z" style="fill:#1c1d20;"/></g></svg>