<?xml version="1.0" encoding="UTF-8" standalone="no"?><!DOCTYPE svg PUBLIC "-//W3C//DTD SVG 1.1//EN" "http://www.w3.org/Graphics/SVG/1.1/DTD/svg11.dtd"><svg width="100%" height="100%" viewBox="0 0 3125 3125" version="1.1" xmlns="http://www.w3.org/2000/svg" xmlns:xlink="http://www.w3.org/1999/xlink" xml:space="preserve" xmlns:serif="http://www.serif.com/" style="fill-rule:evenodd;clip-rule:evenodd;stroke-linejoin:round;stroke-miterlimit:2;"><path d="M1404.66,1788.24l179.431,-654.65c7.324,-26.726 32.975,-44.175 60.525,-41.176c-0,0 648.783,71.446 1049.62,292.2c185.567,102.197 317.258,238.057 330.463,405.882c0.32,2.427 0.483,4.886 0.483,7.364l-0,1.284c0.001,0.281 -0.001,0.561 -0.004,0.841c-0.351,62.2 -43.457,106.655 -100.734,130.004c-218.445,88.867 -485.537,89.871 -794.275,99.875c-426.345,13.65 -910.029,-22.429 -1278.19,-33.35c-287.809,-8.866 -514.005,-19.779 -610.134,-24.779c-54.329,-2.796 -101.466,-39.175 -117.771,-90.891c-9.595,-30.005 -14.979,-46 -23.337,-92.234c-3.104,-17.179 1.917,-34.825 13.6,-47.8c11.683,-12.971 28.712,-19.804 46.121,-18.504c-0,0 588.945,44.245 1244.21,65.934Zm-1175.07,52.045l2.034,6.404c2.22,7.055 8.641,11.971 16.05,12.35c95.783,4.984 321.091,15.85 607.708,24.68c366.104,10.862 847.15,46.933 1271.15,33.358c128.588,-4.167 249.658,-6.054 362.588,-13.971c-306.999,13.297 -679.201,9.377 -1035.58,-1.496c-5.086,0.555 -10.313,0.419 -15.551,-0.48c-530.752,-16.516 -1023.25,-48.152 -1208.4,-60.845Zm1291.1,-48.471c526.567,14.977 1075.57,13.164 1383.42,-39.143c-30.153,-110.906 -134.134,-197.516 -264.311,-269.211c-320.684,-176.608 -807.063,-252.587 -959.78,-272.941l-159.325,581.295Z"/></svg>