<?xml version="1.0" encoding="UTF-8" standalone="no"?><!DOCTYPE svg PUBLIC "-//W3C//DTD SVG 1.1//EN" "http://www.w3.org/Graphics/SVG/1.1/DTD/svg11.dtd"><svg width="100%" height="100%" viewBox="0 0 750 750" version="1.1" xmlns="http://www.w3.org/2000/svg" xmlns:xlink="http://www.w3.org/1999/xlink" xml:space="preserve" xmlns:serif="http://www.serif.com/" style="fill-rule:evenodd;clip-rule:evenodd;stroke-linejoin:round;stroke-miterlimit:2;"><g id="slipper-3"><path d="M221.466,444.472c0,-7.316 -5.81,-13.309 -13.122,-13.535c-68.415,-2.12 -122.212,-4.728 -145.041,-5.923c-3.709,-0.194 -7.336,1.144 -10.03,3.7c-2.694,2.557 -4.22,6.109 -4.22,9.823l0,23.467c0,7.479 6.063,13.542 13.542,13.542l145.33,0c7.478,0 13.541,-6.063 13.541,-13.542l0,-17.532Z" style="fill:#1c1d20;"/><path d="M52.501,274.193c1.56,-0.221 3.186,-0.168 4.815,0.194c0,0 245.42,54.673 342.458,67.861c93.951,12.768 169.835,-12.647 169.835,-12.647c2.954,-0.994 6.16,-0.939 9.078,0.156c-0,0 123.598,46.39 123.603,46.392c14.242,5.352 23.752,19.068 23.752,34.347l-0,0.327c-0,14.952 -10.302,25.695 -24.127,31.33c-52.089,21.16 -115.65,30.985 -189.35,33.386c-101.714,3.276 -217.25,-14.965 -305.06,-17.532c-68.687,-2.128 -122.698,-4.747 -145.612,-5.947c-12.969,-0.673 -24.232,-9.321 -28.149,-21.775c-4.18,-13.127 -9.786,-39.576 -9.786,-54.527c0,-67.936 14.691,-94.48 14.691,-94.48c2.737,-5.179 8.365,-7.852 13.852,-7.085Zm6.948,28.403c-3.421,11.379 -8.407,34.586 -8.407,73.162c-0,12.708 4.956,35.154 8.523,46.356c0.521,1.658 2.011,2.81 3.738,2.9c22.829,1.195 76.626,3.803 145.017,5.922c87.309,2.552 202.212,20.792 303.368,17.534c70.049,-2.282 130.522,-11.296 180.019,-31.403c2.01,-0.819 3.924,-1.817 5.454,-3.143c0.943,-0.818 1.797,-1.758 1.797,-3.101l0,-0.327c0,-3.996 -2.47,-7.595 -6.19,-8.993l-119.273,-44.766c-18.762,5.518 -90.928,24.095 -177.369,12.347c-87.209,-11.852 -293.496,-56.961 -336.677,-66.488Z" style="fill:#1c1d20;"/></g></svg>