<?xml version="1.0" encoding="UTF-8" standalone="no"?><!DOCTYPE svg PUBLIC "-//W3C//DTD SVG 1.1//EN" "http://www.w3.org/Graphics/SVG/1.1/DTD/svg11.dtd"><svg width="100%" height="100%" viewBox="0 0 3125 3125" version="1.1" xmlns="http://www.w3.org/2000/svg" xmlns:xlink="http://www.w3.org/1999/xlink" xml:space="preserve" xmlns:serif="http://www.serif.com/" style="fill-rule:evenodd;clip-rule:evenodd;stroke-linejoin:round;stroke-miterlimit:2;"><path d="M1000.2,929.233c0,0 194.813,1.454 434.154,-92.521c240.434,-94.475 364.009,-195.925 364.009,-195.925c12.558,-10.395 28.996,-14.85 45.083,-12.22c16.088,2.629 30.254,12.087 38.846,25.941c-0,0 85.437,137.859 134.637,245.154c5.985,13.104 11.531,25.348 16.659,36.956c8.522,-9.77 20.427,-16.67 34.241,-18.714c78.775,-11.65 186.034,-34.766 304.034,-81.191c240.429,-94.475 364.008,-195.925 364.008,-195.925c12.558,-10.396 28.996,-14.85 45.083,-12.221c16.088,2.629 30.255,12.087 38.846,25.941c0,0 85.438,137.859 134.638,245.155c51.908,113.65 70.733,162.575 70.733,289.62c-0,126.159 -65.825,215.592 -157.842,282.667c-80.904,58.975 -182.754,99.863 -267.633,136.229c-164.213,70.4 -323.629,250.879 -412.758,401.179c-60.384,101.525 -171.725,228.45 -273.475,298.467c-99.725,68.55 -320.413,166.967 -511.534,185.988c-144.758,14.404 -272,-18.655 -336.221,-121.167c-23.281,-37.247 -33.24,-75.343 -27.445,-113.516c-20.831,18.102 -41.765,34.559 -62.309,48.695c-99.725,68.554 -320.412,166.967 -511.533,185.988c-144.758,14.404 -272,-18.655 -336.221,-121.167c-36.45,-58.321 -40.267,-118.708 -2.067,-177.9c10.2,-15.813 39.542,-41.888 80.288,-69.879c75.408,-51.804 193.512,-119.6 245.833,-155.2c67.167,-45.704 154.934,-116.35 179.134,-161.984c25.729,-48.683 80.47,-166.541 100.587,-229.475c20.95,-66.337 84.188,-252.933 114.313,-334.366c22.17,-59.388 63.633,-182.009 100.654,-278.413c8.45,-22.008 29.687,-36.441 53.258,-36.196Zm1755,-163.154c-61.279,41.45 -175.813,110.338 -342.038,175.654c-127.608,50.205 -243.616,75.205 -328.82,87.805c-5.185,0.766 -10.311,0.8 -15.273,0.178c13.141,45.41 18.598,91.166 18.598,159.567c-0,126.159 -65.825,215.592 -157.842,282.667c-48.809,35.58 -105.243,64.576 -160.976,89.967c10.247,14.056 13.886,32.641 8.188,50.462c-21.779,68.138 -80.591,195.484 -108.404,248.104c-29.658,55.925 -133.196,146.559 -215.387,202.484c-52.234,35.537 -170.15,103.204 -245.5,154.925c-23.946,16.437 -43.538,28.904 -49.367,37.871c-12.175,19.016 -8.683,38.341 2.996,57.025c43.012,68.662 132.379,78.387 229.383,68.733c171.396,-17.059 369.35,-105.213 458.759,-166.675c89.583,-61.646 187.262,-173.767 240.395,-263.108c99.913,-168.488 281.163,-368.325 465.334,-447.284c77.737,-33.304 171.529,-69.691 245.612,-123.691c62.971,-45.905 111.467,-105.142 111.467,-191.48c-0,-106.608 -16.971,-147.37 -60.496,-242.662c-28.108,-61.296 -68.741,-133.113 -96.629,-180.542Zm-937.508,0c-61.284,41.45 -175.825,110.342 -342.075,175.671c-194.663,76.433 -362.613,94.675 -436.492,98.992c-33.179,89.091 -67.617,190.341 -87.058,242.412c-29.596,80.013 -91.85,263.725 -112.538,329.225c-21.779,68.138 -80.592,195.483 -108.404,248.104c-29.658,55.925 -133.196,146.559 -215.388,202.484c-52.229,35.537 -170.137,103.195 -245.412,154.912c-23.858,16.392 -43.392,28.788 -49.367,38.05c-12.237,18.958 -8.733,38.229 2.909,56.858c43.012,68.663 132.379,78.388 229.383,68.734c171.396,-17.059 369.35,-105.213 458.758,-166.675c89.588,-61.646 187.259,-173.767 240.4,-263.109c99.913,-168.491 280.971,-368.329 465.329,-447.283c77.738,-33.304 171.534,-69.692 245.613,-123.692c62.975,-45.908 111.471,-105.141 111.471,-191.479c-0,-106.608 -16.979,-147.371 -60.5,-242.662c-28.104,-61.296 -68.742,-133.113 -96.629,-180.542Zm-159.408,843.792c-163.012,71.566 -320.43,250.379 -408.851,399.491c-15.772,26.518 -35.021,54.768 -56.679,83.3c70.682,-45.132 155.028,-94.43 197.008,-122.995c67.171,-45.705 154.938,-116.35 179.138,-161.984c21.852,-41.346 64.631,-132.59 89.384,-197.812Z"/></svg>