<?xml version="1.0" encoding="UTF-8" standalone="no"?><!DOCTYPE svg PUBLIC "-//W3C//DTD SVG 1.1//EN" "http://www.w3.org/Graphics/SVG/1.1/DTD/svg11.dtd"><svg width="100%" height="100%" viewBox="0 0 13021 13021" version="1.1" xmlns="http://www.w3.org/2000/svg" xmlns:xlink="http://www.w3.org/1999/xlink" xml:space="preserve" xmlns:serif="http://www.serif.com/" style="fill-rule:evenodd;clip-rule:evenodd;stroke-linejoin:round;stroke-miterlimit:2;"><path d="M3213.37,12549.2l8.958,2.637c-317.221,-81.079 -444.442,-465.937 -238.663,-721.375c154.309,-192.896 482.588,-617.375 554.101,-936.371c101.908,-456.579 112.324,-1121.84 155.224,-1550.94c45.417,-454.15 167.325,-684.879 311.476,-1159.2c137.654,-450.834 190.97,-1308.28 377.899,-2321.91c132.325,-718.579 267.134,-3789.08 339.042,-5222.75c3.179,-63.229 31.721,-122.5 79.167,-164.425c47.433,-41.912 109.775,-62.916 172.916,-58.266l2187.59,161.079c16.512,1.212 32.85,4.183 48.733,8.817l18.438,5.4c107.033,31.304 177.346,133.491 168.333,244.654c0,-0 -197.029,2428.65 -266.108,3069.62c-86.234,796.042 -502.571,1590.7 -834.604,2389.53c-301.005,724.183 -534.809,1452.1 -287.167,2196.28c70.554,213.004 205.396,388.088 282.254,568.871c107.675,253.3 137.083,513.508 -79.721,839.392c-85.746,128.787 -225.712,244.391 -383.716,350.766c-178.609,120.259 -384.825,227.288 -502.846,359.546c-141.284,158.038 -206.963,355.763 -280.104,551.25c-168.959,449.513 -400.713,858.196 -765.055,1172.71c-403.125,349.325 -766.041,286.995 -1047.03,219.533l-8.596,-2.275c-3.658,-0.821 -7.266,-1.692 -10.52,-2.567l-7.167,-2.104c2.042,0.683 4.483,1.396 7.167,2.104l-0,-0.012Zm2758.33,4.683l-9.583,-2.05c-317.255,-81.075 -444.442,-465.938 -238.68,-721.371c154.325,-192.9 482.588,-617.379 554.096,-936.371c101.913,-456.579 112.329,-1121.84 155.246,-1550.94c45.434,-454.271 167.342,-685.05 312.046,-1158.9c137.017,-450.888 190.367,-1308.44 377.329,-2322.21c132.309,-718.575 267.117,-3789.08 339.042,-5222.75c3.179,-63.229 31.704,-122.5 79.15,-164.429c47.45,-41.908 109.792,-62.917 172.917,-58.262l2187.6,161.075c16.512,1.216 32.85,4.187 48.733,8.82l18.421,5.4c107.033,31.3 177.346,133.488 168.333,244.655c0,-0 -197.012,2428.64 -266.112,3069.62c-86.23,796.042 -502.396,1590.67 -834.338,2389.51c-300.937,724.221 -534.725,1452.17 -287.412,2196.3c70.554,213.004 205.379,388.087 282.237,568.871c107.675,253.3 137.084,513.508 -79.704,839.391c-85.746,128.784 -225.729,244.392 -383.733,350.763c-178.592,120.262 -384.825,227.292 -502.517,359.187c-140.8,158.159 -207.221,355.988 -280.433,551.613c-168.975,449.583 -400.088,858.3 -765.055,1172.71c-403.125,349.325 -766.041,286.996 -1047.03,219.534l-0.558,-0.159l-0,-0.008Zm-637.938,-11175.5c-41.95,38.913 -98.116,62.721 -159.804,62.721c-7.137,0 -14.2,-0.317 -21.179,-0.942c-77.562,1577.37 -194.812,3892.44 -308.004,4507.12c-191.179,1036.7 -249.825,1912.95 -390.538,2373.7c-133.058,437.884 -251.425,649.463 -293.387,1068.97c-44.442,444.584 -58.592,1133.51 -164.233,1606.79c-82.834,369.496 -438.875,865.796 -628.959,1106.12c164.634,38.767 374.667,74.983 604.271,-123.975c304.233,-262.637 491.542,-607.5 632.375,-982.204c93.508,-249.863 188.925,-497.154 369.671,-699.358c119.725,-134.167 309.117,-254.08 495.729,-373.992c138.179,-88.788 277.275,-174.221 350.104,-283.613c128.421,-193.054 71.617,-339.375 -6.925,-489.237c-83.612,-159.496 -188.196,-322.446 -250.433,-510.346c-284.188,-854.008 -46.338,-1693.51 299.233,-2524.91c314.517,-756.699 719.638,-1505.64 801.304,-2259.58c43.742,-405.779 138.946,-1531.24 202.484,-2297.36c-65.738,-5.696 -123.029,-38.096 -161.854,-85.713c-45.063,41.758 -106.325,65.934 -172.455,62.363c-68.8,-3.725 -129.125,-36.73 -169.516,-86.259c-44.363,41.434 -104.629,65.788 -170.013,63.117c-70.116,-2.854 -131.846,-36.204 -172.916,-86.742c-43.588,40.575 -102.484,64.734 -166.634,62.975c-71.079,-1.962 -133.954,-35.341 -175.691,-86.475c-42.85,40.054 -100.634,64.238 -163.859,63.334c-72.2,-1.046 -136.371,-34.6 -178.771,-86.525l0,0.016Zm2740.16,-0.362c-42.004,39.133 -98.325,63.083 -160.192,63.083c-7.137,0 -14.2,-0.317 -21.179,-0.942c-77.562,1577.36 -194.817,3892.44 -308.004,4507.12c-191.146,1036.58 -249.758,1912.71 -389.95,2374.03c-133.679,437.762 -252.013,649.254 -293.958,1068.66c-44.463,444.583 -58.609,1133.51 -164.255,1606.79c-82.829,369.5 -438.87,865.8 -628.937,1106.13c164.633,38.766 374.667,74.966 604.442,-124.129c304.791,-262.588 491.391,-607.417 632.187,-982.05c93.454,-249.721 189.463,-496.909 369.671,-699.342c119.721,-134.183 309.117,-254.096 495.746,-374.008c138.162,-88.788 277.258,-174.221 350.087,-283.613c128.438,-193.054 71.634,-339.375 -6.925,-489.237c-83.596,-159.496 -188.179,-322.446 -250.454,-510.434c-283.8,-853.975 -45.954,-1693.44 299.496,-2524.81c314.446,-756.7 719.396,-1505.66 801.062,-2259.6c43.738,-405.779 138.946,-1531.24 202.496,-2297.43c-65.6,-5.863 -122.754,-38.342 -161.466,-86.004c-45.113,41.979 -106.525,66.3 -172.838,62.716c-68.8,-3.725 -129.125,-36.729 -169.525,-86.262c-44.367,41.437 -104.637,65.792 -170.021,63.121c-70.108,-2.854 -131.833,-36.204 -172.908,-86.742c-43.571,40.575 -102.479,64.742 -166.642,62.975c-70.908,-1.954 -133.658,-35.183 -175.391,-86.104c-42.725,39.758 -100.238,63.787 -163.167,62.962c-72.488,-0.95 -136.925,-34.683 -179.375,-86.887l-0,-0.004Zm-1995.37,10718.4l-1.041,-0.379c-6.65,-1.666 -18.192,-3.716 -18.192,-3.716c-0,-0 8.954,1.737 19.233,4.095Z"/></svg>