<?xml version="1.0" encoding="UTF-8" standalone="no"?><!DOCTYPE svg PUBLIC "-//W3C//DTD SVG 1.1//EN" "http://www.w3.org/Graphics/SVG/1.1/DTD/svg11.dtd"><svg width="100%" height="100%" viewBox="0 0 3125 3125" version="1.1" xmlns="http://www.w3.org/2000/svg" xmlns:xlink="http://www.w3.org/1999/xlink" xml:space="preserve" xmlns:serif="http://www.serif.com/" style="fill-rule:evenodd;clip-rule:evenodd;stroke-linejoin:round;stroke-miterlimit:2;"><path d="M860.342,2508.6c-110.561,46.052 -240.266,85.748 -359.592,97.632c-159.283,15.867 -299.513,-19.804 -370.05,-132.662c-39.338,-62.946 -43.808,-128.125 -2.583,-192.008c11.175,-17.317 43.479,-45.713 88.141,-76.376c84.517,-58.02 216.9,-133.945 275.496,-173.816c76.158,-51.821 175.225,-132.196 202.663,-183.738c29.129,-54.933 90.65,-187.412 113.166,-258.512c23.659,-74 94.409,-282.979 128.013,-373.604c33.775,-91.517 108.454,-314.575 155.717,-415.855c45.945,-98.662 153.912,-493.037 153.912,-493.037c8.037,-29.221 37.717,-46.875 67.229,-39.988c0,0.001 224.563,52.567 375.617,62.455c151.787,9.725 383.912,-6.875 383.912,-6.875c15.621,-1.109 30.996,4.321 42.454,14.996c11.459,10.67 17.967,25.629 17.967,41.287c0,0 -0.027,134.372 2.904,199.194c11.709,-19.614 34.743,-30.927 58.534,-26.615c66.875,12.121 142.933,23.908 206.412,27.888c151.738,9.933 383.779,-6.875 383.779,-6.875c15.629,-1.121 31.021,4.3 42.488,14.975c11.471,10.675 17.987,25.637 17.987,41.304c0,-0 -0.029,141.812 3.15,204.346c3.2,58.987 49.096,138.587 98.7,247.2c57.634,126.425 78.817,180.504 78.817,321.571c-0,138.92 -72.692,237.287 -174.021,311.15c-90.217,65.766 -203.817,111.295 -298.441,151.833c-185.38,79.591 -365.088,282.954 -465.726,452.121c-67.204,113.22 -191.095,254.291 -304.183,332.262c-111.216,76.363 -357.096,186.05 -569.95,207.25c-159.283,15.867 -299.512,-19.804 -369.983,-132.554c-39.363,-62.667 -43.9,-128.196 -2.65,-192.112c4.058,-6.292 10.906,-14.046 20.121,-22.837Zm1293.17,-1854.38c18.458,48.086 48.834,105.95 80.744,175.821c57.634,126.425 78.817,180.504 78.817,321.571c-0,138.921 -72.692,237.287 -174.021,311.15c-90.212,65.762 -203.817,111.291 -298.492,151.85c-90.216,38.636 -179.085,106.688 -258.13,185.851c2.671,0.433 5.342,1.064 7.997,1.903c29.696,9.375 46.192,41.096 36.812,70.792c-24.1,76.316 -89.783,218.3 -121.02,277.212c-32.909,62.054 -147.763,162.404 -238.88,224.167c-58.508,39.812 -190.712,115.612 -275.108,173.554c-27.754,19.05 -50.242,33.754 -57.187,44.525c-15.242,23.616 -11.155,47.75 3.454,71.012c49.366,78.984 151.7,91.284 263.175,80.179c193.166,-19.237 416.329,-118.691 517.166,-187.925c100.875,-69.554 211.113,-195.82 271.142,-296.945c111.471,-187.38 312.929,-410.025 518.254,-498.184c87.509,-37.487 193.054,-78.521 276.446,-139.308c72.283,-52.692 127.646,-120.862 127.646,-219.962c-0,-120.667 -19.346,-166.621 -68.629,-274.726c-57.35,-125.566 -105.017,-219.716 -108.729,-288.125c-1.909,-37.499 -2.717,-102.504 -3.046,-150.333c-81.759,4.408 -230.2,10.396 -338.884,3.279c-67.329,-4.221 -148.22,-16.579 -219.32,-29.466c-7.409,-1.343 -14.218,-4.08 -20.207,-7.892Zm-813.943,-266.096c-31.95,113.125 -108.8,379.383 -145.975,459.217c-46.284,99.179 -119.067,317.654 -152.159,407.321c-33.196,89.525 -103.012,295.779 -126.312,368.67c-24.096,76.08 -89.775,218.263 -121.05,277.242c-32.892,61.783 -147.684,162.071 -238.834,224.088c-58.512,39.812 -190.716,115.616 -275.112,173.554c-27.754,19.054 -50.242,33.758 -57.188,44.525c-15.266,23.654 -11.108,47.708 3.459,71.012c49.362,78.988 151.696,91.288 263.171,80.184c193.166,-19.242 416.333,-118.692 517.166,-187.925c100.854,-69.542 211.288,-195.771 271.142,-296.946c111.479,-187.392 312.967,-410.271 518.254,-498.184c87.508,-37.491 193.054,-78.52 276.446,-139.312c72.283,-52.692 127.65,-120.858 127.65,-219.958c-0,-120.667 -19.35,-166.621 -68.633,-274.725c-57.35,-125.567 -105.017,-219.721 -108.73,-288.13c-1.908,-37.512 -2.712,-102.55 -3.041,-150.375c-81.746,4.359 -230.217,10.288 -339.042,3.313c-112.05,-7.333 -262.621,-36.879 -341.212,-53.571Zm162.165,1500.74c-49.466,59.105 -92.686,120.424 -126.807,177.776c-38.987,65.906 -97.329,141.252 -161.601,208.111c74.644,-51.631 166.849,-127.572 193.193,-177.249c23.215,-43.78 67.014,-136.691 95.215,-208.638Z"/></svg>