<?xml version="1.0" encoding="UTF-8" standalone="no"?><!DOCTYPE svg PUBLIC "-//W3C//DTD SVG 1.1//EN" "http://www.w3.org/Graphics/SVG/1.1/DTD/svg11.dtd"><svg width="100%" height="100%" viewBox="0 0 3125 3125" version="1.1" xmlns="http://www.w3.org/2000/svg" xmlns:xlink="http://www.w3.org/1999/xlink" xml:space="preserve" xmlns:serif="http://www.serif.com/" style="fill-rule:evenodd;clip-rule:evenodd;stroke-linejoin:round;stroke-miterlimit:2;"><path d="M999.821,577.207c-11.279,-19.807 -17.733,-42.688 -17.733,-67.007l-0,-274.133c-0,-74.942 61.299,-136.242 136.241,-136.242l888.363,-0c74.937,-0 136.237,61.3 136.237,136.242l0,274.133c0,24.319 -6.455,47.2 -17.736,67.012l319.053,137.38c91.517,39.391 158.362,120.558 179.487,217.933l388.734,1791.23c6.308,29.054 -11.017,58.021 -39.6,66.208l-377.284,108.075c-14.77,4.23 -30.625,2.255 -43.908,-5.466c-13.279,-7.725 -22.837,-20.534 -26.462,-35.463l-182.771,-752.741l-0,864.387c-0,31.163 -25.263,56.425 -56.425,56.425l-1447.01,0c-31.162,0 -56.425,-25.262 -56.425,-56.425l0,-864.387l-182.775,752.741c-3.625,14.929 -13.179,27.738 -26.462,35.459c-13.28,7.725 -29.134,9.7 -43.905,5.47l-377.304,-108.075c-28.583,-8.187 -45.908,-37.154 -39.6,-66.208c0,0 388.734,-1791.23 388.734,-1791.22c21.12,-97.379 87.991,-178.541 179.483,-217.933l319.071,-137.389Zm1000.8,69.231l-876.25,-0l-399,171.804c-58.021,24.983 -100.429,76.454 -113.829,138.212l-377.525,1739.58l269.991,77.338l280.159,-1153.82c6.741,-27.763 33.171,-46.104 61.537,-42.713c28.367,3.396 49.717,27.459 49.717,56.025l-0,1279.47l1334.17,0l-0,-1279.47c-0,-28.566 21.354,-52.629 49.72,-56.025c28.367,-3.391 54.792,14.95 61.534,42.713l280.162,1153.82l269.971,-77.334l-377.525,-1739.58c-13.4,-61.758 -55.791,-113.229 -113.825,-138.208l-399.004,-171.808Zm29.458,-410.371c0,-12.867 -10.525,-23.392 -23.391,-23.392l-888.363,0c-12.866,0 -23.391,10.525 -23.391,23.392l-0,274.133c-0,12.867 10.525,23.392 23.391,23.392l888.363,-0c12.866,-0 23.391,-10.525 23.391,-23.392l0,-274.133Z"/></svg>