<?xml version="1.0" encoding="UTF-8" standalone="no"?><!DOCTYPE svg PUBLIC "-//W3C//DTD SVG 1.1//EN" "http://www.w3.org/Graphics/SVG/1.1/DTD/svg11.dtd"><svg width="100%" height="100%" viewBox="0 0 750 750" version="1.1" xmlns="http://www.w3.org/2000/svg" xmlns:xlink="http://www.w3.org/1999/xlink" xml:space="preserve" xmlns:serif="http://www.serif.com/" style="fill-rule:evenodd;clip-rule:evenodd;stroke-linejoin:round;stroke-miterlimit:2;"><g id="sweater"><path d="M185.097,436.781l-36.543,176.141c-6.119,32.492 -36.906,51.596 -68.322,42.599c-0.003,-0.001 -0.006,-0.002 -0.009,-0.003c-0,-0 -6.233,-1.79 -6.225,-1.788c-30.066,-8.614 -50.067,-41.07 -44.357,-72.189c0.01,-0.053 0.02,-0.105 0.03,-0.157c-0,-0 83.793,-428.177 86.841,-444.783c2.512,-13.672 8.541,-27.686 15.725,-38.06c5.678,-8.199 12.251,-14.184 18.343,-17.145c8.934,-4.337 71.029,-34.976 101.845,-47.066c9.948,-3.903 17.529,-5.774 20.727,-5.774l204.105,-0c3.199,-0 10.78,1.871 20.728,5.774c30.82,12.09 92.916,42.73 101.85,47.069c4.859,2.362 10.19,6.953 15.096,13.578c8.806,11.89 17.029,31.079 20.541,50.2l85.266,436.21l0.029,0.151c5.716,31.12 -14.29,63.577 -44.343,72.19c-0,-0 -6.233,1.79 -6.243,1.793c-31.414,8.996 -62.195,-10.104 -68.277,-42.355l-36.587,-176.369l-0,271.106c-0,7.478 -6.063,13.541 -13.542,13.541l-353.137,0c-7.479,0 -13.541,-6.063 -13.541,-13.541l-0,-271.122Zm291.492,-381.142l-202.769,0c-1.382,0.463 -13.455,4.544 -23.84,9.005c-32.135,13.806 -79.879,37.382 -87.567,41.114c-2.763,1.342 -5.332,4.48 -7.91,8.202c-5.196,7.503 -9.537,17.647 -11.353,27.533c-3.05,16.615 -86.9,445.092 -86.87,444.936c-3.258,17.754 8.024,36.351 25.177,41.265c0.003,0.001 0.006,0.002 0.009,0.003c-0,-0 6.233,1.79 6.223,1.787c15.794,4.523 31.173,-5.239 34.249,-21.575c0.016,-0.081 0.032,-0.163 0.049,-0.244c-0,-0 46.656,-224.899 46.608,-224.657c4.761,-25.255 10.685,-51.503 13.063,-58.346c2.661,-7.657 8.151,-9.095 10.738,-9.587c3.915,-0.744 8.083,-0.13 11.942,3.452c1.146,1.064 4.319,5.214 5.335,12.78c1.454,10.821 2.507,37.288 2.507,55.782l-0,307.272l326.054,-0l-0,-307.236c-0,-25.72 0.957,-52.623 2.029,-59.801c1.196,-8.003 6.311,-10.436 8.757,-11.401c3.712,-1.465 7.923,-1.636 12.38,1.164c1.325,0.832 5.221,4.322 7.624,11.577c3.433,10.365 9.369,36.183 12.742,54.102c0,0 46.656,224.899 46.704,225.139c3.082,16.337 18.458,26.103 34.245,21.582c-0,-0 6.233,-1.79 6.24,-1.792c17.138,-4.912 28.419,-23.484 25.181,-41.228l-85.273,-436.245c-2.377,-12.943 -7.323,-25.888 -13.045,-35.183c-2.668,-4.333 -5.092,-7.955 -7.818,-9.279c-7.69,-3.735 -55.432,-27.31 -87.568,-41.115c-10.387,-4.462 -22.463,-8.544 -23.843,-9.006Z" style="fill:#1c1d20;"/><path d="M87.077,662.442l8.203,-24.573c2.366,-7.089 10.043,-10.924 17.132,-8.557c7.09,2.366 10.924,10.043 8.557,17.133l-12.524,37.52c-1.143,3.424 -3.606,6.25 -6.842,7.851c-3.236,1.6 -6.977,1.842 -10.393,0.672l-58.099,-19.907c-7.036,-2.411 -10.811,-10.044 -8.456,-17.099l13.175,-39.464c2.366,-7.09 10.043,-10.924 17.132,-8.557c7.09,2.366 10.924,10.043 8.557,17.133l-8.92,26.72l32.478,11.128Z" style="fill:#1c1d20;"/><path d="M695.4,651.315l-8.923,-26.72c-2.368,-7.089 1.466,-14.766 8.555,-17.134c7.089,-2.367 14.766,1.466 17.133,8.555l13.179,39.465c2.356,7.055 -1.419,14.689 -8.455,17.1l-58.099,19.907c-3.416,1.17 -7.157,0.928 -10.393,-0.672c-3.235,-1.601 -5.699,-4.427 -6.842,-7.851l-12.525,-37.52c-2.366,-7.09 1.468,-14.767 8.557,-17.133c7.09,-2.367 14.767,1.468 17.133,8.557l8.203,24.573l32.477,-11.127Z" style="fill:#1c1d20;"/><path d="M464.115,42.097c0,49.796 -39.754,90.252 -88.911,90.252c-49.152,-0 -88.91,-40.456 -88.91,-90.252c-0,-7.473 -6.068,-13.541 -13.542,-13.541c-7.474,-0 -13.542,6.068 -13.542,13.541c0,64.851 51.982,117.335 115.994,117.335c64.018,0 115.995,-52.484 115.995,-117.335c-0,-7.473 -6.068,-13.541 -13.542,-13.541c-7.474,-0 -13.542,6.068 -13.542,13.541Z" style="fill:#1c1d20;"/></g></svg>