<!-- Generated by IcoMoon.io -->
<svg version="1.1" xmlns="http://www.w3.org/2000/svg" width="1024" height="1024" viewBox="0 0 1024 1024">
<title>clock-2</title>
<g id="icomoon-ignore">
</g>
<path d="M957.654 459.732c3.412 6.613 2.986 14.508-0.854 20.908-3.84 6.186-10.668 10.025-18.135 10.025h-32v234.668c0 11.732-9.6 21.332-21.332 21.332h-85.334c-11.732 0-21.334-9.6-21.334-21.332v-234.668h-533.332v234.668c0 11.732-9.602 21.332-21.334 21.332h-85.334c-11.732 0-21.332-9.6-21.332-21.332v-234.668h-32c-7.467 0-14.295-3.84-18.135-10.24-3.84-6.186-4.266-14.080-0.854-20.693l85.334-170.666c3.627-7.254 10.881-11.732 18.986-11.732h682.668c8.105 0 15.359 4.479 18.986 11.732zM202.666 704v-213.334h-42.666v213.334h42.666zM864 704v-213.334h-42.666v213.334h42.666zM885.334 448h18.773l-64-128h-656.214l-64 128h765.441z"></path>
</svg>
