<?xml version="1.0" encoding="UTF-8" standalone="no"?><!DOCTYPE svg PUBLIC "-//W3C//DTD SVG 1.1//EN" "http://www.w3.org/Graphics/SVG/1.1/DTD/svg11.dtd"><svg width="100%" height="100%" viewBox="0 0 3125 3125" version="1.1" xmlns="http://www.w3.org/2000/svg" xmlns:xlink="http://www.w3.org/1999/xlink" xml:space="preserve" xmlns:serif="http://www.serif.com/" style="fill-rule:evenodd;clip-rule:evenodd;stroke-linejoin:round;stroke-miterlimit:2;"><path d="M1562.49,784.683c200.137,-3.345 361.833,-163.358 361.833,-361.095l0,-267.338c0,-16.221 6.979,-31.658 19.162,-42.371c12.18,-10.712 28.384,-15.662 44.471,-13.591l356.738,45.962c17.108,2.204 32.267,12.113 41.15,26.9c8.887,14.788 10.521,32.825 4.433,48.967c-55.171,146.354 -69.942,300.571 -32.421,541.616c38.155,245.159 124.663,312.775 224.209,434.184c8.271,10.087 12.791,22.729 12.791,35.775l0,1735.06c0,31.163 -25.262,56.425 -56.425,56.425l-1951.87,0c-31.163,0 -56.425,-25.262 -56.425,-56.425l-0,-1735.06c-0,-13.046 4.52,-25.688 12.791,-35.775c99.546,-121.409 186.054,-189.025 224.209,-434.184c37.52,-241.045 22.75,-395.262 -32.421,-541.616c-6.088,-16.142 -4.454,-34.179 4.429,-48.967c8.887,-14.787 24.046,-24.696 41.154,-26.9l356.721,-45.963c16.087,-2.07 32.287,2.88 44.471,13.592c12.179,10.713 19.162,26.15 19.162,42.371l0,267.338c0,197.737 161.692,357.749 361.834,361.095Zm474.679,-564.275l-0,203.18c-0,259.308 -211.288,470.133 -473.859,473.954l-1.641,-0c-262.575,-3.821 -473.859,-214.646 -473.859,-473.954l0,-203.18l-224.925,28.984c42.455,143.141 51.58,301.579 15.759,531.696c-41.142,264.345 -129.675,346.008 -235.659,472.941l0,1658.3l1839.03,0l0,-1658.3c-105.983,-126.933 -194.516,-208.596 -235.658,-472.941c-35.821,-230.117 -26.696,-388.555 15.758,-531.696l-224.941,-28.984Z"/></svg>