<?xml version="1.0" encoding="UTF-8" standalone="no"?><!DOCTYPE svg PUBLIC "-//W3C//DTD SVG 1.1//EN" "http://www.w3.org/Graphics/SVG/1.1/DTD/svg11.dtd"><svg width="100%" height="100%" viewBox="0 0 750 750" version="1.1" xmlns="http://www.w3.org/2000/svg" xmlns:xlink="http://www.w3.org/1999/xlink" xml:space="preserve" xmlns:serif="http://www.serif.com/" style="fill-rule:evenodd;clip-rule:evenodd;stroke-linejoin:round;stroke-miterlimit:2;"><g id="tent"><path id="Shape" d="M39.149,543.997c1.845,3.049 5.025,5.043 8.572,5.377c1.193,0.112 119.711,12.15 182.902,107.504c2.092,3.128 5.609,5.002 9.371,4.995l191.249,0c-0,12.427 10.073,22.5 22.5,22.5l33.75,0c12.426,0 22.499,-10.073 22.499,-22.5l191.249,0c3.736,0.003 7.23,-1.849 9.324,-4.942c2.095,-3.093 2.517,-7.025 1.128,-10.493l-201.701,-504.233l0,-37.203c0,-21.747 -17.628,-39.375 -39.374,-39.375c-21.746,-0 -39.375,17.628 -39.375,39.375l-0,32.501c-63,31.634 -132.053,49.384 -202.499,52.053l0,-33.93c-0.092,-18.601 -15.149,-33.657 -33.75,-33.75c-18.639,0 -33.749,15.111 -33.749,33.75l-0,70.942l-122.951,307.371c-1.305,3.302 -0.989,7.024 0.855,10.058Zm470.843,58.702l117.472,36.674l-117.472,0l0,-36.674Zm172.023,30.127l-172.023,-53.696l0,-376.333l172.023,430.029Zm-228.272,-527.824c-0,-9.32 7.555,-16.875 16.875,-16.875c9.319,-0 16.875,7.555 16.875,16.875l-0,556.871l-33.75,0l-0,-556.871Zm-197.133,534.371l41.231,-103.06l133.402,41.692l-0,61.368l-174.633,0Zm174.633,-84.937l-125.021,-39.071l125.021,-312.568l-0,351.639Zm-236.249,-410.06c3.032,-0.009 5.931,1.237 8.01,3.443c2.1,2.052 3.27,4.872 3.24,7.807l0,34.436l-6.997,0c-5.37,-0.081 -10.682,1.111 -15.503,3.477l0,-37.913c0,-6.213 5.037,-11.25 11.25,-11.25Zm-6.75,75.206c1.617,-4.397 5.883,-7.25 10.564,-7.065c76.463,1.166 152.281,-14.131 222.31,-44.853l-184.004,459.875c-56.542,-71.145 -139.15,-92.542 -172.619,-98.505l123.749,-309.452Z" style="fill-rule:nonzero;"/><path d="M430.201,136.859l0,-31.857c0,-22.322 18.095,-40.417 40.417,-40.417c22.321,0 40.416,18.095 40.416,40.417l0,37.002l201.625,504.047c1.519,3.789 1.057,8.084 -1.231,11.464c-2.289,3.38 -6.106,5.403 -10.187,5.4l-190.23,-0c-0.544,12.517 -10.865,22.5 -23.518,22.5c-0,-0 -33.75,-0 -33.75,-0c-12.653,-0 -22.975,-9.983 -23.519,-22.5l-190.228,-0c-4.111,0.007 -7.953,-2.041 -10.241,-5.461c-62.924,-94.951 -180.944,-106.931 -182.131,-107.043c-3.876,-0.364 -7.35,-2.544 -9.366,-5.874c-2.012,-3.313 -2.357,-7.376 -0.933,-10.981c0.001,-0.001 0.001,-0.002 0.002,-0.004l122.876,-307.184l-0,-70.742c-0,-19.215 15.577,-34.791 34.797,-34.791c19.172,0.095 34.691,15.614 34.786,34.786l-0,32.851c69.701,-2.792 138.019,-20.384 200.415,-51.613Zm-390.162,406.597c-1.674,-2.756 -1.961,-6.136 -0.776,-9.134c-0.002,0.004 122.949,-307.367 122.949,-307.367c0.049,-0.123 0.074,-0.254 0.074,-0.387l0,-70.942c0,-18.064 14.644,-32.708 32.708,-32.708c18.025,0.09 32.619,14.684 32.708,32.713c0,-0.005 0,33.925 0,33.925c0,0.283 0.116,0.554 0.32,0.75c0.204,0.197 0.479,0.302 0.762,0.291c70.594,-2.674 139.793,-20.462 202.926,-52.163l0.575,-0.931l-0,-32.501c-0,-21.171 17.162,-38.334 38.333,-38.334c21.171,0 38.333,17.163 38.333,38.334l-0,37.203c-0,0.133 0.025,0.264 0.074,0.387l201.701,504.234c1.261,3.147 0.877,6.714 -1.023,9.521c-1.901,2.807 -5.071,4.487 -8.461,4.485c-0.001,-0 -191.25,-0 -191.25,-0c-0.575,-0 -1.041,0.466 -1.041,1.041c-0,11.851 -9.607,21.459 -21.458,21.459l-33.75,-0c-11.851,-0 -21.458,-9.608 -21.458,-21.459c-0,-0.575 -0.467,-1.041 -1.042,-1.041l-191.251,-0c-3.414,0.006 -6.605,-1.695 -8.503,-4.533c-63.456,-95.754 -182.472,-107.849 -183.67,-107.962c-3.219,-0.303 -6.105,-2.113 -7.779,-4.88l-0.001,-0.001Zm412.662,-438.454l0,556.871c0,0.576 0.467,1.042 1.042,1.042l33.75,-0c0.575,-0 1.041,-0.466 1.041,-1.042l0,-556.871c0,-9.895 -8.021,-17.917 -17.916,-17.917c-9.895,0 -17.917,8.022 -17.917,17.917Zm33.75,555.83l-0,-555.83c-0,-8.745 -7.089,-15.834 -15.833,-15.834c-8.745,0 -15.834,7.089 -15.834,15.834l0,555.83l31.667,-0Zm23.852,-59.128c-0.316,-0.098 -0.661,-0.041 -0.928,0.155c-0.267,0.197 -0.424,0.508 -0.424,0.84l-0,36.674c-0,0.576 0.466,1.042 1.041,1.042l117.472,0c0.515,0 0.953,-0.376 1.03,-0.885c0.078,-0.508 -0.228,-0.997 -0.719,-1.151l-117.472,-36.675Zm-254.66,37.283c-0.128,0.32 -0.089,0.684 0.105,0.97c0.193,0.287 0.517,0.458 0.862,0.458l174.633,0c0.575,0 1.042,-0.466 1.042,-1.042l-0,-61.368c-0,-0.456 -0.296,-0.858 -0.731,-0.994l-133.402,-41.692c-0.519,-0.163 -1.076,0.102 -1.278,0.607l-41.231,103.061Zm255.391,-0.655l109.598,-0l-109.598,-34.217l0,34.217Zm-252.885,-0l172.052,-0l0,-59.561l-131.751,-41.176l-40.301,100.737Zm423.556,-4.512c0.384,0.12 0.802,0.008 1.075,-0.287c0.273,-0.295 0.352,-0.721 0.202,-1.094l-172.022,-430.029c-0.186,-0.463 -0.674,-0.73 -1.165,-0.636c-0.49,0.095 -0.844,0.524 -0.844,1.023l-0,376.333c-0,0.456 0.296,0.859 0.731,0.994l172.023,53.696Zm-170.671,-55.456l169.2,52.815l-169.2,-422.973l0,370.158Zm-323.759,-359.163c1.778,-4.808 6.45,-7.927 11.549,-7.725c76.313,1.163 151.983,-14.104 221.876,-44.766c0.387,-0.17 0.838,-0.089 1.142,0.205c0.304,0.294 0.4,0.743 0.243,1.136l-184.004,459.874l-1.782,0.262c-56.333,-70.881 -138.642,-92.187 -171.987,-98.127c-0.308,-0.055 -0.575,-0.246 -0.728,-0.52c-0.152,-0.274 -0.172,-0.602 -0.056,-0.893l123.747,-309.446Zm231.934,-49.57c-69.51,30.104 -144.648,45.083 -220.442,43.927c-4.229,-0.167 -8.084,2.411 -9.545,6.384c-0.003,0.009 -0.007,0.018 -0.01,0.027l-123.276,308.267c34.143,6.252 114.865,27.837 170.874,97.258l182.399,-455.863Zm11.723,385.8c0.317,0.099 0.661,0.041 0.928,-0.155c0.267,-0.197 0.425,-0.508 0.425,-0.84l-0,-351.639c-0,-0.499 -0.355,-0.928 -0.845,-1.023c-0.49,-0.094 -0.979,0.173 -1.164,0.636l-125.021,312.569c-0.108,0.269 -0.098,0.571 0.027,0.834c0.124,0.262 0.353,0.46 0.63,0.547l125.02,39.071Zm-123.324,-40.724l122.593,38.313l0,-344.814l-122.593,306.501Zm-269.35,29.829l0.001,0.001l-0.001,-0.001Zm156.735,-401.201c3.311,-0.011 6.479,1.348 8.755,3.754c2.292,2.249 3.57,5.335 3.538,8.537l-0,34.436c-0,0.576 -0.466,1.042 -1.042,1.042c-2.475,-0 -4.871,-0 -7.013,-0c-5.205,-0.079 -10.355,1.076 -15.028,3.37c-0.323,0.158 -0.704,0.139 -1.01,-0.051c-0.305,-0.191 -0.49,-0.525 -0.49,-0.884c-0,-0 -0,-37.913 -0,-37.913c-0,-6.788 5.502,-12.29 12.29,-12.291l-0.002,-0l0.003,-0l-0.001,-0Zm10.21,45.686l-0,-33.405c0.026,-2.652 -1.031,-5.199 -2.927,-7.052l-0.03,-0.031c-1.881,-1.996 -4.505,-3.124 -7.248,-3.115l-0.004,0c-5.638,0 -10.208,4.57 -10.208,10.208l0,36.285c4.56,-1.978 9.493,-2.965 14.461,-2.89l5.956,-0Z"/><path id="Shape1" serif:id="Shape" d="M364.767,235.962c3.871,-1.087 6.867,-4.157 7.861,-8.052c0.993,-3.896 -0.167,-8.026 -3.043,-10.834c-2.877,-2.808 -7.034,-3.869 -10.904,-2.781c-47.211,13.077 -95.904,20.049 -144.888,20.745c-4.543,0.06 -8.604,2.847 -10.294,7.065l-18.63,46.698c-1.493,3.732 -0.882,7.977 1.604,11.136c2.485,3.159 6.467,4.752 10.445,4.179c3.979,-0.573 7.349,-3.224 8.843,-6.956l15.907,-39.78c48.392,-1.303 96.446,-8.496 143.099,-21.42Z" style="fill-rule:nonzero;"/><path d="M222.381,258.404l-15.653,39.145c-1.632,4.077 -5.314,6.974 -9.661,7.6c-4.347,0.626 -8.698,-1.115 -11.413,-4.566c-2.715,-3.452 -3.383,-8.09 -1.752,-12.166c-0,0 18.63,-46.698 18.63,-46.7c1.847,-4.608 6.283,-7.653 11.246,-7.719c48.895,-0.694 97.499,-7.653 144.621,-20.706c4.229,-1.188 8.77,-0.03 11.913,3.039c3.143,3.068 4.411,7.58 3.325,11.836c-1.086,4.256 -4.359,7.61 -8.588,8.798l-0.004,0.001c-46.515,12.886 -94.419,20.084 -142.664,21.438Zm142.105,-23.445c3.512,-0.987 6.231,-3.772 7.132,-7.307c0.902,-3.535 -0.15,-7.282 -2.761,-9.83c-2.61,-2.549 -6.382,-3.511 -9.898,-2.523c-47.297,13.101 -96.078,20.085 -145.152,20.782c-4.123,0.055 -7.807,2.584 -9.34,6.41c-0,-0 -18.63,46.698 -18.63,46.699c-1.355,3.386 -0.801,7.238 1.454,10.105c2.256,2.866 5.869,4.312 9.479,3.792c3.61,-0.52 6.668,-2.926 8.023,-6.312l15.908,-39.78l0.939,-0.654c48.308,-1.301 96.278,-8.481 142.846,-21.382Z"/></g></svg>