<?xml version="1.0" encoding="UTF-8" standalone="no"?><!DOCTYPE svg PUBLIC "-//W3C//DTD SVG 1.1//EN" "http://www.w3.org/Graphics/SVG/1.1/DTD/svg11.dtd"><svg width="100%" height="100%" viewBox="0 0 750 750" version="1.1" xmlns="http://www.w3.org/2000/svg" xmlns:xlink="http://www.w3.org/1999/xlink" xml:space="preserve" xmlns:serif="http://www.serif.com/" style="fill-rule:evenodd;clip-rule:evenodd;stroke-linejoin:round;stroke-miterlimit:2;"><g id="top"><path d="M165.578,349.988c19.985,-6.756 47.03,-29.03 71.534,-62.879c23.452,-32.397 39.66,-99.786 44.342,-126.207c1.304,-7.36 -3.612,-14.393 -10.971,-15.697c-7.36,-1.304 -14.393,3.612 -15.697,10.971c-4.259,24.033 -18.28,85.583 -39.613,115.052c-20.283,28.019 -41.726,47.511 -58.268,53.103c-7.08,2.394 -10.885,10.085 -8.492,17.165c2.394,7.08 10.085,10.885 17.165,8.492Z" style="fill:#1c1d20;"/><path d="M254.609,158.208c-0.65,26.608 10.553,70.522 32.731,118.758c16.115,35.07 51.263,77.492 77.747,106.019c5.085,5.477 13.661,5.795 19.138,0.71c5.477,-5.085 5.796,-13.66 0.71,-19.137c-24.76,-26.671 -57.92,-66.113 -72.987,-98.903c-19.983,-43.463 -30.849,-82.812 -30.263,-106.785c0.182,-7.472 -5.736,-13.686 -13.207,-13.869c-7.472,-0.182 -13.686,5.735 -13.869,13.207Z" style="fill:#1c1d20;"/><path d="M468.32,158.867c0.581,23.974 -10.285,63.325 -30.263,106.786c-15.072,32.787 -48.218,72.221 -72.98,98.897c-5.084,5.477 -4.765,14.053 0.713,19.137c5.477,5.085 14.053,4.766 19.137,-0.712c26.484,-28.531 61.618,-70.943 77.738,-106.01c22.172,-48.235 33.376,-92.147 32.73,-118.754c-0.181,-7.472 -6.394,-13.391 -13.866,-13.21c-7.471,0.181 -13.39,6.394 -13.209,13.866Z" style="fill:#1c1d20;"/><path d="M531.433,698.958c-2.492,-107.241 3.632,-273.012 44.922,-367.234c3,-6.845 10.993,-9.967 17.839,-6.968c6.845,3 9.967,10.993 6.967,17.839c-41.79,95.362 -45.522,266.462 -42.285,369.48c0.115,3.663 -1.26,7.217 -3.81,9.849c-2.551,2.632 -6.06,4.118 -9.725,4.118l-340.682,-0c-3.665,-0 -7.174,-1.486 -9.725,-4.118c-2.551,-2.633 -3.925,-6.186 -3.81,-9.85c3.242,-103.017 -0.491,-274.117 -42.285,-369.479c-3,-6.845 0.122,-14.838 6.967,-17.838c6.845,-3 14.838,0.121 17.838,6.967c41.295,94.222 47.42,259.993 44.924,367.234l312.865,0Z" style="fill:#1c1d20;"/><path d="M593.095,324.331c-16.542,-5.592 -37.985,-25.084 -58.268,-53.103c-21.328,-29.469 -35.354,-91.019 -39.613,-115.052c-1.304,-7.359 -8.337,-12.275 -15.696,-10.971c-7.36,1.304 -12.276,8.337 -10.972,15.697c4.682,26.42 20.894,93.809 44.341,126.206c24.505,33.85 51.55,56.124 71.534,62.88c7.081,2.393 14.772,-1.412 17.166,-8.492c2.393,-7.08 -1.412,-14.771 -8.492,-17.165Z" style="fill:#1c1d20;"/><path d="M281.661,158.539l0,-121.039c0,-7.474 -6.067,-13.542 -13.541,-13.542c-7.474,0 -13.542,6.068 -13.542,13.542l0,121.039c0,7.474 6.068,13.541 13.542,13.541c7.474,0 13.541,-6.067 13.541,-13.541Z" style="fill:#1c1d20;"/><path d="M495.422,158.539l0,-121.039c0,-7.474 -6.068,-13.542 -13.542,-13.542c-7.473,0 -13.541,6.068 -13.541,13.542l-0,121.039c-0,7.474 6.068,13.541 13.541,13.541c7.474,0 13.542,-6.067 13.542,-13.541Z" style="fill:#1c1d20;"/><path d="M377.326,360.429l-61.658,-10.695c-7.364,-1.277 -14.379,3.665 -15.656,11.029c-1.278,7.364 3.664,14.379 11.028,15.656l61.657,10.695c7.364,1.277 14.38,-3.665 15.657,-11.029c1.277,-7.364 -3.665,-14.379 -11.028,-15.656Z" style="fill:#1c1d20;"/><path d="M371.211,360.774l-54.352,15.891c-7.174,2.098 -11.295,9.624 -9.197,16.798c2.097,7.173 9.624,11.295 16.797,9.197l54.353,-15.891c7.173,-2.098 11.294,-9.625 9.197,-16.798c-2.097,-7.174 -9.624,-11.295 -16.798,-9.197Z" style="fill:#1c1d20;"/><path d="M377.317,387.114l61.657,-10.695c7.364,-1.277 12.305,-8.292 11.028,-15.656c-1.277,-7.364 -8.293,-12.306 -15.657,-11.029l-61.657,10.695c-7.364,1.277 -12.305,8.292 -11.028,15.656c1.277,7.364 8.293,12.306 15.657,11.029Z" style="fill:#1c1d20;"/><path d="M371.202,386.769l54.352,15.891c7.174,2.098 14.701,-2.024 16.798,-9.197c2.097,-7.174 -2.024,-14.7 -9.197,-16.798l-54.352,-15.891c-7.174,-2.098 -14.701,2.023 -16.798,9.197c-2.098,7.173 2.024,14.7 9.197,16.798Z" style="fill:#1c1d20;"/></g></svg>