<?xml version="1.0" encoding="UTF-8" standalone="no"?><!DOCTYPE svg PUBLIC "-//W3C//DTD SVG 1.1//EN" "http://www.w3.org/Graphics/SVG/1.1/DTD/svg11.dtd"><svg width="100%" height="100%" viewBox="0 0 3125 3125" version="1.1" xmlns="http://www.w3.org/2000/svg" xmlns:xlink="http://www.w3.org/1999/xlink" xml:space="preserve" xmlns:serif="http://www.serif.com/" style="fill-rule:evenodd;clip-rule:evenodd;stroke-linejoin:round;stroke-miterlimit:2;"><path d="M891.888,99.825l1613.06,0c132,0 258.596,52.438 351.933,145.779c93.342,93.338 145.78,219.934 145.78,351.934l-0.001,2371.21c0.001,31.163 -25.262,56.425 -56.425,56.425l-1810.39,0c-31.163,0 -56.425,-25.262 -56.425,-56.425l-0,-436.6l-380.059,0c-31.162,0 -56.42,-25.258 -56.42,-56.421l-0,-1573.9l-464.176,0c-31.162,0 -56.425,-25.258 -56.425,-56.421l0,-360.862c0,-31.159 25.263,-56.421 56.425,-56.421l464.176,-0l-0,-55.983c-0,-142.53 109.497,-259.486 248.949,-271.328l0,-0.989Zm300.38,2482.45l-0,330.048l1697.55,0l-0,-331.35l-193.151,-72.746l-296.566,114.35c-12.863,4.958 -27.096,5.038 -40.013,0.221l-307.746,-114.754l-309.495,114.791c-13.046,4.838 -27.421,4.684 -40.359,-0.429l-289.696,-114.496l-220.52,74.365Zm-0,-370.146l-0,251.057l204.029,-68.805c12.633,-4.262 26.366,-3.912 38.766,0.992l288.8,114.142l308.905,-114.571c12.691,-4.709 26.654,-4.696 39.337,0.033l307.358,114.613l296.663,-114.392c12.925,-4.979 27.225,-5.037 40.187,-0.154l173.5,65.344l0,-249.561l-193.15,-72.746l-296.566,114.35c-12.863,4.963 -27.096,5.042 -40.013,0.225l-307.746,-114.758l-309.495,114.792c-13.046,4.837 -27.421,4.687 -40.359,-0.43l-289.696,-114.495l-220.52,74.364Zm-251.509,-156.381l-184.975,62.378l0,301.176l318.946,0l0,-310.604l-133.971,-52.95Zm198.413,-1843.08c33.137,45.254 52.766,101.012 52.979,161.362l0.117,33.509l-0,1685.5l204.029,-68.805c12.633,-4.262 26.366,-3.908 38.766,0.992l288.8,114.142l308.905,-114.571c12.691,-4.708 26.654,-4.696 39.337,0.033l307.358,114.613l296.663,-114.388c12.925,-4.983 27.225,-5.041 40.187,-0.158l173.5,65.344l0,-1492.71c0,-102.07 -40.545,-199.962 -112.72,-272.141c-72.18,-72.175 -170.071,-112.721 -272.142,-112.721l-1365.78,0Zm-198.413,1472.93l-184.975,62.381l0,251.052l168.479,-56.816c12.634,-4.259 26.371,-3.909 38.771,0.991l111.696,44.148l0,-248.804l-133.971,-52.952Zm-184.975,-783.775l0,727.062l168.479,-56.816c12.634,-4.258 26.371,-3.908 38.771,0.992l111.696,44.145l0,-715.383l-318.946,0Zm323.636,-112.846l0.001,-248.012l-844.233,-0l0,248.012l844.232,0Zm-4.69,-360.858l0,-55.983c0,-88.071 -71.396,-159.467 -159.467,-159.467l-0.012,-0c-88.071,-0 -159.467,71.396 -159.467,159.467l0,55.983l318.946,-0Z"/></svg>