<?xml version="1.0" encoding="UTF-8" standalone="no"?><!DOCTYPE svg PUBLIC "-//W3C//DTD SVG 1.1//EN" "http://www.w3.org/Graphics/SVG/1.1/DTD/svg11.dtd"><svg width="100%" height="100%" viewBox="0 0 750 750" version="1.1" xmlns="http://www.w3.org/2000/svg" xmlns:xlink="http://www.w3.org/1999/xlink" xml:space="preserve" xmlns:serif="http://www.serif.com/" style="fill-rule:evenodd;clip-rule:evenodd;stroke-linejoin:round;stroke-miterlimit:2;"><g id="towel-2"><path d="M214.053,51.042l0,-27.084l387.135,0c31.68,0 62.063,12.585 84.464,34.987c22.402,22.401 34.987,52.784 34.987,84.464l-0,569.091c-0,7.479 -6.063,13.542 -13.542,13.542l-434.495,-0c-7.479,-0 -13.542,-6.063 -13.542,-13.542c0,0 0,-614.689 0.001,-614.642c-0,-0 -0.011,-3.143 -0.028,-7.994c-0.076,-21.463 -17.496,-38.822 -38.959,-38.822l-6.021,-0Zm59.348,-0c7.953,10.861 12.664,24.243 12.715,38.727l0.028,8.042l-0,601.147l407.411,0l0,-555.549c0,-24.497 -9.731,-47.991 -27.053,-65.314c-17.323,-17.322 -40.817,-27.053 -65.314,-27.053l-327.787,-0Z"/><path d="M56.445,129.833l-0,59.523l215.032,-0c7.479,-0 13.541,6.063 13.541,13.542l0,391.277c0,7.479 -6.062,13.541 -13.541,13.541l-103.631,0c-7.479,0 -13.541,-6.062 -13.541,-13.541l-0,-377.736l-111.402,0c-7.479,0 -13.542,-6.062 -13.542,-13.541l0,-86.607c0,-7.478 6.063,-13.541 13.542,-13.541l111.402,-0l-0,-13.436c-0,-36.095 29.26,-65.356 65.355,-65.356l0.003,0c36.095,0 65.355,29.261 65.355,65.356l0,26.977c0,7.479 -6.062,13.542 -13.541,13.542l-215.032,0Zm124.943,86.606l-0,364.194l76.547,0l0,-364.194l-76.547,0Zm76.547,-113.689l0,-13.436c0,-21.137 -17.135,-38.272 -38.272,-38.272l-0.003,-0c-21.137,-0 -38.272,17.135 -38.272,38.272l-0,13.436l76.547,-0Z"/><path d="M413.727,513.449l74.137,-27.497c3.046,-1.13 6.397,-1.127 9.441,0.008l73.766,27.507l71.199,-27.453c3.102,-1.196 6.534,-1.21 9.645,-0.038l51.866,19.534c6.994,2.634 10.534,10.451 7.9,17.445c-2.634,6.995 -10.451,10.534 -17.446,7.9l-47.036,-17.715l-71.176,27.444c-3.087,1.191 -6.503,1.21 -9.603,0.054l-73.859,-27.542l-74.279,27.55c-3.131,1.161 -6.581,1.125 -9.686,-0.103l-69.527,-27.479l-53.229,17.95c-7.082,2.388 -14.771,-1.422 -17.159,-8.504c-2.388,-7.082 1.423,-14.771 8.505,-17.159l57.925,-19.534c3.032,-1.023 6.328,-0.938 9.304,0.238l69.312,27.394Z"/><path d="M413.727,602.284l74.137,-27.497c3.046,-1.13 6.397,-1.127 9.441,0.008l73.766,27.507l71.199,-27.454c3.102,-1.195 6.534,-1.209 9.645,-0.037l51.866,19.534c6.994,2.634 10.534,10.451 7.9,17.445c-2.634,6.994 -10.451,10.534 -17.446,7.9l-47.036,-17.715l-71.176,27.444c-3.087,1.19 -6.503,1.209 -9.603,0.053l-73.859,-27.541l-74.279,27.55c-3.131,1.161 -6.581,1.124 -9.686,-0.103l-69.527,-27.479l-53.229,17.95c-7.082,2.388 -14.771,-1.423 -17.159,-8.505c-2.388,-7.082 1.423,-14.77 8.505,-17.158l57.925,-19.534c3.032,-1.023 6.328,-0.939 9.304,0.238l69.312,27.394Z"/><path d="M225.782,404.545l-53.229,17.951c-7.082,2.388 -14.771,-1.423 -17.159,-8.505c-2.388,-7.082 1.422,-14.77 8.504,-17.159l57.925,-19.534c3.032,-1.022 6.329,-0.938 9.305,0.238l44.832,17.719c6.95,2.748 10.363,10.621 7.616,17.572c-2.747,6.95 -10.621,10.363 -17.571,7.616l-40.223,-15.898Z"/><path d="M225.782,493.38l-53.229,17.95c-7.082,2.389 -14.771,-1.422 -17.159,-8.504c-2.388,-7.082 1.422,-14.771 8.504,-17.159l57.925,-19.534c3.032,-1.022 6.329,-0.938 9.305,0.238l45.916,18.148c6.951,2.747 10.364,10.62 7.616,17.571c-2.747,6.951 -10.62,10.363 -17.571,7.616l-41.307,-16.326Z"/></g></svg>