<?xml version="1.0" encoding="UTF-8" standalone="no"?><!DOCTYPE svg PUBLIC "-//W3C//DTD SVG 1.1//EN" "http://www.w3.org/Graphics/SVG/1.1/DTD/svg11.dtd"><svg width="100%" height="100%" viewBox="0 0 3125 3125" version="1.1" xmlns="http://www.w3.org/2000/svg" xmlns:xlink="http://www.w3.org/1999/xlink" xml:space="preserve" xmlns:serif="http://www.serif.com/" style="fill-rule:evenodd;clip-rule:evenodd;stroke-linejoin:round;stroke-miterlimit:2;"><path d="M891.888,99.825l1613.06,0c132,0 258.596,52.438 351.933,145.779c93.342,93.338 145.78,219.934 145.78,351.934l-0.001,2371.21c0.001,31.163 -25.262,56.425 -56.425,56.425l-1810.39,0c-31.163,0 -56.425,-25.262 -56.425,-56.425l-0,-436.6l-380.059,0c-31.162,0 -56.42,-25.258 -56.42,-56.421l-0,-1573.9l-464.176,0c-31.162,0 -56.425,-25.258 -56.425,-56.421l0,-360.862c0,-31.159 25.263,-56.421 56.425,-56.421l464.176,-0l-0,-55.983c-0,-142.53 109.497,-259.486 248.949,-271.329l0,-0.988Zm1997.93,2705.82l-1697.55,-0l-0,106.679l1697.55,0l-0,-106.679Zm-1697.55,-340.55l-0,227.7l1697.55,-0l-0,-227.7l-1697.55,-0Zm-436.484,-153.375l0,107.583l318.946,0l0,-107.583l-318.946,-0Zm436.484,-203.004l-0,243.529l1697.55,-0l-0,-243.529l-1697.55,-0Zm-117.538,90.154l0,-227.7l-318.946,-0l0,227.7l318.946,-0Zm64.442,-1986.2c33.137,45.254 52.766,101.013 52.979,161.363l0.117,33.508l-0,1588.33l1697.55,-0l-0,-1398.33c-0,-102.071 -40.546,-199.963 -112.721,-272.142c-72.179,-72.175 -170.071,-112.721 -272.142,-112.721l-1365.78,0Zm-64.442,1645.65l0,-243.533l-318.946,-0l0,243.533l318.946,0Zm-318.946,-956.496l0,600.117l318.946,-0l0,-600.117l-318.946,0Zm323.636,-112.846l0.001,-248.012l-844.233,-0l0,248.012l844.232,0Zm-4.69,-360.858l0,-55.983c0,-88.071 -71.396,-159.467 -159.467,-159.467l-0.012,0c-88.071,0 -159.467,71.396 -159.467,159.467l0,55.983l318.946,0Z"/></svg>