<?xml version="1.0" encoding="UTF-8" standalone="no"?><!DOCTYPE svg PUBLIC "-//W3C//DTD SVG 1.1//EN" "http://www.w3.org/Graphics/SVG/1.1/DTD/svg11.dtd"><svg width="100%" height="100%" viewBox="0 0 750 750" version="1.1" xmlns="http://www.w3.org/2000/svg" xmlns:xlink="http://www.w3.org/1999/xlink" xml:space="preserve" xmlns:serif="http://www.serif.com/" style="fill-rule:evenodd;clip-rule:evenodd;stroke-linejoin:round;stroke-miterlimit:2;"><g id="underwear-2"><path d="M669.114,184.144c7.478,0 13.541,-6.062 13.541,-13.541l0,-31.179c0,-7.479 -6.063,-13.542 -13.541,-13.542l-588.832,-0c-7.479,-0 -13.541,6.063 -13.541,13.542l-0,31.179c-0,7.479 6.062,13.541 13.541,13.541l588.832,0Zm-575.29,-31.179l-0,4.096l561.748,0l-0,-4.096l-561.748,0Z" style="fill:#1c1d20;"/><path d="M34.627,287.657c0,-0 65.777,14.302 132.156,47.793c43.15,21.771 86.796,51.575 111.628,91.419c59.747,95.787 -9.7,174.732 -9.7,174.732c-4.954,5.596 -4.433,14.161 1.164,19.115c5.596,4.954 14.161,4.432 19.115,-1.164c0,0 83.205,-93.503 12.403,-207.012c-27.34,-43.868 -74.897,-77.298 -122.41,-101.27c-69.613,-35.123 -138.61,-50.08 -138.61,-50.08c-7.304,-1.585 -14.521,3.057 -16.106,10.361c-1.586,7.303 3.056,14.52 10.36,16.106Z" style="fill:#1c1d20;"/><path d="M682.296,165.449c-2.089,-5.075 -7.034,-8.388 -12.523,-8.388l-589.491,0c-5.486,0 -10.43,3.31 -12.52,8.382l-42.782,103.821c-1.782,4.323 -1.207,9.259 1.52,13.057l241.35,336.153c2.544,3.543 6.639,5.644 11,5.644l192.355,0c4.362,0 8.457,-2.101 11.001,-5.645l241.295,-336.153c2.725,-3.796 3.3,-8.729 1.522,-13.05l-42.727,-103.821Zm-592.948,18.695l-36.464,88.488l232.914,324.403l178.458,-0l232.862,-324.405l-36.415,-88.486l-571.355,0Z" style="fill:#1c1d20;"/><path d="M709.626,261.19c7.304,-1.586 14.521,3.056 16.107,10.36c1.586,7.303 -3.056,14.521 -10.359,16.107c-0,-0 -65.758,14.302 -132.133,47.793c-43.149,21.772 -86.8,51.578 -111.654,91.424c-59.743,95.78 9.754,174.723 9.754,174.723c4.956,5.595 4.437,14.16 -1.157,19.116c-5.595,4.956 -14.16,4.437 -19.116,-1.157c0,-0 -83.263,-93.505 -12.46,-207.016c27.364,-43.871 74.925,-77.298 122.433,-101.27c69.609,-35.123 138.585,-50.08 138.585,-50.08Zm0,0c0,0 0,0 0,0Z" style="fill:#1c1d20;"/><path d="M283.305,423.405l182.621,0c7.474,0 13.542,-6.068 13.542,-13.541c-0,-7.474 -6.068,-13.542 -13.542,-13.542l-182.621,-0c-7.474,-0 -13.542,6.068 -13.542,13.542c0,7.473 6.068,13.541 13.542,13.541Z" style="fill:#1c1d20;"/></g></svg>