<?xml version="1.0" encoding="UTF-8" standalone="no"?><!DOCTYPE svg PUBLIC "-//W3C//DTD SVG 1.1//EN" "http://www.w3.org/Graphics/SVG/1.1/DTD/svg11.dtd"><svg width="100%" height="100%" viewBox="0 0 13021 13021" version="1.1" xmlns="http://www.w3.org/2000/svg" xmlns:xlink="http://www.w3.org/1999/xlink" xml:space="preserve" xmlns:serif="http://www.serif.com/" style="fill-rule:evenodd;clip-rule:evenodd;stroke-linejoin:round;stroke-miterlimit:2;"><path d="M1873.73,3009.6l0,-842.008c0,-129.83 105.242,-235.088 235.088,-235.088l8812.29,0c129.841,0 235.104,105.258 235.104,235.088l-1,885.545l1445.69,7757.04c12.813,68.696 -5.625,139.546 -50.279,193.296c-44.671,53.767 -110.937,84.862 -180.833,84.862l-4799.75,0c-122.379,0 -224.304,-93.904 -234.304,-215.887l-78.142,-953.254c-1.6,-14.288 -17.575,-28.684 -31.946,-28.967l-1430.45,0c-13.775,0 -30.612,12.733 -31.737,26.458l-78.35,955.767c-10,121.979 -111.93,215.883 -234.305,215.883l-4799.75,0c-69.895,0 -136.162,-31.095 -180.833,-84.862c-44.654,-53.75 -63.092,-124.6 -50.279,-193.296l1453.8,-7800.58l-0.017,0.004Zm6432.17,256.829c62.071,3821.44 -194.583,5413.17 -407.658,6075.92c-63.563,197.712 -131.263,333.012 -194.517,425.616c11.079,34.367 18.583,70.459 22.05,107.842c0.071,0.833 0.158,1.663 0.229,2.5l60.642,739.858l4300.17,0l-1370.14,-7351.71l-2410.78,0l0.004,-0.025Zm-3601.95,0l-2399.81,0l-1370.14,7351.71l4300.17,0l61.008,-743.904c3.229,-32.512 9.479,-64.037 18.442,-94.275c-65.592,-92.746 -136.484,-231.166 -202.854,-437.671c-212.984,-662.725 -469.409,-2254.46 -406.821,-6075.88l0.008,0.017Zm3131.7,0l-1051.66,0c108.012,76.479 178.366,202.475 178.366,345.296c0,231.908 -188.82,422.775 -422.796,422.775c-75.937,-0 -147.12,-20.108 -208.612,-55.192l0,166.809c61.492,-35.084 132.675,-55.192 208.613,-55.192c233.975,-0 422.795,190.867 422.795,422.796c0,233.958 -188.82,422.775 -422.796,422.775c-75.937,-0 -147.12,-19.892 -208.612,-54.75l0,166.85c61.492,-34.859 132.675,-54.754 208.613,-54.754c233.975,-0 422.795,188.82 422.795,422.795c0,233.959 -188.82,422.775 -422.796,422.775c-61.574,0 -120.02,-13.079 -172.708,-36.612c33.513,45.383 87.388,74.825 148.125,74.825c129.754,-0 235.088,105.35 235.088,235.104c-0,129.742 -105.334,235.088 -235.088,235.088c-361.25,-0 -654.221,-292.967 -654.221,-654.2l0,-2427.19l-686.541,0c-61.779,3730.72 176.354,5285.21 384.216,5932c32.263,100.375 70.392,182.588 100.838,240.25c43.316,-12.179 88.917,-18.671 135.917,-18.671l1430.45,0c43.25,0 85.346,5.509 125.563,15.892c30.212,-57.525 67.654,-138.717 99.421,-237.504c207.925,-646.717 446.233,-2200.96 385.033,-5931.96l0,-0.008Zm-1343.49,2150.21c-0,-26.233 21.162,-47.412 47.395,-47.412c26.234,-0 47.413,21.162 47.413,47.412c-0,26.234 -21.179,47.413 -47.413,47.413c-26.233,-0 -47.395,-21.179 -47.395,-47.413Zm-0,-902.916c-0,-26.234 21.162,-47.413 47.395,-47.413c26.234,0 47.413,21.163 47.413,47.413c-0,26.004 -21.179,47.412 -47.413,47.412c-26.233,0 -47.395,-21.408 -47.395,-47.412Zm-0,-901.996c-0,-26.008 21.162,-47.417 47.395,-47.417c26.234,0 47.413,21.409 47.413,47.417c-0,26.229 -21.179,47.396 -47.413,47.396c-26.233,-0 -47.395,-21.167 -47.395,-47.396Zm-4148.25,-1209.03l-0,393.541l8342.08,0l0,-393.541l-8342.08,-0Z"/></svg>