<?xml version="1.0" encoding="UTF-8" standalone="no"?><!DOCTYPE svg PUBLIC "-//W3C//DTD SVG 1.1//EN" "http://www.w3.org/Graphics/SVG/1.1/DTD/svg11.dtd"><svg width="100%" height="100%" viewBox="0 0 750 750" version="1.1" xmlns="http://www.w3.org/2000/svg" xmlns:xlink="http://www.w3.org/1999/xlink" xml:space="preserve" xmlns:serif="http://www.serif.com/" style="fill-rule:evenodd;clip-rule:evenodd;stroke-linejoin:round;stroke-miterlimit:2;"><g id="underwear"><path d="M712.5,248.075c7.479,0 13.542,-6.062 13.542,-13.541l-0,-72.452c-0,-7.478 -6.063,-13.541 -13.542,-13.541l-675,-0c-7.479,-0 -13.542,6.063 -13.542,13.541l0,72.452c0,7.479 6.063,13.541 13.542,13.541l675,0Zm-661.458,-72.451l-0,45.368l647.916,0l0,-45.368l-647.916,0Z" style="fill:#1c1d20;"/><path d="M249.361,229.44l-74.607,183.768c-2.811,6.925 0.529,14.829 7.454,17.641c6.924,2.811 14.829,-0.528 17.64,-7.453l74.607,-183.768c2.812,-6.925 -0.528,-14.83 -7.453,-17.641c-6.925,-2.812 -14.829,0.528 -17.641,7.453Z" style="fill:#1c1d20;"/><path d="M712.5,220.992l-675,0c-7.479,0 -13.542,6.063 -13.542,13.542l0,86.604c0,5.385 3.192,10.259 8.128,12.412c-0,-0 162.144,70.658 250.091,213.773c-0.111,-0.183 32.27,54.136 92.823,54.136c60.548,0 92.928,-54.319 92.928,-54.319c87.836,-142.932 249.986,-213.59 249.986,-213.59c4.936,-2.153 8.128,-7.027 8.128,-12.412l-0,-86.604c-0,-7.479 -6.063,-13.542 -13.542,-13.542Zm-13.542,91.529l0,-64.446l-647.916,0l-0,64.446c34.9,16.859 173.96,90.032 254.209,220.623c0.038,0.061 0.075,0.122 0.111,0.183c0,0 24.165,41.049 69.638,41.049c45.468,-0 69.632,-41.049 69.743,-41.232c80.25,-130.591 219.314,-203.764 254.215,-220.623Z" style="fill:#1c1d20;"/><path d="M475.539,239.628l74.612,183.768c2.812,6.925 10.717,10.264 17.641,7.453c6.925,-2.812 10.265,-10.717 7.453,-17.641l-74.612,-183.768c-2.812,-6.925 -10.716,-10.265 -17.641,-7.453c-6.925,2.811 -10.264,10.716 -7.453,17.641Z" style="fill:#1c1d20;"/></g></svg>