<?xml version="1.0" encoding="UTF-8" standalone="no"?><!DOCTYPE svg PUBLIC "-//W3C//DTD SVG 1.1//EN" "http://www.w3.org/Graphics/SVG/1.1/DTD/svg11.dtd"><svg width="100%" height="100%" viewBox="0 0 750 750" version="1.1" xmlns="http://www.w3.org/2000/svg" xmlns:xlink="http://www.w3.org/1999/xlink" xml:space="preserve" xmlns:serif="http://www.serif.com/" style="fill-rule:evenodd;clip-rule:evenodd;stroke-linejoin:round;stroke-miterlimit:2;"><g id="underwear-4"><path d="M680.659,212.413c3.78,-0.004 7.386,-1.587 9.946,-4.368c2.561,-2.78 3.843,-6.504 3.536,-10.271l-5.99,-73.671c-0.572,-7.035 -6.452,-12.451 -13.511,-12.444l-599.796,0.61c-7.058,0.008 -12.927,5.434 -13.486,12.47l-5.857,73.726c-0.299,3.769 0.991,7.491 3.557,10.267c2.567,2.775 6.177,4.351 9.957,4.347l611.644,-0.666Zm-593.292,-73.073l-3.705,46.64l582.296,-0.634l-3.788,-46.591l-574.803,0.585Z" style="fill:#1c1d20;"/><path d="M68.986,185.996c-6.586,0.007 -12.212,4.752 -13.331,11.242l-31.5,182.818c-0.75,4.353 0.67,8.798 3.804,11.909l244.187,242.444c2.538,2.521 5.971,3.934 9.549,3.932l93.541,-0.055c3.592,-0.003 7.036,-1.432 9.575,-3.974c2.538,-2.542 3.962,-5.989 3.958,-9.581l-0.405,-425.539c-0.003,-3.592 -1.434,-7.035 -3.976,-9.573c-2.542,-2.537 -5.989,-3.96 -9.58,-3.956l-305.822,0.333Zm11.425,27.071l-28.369,164.644l235.222,233.544l74.409,-0.045l-0.379,-398.449l-280.883,0.306Z" style="fill:#1c1d20;"/><path d="M38.456,395.864c0,0 110.322,-8.241 170.528,60.12c50.091,56.863 58.437,169.712 58.437,169.712c0.587,7.451 7.113,13.024 14.563,12.437c7.451,-0.587 13.024,-7.113 12.437,-14.564c-0,0 -10.253,-123.209 -65.113,-185.487c-68.193,-77.427 -192.742,-69.235 -192.742,-69.235c-7.456,0.522 -13.085,6.998 -12.563,14.454c0.521,7.456 6.998,13.085 14.453,12.563Z" style="fill:#1c1d20;"/><path d="M267.371,196.059l-61.369,247.718c-1.797,7.255 2.634,14.604 9.888,16.401c7.255,1.797 14.604,-2.634 16.401,-9.888l61.369,-247.718c1.797,-7.254 -2.634,-14.603 -9.888,-16.401c-7.255,-1.797 -14.604,2.634 -16.401,9.888Z" style="fill:#1c1d20;"/><path d="M693.985,196.546c-1.131,-6.489 -6.768,-11.223 -13.355,-11.216l-305.822,0.333c-7.478,0.008 -13.534,6.076 -13.527,13.555l0.405,425.539c0.003,3.592 1.434,7.035 3.977,9.573c2.542,2.537 5.989,3.96 9.581,3.956l93.546,-0.112c3.579,-0.004 7.011,-1.425 9.545,-3.951l243.726,-242.999c3.127,-3.118 4.538,-7.565 3.78,-11.915l-31.856,-182.763Zm-305.608,16.186l0.379,398.454l74.414,-0.088l234.78,-234.079l-28.689,-164.593l-280.884,0.306Z" style="fill:#1c1d20;"/><path d="M713.409,368.124c-0,-0 -124.568,-7.958 -192.621,69.648c-54.74,62.39 -64.755,185.657 -64.755,185.657c-0.573,7.452 5.013,13.967 12.464,14.539c7.452,0.573 13.967,-5.012 14.54,-12.464c-0,-0 8.128,-112.903 58.112,-169.873c60.084,-68.518 170.421,-60.486 170.421,-60.486c7.456,0.507 13.922,-5.134 14.43,-12.591c0.507,-7.457 -5.135,-13.923 -12.591,-14.43Z" style="fill:#1c1d20;"/><path d="M455.997,202.375l61.835,247.606c1.811,7.251 9.168,11.668 16.419,9.857c7.251,-1.81 11.668,-9.168 9.857,-16.419l-61.835,-247.606c-1.811,-7.251 -9.168,-11.668 -16.419,-9.857c-7.251,1.81 -11.668,9.168 -9.857,16.419Z" style="fill:#1c1d20;"/></g></svg>