<?xml version="1.0" encoding="UTF-8" standalone="no"?><!DOCTYPE svg PUBLIC "-//W3C//DTD SVG 1.1//EN" "http://www.w3.org/Graphics/SVG/1.1/DTD/svg11.dtd"><svg width="100%" height="100%" viewBox="0 0 750 750" version="1.1" xmlns="http://www.w3.org/2000/svg" xmlns:xlink="http://www.w3.org/1999/xlink" xml:space="preserve" xmlns:serif="http://www.serif.com/" style="fill-rule:evenodd;clip-rule:evenodd;stroke-linejoin:round;stroke-miterlimit:2;"><g id="underwear-8"><path d="M629.056,188.146c7.479,0 13.542,-6.062 13.542,-13.541l0,-49.752c0,-7.478 -6.063,-13.541 -13.542,-13.541l-507.588,-0c-7.479,-0 -13.541,6.063 -13.541,13.541l-0,49.752c-0,7.479 6.062,13.541 13.541,13.541l507.588,0Zm-494.046,-49.751l-0,22.668l480.505,0l-0,-22.668l-480.505,0Z" style="fill:#1c1d20;"/><path d="M641.844,172.124c-1.195,-6.412 -6.79,-11.061 -13.312,-11.061l-507.064,0c-6.522,0 -12.117,4.649 -13.312,11.061l-83.968,450.542c-0.738,3.957 0.324,8.038 2.896,11.134c2.573,3.097 6.39,4.888 10.416,4.888l276.466,0c7.049,0 12.92,-5.409 13.496,-12.435l4.513,-55.052c0.076,-0.742 0.853,-1.524 1.828,-1.524c0,-0 82.394,-0 82.394,-0c0.949,-0 1.752,0.719 1.84,1.668c-0.012,-0.144 4.501,54.908 4.501,54.908c0.576,7.026 6.447,12.435 13.496,12.435l276.466,0c4.026,0 7.843,-1.791 10.416,-4.888c2.572,-3.096 3.634,-7.177 2.896,-11.134l-83.968,-450.542Zm-193.333,439.481l247.69,-0l-78.92,-423.459l-484.562,0l-78.92,423.459l247.69,-0l3.514,-42.849c1.478,-14.874 13.926,-26.163 28.8,-26.163l82.394,0c14.899,0 27.426,11.352 28.808,26.252c0.004,0.048 0.009,0.096 0.013,0.144l3.493,42.616Z" style="fill:#1c1d20;"/><path d="M328.937,548.743c5.098,2.6 8.176,8.277 7.213,14.226c-1.194,7.378 -8.153,12.399 -15.531,11.205c0,-0 -14.373,0.859 -26.238,-36.058c-12.521,-38.96 -27.648,-133.66 -23.186,-363.774c0.145,-7.472 6.33,-13.421 13.802,-13.276c7.472,0.145 13.421,6.329 13.277,13.801c-4.355,224.511 9.676,316.951 21.892,354.963c3.346,10.41 7.787,17.428 8.771,18.913Z" style="fill:#1c1d20;"/><path d="M420.381,548.743c0.984,-1.484 5.427,-8.503 8.775,-18.915c12.221,-38.011 26.264,-130.451 21.941,-354.962c-0.144,-7.473 5.806,-13.656 13.278,-13.8c7.473,-0.144 13.656,5.806 13.8,13.278c4.431,230.114 -10.71,324.814 -23.236,363.774c-11.868,36.915 -26.24,36.056 -26.24,36.056l-0,-0c-7.378,1.194 -14.337,-3.827 -15.532,-11.205c-0.962,-5.949 2.116,-11.626 7.214,-14.226Z" style="fill:#1c1d20;"/><path d="M401.032,208.035c-0,-13.477 -10.876,-24.353 -24.353,-24.353c-13.475,0 -24.352,10.876 -24.352,24.353c-0,13.358 10.877,24.352 24.352,24.352c13.477,0 24.353,-10.994 24.353,-24.352Zm-27.083,-0c-0,-1.498 1.219,-2.731 2.73,-2.731c1.511,-0 2.731,1.233 2.731,2.731c0,1.511 -1.22,2.73 -2.731,2.73c-1.511,0 -2.73,-1.219 -2.73,-2.73Z" style="fill:#1c1d20;"/><path d="M401.032,259.99c-0,-13.359 -10.876,-24.353 -24.353,-24.353c-13.475,0 -24.352,10.994 -24.352,24.353c-0,13.477 10.877,24.352 24.352,24.352c13.477,0 24.353,-10.876 24.353,-24.352Zm-27.083,-0c-0,-1.511 1.219,-2.731 2.73,-2.731c1.511,-0 2.731,1.219 2.731,2.731c0,1.498 -1.22,2.731 -2.731,2.731c-1.511,-0 -2.73,-1.233 -2.73,-2.731Z" style="fill:#1c1d20;"/><path d="M401.032,311.998c-0,-13.477 -10.876,-24.353 -24.353,-24.353c-13.475,0 -24.352,10.876 -24.352,24.353c-0,13.477 10.877,24.352 24.352,24.352c13.477,0 24.353,-10.876 24.353,-24.352Zm-27.083,-0c-0,-1.511 1.219,-2.731 2.73,-2.731c1.511,-0 2.731,1.219 2.731,2.731c0,1.511 -1.22,2.731 -2.731,2.731c-1.511,-0 -2.73,-1.22 -2.73,-2.731Z" style="fill:#1c1d20;"/><path d="M375.263,338.551c-5.853,-0 -10.6,-4.747 -10.6,-10.599c-0,-0 -0,-153.347 -0,-153.347c-0,-7.474 -6.068,-13.542 -13.542,-13.542c-7.474,0 -13.541,6.068 -13.541,13.542l-0,153.347c-0,20.807 16.875,37.682 37.683,37.682c7.474,0 13.541,-6.068 13.541,-13.541c0,-7.474 -6.067,-13.542 -13.541,-13.542Z" style="fill:#1c1d20;"/></g></svg>