<?xml version="1.0" encoding="UTF-8" standalone="no"?><!DOCTYPE svg PUBLIC "-//W3C//DTD SVG 1.1//EN" "http://www.w3.org/Graphics/SVG/1.1/DTD/svg11.dtd"><svg width="100%" height="100%" viewBox="0 0 13021 13021" version="1.1" xmlns="http://www.w3.org/2000/svg" xmlns:xlink="http://www.w3.org/1999/xlink" xml:space="preserve" xmlns:serif="http://www.serif.com/" style="fill-rule:evenodd;clip-rule:evenodd;stroke-linejoin:round;stroke-miterlimit:2;"><path d="M964.413,3434.84l100.829,-1269.23c9.704,-122.154 111.6,-216.354 234.133,-216.491l10413.1,-10.592c122.55,-0.121 224.633,93.904 234.567,216.042l103.112,1268.17l551.225,3162.48c13.163,75.521 -11.333,152.725 -65.621,206.858l-4182.12,4169.62c-58.483,57.03 -133.312,114.842 -214.945,117.684l-3248.18,2.9c-81.696,-2.7 -156.641,-60.471 -215.287,-117.417l-4189.83,-4159.95c-54.408,-54.008 -79.062,-131.179 -66.041,-206.75l545.054,-3163.36l-0.012,0.017Zm5314.62,7176.46l-6.584,-6917.5l-1218.35,1.329l-992.587,4006.6c707.671,887.779 955.65,2362 1026.05,2910.3l1191.47,-0.72l-0,-0.017Zm2682.18,-2914.88l-1000.04,-4004.46l-1218.53,1.325l6.579,6917.62l1191.49,-1.408c69.333,-548.55 314.458,-2023.57 1020.5,-2913.06l-0,-0.021Zm-7731.42,-814.925l3318.57,3294.9c-120.029,-660.629 -380.596,-1647.42 -920.204,-2259.98c-687.25,-780.333 -1750.63,-985.75 -2398.37,-1034.91Zm10561.8,-11.395c-647.783,50.458 -1710.8,258.054 -2396.65,1040.18c-538.459,613.716 -797.134,1601.3 -915.909,2262.49l3312.56,-3302.67Zm-8116.62,436.595l894.592,-3611.05l-3173.54,3.459l-465.487,2701.54c566.458,13.183 1829.03,134.925 2744.43,906.058Zm4770.71,-3615.27l901.304,3609.11c914.159,-773.379 2176.42,-897.604 2742.86,-911.887l-470.734,-2700.68l-3173.43,3.459Zm3116.08,-473.596l-65.763,-808.871l-9979.21,10.154l-64.321,809.725l10109.3,-11.008Z"/></svg>