<?xml version="1.0" encoding="UTF-8" standalone="no"?><!DOCTYPE svg PUBLIC "-//W3C//DTD SVG 1.1//EN" "http://www.w3.org/Graphics/SVG/1.1/DTD/svg11.dtd"><svg width="100%" height="100%" viewBox="0 0 750 750" version="1.1" xmlns="http://www.w3.org/2000/svg" xmlns:xlink="http://www.w3.org/1999/xlink" xml:space="preserve" xmlns:serif="http://www.serif.com/" style="fill-rule:evenodd;clip-rule:evenodd;stroke-linejoin:round;stroke-miterlimit:2;"><g id="underwear-7"><path d="M656.584,176.071c7.479,-0 13.542,-6.063 13.542,-13.542l-0,-61.112c-0,-7.479 -6.063,-13.541 -13.542,-13.541l-563.052,-0c-7.479,-0 -13.542,6.062 -13.542,13.541l0,61.112c0,7.479 6.063,13.542 13.542,13.542l563.052,-0Zm-549.51,-61.112l-0,34.028l535.968,0l0,-34.028l-535.968,-0Z" style="fill:#1c1d20;"/><path d="M252.639,161.491c0,0 -14.599,191.989 18.277,314.452c7.396,27.552 17.231,51.691 29.865,69.836c14.125,20.287 31.833,33.387 53.256,37.117c7.363,1.282 14.381,-3.656 15.663,-11.019c1.282,-7.363 -3.655,-14.381 -11.019,-15.663c-14.55,-2.533 -26.079,-12.131 -35.673,-25.91c-11.085,-15.92 -19.446,-37.211 -25.935,-61.383c-31.923,-118.913 -17.43,-305.354 -17.43,-305.354c0.573,-7.452 -5.012,-13.967 -12.464,-14.54c-7.452,-0.573 -13.967,5.012 -14.54,12.464Z" style="fill:#1c1d20;"/><path d="M470.357,163.567c0,-0 14.493,186.441 -17.43,305.354c-6.489,24.172 -14.85,45.463 -25.935,61.383c-9.594,13.779 -21.123,23.377 -35.673,25.91c-7.364,1.282 -12.301,8.3 -11.019,15.663c1.282,7.363 8.3,12.301 15.663,11.019c21.423,-3.73 39.131,-16.83 53.256,-37.117c12.634,-18.145 22.469,-42.284 29.865,-69.836c32.876,-122.463 18.277,-314.452 18.277,-314.452c-0.573,-7.452 -7.088,-13.037 -14.54,-12.464c-7.452,0.573 -13.037,7.088 -12.464,14.54Z" style="fill:#1c1d20;"/><path d="M693.75,662.124c3.771,0 7.372,-1.572 9.935,-4.339c2.563,-2.767 3.855,-6.478 3.567,-10.238l-37.282,-486.054c-0.541,-7.056 -6.425,-12.506 -13.502,-12.506l-562.936,0c-7.077,0 -12.961,5.45 -13.502,12.506l-37.282,486.054c-0.288,3.76 1.004,7.471 3.567,10.238c2.563,2.767 6.164,4.339 9.935,4.339l300.109,0c7.479,0 13.542,-6.062 13.542,-13.541l-0,-96.133c-0,-2.834 2.293,-5.128 5.128,-5.128c2.807,0 5.07,2.305 5.07,5.128l0,96.133c0,7.479 6.063,13.541 13.542,13.541l300.109,0Zm-286.567,-27.083l271.947,0l-35.205,-458.97l-537.85,-0l-35.205,458.97l271.947,0l0,-82.591c0,-17.806 14.406,-32.211 32.212,-32.211c17.718,-0 32.154,14.393 32.154,32.211l-0,82.591Z" style="fill:#1c1d20;"/></g></svg>