<?xml version="1.0" encoding="UTF-8" standalone="no"?><!DOCTYPE svg PUBLIC "-//W3C//DTD SVG 1.1//EN" "http://www.w3.org/Graphics/SVG/1.1/DTD/svg11.dtd"><svg width="100%" height="100%" viewBox="0 0 750 750" version="1.1" xmlns="http://www.w3.org/2000/svg" xmlns:xlink="http://www.w3.org/1999/xlink" xml:space="preserve" xmlns:serif="http://www.serif.com/" style="fill-rule:evenodd;clip-rule:evenodd;stroke-linejoin:round;stroke-miterlimit:2;"><g id="underwear-4"><path d="M720.369,181.128c-0.854,-6.77 -6.612,-11.846 -13.435,-11.846l-663.868,-0c-6.823,-0 -12.581,5.076 -13.435,11.846l-5.566,44.097c-0.891,7.055 3.827,13.596 10.802,14.979c0,-0 58.644,11.639 116.61,39.4c37.3,17.863 74.608,42.273 94.354,75.27c51.611,86.298 81.432,215.36 81.432,215.36c1.423,6.138 6.891,10.484 13.192,10.484l69.143,0c6.303,0 11.773,-4.348 13.194,-10.489c-0,0 29.767,-129.059 81.378,-215.358c19.763,-32.991 57.077,-57.403 94.377,-75.267c57.962,-27.761 116.587,-39.4 116.587,-39.4c6.974,-1.383 11.691,-7.925 10.801,-14.979l-5.566,-44.097Zm-22.842,35.3l-2.533,-20.063l-639.988,-0l-2.532,20.062c21.085,5.085 66.086,17.384 110.701,38.75c42.117,20.17 83.6,48.531 105.898,85.793c44.502,74.411 73.492,179.449 81.974,212.665l47.955,0c8.469,-33.212 37.423,-138.254 81.93,-212.673c22.317,-37.257 63.804,-65.616 105.916,-85.785c44.612,-21.366 89.602,-33.665 110.679,-38.749Z" style="fill:#1c1d20;"/><path d="M38.28,240.457c-0,-0 117.387,3.409 164.681,10.248c23.266,3.369 50.439,5.825 74.4,12.746c20.718,5.984 39.148,15.076 48.202,33.162c8.573,17.196 19.809,56.436 23.487,107.982c5.247,72.879 -9.533,160.331 -9.533,160.331c-1.242,7.37 3.733,14.362 11.103,15.604c7.37,1.242 14.362,-3.732 15.604,-11.102c-0,-0 15.297,-90.971 9.84,-166.769c-4.027,-56.442 -16.873,-99.295 -26.273,-118.149c-10.098,-20.171 -27.825,-33.261 -49.4,-41.82c-28.48,-11.297 -63.965,-14.505 -93.552,-18.789c-48.182,-6.968 -167.764,-10.516 -167.764,-10.516c-7.471,-0.219 -13.714,5.668 -13.934,13.138c-0.219,7.471 5.668,13.714 13.139,13.934Z" style="fill:#1c1d20;"/><path d="M710.765,213.385c-0,-0 -119.583,3.548 -167.763,10.516c-29.621,4.283 -65.12,7.492 -93.593,18.79c-21.576,8.56 -39.292,21.655 -49.357,41.81c-9.447,18.839 -22.248,61.702 -26.277,118.166c-5.457,75.786 9.785,166.753 9.785,166.753c1.239,7.37 8.228,12.349 15.598,11.111c7.371,-1.238 12.35,-8.227 11.112,-15.597c-0,-0 -14.728,-87.457 -9.481,-160.33c3.677,-51.54 14.851,-90.771 23.483,-107.982c9.04,-18.102 27.455,-27.189 48.166,-33.171c23.96,-6.921 51.146,-9.377 74.441,-12.746c47.293,-6.839 164.68,-10.248 164.68,-10.248c7.471,-0.22 13.358,-6.463 13.139,-13.934c-0.219,-7.47 -6.463,-13.357 -13.933,-13.138Z" style="fill:#1c1d20;"/></g></svg>