<?xml version="1.0" encoding="UTF-8" standalone="no"?><!DOCTYPE svg PUBLIC "-//W3C//DTD SVG 1.1//EN" "http://www.w3.org/Graphics/SVG/1.1/DTD/svg11.dtd"><svg width="100%" height="100%" viewBox="0 0 3125 3125" version="1.1" xmlns="http://www.w3.org/2000/svg" xmlns:xlink="http://www.w3.org/1999/xlink" xml:space="preserve" xmlns:serif="http://www.serif.com/" style="fill-rule:evenodd;clip-rule:evenodd;stroke-linejoin:round;stroke-miterlimit:2;"><path d="M1469.38,2419.66l-50.821,0c-26.255,0 -49.038,-18.108 -54.967,-43.683c-0,0 -124.254,-537.758 -339.3,-897.333c-82.275,-137.488 -237.725,-239.196 -393.142,-313.625c-241.525,-115.671 -485.875,-164.167 -485.875,-164.167c-29.062,-5.762 -48.721,-33.017 -45.008,-62.412l23.192,-183.738c3.558,-28.208 27.55,-49.358 55.979,-49.358l2766.12,-0c28.429,-0 52.421,21.15 55.98,49.358l23.191,183.737c3.709,29.392 -15.946,56.65 -45.004,62.413c0,0 -244.271,48.496 -485.779,164.167c-155.417,74.433 -310.892,176.15 -393.238,313.612c-215.045,359.579 -339.075,897.325 -339.075,897.325c-5.92,25.588 -28.712,43.704 -54.975,43.704l-51.993,0c-0.592,0.01 -1.183,0.01 -1.77,0l-181.617,0c-0.63,0.011 -1.261,0.011 -1.894,0Zm92.74,-358.279c-7.753,101.379 -18.574,189.184 -26.361,245.434l52.614,-0.001c-7.758,-56.254 -18.538,-144.065 -26.253,-245.433Zm977.299,-1040.21c-99.955,6.275 -196.087,14.088 -260.76,23.44c-97.063,14.038 -210.338,24.271 -310.171,53.108c-86.296,24.925 -163.025,62.788 -200.692,138.213c-35.967,71.712 -82.525,235.175 -97.846,449.925c-13.141,182.517 3.79,386.989 19.386,521.058c53.458,-190.248 162.107,-531.348 314.543,-786.233c92.988,-155.237 265.85,-273.4 441.317,-357.437c31.526,-15.099 63.097,-29.111 94.223,-42.074Zm-1953.62,0.056c31.068,12.94 62.605,26.937 94.096,42.018c175.487,84.041 348.333,202.212 441.241,357.47c151.771,253.773 260.241,593.038 313.995,783.727c15.584,-134.136 32.304,-337.215 19.243,-518.623c-15.325,-214.775 -62.142,-378.275 -97.862,-449.925c-37.725,-75.358 -114.517,-113.241 -200.842,-138.175c-99.838,-28.837 -213.058,-39.07 -310,-53.108c-64.478,-9.324 -160.222,-17.117 -259.871,-23.384Zm2319.2,-130.235l-9.191,-72.797l-2666.62,-0l-9.191,72.821c136.692,4.84 482.707,18.9 641.828,41.912c123.279,17.85 271.133,31.216 389.8,78.287c89.896,35.663 163.758,90.205 205.833,174.25c35.999,72.203 84.126,228.877 104.702,436.34c20.558,-207.527 68.541,-364.232 104.719,-436.377c41.938,-83.979 115.754,-138.542 205.654,-174.209c118.638,-47.075 266.551,-60.445 389.971,-78.291c159.376,-23.05 506.267,-37.118 642.491,-41.936Z"/></svg>