<?xml version="1.0" encoding="UTF-8" standalone="no"?><!DOCTYPE svg PUBLIC "-//W3C//DTD SVG 1.1//EN" "http://www.w3.org/Graphics/SVG/1.1/DTD/svg11.dtd"><svg width="100%" height="100%" viewBox="0 0 13021 13021" version="1.1" xmlns="http://www.w3.org/2000/svg" xmlns:xlink="http://www.w3.org/1999/xlink" xml:space="preserve" xmlns:serif="http://www.serif.com/" style="fill-rule:evenodd;clip-rule:evenodd;stroke-linejoin:round;stroke-miterlimit:2;"><path d="M1158.7,2915.29l0,-494.738c0,-129.842 105.242,-235.104 235.083,-235.104l10222.8,0c129.825,0 235.088,105.263 235.088,235.104l-0,466.971l734.208,1784.03c25.596,72.692 18.896,166.542 -25.079,229.834l-4186.75,5832.67c-43.217,58.55 -120.638,99.246 -193.379,101.334l-3339.5,-0.001c-72.767,-2.091 -150.188,-42.841 -193.425,-101.404l-4187.67,-5832.58c-44.067,-63.421 -50.508,-157.487 -24.883,-230.337l723.512,-1755.78l-0.004,0.004Zm6519.42,4435.5l-2335.36,-0c714.575,1310.33 278.075,2444.8 -54.229,3014.41l2444.56,0c-332.662,-569.85 -769.462,-1704.28 -54.966,-3014.41Zm4115.88,-2187.49c-437.188,133.3 -1051.2,349.134 -1668.28,660.492c-749.117,377.987 -1506.95,895.454 -1938.44,1587.23c-774.275,1241.31 -298.191,2319.74 -7.066,2786.72l3613.78,-5034.42l-0,-0.017Zm-10567.1,-0.033l3614.58,5034.38c290.916,-467.138 766.27,-1545.48 -7.95,-2786.72c-431.113,-691.737 -1188.86,-1209.17 -1937.99,-1587.14c-617.117,-311.359 -1231.24,-527.192 -1668.64,-660.525l-0,0.008Zm-254.617,-561.496c421.654,112.046 1275.65,368.621 2135.06,802.229c720.038,363.284 1440.66,851.684 1927.97,1476.6l2950.36,0c487.613,-624.958 1208.28,-1113.32 1928.23,-1476.6c859.358,-433.608 1713.16,-690.183 2134.76,-802.242l-578.125,-1404.8l-9919.38,0l-578.896,1404.82l0.017,-0Zm656.604,-1946.12l0,71.113l9752.58,-0l0,-71.113l-9752.58,0Z"/></svg>