<?xml version="1.0" encoding="UTF-8" standalone="no"?><!DOCTYPE svg PUBLIC "-//W3C//DTD SVG 1.1//EN" "http://www.w3.org/Graphics/SVG/1.1/DTD/svg11.dtd"><svg width="100%" height="100%" viewBox="0 0 750 750" version="1.1" xmlns="http://www.w3.org/2000/svg" xmlns:xlink="http://www.w3.org/1999/xlink" xml:space="preserve" xmlns:serif="http://www.serif.com/" style="fill-rule:evenodd;clip-rule:evenodd;stroke-linejoin:round;stroke-miterlimit:2;"><g id="underwear-5"><path d="M196.332,55.221c-7.479,0 -13.542,6.063 -13.542,13.542l0,585.889c0,38.583 37.214,71.39 84.622,71.39c47.409,-0 84.622,-32.807 84.622,-71.39c0,0 0,-370.384 0,-370.384c0,-9.802 10.949,-16.191 22.994,-16.191c12.003,-0 22.938,6.396 22.938,16.191c-0,0 -0,370.384 -0,370.384c-0,38.583 37.213,71.39 84.622,71.39c47.408,-0 84.622,-32.807 84.622,-71.39l-0,-585.889c-0,-7.479 -6.063,-13.542 -13.542,-13.542l-357.336,0Zm343.794,27.084l-330.252,-0l-0,572.347c-0,25.308 26.442,44.306 57.538,44.306c31.098,0 57.539,-18.998 57.539,-44.306c-0,0 -0,-370.384 -0,-370.384c-0,-23.069 21.731,-43.275 50.077,-43.275c28.275,0 50.021,20.2 50.021,43.275c0,0 0,370.384 0,370.384c0,25.308 26.442,44.306 57.539,44.306c31.096,0 57.538,-18.998 57.538,-44.306l0,-572.347Z" style="fill:#1c1d20;"/><path d="M553.668,82.305c7.479,-0 13.542,-6.063 13.542,-13.542l-0,-31.263c-0,-7.479 -6.063,-13.542 -13.542,-13.542l-357.336,0c-7.479,0 -13.542,6.063 -13.542,13.542l0,31.263c0,7.479 6.063,13.542 13.542,13.542l357.336,-0Zm-343.794,-31.263l-0,4.179l330.252,0l0,-4.179l-330.252,-0Z" style="fill:#1c1d20;"/><path d="M394.081,193.437c19.863,-0 37.262,-18.051 37.262,-41.627l0,-70.657c0,-7.474 -6.068,-13.542 -13.541,-13.542c-7.474,0 -13.542,6.068 -13.542,13.542l-0,70.657c-0,7.491 -3.868,14.543 -10.179,14.543c-7.474,0 -13.542,6.068 -13.542,13.542c-0,7.474 6.068,13.542 13.542,13.542Z" style="fill:#1c1d20;"/><path d="M361.486,37.5l0,217.035c0,7.474 6.068,13.542 13.542,13.542c7.474,-0 13.542,-6.068 13.542,-13.542l-0,-217.035c-0,-7.474 -6.068,-13.542 -13.542,-13.542c-7.474,0 -13.542,6.068 -13.542,13.542Z" style="fill:#1c1d20;"/></g></svg>