<?xml version="1.0" encoding="UTF-8" standalone="no"?><!DOCTYPE svg PUBLIC "-//W3C//DTD SVG 1.1//EN" "http://www.w3.org/Graphics/SVG/1.1/DTD/svg11.dtd"><svg width="100%" height="100%" viewBox="0 0 13021 13021" version="1.1" xmlns="http://www.w3.org/2000/svg" xmlns:xlink="http://www.w3.org/1999/xlink" xml:space="preserve" xmlns:serif="http://www.serif.com/" style="fill-rule:evenodd;clip-rule:evenodd;stroke-linejoin:round;stroke-miterlimit:2;"><path d="M4995.21,415.938l3030.38,-0c32.204,-0 64.079,6.633 93.629,19.462c-0,0 1271.96,552.308 1271.85,552.254c249.15,108.059 446.129,308.213 550.35,558.25l1169.53,2795.55c49.063,117.259 -3.975,252.275 -119.704,304.809l-1598.19,725.416c-60.871,27.642 -130.629,28.038 -191.825,1.129c-4.566,-1.995 -9.062,-4.15 -13.454,-6.475l202.484,3935.07c0.591,11.492 0.341,22.838 -0.688,33.98l1113.85,2340.1c15.016,31.562 22.812,66.075 22.812,101.041c0,60.938 -17.95,125.329 -65.296,188.246c-43.837,58.229 -131.337,127.55 -269.424,187.446c-514.446,223.142 -1971.42,452.675 -3689.79,452.675c-1718.35,-0 -3175.33,-229.533 -3689.78,-452.675c-138.092,-59.896 -225.592,-129.217 -269.429,-187.446c-47.342,-62.917 -65.292,-127.308 -65.292,-188.246c0,-34.983 7.792,-69.533 22.846,-101.112l1130.43,-2373.25l0.038,-0.796l203.091,-3935.38c-4.583,2.466 -9.304,4.741 -14.133,6.858c-61.179,26.875 -130.9,26.458 -191.75,-1.163l-1598.2,-725.416c-115.729,-52.534 -168.767,-187.55 -119.704,-304.809c-0,0 1169.53,-2795.55 1169.41,-2795.28c104.342,-250.312 301.321,-450.466 550.384,-558.471l1271.94,-552.308c29.55,-12.829 61.425,-19.462 93.629,-19.462Zm-239.171,9110.83l-711.712,-0l-1042.87,2189.38c55.28,24.637 128.854,54.742 200.625,76.025c618.059,183.229 1863.8,342.5 3299.64,342.5c1435.85,-0 2681.6,-159.271 3299.63,-342.5c71.788,-21.283 145.383,-51.404 200.679,-76.042l-1042.1,-2189.36l-711.841,-0c102.975,202.925 199.671,409.017 285.833,619.721c49.112,120.087 -8.525,257.466 -128.612,306.583c-120.105,49.113 -257.484,-8.525 -306.596,-128.612c-111.605,-272.925 -242.059,-537.571 -380.675,-797.692l-508.067,-0c44.475,321.533 67.421,693.35 67.421,693.35c7.746,129.516 -91.129,240.954 -220.642,248.7c-129.529,7.742 -240.971,-91.113 -248.717,-220.642c0,0 -23.762,-412.137 -72.291,-721.408l-515.113,-0c-48.525,309.271 -72.3,721.408 -72.3,721.408c-7.741,129.529 -119.183,228.4 -248.712,220.642c-129.517,-7.746 -228.388,-119.183 -220.646,-248.7c0,-0 22.954,-371.817 67.429,-693.35l-460.292,-0c-138.775,260.329 -269.329,525.225 -380.345,798.437c-48.838,120.209 -186.096,178.142 -306.304,129.305c-120.209,-48.834 -178.142,-186.092 -129.305,-306.301c85.867,-211.316 182.663,-417.987 285.88,-621.441Zm3399.08,-8563.21c-59.271,202.755 -169.138,414.146 -309.479,618.8c-449.271,655.088 -1197.33,1252.95 -1197.33,1252.95c-85.784,68.405 -207.484,68.405 -293.229,-0.05c-0,0 -747.659,-597.866 -1196.67,-1252.95c-138.804,-202.512 -247.767,-411.625 -307.404,-612.379l-1034.19,449.067c-137.412,59.6 -246.025,170 -303.558,308.054c-0.038,0.104 -0.088,0.192 -0.125,0.279l-1081.47,2585.05l1151.51,522.692l339.563,-1036.42c36.687,-111.979 150.608,-179.496 266.441,-157.934c115.85,21.563 197.83,125.555 191.755,243.246l-266.934,5172.58l4792.83,-0l-266.142,-5172.62c-6.058,-117.709 75.971,-221.7 191.837,-243.23c115.871,-21.529 229.775,46.059 266.409,158.071l338.821,1036.23l1151.37,-522.621l-1081.6,-2585.33c-57.533,-138.055 -166.145,-248.455 -303.541,-308.055l-1048.87,-455.433l-0,0.008Zm-463.833,-77.45l-2378.33,0c75.087,223.855 241.091,459.313 420.77,679.046c271.092,331.525 587.396,622.309 768.038,779.13c180.8,-156.876 497.275,-447.638 768.525,-779.184c179.783,-219.717 345.867,-455.162 420.992,-678.992Z"/></svg>