<?xml version="1.0" encoding="UTF-8" standalone="no"?><!DOCTYPE svg PUBLIC "-//W3C//DTD SVG 1.1//EN" "http://www.w3.org/Graphics/SVG/1.1/DTD/svg11.dtd"><svg width="100%" height="100%" viewBox="0 0 226063 226063" version="1.1" xmlns="http://www.w3.org/2000/svg" xmlns:xlink="http://www.w3.org/1999/xlink" xml:space="preserve" xmlns:serif="http://www.serif.com/" style="fill-rule:evenodd;clip-rule:evenodd;stroke-linejoin:round;stroke-miterlimit:2;"><path d="M113030,189933l-23920.5,23920.9c-1559.51,1559.33 -4076.3,1684.66 -5782.96,288.046c0,-0 -37085.5,-30342.8 -37085.6,-30342.8c-1000.8,-818.867 -1582.24,-2045.75 -1582.34,-3338.87l0,-74171.3c0.171,-1231.77 527.825,-2406.33 1448.48,-3224.43c11030.9,-9805.38 14171,-23243.1 13990.9,-35854.4c-272.859,-19101.6 -8158.21,-36352.8 -8291.58,-36639.1c-982.188,-2104.76 -97.526,-4644.29 1979.8,-5683.25c0.033,-0.016 0.062,-0.033 0.096,-0.05c-0,0 26971.3,-13485.7 26971.1,-13485.5c599.146,-299.792 1260,-455.863 1929.86,-455.792l60685.4,0c669.963,-0.071 1330.82,156 1929.72,455.671c-0,-0 26971.3,13485.7 26971.4,13485.7c2070.06,1035.32 2955.79,3560.72 1989.96,5660.75c-3796.31,8804.83 -6377.08,18085.7 -7670.29,27580.7c-2545.68,19629.1 1911.33,34759.2 13359.5,44935.4l-0.108,-0.095c920.758,818.2 1448.42,1992.76 1448.58,3224.53l0,74171.4c-0.091,1293.12 -581.529,2520 -1582.33,3338.87c-0.004,0.004 -0.008,0.004 -0.013,0.008c0,0 -37085.5,30342.8 -37085.5,30342.7c-1706.72,1396.67 -4223.5,1271.34 -5783,-287.992l-23920.5,-23920.9l-0.08,-0.125Zm33707.1,-168166c-1503.38,8706.08 -5020.04,25358.6 -11771.6,39983.4c-4781.79,10358 -11197.5,19687.4 -19614.8,24577.5l-8120.42,5413.33l0,80189.6l8850.62,8850.21l24210.2,24210.5l32481.4,-26575.6l-0,-17240.9l-22656.8,0c-2366.85,0 -4314.46,-1947.62 -4314.46,-4314.46l-0,-13485.7c-0,-2366.85 1947.62,-4314.46 4314.46,-4314.46l22658.1,0l-0,-30886.5c-12447,-11993.3 -17560,-29681.8 -14712.5,-51338.3c1225.48,-8912.12 3490.81,-17649.1 6749,-26032.3l-18073.1,-9036.17l-0.041,-0.084Zm-67415.8,0.504l-18071.2,9035.62c3258.61,8383.17 5524.38,17120.3 6750.96,26037.8c2848.96,21652.5 -2266.18,39339.8 -14713.2,51332.9l0,30886.5l22656.8,0c2366.85,0 4314.46,1947.62 4314.46,4314.46l-0,13485.7c-0,2366.85 -1947.62,4314.46 -4314.46,4314.46l-22656.8,-0l0,17240.9l32481.4,26575.6l21159.3,-21159.7l-7063.42,-7063.42c-808.8,-808.842 -1263.64,-1907.03 -1263.6,-3050.84c-0,-0 -0,-84285.4 -0,-84285c-0.338,-1440.76 721.029,-2789.84 1919.4,-3589.64c0.142,-0.096 0.287,-0.192 0.429,-0.283l4959.75,-3306.27c-6698.38,-5897.92 -11885.9,-14713.3 -15828.6,-24045.8c-5818.17,-13771.8 -8937.92,-28655.1 -10331.1,-36723.1l-0.021,-0.009Zm75108.8,125922l0,4856.71l18342.4,0l0,-4856.71l-18342.4,-0Zm-101142,-0l0,4856.71l18342.4,0l0,-4856.71l-18342.4,-0Zm34434,-128114c237.133,1384.92 2797.26,13485.7 2797.26,13485.7c2233.7,9174.96 5647.96,20282 10597.5,29578.6c3265.87,6134.21 7194,11480.6 11914.6,14908.8c7829.17,-5727.33 14628.1,-17693.1 19866.2,-34799.2c1026.05,-3349.92 1904.34,-6624.67 2650.96,-9688.12c0,0 2558.49,-12100.5 2794.52,-13485.7l-50621,0Z" style="fill-rule:nonzero;"/></svg>