<?xml version="1.0" encoding="UTF-8" standalone="no"?><!DOCTYPE svg PUBLIC "-//W3C//DTD SVG 1.1//EN" "http://www.w3.org/Graphics/SVG/1.1/DTD/svg11.dtd"><svg width="100%" height="100%" viewBox="0 0 226063 226063" version="1.1" xmlns="http://www.w3.org/2000/svg" xmlns:xlink="http://www.w3.org/1999/xlink" xml:space="preserve" xmlns:serif="http://www.serif.com/" style="fill-rule:evenodd;clip-rule:evenodd;stroke-linejoin:round;stroke-miterlimit:2;"><path d="M172300,155222c-2457.27,-16773.5 -4777.88,-32616.7 -4777.88,-42192.5c0,-19778.6 10014.2,-60073.3 10115.6,-60477.9c397.045,-1588.1 -404.275,-3248.9 -1894.46,-3926.43l-25675.7,-11672l76.629,-87.7c2421.48,-2767.38 3757.2,-6322.29 3757.2,-9999.5c-0,-6946.04 -4765.96,-13049 -11504.9,-14732.4l-4700.42,-1175.42c-270.475,-64.438 -547.88,-95.184 -825.9,-91.53l-0,-10.216l-47680.8,-0l0,10.641c-278.004,-3.795 -555.412,26.805 -825.9,91.105l-4700.42,1175.42c-6737.83,1684.26 -11502.5,7786.62 -11502.5,14731.8c-0,3677.1 1335.63,7231.92 3756.97,9999.25l76.629,87.7l-25677.8,11672.9c-1490.18,677.529 -2291.5,2338.33 -1894.46,3926.43c101.321,404.863 10115.6,40699 10115.6,60477.9c-0,9575.75 -2320.61,25419 -4777.88,42192.5c-2672.26,18257.1 -5439.46,37136.2 -5439.46,49763.3c-0.004,1639.36 1183.65,3057.62 2796.57,3350.86c1541.97,280.125 38040.4,6866.46 61913.3,6866.46c23872.8,-0 60371.2,-6586.33 61913.3,-6866.46c1612.92,-293.242 2796.58,-1711.5 2796.57,-3350.86c-0,-12627.3 -2767.2,-31506.4 -5439.46,-49763.3l-0.35,-0.042Zm-107238,-49004.2l44561.7,-0l-0,20434.7l-45154.6,0c520.962,-4523.46 814.512,-9070.21 879.541,-13623.1c0,-2092 -103.025,-4384.92 -286.512,-6811.54l-0.113,-0.041Zm51373.3,-0l44561.7,-0c-183.483,2426.62 -286.508,4719.54 -286.508,6811.54c65.025,4552.88 358.575,9099.62 879.542,13623.1l-45154.6,-0l0,-20434.7l-0.116,0.042Zm45943.8,27246.2c793.545,6347.96 1796.97,13286.8 2842.55,20434.7l-48786.2,-0l0,-20434.7l45943.8,0l-0.045,0Zm-706.967,-34057.8l-45236.8,0l-0,-20434.7l48481.2,0c-1268.65,6710.21 -2456.84,13836 -3244.43,20434.7Zm-52048.3,0l-45236.8,0c-787.588,-6598.71 -1975.78,-13724.4 -3244.43,-20434.7l48481.2,0l0,20434.7Zm-45944.2,34057.8l45944.1,0l0,20434.7l-48787.9,-0c1046.85,-7147.88 2050.28,-14086.7 2843.82,-20434.7Zm45944.1,27246.2l0,20434.7l-52595.4,0c808.87,-6546.33 1799.95,-13491.5 2812.32,-20434.7l49783.1,0Zm6811.36,0l49783.1,0c1012.37,6943.08 2000.89,13888.3 2812.32,20434.7l-52595.4,0l-0,-20434.7Zm53921.4,-107052c-871.454,3634.81 -2460.25,10459.5 -4100.55,18501.5l-49820.4,0l0,-13023.2c741.042,62.725 1480.95,94.654 2219.72,95.788c7592.17,-1.805 14822.5,-3294.77 19807.5,-9021.04l6918.42,-7906.5l24975.4,11353.6l-0.121,-0.037Zm-31834.6,-35472.5l2220.57,553.438c3715.55,929.058 6342.96,4294.29 6342.96,8124.25c0,2027.75 -736.487,3988.06 -2071.68,5514.17l-11677.1,13348.5c-3698.21,4248.21 -9062.25,6691.12 -14694.6,6692.33l-85.141,-0l19965.1,-34232.7l-0.042,0.02Zm-53206.7,554.713l2220.57,-553.438l19968.9,34232.3c-5660.92,14.383 -11058.1,-2429.45 -14781.9,-6693.21l-11679.2,-13347.2c-1335.14,-1526.1 -2071.6,-3486.38 -2071.6,-5514.08c0,-3830.08 2627.57,-7195.42 6343.29,-8124.33l-0.008,0.021Zm-4636.96,23564.1l6918.42,7906.5c4984.79,5726.58 12215.3,9019.62 19807.5,9021.04c737.916,-0 1477.82,-31.93 2219.71,-95.788l0,13023.2l-49820.4,0c-1640.3,-8041.88 -3229.1,-14866.6 -4100.55,-18501.5l24975.4,-11353.6l-0.121,0.038Zm-24437.7,145651l53383.3,-0l0,20392.1c-19338.8,-478.937 -45815.4,-4745.5 -54447.1,-6215.54c127.292,-4192.92 512.996,-8995.92 1063.88,-14176.5l-0.129,-0Zm60195,20392.1l-0,-20392.1l53385.4,-0c550.883,5180.62 936.587,9983.62 1064.3,14173.5c-8632.79,1471.3 -35104.6,5737.46 -54450,6218.5l0.279,0.041Zm-3405.88,-159976l-17911,-30704.3l35821.9,0l-17910.9,30704.3Z" style="fill-rule:nonzero;"/><path d="M103068,31290.8l9961.88,17081.2" style="fill:none;fill-rule:nonzero;"/></svg>