<!-- Generated by IcoMoon.io -->
<svg version="1.1" xmlns="http://www.w3.org/2000/svg" width="1024" height="1024" viewBox="0 0 1024 1024">
<title>clock-2</title>
<g id="icomoon-ignore">
</g>
<path d="M128 960c-11.732 0-21.334-9.6-21.334-21.334v-853.332c0-11.734 9.602-21.334 21.334-21.334h768c11.732 0 21.334 9.6 21.334 21.334v853.332c0 11.734-9.602 21.334-21.334 21.334h-768zM149.334 106.666v85.334h725.332v-85.334h-725.332zM149.334 234.666v682.668h725.332v-682.668h-725.332zM512 320c141.227 0 256 114.773 256 256s-114.773 256-256 256-256-114.773-256-256 114.773-256 256-256zM512 789.334c117.547 0 213.334-95.787 213.334-213.334s-95.787-213.334-213.334-213.334-213.334 95.787-213.334 213.334 95.787 213.334 213.334 213.334zM512 704c11.732 0 21.334 9.6 21.334 21.334 0 11.732-9.602 21.332-21.334 21.332-94.080 0-170.666-76.586-170.666-170.666 0-11.732 9.6-21.334 21.332-21.334 11.734 0 21.334 9.602 21.334 21.334 0 70.613 57.387 128 128 128zM256 128c11.732 0 21.334 9.6 21.334 21.334 0 11.732-9.602 21.332-21.334 21.332h-42.666c-11.734 0-21.334-9.6-21.334-21.332 0-11.734 9.6-21.334 21.334-21.334h42.666zM384 128c11.732 0 21.334 9.6 21.334 21.334 0 11.732-9.602 21.332-21.334 21.332h-42.666c-11.734 0-21.334-9.6-21.334-21.332 0-11.734 9.6-21.334 21.334-21.334h42.666z"></path>
</svg>
