<?xml version="1.0" encoding="UTF-8" standalone="no"?><!DOCTYPE svg PUBLIC "-//W3C//DTD SVG 1.1//EN" "http://www.w3.org/Graphics/SVG/1.1/DTD/svg11.dtd"><svg width="100%" height="100%" viewBox="0 0 3125 3125" version="1.1" xmlns="http://www.w3.org/2000/svg" xmlns:xlink="http://www.w3.org/1999/xlink" xml:space="preserve" xmlns:serif="http://www.serif.com/" style="fill-rule:evenodd;clip-rule:evenodd;stroke-linejoin:round;stroke-miterlimit:2;"><path d="M1394.96,3024.08l-496.462,0c-31.163,0 -56.425,-25.258 -56.425,-56.42l-0,-2811.41c-0,-31.163 25.262,-56.425 56.425,-56.425l1328.01,0c31.163,0 56.425,25.263 56.425,56.425l0,2811.41c0,31.162 -25.262,56.42 -56.425,56.42l-496.462,0c-3.591,0.717 -7.302,1.092 -11.1,1.092l-312.884,0c-3.798,0 -7.509,-0.375 -11.1,-1.092Zm775.121,-2532.88l-1215.16,0l-0,2420.03l394.712,-0.001l0,-1355.16c-43.489,-22.953 -70.704,-43.798 -70.704,-43.798c-16.554,-12.8 -24.662,-33.708 -21.071,-54.321l103.634,-594.837c4.508,-25.867 26.196,-45.046 52.108,-46.621l-19.808,-102.217c-3.205,-16.537 1.15,-33.641 11.866,-46.637c10.721,-12.996 26.684,-20.521 43.53,-20.521l221.683,0c16.841,0 32.808,7.525 43.525,20.521c10.721,12.996 15.071,30.1 11.867,46.637l-19.784,102.096l1.442,0c27.425,0 50.879,19.721 55.587,46.742l103.634,594.837c3.591,20.613 -4.517,41.521 -21.071,54.321c-0,0 -27.215,20.845 -70.704,43.798l-0,1355.16l394.712,-0.001l0,-2420.03Zm-707.6,2345.49l0,74.546l52.41,-0c-3.564,-12.369 -5.418,-25.281 -5.418,-38.384l-0,-0.008c-0,-19.967 -16.184,-36.154 -36.15,-36.154l-10.842,-0Zm154.872,-2.136c3.239,12.212 4.966,25.049 4.966,38.29l-0,0.008c-0,6.846 2.72,13.413 7.562,18.254c4.842,4.842 11.409,7.563 18.258,7.563l14.384,-0l-0,-60.654l-14.384,-0c-10.441,-0 -20.761,-1.178 -30.786,-3.461Zm-154.872,-110.71l10.842,-0c13.635,-0 26.842,1.831 39.379,5.26c-2.131,-9.7 -3.229,-19.671 -3.229,-29.756l-0,-0.008c-0,-19.963 -16.184,-36.15 -36.15,-36.15l-10.842,-0l0,60.654Zm154.872,-62.79c3.241,12.225 4.966,25.054 4.966,38.286l-0,0.008c-0,6.85 2.721,13.417 7.562,18.258c4.842,4.842 11.409,7.563 18.259,7.563l14.383,-0l-0,-60.654l-14.383,-0c-10.442,-0 -20.762,-1.178 -30.787,-3.461Zm-154.872,-110.71l10.842,-0c13.635,-0 26.842,1.831 39.379,5.26c-2.131,-9.7 -3.229,-19.671 -3.229,-29.756l-0,-0.008c-0,-19.967 -16.183,-36.15 -36.15,-36.15l-10.842,-0l0,60.654Zm154.872,-62.79c3.241,12.225 4.966,25.054 4.966,38.286l-0,0.008c-0,6.85 2.721,13.417 7.562,18.258c4.842,4.842 11.409,7.563 18.259,7.563l14.383,-0l-0,-60.654l-14.383,-0c-10.442,-0 -20.762,-1.178 -30.787,-3.461Zm-154.872,-171.364l0,60.654l10.842,-0c13.635,-0 26.842,1.831 39.38,5.26c-2.132,-9.702 -3.23,-19.672 -3.23,-29.756l-0,-0.008c-0,-19.967 -16.183,-36.15 -36.15,-36.15l-10.842,-0Zm154.872,-2.137c3.239,12.21 4.966,25.047 4.966,38.287l-0,0.008c-0,6.846 2.721,13.417 7.562,18.258c4.842,4.842 11.409,7.559 18.259,7.559l14.383,-0l-0,-60.65l-14.383,-0c-10.442,-0 -20.762,-1.178 -30.787,-3.462Zm-154.872,-110.713l10.842,-0c13.635,-0 26.842,1.831 39.379,5.26c-2.131,-9.698 -3.229,-19.668 -3.229,-29.752l-0,-0.008c-0,-19.967 -16.183,-36.15 -36.15,-36.15l-10.842,-0l0,60.65Zm154.872,-62.79c3.239,12.212 4.966,25.049 4.966,38.29l-0,0.008c-0,6.846 2.721,13.412 7.562,18.254c4.842,4.842 11.409,7.563 18.259,7.563l14.383,-0l-0,-60.655l-14.383,0c-10.442,0 -20.762,-1.177 -30.787,-3.46Zm-154.872,-110.71l10.842,-0c13.635,-0 26.842,1.831 39.379,5.26c-2.131,-9.698 -3.229,-19.668 -3.229,-29.752l-0,-0.008c-0,-19.967 -16.183,-36.155 -36.15,-36.155l-10.842,0l0,60.655Zm154.872,-62.79c3.239,12.212 4.966,25.049 4.966,38.29l-0,0.008c-0,6.846 2.721,13.412 7.562,18.254c4.842,4.842 11.409,7.563 18.259,7.563l14.383,-0l-0,-60.655l-14.383,0c-10.442,0 -20.762,-1.177 -30.787,-3.46Zm-154.872,-110.71l10.842,-0c13.635,-0 26.842,1.831 39.379,5.26c-2.131,-9.698 -3.229,-19.668 -3.229,-29.752l-0,-0.008c-0,-19.967 -16.183,-36.155 -36.15,-36.155l-10.842,0l0,60.655Zm154.872,-62.79c3.239,12.212 4.966,25.049 4.966,38.29l-0,0.008c-0,6.846 2.721,13.412 7.562,18.254c4.842,4.842 11.409,7.563 18.259,7.563l14.383,-0l-0,-60.655l-14.383,0c-10.442,0 -20.762,-1.177 -30.787,-3.46Zm-154.872,-110.71l10.842,-0c13.635,-0 26.842,1.831 39.379,5.26c-2.131,-9.7 -3.229,-19.671 -3.229,-29.756l-0,-0.009c-0,-19.962 -16.183,-36.15 -36.15,-36.15l-10.842,0l0,60.655Zm200.042,1.325l-0,-82.853c-15.426,4.184 -31.399,7.655 -47.74,10.11c4.889,14.748 7.536,30.522 7.536,46.914l-0,0.008c-0,6.85 2.721,13.417 7.562,18.258c4.842,4.842 11.409,7.563 18.259,7.563l14.383,-0Zm7.429,-700.575c-10.137,15.72 -27.775,25.841 -47.412,25.841l-125.017,0c-17.271,0 -32.988,-7.825 -43.417,-20.4l-78.854,452.604c37.671,23.521 109.813,60.967 187.25,60.967c77.438,0 149.579,-37.446 187.25,-60.967l-79.8,-458.045Zm-163.875,208.658l0,185.092c0,31.141 25.283,56.425 56.425,56.425c31.142,-0 56.425,-25.284 56.425,-56.425l0,-185.092c0,-31.142 -25.283,-56.425 -56.425,-56.425c-31.142,-0 -56.425,25.283 -56.425,56.425Zm96.388,-432.275l-84.871,-0l26.471,136.612l31.933,0l26.467,-136.612Zm-647.542,-547.3l-0,165.683l1215.16,0l0,-165.683l-1215.16,-0Z"/></svg>